<svg xmlns="http://www.w3.org/2000/svg">
<defs>
<font id="Zilla Slab">
<font-face  font-family="Zilla Slab" units-per-em="1000" ascent="787" descent="-213" font-style="normal" font-weight="400" font-stretch="normal" cap-height="650" x-height="445" underline-position="-75" underline-thickness="50" />

<glyph glyph-name="uni0020" unicode="&#x20;" horiz-adv-x="227" d="" />
<glyph glyph-name="uni0041" unicode="A" horiz-adv-x="648" d="M655 0 L424 0 L424 64 L511 64 L464 189 L186 189 L136 64 L230 64 L230 0 L1 0 L1 64 L62 64 L275 586 L171 586 L171 650 L356 650 L589 64 L655 64 L655 0 Z M443 246 L331 544 L325 544 L208 246 L443 246 Z " />
<glyph glyph-name="uni0042" unicode="B" horiz-adv-x="604" d="M564 184 Q564 107 509 53.5 Q454 0 346 0 L42 0 L42 64 L124 64 L124 586 L42 586 L42 650 L341 650 Q440 650 488.5 607 Q537 564 537 494 Q537 442 506 403 Q475 364 425 354 L425 350 Q496 339 530 292.5 Q564 246 564 184 Z M459 477 Q459 538 424.5 562 Q390 586 329 586 L197 586 L197 366 L326 366 Q384 366 421.5 394.5 Q459 423 459 477 Z M486 188 Q486 243 453.5 274.5 Q421 306 357 306 L197 306 L197 64 L333 64 Q403 64 444.5 93.5 Q486 123 486 188 Z " />
<glyph glyph-name="uni0043" unicode="C" horiz-adv-x="646" d="M575 50 Q497 -10 358 -10 Q216 -10 128 84.5 Q40 179 40 321 Q40 411 78 488.5 Q116 566 185 613 Q254 660 349 660 Q430 660 484.5 639 Q539 618 579 584 L597 459 L534 453 L516 548 Q484 569 447 581.5 Q410 594 355 594 Q248 594 182.5 518 Q117 442 117 324 Q117 203 184.5 129.5 Q252 56 368 56 Q453 56 511 85 L530 181 L592 175 L575 50 Z " />
<glyph glyph-name="uni0044" unicode="D" horiz-adv-x="705" d="M665 326 Q665 183 577.5 91.5 Q490 0 336 0 L42 0 L42 63 L124 63 L124 587 L42 587 L42 650 L333 650 Q492 650 578.5 558.5 Q665 467 665 326 Z M587 325 Q587 443 521.5 515 Q456 587 332 587 L197 587 L197 63 L332 63 Q456 63 521.5 133.5 Q587 204 587 325 Z " />
<glyph glyph-name="uni0045" unicode="E" horiz-adv-x="588" d="M526 0 L42 0 L42 64 L124 64 L124 586 L42 586 L42 650 L517 650 L537 466 L473 459 L453 586 L197 586 L197 362 L504 362 L504 298 L197 298 L197 64 L462 64 L482 191 L545 184 L526 0 Z " />
<glyph glyph-name="uni0046" unicode="F" horiz-adv-x="558" d="M535 463 L469 456 L449 586 L197 586 L197 333 L496 333 L496 269 L197 269 L197 64 L312 64 L312 0 L42 0 L42 64 L124 64 L124 586 L42 586 L42 650 L514 650 L535 463 Z " />
<glyph glyph-name="uni0047" unicode="G" horiz-adv-x="691" d="M664 270 L613 270 L613 0 L557 0 L548 90 Q519 47 465.5 18.5 Q412 -10 340 -10 Q206 -10 123 86 Q40 182 40 322 Q40 416 80.5 492.5 Q121 569 192.5 614.5 Q264 660 357 660 Q435 660 493.5 638.5 Q552 617 589 584 L607 462 L545 455 L525 547 Q498 565 459.5 579.5 Q421 594 361 594 Q252 594 185 519 Q118 444 118 325 Q118 204 182 130 Q246 56 353 56 Q442 56 491 104.5 Q540 153 540 212 L540 270 L385 270 L385 335 L664 335 L664 270 Z " />
<glyph glyph-name="uni0048" unicode="H" horiz-adv-x="755" d="M713 0 L476 0 L476 64 L558 64 L558 300 L197 300 L197 64 L279 64 L279 0 L42 0 L42 64 L124 64 L124 586 L42 586 L42 650 L279 650 L279 586 L197 586 L197 362 L558 362 L558 586 L476 586 L476 650 L713 650 L713 586 L631 586 L631 64 L713 64 L713 0 Z " />
<glyph glyph-name="uni0049" unicode="I" horiz-adv-x="322" d="M279 0 L42 0 L42 64 L124 64 L124 586 L42 586 L42 650 L279 650 L279 586 L198 586 L198 64 L279 64 L279 0 Z " />
<glyph glyph-name="uni004A" unicode="J" horiz-adv-x="456" d="M418 586 L346 586 L346 166 Q346 78 302 34 Q258 -10 179 -10 Q115 -10 76.5 17.5 Q38 45 17 89 L70 129 Q91 88 115.5 73.5 Q140 59 173 59 Q226 59 249.5 88 Q273 117 273 166 L273 586 L144 586 L144 650 L418 650 L418 586 Z " />
<glyph glyph-name="uni004B" unicode="K" horiz-adv-x="642" d="M635 0 L401 0 L401 64 L478 64 L306 299 L198 299 L198 64 L273 64 L273 0 L42 0 L42 64 L124 64 L124 586 L42 586 L42 650 L274 650 L274 586 L198 586 L198 362 L304 362 L471 587 L394 587 L394 651 L623 651 L623 587 L549 587 L362 338 L562 64 L635 64 L635 0 Z " />
<glyph glyph-name="uni004C" unicode="L" horiz-adv-x="545" d="M511 0 L42 0 L42 64 L124 64 L124 586 L42 586 L42 650 L306 650 L306 586 L197 586 L197 64 L446 64 L466 213 L531 208 L511 0 Z " />
<glyph glyph-name="uni004D" unicode="M" horiz-adv-x="882" d="M842 586 L757 586 L757 64 L838 64 L838 0 L607 0 L607 64 L683 64 L683 478 L679 478 L461 33 L422 33 L199 481 L195 481 L195 64 L273 64 L273 0 L43 0 L43 64 L125 64 L125 586 L40 586 L40 650 L189 650 L442 141 L446 141 L692 650 L842 650 L842 586 Z " />
<glyph glyph-name="uni004E" unicode="N" horiz-adv-x="738" d="M703 586 L622 586 L622 0 L575 0 L198 512 L194 512 L194 64 L297 64 L297 0 L49 0 L49 64 L124 64 L124 586 L38 586 L38 650 L178 650 L548 149 L552 149 L552 586 L454 586 L454 650 L703 650 L703 586 Z " />
<glyph glyph-name="uni004F" unicode="O" horiz-adv-x="729" d="M690 325 Q690 233 649 157 Q608 81 534 35.5 Q460 -10 362 -10 Q215 -10 127 88.5 Q39 187 39 325 Q39 465 129.5 562.5 Q220 660 364 660 Q510 660 600 562 Q690 464 690 325 Z M611 324 Q611 441 544 517.5 Q477 594 364 594 Q248 594 183 516 Q118 438 118 326 Q118 216 183 136 Q248 56 366 56 Q481 56 546 133.5 Q611 211 611 324 Z " />
<glyph glyph-name="uni0050" unicode="P" horiz-adv-x="574" d="M544 451 Q544 349 482 295.5 Q420 242 324 242 L197 242 L197 64 L309 64 L309 0 L42 0 L42 64 L124 64 L124 586 L42 586 L42 650 L318 650 Q439 650 491.5 591 Q544 532 544 451 Z M466 449 Q466 512 429 549 Q392 586 312 586 L197 586 L197 306 L315 306 Q466 306 466 449 Z " />
<glyph glyph-name="uni0051" unicode="Q" horiz-adv-x="736" d="M690 325 Q690 256 666 195.5 Q642 135 600 89 L675 13 L629 -33 L550 47 Q469 -10 362 -10 Q215 -10 127 88.5 Q39 187 39 325 Q39 465 129.5 562.5 Q220 660 364 660 Q510 660 600 562 Q690 464 690 325 Z M611 324 Q611 441 544 517.5 Q477 594 364 594 Q248 594 183 516 Q118 438 118 326 Q118 216 183 136 Q248 56 366 56 Q445 56 502 96 L381 218 L428 264 L550 140 Q611 212 611 324 Z " />
<glyph glyph-name="uni0052" unicode="R" horiz-adv-x="617" d="M607 0 L477 0 L337 272 L198 272 L198 64 L285 64 L285 0 L42 0 L42 64 L124 64 L124 586 L42 586 L42 650 L323 650 Q444 650 496 597.5 Q548 545 548 466 Q548 403 513 353.5 Q478 304 409 286 L525 64 L607 64 L607 0 Z M471 463 Q471 527 434 556.5 Q397 586 314 586 L198 586 L198 333 L316 333 Q399 333 435 367.5 Q471 402 471 463 Z " />
<glyph glyph-name="uni0053" unicode="S" horiz-adv-x="533" d="M490 182 Q490 88 423.5 39 Q357 -10 258 -10 Q122 -10 49 43 L63 171 L123 165 L119 83 Q152 66 185 60 Q218 54 254 54 Q318 54 364.5 81.5 Q411 109 411 175 Q411 249 360 271.5 Q309 294 249 308 Q203 318 158 333.5 Q113 349 83 382.5 Q53 416 53 480 Q53 572 114.5 616 Q176 660 260 660 Q314 660 369 645 Q424 630 455 606 L461 477 L401 471 L391 568 Q360 584 328 589.5 Q296 595 267 595 Q206 595 168.5 567.5 Q131 540 131 488 Q131 427 176 406 Q221 385 276 372 Q320 362 369.5 346.5 Q419 331 454.5 293.5 Q490 256 490 182 Z " />
<glyph glyph-name="uni0054" unicode="T" horiz-adv-x="620" d="M599 452 L534 447 L514 586 L346 586 L346 64 L461 64 L461 0 L161 0 L161 64 L273 64 L273 586 L105 586 L85 447 L21 452 L40 650 L579 650 L599 452 Z " />
<glyph glyph-name="uni0055" unicode="U" horiz-adv-x="718" d="M680 586 L617 586 L617 267 Q617 198 593.5 134.5 Q570 71 513.5 30.5 Q457 -10 357 -10 Q212 -10 157.5 70.5 Q103 151 103 256 L103 586 L36 586 L36 650 L267 650 L267 586 L177 586 L177 258 Q177 162 222 109 Q267 56 361 56 Q548 56 548 267 L548 586 L455 586 L455 650 L680 650 L680 586 Z " />
<glyph glyph-name="uni0056" unicode="V" horiz-adv-x="648" d="M649 586 L588 586 L353 0 L295 0 L60 586 L-4 586 L-4 650 L231 650 L231 586 L140 586 L326 108 L331 108 L513 586 L421 586 L421 650 L649 650 L649 586 Z " />
<glyph glyph-name="uni0057" unicode="W" horiz-adv-x="934" d="M929 586 L874 586 L700 0 L641 0 L470 520 L466 520 L300 0 L241 0 L55 586 L0 586 L0 650 L225 650 L225 586 L133 586 L270 119 L274 119 L424 586 L359 586 L359 650 L583 650 L583 586 L518 586 L670 116 L674 116 L800 586 L706 586 L706 650 L929 650 L929 586 Z " />
<glyph glyph-name="uni0058" unicode="X" horiz-adv-x="632" d="M625 0 L398 0 L398 64 L478 64 L312 286 L153 64 L230 64 L230 0 L6 0 L6 64 L73 64 L275 336 L82 586 L17 586 L17 650 L239 650 L239 586 L166 586 L317 386 L461 586 L395 586 L395 650 L615 650 L615 586 L543 586 L354 337 L563 64 L625 64 L625 0 Z " />
<glyph glyph-name="uni0059" unicode="Y" horiz-adv-x="613" d="M610 586 L546 586 L344 248 L344 64 L458 64 L458 0 L159 0 L159 64 L271 64 L271 249 L60 586 L-4 586 L-4 650 L233 650 L233 586 L144 586 L308 316 L313 316 L472 586 L382 586 L382 650 L610 650 L610 586 Z " />
<glyph glyph-name="uni005A" unicode="Z" horiz-adv-x="577" d="M514 0 L34 0 L32 44 L416 583 L416 586 L136 586 L108 453 L46 462 L71 650 L519 650 L521 610 L135 67 L135 64 L449 64 L477 202 L540 193 L514 0 Z " />
<glyph glyph-name="uni0061" unicode="a" horiz-adv-x="483" d="M81 411 Q116 434 155 444 Q194 454 238 454 Q397 454 397 305 L397 93 Q397 45 435 45 Q452 45 465 51 L466 5 Q439 -10 408 -10 Q329 -10 327 80 L327 82 Q306 46 267.5 18 Q229 -10 175 -10 Q131 -10 85.5 17 Q40 44 40 115 Q40 199 106.5 225.5 Q173 252 248 252 Q268 252 288.5 251 Q309 250 327 248 L327 288 Q327 336 306.5 366 Q286 396 226 396 Q177 396 140 378 L123 301 L65 308 L81 411 Z M327 167 L327 201 Q308 202 287 204 Q266 206 244 206 Q194 206 153.5 190.5 Q113 175 113 123 Q113 80 140 64 Q167 48 196 48 Q242 48 282.5 80 Q323 112 327 167 Z " />
<glyph glyph-name="uni0062" unicode="b" horiz-adv-x="534" d="M496 234 Q496 175 476 119 Q456 63 412 26.5 Q368 -10 298 -10 Q186 -10 142 74 L132 0 L62 0 Q66 29 71 63 Q76 97 76 130 L76 631 L-1 631 L-1 688 L146 688 L146 353 Q166 394 203.5 424 Q241 454 305 454 Q388 454 442 397 Q496 340 496 234 Z M422 227 Q422 310 383 352 Q344 394 288 394 Q224 394 186 347 Q148 300 146 251 L146 184 Q146 128 185.5 89 Q225 50 283 50 Q356 50 389 104 Q422 158 422 227 Z " />
<glyph glyph-name="uni0063" unicode="c" horiz-adv-x="462" d="M428 150 Q419 92 375.5 41 Q332 -10 240 -10 Q148 -10 93 49.5 Q38 109 38 216 Q38 308 90 381 Q142 454 246 454 Q290 454 327 444 Q364 434 398 408 L415 301 L357 294 L340 369 Q300 394 245 394 Q174 394 143 343 Q112 292 112 220 Q112 140 147 95 Q182 50 248 50 Q348 50 368 163 L428 150 Z " />
<glyph glyph-name="uni0064" unicode="d" horiz-adv-x="549" d="M535 0 L388 0 L388 90 Q366 50 328 20 Q290 -10 229 -10 Q143 -10 90.5 48.5 Q38 107 38 211 Q38 300 84 377 Q130 454 239 454 Q343 454 388 373 L388 631 L280 631 L280 688 L458 688 L458 57 L535 57 L535 0 Z M388 197 L388 268 Q386 324 347 359 Q308 394 255 394 Q181 394 146.5 340 Q112 286 112 216 Q112 134 150.5 92 Q189 50 247 50 Q307 50 346.5 98.5 Q386 147 388 197 Z " />
<glyph glyph-name="uni0065" unicode="e" horiz-adv-x="470" d="M435 128 Q426 71 378 30.5 Q330 -10 248 -10 Q154 -10 96 49 Q38 108 38 216 Q38 320 93 387 Q148 454 242 454 Q334 454 382 396 Q430 338 431 259 Q431 233 425 206 L112 206 Q118 50 253 50 Q306 50 336 75 Q366 100 376 141 L435 128 Z M357 258 Q362 308 333.5 352 Q305 396 240 396 Q178 396 149 355 Q120 314 113 258 L357 258 Z " />
<glyph glyph-name="uni0066" unicode="f" horiz-adv-x="319" d="M260 698 Q291 698 315.5 692 Q340 686 363 666 L380 563 L323 556 L304 632 Q284 640 253 640 Q174 640 174 534 L174 445 L289 445 L289 389 L174 389 L174 57 L275 57 L275 0 L26 0 L26 57 L103 57 L103 389 L39 389 L39 445 L103 445 L103 528 Q103 606 149.5 652 Q196 698 260 698 Z " />
<glyph glyph-name="uni0067" unicode="g" horiz-adv-x="548" d="M531 388 L459 388 L459 6 Q459 -99 401.5 -161 Q344 -223 240 -223 Q170 -223 114.5 -191 Q59 -159 41 -92 L97 -64 Q114 -116 156 -139.5 Q198 -163 243 -163 Q307 -163 347.5 -118.5 Q388 -74 388 9 L388 91 Q368 52 330 23 Q292 -6 229 -6 Q150 -6 94 50 Q38 106 38 211 Q38 300 86 377 Q134 454 237 454 Q343 454 388 375 L388 445 L531 445 L531 388 Z M388 192 L388 269 Q388 325 349.5 359.5 Q311 394 256 394 Q181 394 147.5 340 Q114 286 114 216 Q114 134 151.5 94 Q189 54 244 54 Q308 54 347 98 Q386 142 388 192 Z " />
<glyph glyph-name="uni0068" unicode="h" horiz-adv-x="560" d="M551 0 L325 0 L325 57 L403 57 L403 264 Q403 336 373.5 365.5 Q344 395 298 395 Q240 395 203.5 355.5 Q167 316 165 267 L165 57 L242 57 L242 0 L17 0 L17 57 L94 57 L94 631 L17 631 L17 688 L165 688 L165 365 Q214 454 321 454 Q386 454 430 414 Q474 374 474 285 L474 57 L551 57 L551 0 Z " />
<glyph glyph-name="uni0069" unicode="i" horiz-adv-x="280" d="M105 560 L105 651 L181 651 L181 560 L105 560 Z M260 0 L34 0 L34 57 L112 57 L112 388 L32 388 L32 445 L182 445 L182 57 L260 57 L260 0 Z " />
<glyph glyph-name="uni006A" unicode="j" horiz-adv-x="252" d="M101 560 L101 651 L177 651 L177 560 L101 560 Z M177 -13 Q177 -140 122.5 -185.5 Q68 -231 -14 -224 L-16 -170 Q12 -170 40 -161 Q68 -152 87 -118.5 Q106 -85 106 -13 L106 388 L7 388 L7 445 L177 445 L177 -13 Z " />
<glyph glyph-name="uni006B" unicode="k" horiz-adv-x="520" d="M509 0 L299 0 L299 57 L366 57 L244 208 L165 208 L165 57 L229 57 L229 0 L17 0 L17 57 L94 57 L94 631 L15 631 L15 688 L165 688 L165 262 L245 262 L347 388 L278 388 L278 445 L486 445 L486 388 L418 388 L299 241 L446 57 L509 57 L509 0 Z " />
<glyph glyph-name="uni006C" unicode="l" horiz-adv-x="266" d="M246 0 L20 0 L20 57 L98 57 L98 631 L19 631 L19 688 L168 688 L168 57 L246 57 L246 0 Z " />
<glyph glyph-name="uni006D" unicode="m" horiz-adv-x="863" d="M854 0 L641 0 L641 57 L706 57 L706 264 Q706 336 677.5 365.5 Q649 395 605 395 Q544 395 511 349 Q478 303 477 261 L477 57 L554 57 L554 0 L342 0 L342 57 L406 57 L406 264 Q406 337 378 366 Q350 395 307 395 Q245 395 212.5 350.5 Q180 306 178 263 L178 57 L260 57 L260 0 L30 0 L30 57 L108 57 L108 388 L29 388 L29 445 L178 445 L178 362 Q200 402 237 428 Q274 454 327 454 Q379 454 417.5 428 Q456 402 470 347 Q490 394 529.5 424 Q569 454 627 454 Q691 454 733.5 414 Q776 374 776 285 L776 57 L854 57 L854 0 Z " />
<glyph glyph-name="uni006E" unicode="n" horiz-adv-x="573" d="M564 0 L339 0 L339 57 L416 57 L416 264 Q416 336 387 365.5 Q358 395 313 395 Q253 395 216.5 355.5 Q180 316 178 265 L178 57 L256 57 L256 0 L30 0 L30 57 L108 57 L108 388 L28 388 L28 445 L178 445 L178 366 Q226 454 334 454 Q399 454 443 414 Q487 374 487 285 L487 57 L564 57 L564 0 Z " />
<glyph glyph-name="uni006F" unicode="o" horiz-adv-x="513" d="M476 223 Q476 122 416 56 Q356 -10 253 -10 Q152 -10 94.5 54 Q37 118 37 219 Q37 316 93 385.5 Q149 455 257 455 Q366 455 421 386.5 Q476 318 476 223 Z M402 224 Q402 300 363.5 347.5 Q325 395 255 395 Q185 395 147.5 346 Q110 297 110 223 Q110 150 147 100 Q184 50 255 50 Q326 50 364 99.5 Q402 149 402 224 Z " />
<glyph glyph-name="uni0070" unicode="p" horiz-adv-x="550" d="M512 235 Q512 176 491.5 119.5 Q471 63 426.5 26.5 Q382 -10 309 -10 Q208 -10 162 65 L162 -156 L265 -156 L265 -213 L13 -213 L13 -156 L92 -156 L92 388 L12 388 L12 445 L162 445 L162 352 Q182 392 220 423 Q258 454 320 454 Q406 454 459 396 Q512 338 512 235 Z M438 229 Q438 309 399 351.5 Q360 394 302 394 Q242 394 203 346.5 Q164 299 162 248 L162 182 Q162 126 201 88 Q240 50 295 50 Q370 50 404 104 Q438 158 438 229 Z " />
<glyph glyph-name="uni0071" unicode="q" horiz-adv-x="534" d="M527 -213 L284 -213 L284 -156 L388 -156 L388 91 Q368 50 330 20 Q292 -10 229 -10 Q146 -10 92 47 Q38 104 38 210 Q38 268 58 324.5 Q78 381 122 417.5 Q166 454 236 454 Q288 454 330.5 431.5 Q373 409 394 368 Q396 387 398 406.5 Q400 426 404 445 L474 445 Q467 410 463 376 Q459 342 459 307 L459 -156 L527 -156 L527 -213 Z M388 197 L388 264 Q388 320 347.5 357 Q307 394 251 394 Q178 394 145 340 Q112 286 112 217 Q112 134 151 92 Q190 50 246 50 Q309 50 347.5 98.5 Q386 147 388 197 Z " />
<glyph glyph-name="uni0072" unicode="r" horiz-adv-x="420" d="M284 453 Q332 453 360 430 L377 318 L320 311 L303 387 Q286 393 269 393 Q230 393 204 360.5 Q178 328 178 276 L178 57 L281 57 L281 0 L30 0 L30 57 L108 57 L108 388 L28 388 L28 445 L174 445 L174 365 Q187 402 216.5 427.5 Q246 453 284 453 Z " />
<glyph glyph-name="uni0073" unicode="s" horiz-adv-x="438" d="M399 129 Q399 64 344.5 27 Q290 -10 210 -10 Q163 -10 116.5 2.5 Q70 15 41 34 L55 135 L111 129 L108 70 Q154 48 207 48 Q254 48 290.5 66.5 Q327 85 327 123 Q327 160 299 175 Q271 190 229.5 197 Q188 204 146 214 Q104 224 76 248.5 Q48 273 48 325 Q48 396 100 425 Q152 454 213 454 Q259 454 299.5 442 Q340 430 368 413 L379 309 L321 302 L310 374 Q268 396 219 396 Q177 396 150 380 Q123 364 123 330 Q123 295 151 280.5 Q179 266 220 259.5 Q261 253 302 243 Q343 233 371 207.5 Q399 182 399 129 Z " />
<glyph glyph-name="uni0074" unicode="t" horiz-adv-x="371" d="M366 120 Q348 -10 225 -10 Q158 -10 122.5 28 Q87 66 87 131 L87 389 L15 389 L15 445 L87 445 L87 588 L157 588 L157 445 L331 445 L331 389 L157 389 L157 140 Q157 100 174.5 75.5 Q192 51 232 51 Q258 51 280.5 67 Q303 83 313 137 L366 120 Z " />
<glyph glyph-name="uni0075" unicode="u" horiz-adv-x="561" d="M546 0 L396 0 L396 84 Q375 42 334.5 16 Q294 -10 241 -10 Q176 -10 131.5 30.5 Q87 71 87 160 L87 388 L9 388 L9 445 L157 445 L157 180 Q157 108 187 79 Q217 50 264 50 Q321 50 357.5 93 Q394 136 396 184 L396 388 L303 388 L303 445 L466 445 L466 57 L546 57 L546 0 Z " />
<glyph glyph-name="uni0076" unicode="v" horiz-adv-x="509" d="M500 388 L446 388 L283 0 L229 0 L59 388 L7 388 L7 445 L212 445 L212 388 L135 388 L259 95 L265 95 L376 388 L305 388 L305 445 L500 445 L500 388 Z " />
<glyph glyph-name="uni0077" unicode="w" horiz-adv-x="766" d="M756 388 L705 388 L574 0 L520 0 L384 340 L379 340 L246 0 L194 0 L58 388 L9 388 L9 445 L219 445 L219 388 L134 388 L227 107 L232 107 L364 445 L411 445 L550 107 L555 107 L637 388 L556 388 L556 445 L756 445 L756 388 Z " />
<glyph glyph-name="uni0078" unicode="x" horiz-adv-x="514" d="M498 0 L302 0 L302 57 L360 57 L256 185 L151 57 L204 57 L204 0 L19 0 L19 57 L80 57 L220 222 L79 388 L19 388 L19 445 L222 445 L222 388 L162 388 L262 262 L365 388 L312 388 L312 445 L490 445 L490 388 L438 388 L299 226 L442 57 L498 57 L498 0 Z " />
<glyph glyph-name="uni0079" unicode="y" horiz-adv-x="511" d="M502 388 L449 388 L292 0 L232 -156 L308 -156 L308 -213 L82 -213 L82 -156 L165 -156 L223 1 L61 388 L8 388 L8 445 L214 445 L214 388 L136 388 L261 89 L267 89 L378 388 L306 388 L306 445 L502 445 L502 388 Z " />
<glyph glyph-name="uni007A" unicode="z" horiz-adv-x="464" d="M413 0 L39 0 L36 43 L316 388 L106 388 L93 299 L37 306 L49 445 L407 445 L410 403 L128 57 L357 57 L380 147 L437 138 L413 0 Z " />
<glyph glyph-name="uni0030" unicode="0" horiz-adv-x="576" d="M529 259 Q529 135 466 62.5 Q403 -10 286 -10 Q168 -10 107.5 62.5 Q47 135 47 256 Q47 374 108.5 452.5 Q170 531 290 531 Q413 531 471 452.5 Q529 374 529 259 Z M452 262 Q452 356 412.5 411 Q373 466 289 466 Q206 466 165.5 412.5 Q125 359 125 261 Q125 163 166 109 Q207 55 288 55 Q452 55 452 262 Z " />
<glyph glyph-name="uni0031" unicode="1" horiz-adv-x="385" d="M365 0 L52 0 L52 64 L174 64 L174 457 L52 457 L52 521 L248 521 L248 64 L365 64 L365 0 Z " />
<glyph glyph-name="uni0032" unicode="2" horiz-adv-x="515" d="M76 487 Q112 508 161.5 519.5 Q211 531 255 531 Q353 531 394.5 481 Q436 431 436 376 Q436 307 385.5 248.5 Q335 190 266.5 143.5 Q198 97 143 64 L403 64 L412 144 L473 139 L462 0 L56 0 L48 57 Q190 153 274 223.5 Q358 294 358 368 Q358 468 239 468 Q218 468 188 462 Q158 456 133 445 L117 370 L59 377 L76 487 Z " />
<glyph glyph-name="uni0033" unicode="3" horiz-adv-x="489" d="M66 479 Q94 498 139.5 514.5 Q185 531 235 531 Q314 531 365.5 490 Q417 449 417 372 Q417 323 389.5 281.5 Q362 240 292 218 L292 214 Q381 199 413 153 Q445 107 445 50 Q445 -37 388.5 -89 Q332 -141 234 -141 Q142 -141 94 -100 Q46 -59 34 0 L91 20 Q105 -20 137 -49 Q169 -78 232 -78 Q312 -78 339.5 -37 Q367 4 367 54 Q367 113 325 146 Q283 179 178 182 L178 236 Q272 240 306 280.5 Q340 321 340 363 Q340 412 308.5 440 Q277 468 221 468 Q172 468 125 443 L107 362 L49 369 L66 479 Z " />
<glyph glyph-name="uni0034" unicode="4" horiz-adv-x="539" d="M408 -131 L336 -131 L336 34 L27 34 L19 96 L252 521 L408 521 L408 96 L513 96 L505 34 L408 34 L408 -131 Z M336 96 L336 458 L287 458 L90 96 L336 96 Z " />
<glyph glyph-name="uni0035" unicode="5" horiz-adv-x="512" d="M470 64 Q470 -33 414 -86.5 Q358 -140 257 -140 Q168 -140 118.5 -99.5 Q69 -59 57 0 L114 20 Q128 -24 162.5 -51 Q197 -78 251 -78 Q323 -78 357.5 -40.5 Q392 -3 392 61 Q392 155 330 180.5 Q268 206 187 206 Q144 206 103 203 L78 227 L78 521 L440 521 L449 383 L388 377 L378 458 L146 458 L146 267 Q158 268 171 268 Q184 268 196 268 Q266 268 328.5 252.5 Q391 237 430.5 193 Q470 149 470 64 Z " />
<glyph glyph-name="uni0036" unicode="6" horiz-adv-x="531" d="M483 205 Q483 116 433.5 53 Q384 -10 273 -10 Q142 -10 95 80 Q48 170 48 307 Q48 457 101.5 558.5 Q155 660 286 660 Q348 660 392 638 Q436 616 472 572 L429 528 Q374 597 285 597 Q192 597 159 523.5 Q126 450 125 314 Q124 312 124 303 Q124 294 124 293 Q139 334 180 368.5 Q221 403 300 403 Q399 403 441 344 Q483 285 483 205 Z M409 202 Q409 268 379.5 304 Q350 340 282 340 Q200 340 166.5 293 Q133 246 129 200 Q138 136 170 96 Q202 56 275 56 Q347 56 378 95 Q409 134 409 202 Z " />
<glyph glyph-name="uni0037" unicode="7" horiz-adv-x="471" d="M455 479 L208 -130 L135 -130 L377 458 L100 458 L100 347 L34 347 L34 521 L445 521 L455 479 Z " />
<glyph glyph-name="uni0038" unicode="8" horiz-adv-x="538" d="M495 163 Q495 83 429 36.5 Q363 -10 264 -10 Q168 -10 106.5 33 Q45 76 45 160 Q45 234 91.5 271 Q138 308 197 333 Q143 359 102.5 395.5 Q62 432 62 494 Q62 567 119.5 613.5 Q177 660 268 660 Q356 660 415 616 Q474 572 474 498 Q474 435 432 401.5 Q390 368 336 345 Q398 316 446.5 276 Q495 236 495 163 Z M400 493 Q400 547 361 572.5 Q322 598 268 598 Q212 598 175.5 572.5 Q139 547 139 502 Q139 452 181.5 423 Q224 394 280 369 Q336 394 368 420 Q400 446 400 493 Z M418 160 Q418 218 366 249 Q314 280 250 309 Q194 285 156 255.5 Q118 226 118 170 Q118 113 159.5 82.5 Q201 52 266 52 Q330 52 374 80 Q418 108 418 160 Z " />
<glyph glyph-name="uni0039" unicode="9" horiz-adv-x="531" d="M48 316 Q48 404 98 467.5 Q148 531 258 531 Q388 531 435.5 440.5 Q483 350 483 214 Q483 64 429.5 -37.5 Q376 -139 245 -139 Q183 -139 139 -117 Q95 -95 59 -51 L102 -7 Q157 -76 246 -76 Q339 -76 371.5 -2.5 Q404 71 406 207 Q407 208 407 217 Q407 226 407 228 Q392 188 351 153 Q310 118 231 118 Q132 118 90 177 Q48 236 48 316 Z M122 319 Q122 253 152 217 Q182 181 249 181 Q331 181 364.5 228 Q398 275 402 321 Q393 385 361.5 425 Q330 465 256 465 Q184 465 153 426 Q122 387 122 319 Z " />
<glyph glyph-name="uni00C1" unicode="&#xc1;" horiz-adv-x="648" d="M482 745 L285 703 L274 740 L465 813 L482 745 Z M655 0 L424 0 L424 64 L511 64 L464 189 L186 189 L136 64 L230 64 L230 0 L1 0 L1 64 L62 64 L275 586 L171 586 L171 650 L356 650 L589 64 L655 64 L655 0 Z M443 246 L331 544 L325 544 L208 246 L443 246 Z " />
<glyph glyph-name="uni00C2" unicode="&#xc2;" horiz-adv-x="648" d="M460 737 L441 702 L321 764 L205 701 L186 734 L313 827 L334 827 L460 737 Z M655 0 L424 0 L424 64 L511 64 L464 189 L186 189 L136 64 L230 64 L230 0 L1 0 L1 64 L62 64 L275 586 L171 586 L171 650 L356 650 L589 64 L655 64 L655 0 Z M443 246 L331 544 L325 544 L208 246 L443 246 Z " />
<glyph glyph-name="uni00C4" unicode="&#xc4;" horiz-adv-x="648" d="M197 718 L197 803 L278 803 L278 718 L197 718 Z M369 718 L369 803 L449 803 L449 718 L369 718 Z M655 0 L424 0 L424 64 L511 64 L464 189 L186 189 L136 64 L230 64 L230 0 L1 0 L1 64 L62 64 L275 586 L171 586 L171 650 L356 650 L589 64 L655 64 L655 0 Z M443 246 L331 544 L325 544 L208 246 L443 246 Z " />
<glyph glyph-name="uni00C5" unicode="&#xc5;" horiz-adv-x="648" d="M421 784 Q421 743 396.5 716.5 Q372 690 322 690 Q224 690 224 782 Q224 823 250 848.5 Q276 874 323 874 Q374 874 397.5 848.5 Q421 823 421 784 Z M372 784 Q372 804 361 819 Q350 834 322 834 Q273 834 273 782 Q273 730 322 730 Q372 730 372 784 Z M655 0 L424 0 L424 64 L511 64 L464 189 L186 189 L136 64 L230 64 L230 0 L1 0 L1 64 L62 64 L275 586 L171 586 L171 650 L356 650 L589 64 L655 64 L655 0 Z M443 246 L331 544 L325 544 L208 246 L443 246 Z " />
<glyph glyph-name="uni00C0" unicode="&#xc0;" horiz-adv-x="648" d="M372 740 L362 703 L164 745 L181 813 L372 740 Z M655 0 L424 0 L424 64 L511 64 L464 189 L186 189 L136 64 L230 64 L230 0 L1 0 L1 64 L62 64 L275 586 L171 586 L171 650 L356 650 L589 64 L655 64 L655 0 Z M443 246 L331 544 L325 544 L208 246 L443 246 Z " />
<glyph glyph-name="uni00C3" unicode="&#xc3;" horiz-adv-x="648" d="M454 798 Q446 758 429 733.5 Q412 709 376 709 Q338 709 310 726.5 Q282 744 253 744 Q239 744 224.5 736.5 Q210 729 203 705 L170 718 Q174 744 194 772 Q214 800 252 800 Q285 800 310 782.5 Q335 765 371 765 Q384 765 397 772 Q410 779 418 807 L454 798 Z M655 0 L424 0 L424 64 L511 64 L464 189 L186 189 L136 64 L230 64 L230 0 L1 0 L1 64 L62 64 L275 586 L171 586 L171 650 L356 650 L589 64 L655 64 L655 0 Z M443 246 L331 544 L325 544 L208 246 L443 246 Z " />
<glyph glyph-name="uni0102" unicode="&#x102;" horiz-adv-x="648" d="M450 816 Q450 699 328 699 Q206 699 206 816 L264 816 Q264 776 280.5 761.5 Q297 747 328 747 Q392 747 392 816 L450 816 Z M655 0 L424 0 L424 64 L511 64 L464 189 L186 189 L136 64 L230 64 L230 0 L1 0 L1 64 L62 64 L275 586 L171 586 L171 650 L356 650 L589 64 L655 64 L655 0 Z M443 246 L331 544 L325 544 L208 246 L443 246 Z " />
<glyph glyph-name="uni0100" unicode="&#x100;" horiz-adv-x="648" d="M461 733 L182 733 L182 790 L461 790 L461 733 Z M655 0 L424 0 L424 64 L511 64 L464 189 L186 189 L136 64 L230 64 L230 0 L1 0 L1 64 L62 64 L275 586 L171 586 L171 650 L356 650 L589 64 L655 64 L655 0 Z M443 246 L331 544 L325 544 L208 246 L443 246 Z " />
<glyph glyph-name="uni0104" unicode="&#x104;" horiz-adv-x="648" d="M647 -189 Q610 -209 568 -209 Q522 -209 493 -185 Q464 -161 464 -118 Q464 -80 484.5 -49.5 Q505 -19 536 0 L424 0 L424 64 L511 64 L464 189 L186 189 L136 64 L230 64 L230 0 L1 0 L1 64 L62 64 L275 586 L171 586 L171 650 L356 650 L589 64 L655 64 L655 0 L590 0 Q554 -22 540 -48 Q526 -74 526 -99 Q526 -155 584 -155 Q613 -155 638 -140 L647 -189 Z M443 246 L331 544 L325 544 L208 246 L443 246 Z " />
<glyph glyph-name="uni00C6" unicode="&#xc6;" horiz-adv-x="919" d="M855 0 L372 0 L372 64 L453 64 L453 189 L194 189 L132 64 L222 64 L222 0 L-7 0 L-7 64 L59 64 L317 586 L220 586 L220 650 L846 650 L865 467 L801 459 L781 586 L527 586 L527 362 L833 362 L833 298 L527 298 L527 64 L790 64 L810 191 L874 184 L855 0 Z M453 246 L453 586 L387 586 L221 246 L453 246 Z " />
<glyph glyph-name="uni01FC" unicode="&#x1fc;" horiz-adv-x="919" d="M804 745 L607 703 L596 740 L787 813 L804 745 Z M855 0 L372 0 L372 64 L453 64 L453 189 L194 189 L132 64 L222 64 L222 0 L-7 0 L-7 64 L59 64 L317 586 L220 586 L220 650 L846 650 L865 467 L801 459 L781 586 L527 586 L527 362 L833 362 L833 298 L527 298 L527 64 L790 64 L810 191 L874 184 L855 0 Z M453 246 L453 586 L387 586 L221 246 L453 246 Z " />
<glyph glyph-name="uni01E2" unicode="&#x1e2;" horiz-adv-x="919" d="M798 733 L519 733 L519 790 L798 790 L798 733 Z M855 0 L372 0 L372 64 L453 64 L453 189 L194 189 L132 64 L222 64 L222 0 L-7 0 L-7 64 L59 64 L317 586 L220 586 L220 650 L846 650 L865 467 L801 459 L781 586 L527 586 L527 362 L833 362 L833 298 L527 298 L527 64 L790 64 L810 191 L874 184 L855 0 Z M453 246 L453 586 L387 586 L221 246 L453 246 Z " />
<glyph glyph-name="uni00C7" unicode="&#xc7;" horiz-adv-x="646" d="M463 -125 Q463 -170 430.5 -189.5 Q398 -209 355 -209 Q295 -209 259 -179 L276 -138 Q306 -161 351 -161 Q402 -161 402 -120 Q402 -95 385 -87.5 Q368 -80 344 -80 L314 -80 L314 -7 Q190 7 114.5 98.5 Q39 190 39 321 Q39 411 77 488.5 Q115 566 184.5 613 Q254 660 348 660 Q429 660 483.5 639 Q538 618 578 584 L596 459 L533 453 L515 548 Q484 569 446.5 581.5 Q409 594 354 594 Q248 594 182 518 Q116 442 116 324 Q116 203 183.5 129.5 Q251 56 367 56 Q452 56 510 85 L529 181 L591 175 L574 50 Q500 -7 366 -10 L366 -47 L374 -47 Q420 -47 441.5 -69.5 Q463 -92 463 -125 Z " />
<glyph glyph-name="uni0106" unicode="&#x106;" horiz-adv-x="646" d="M509 745 L312 703 L301 740 L492 813 L509 745 Z M575 50 Q497 -10 358 -10 Q216 -10 128 84.5 Q40 179 40 321 Q40 411 78 488.5 Q116 566 185 613 Q254 660 349 660 Q430 660 484.5 639 Q539 618 579 584 L597 459 L534 453 L516 548 Q484 569 447 581.5 Q410 594 355 594 Q248 594 182.5 518 Q117 442 117 324 Q117 203 184.5 129.5 Q252 56 368 56 Q453 56 511 85 L530 181 L592 175 L575 50 Z " />
<glyph glyph-name="uni010C" unicode="&#x10c;" horiz-adv-x="646" d="M494 792 L368 701 L346 701 L220 790 L240 824 L360 763 L475 827 L494 792 Z M575 50 Q497 -10 358 -10 Q216 -10 128 84.5 Q40 179 40 321 Q40 411 78 488.5 Q116 566 185 613 Q254 660 349 660 Q430 660 484.5 639 Q539 618 579 584 L597 459 L534 453 L516 548 Q484 569 447 581.5 Q410 594 355 594 Q248 594 182.5 518 Q117 442 117 324 Q117 203 184.5 129.5 Q252 56 368 56 Q453 56 511 85 L530 181 L592 175 L575 50 Z " />
<glyph glyph-name="uni0108" unicode="&#x108;" horiz-adv-x="646" d="M497 737 L478 702 L358 764 L242 701 L223 734 L350 827 L371 827 L497 737 Z M575 50 Q497 -10 358 -10 Q216 -10 128 84.5 Q40 179 40 321 Q40 411 78 488.5 Q116 566 185 613 Q254 660 349 660 Q430 660 484.5 639 Q539 618 579 584 L597 459 L534 453 L516 548 Q484 569 447 581.5 Q410 594 355 594 Q248 594 182.5 518 Q117 442 117 324 Q117 203 184.5 129.5 Q252 56 368 56 Q453 56 511 85 L530 181 L592 175 L575 50 Z " />
<glyph glyph-name="uni010A" unicode="&#x10a;" horiz-adv-x="646" d="M312 718 L312 803 L393 803 L393 718 L312 718 Z M575 50 Q497 -10 358 -10 Q216 -10 128 84.5 Q40 179 40 321 Q40 411 78 488.5 Q116 566 185 613 Q254 660 349 660 Q430 660 484.5 639 Q539 618 579 584 L597 459 L534 453 L516 548 Q484 569 447 581.5 Q410 594 355 594 Q248 594 182.5 518 Q117 442 117 324 Q117 203 184.5 129.5 Q252 56 368 56 Q453 56 511 85 L530 181 L592 175 L575 50 Z " />
<glyph glyph-name="uni010E" unicode="&#x10e;" horiz-adv-x="705" d="M441 792 L315 701 L293 701 L167 790 L187 824 L307 763 L422 827 L441 792 Z M665 326 Q665 183 577.5 91.5 Q490 0 336 0 L42 0 L42 63 L124 63 L124 587 L42 587 L42 650 L333 650 Q492 650 578.5 558.5 Q665 467 665 326 Z M587 325 Q587 443 521.5 515 Q456 587 332 587 L197 587 L197 63 L332 63 Q456 63 521.5 133.5 Q587 204 587 325 Z " />
<glyph glyph-name="uni0110" unicode="&#x110;" horiz-adv-x="706" d="M665 326 Q665 183 577.5 91.5 Q490 0 336 0 L42 0 L42 63 L124 63 L124 308 L46 308 L46 370 L124 370 L124 587 L42 587 L42 650 L333 650 Q492 650 578.5 558.5 Q665 467 665 326 Z M587 325 Q587 443 521.5 515 Q456 587 332 587 L197 587 L197 370 L332 370 L332 308 L197 308 L197 63 L332 63 Q456 63 521.5 133.5 Q587 204 587 325 Z " />
<glyph glyph-name="uni00C9" unicode="&#xc9;" horiz-adv-x="589" d="M465 745 L268 703 L257 740 L448 813 L465 745 Z M526 0 L42 0 L42 64 L124 64 L124 586 L42 586 L42 650 L517 650 L537 466 L473 459 L453 586 L197 586 L197 362 L504 362 L504 298 L197 298 L197 64 L462 64 L482 191 L545 184 L526 0 Z " />
<glyph glyph-name="uni00CA" unicode="&#xca;" horiz-adv-x="589" d="M468 737 L449 702 L329 764 L213 701 L194 734 L321 827 L342 827 L468 737 Z M526 0 L42 0 L42 64 L124 64 L124 586 L42 586 L42 650 L517 650 L537 466 L473 459 L453 586 L197 586 L197 362 L504 362 L504 298 L197 298 L197 64 L462 64 L482 191 L545 184 L526 0 Z " />
<glyph glyph-name="uni00CB" unicode="&#xcb;" horiz-adv-x="589" d="M196 718 L196 803 L277 803 L277 718 L196 718 Z M368 718 L368 803 L448 803 L448 718 L368 718 Z M526 0 L42 0 L42 64 L124 64 L124 586 L42 586 L42 650 L517 650 L537 466 L473 459 L453 586 L197 586 L197 362 L504 362 L504 298 L197 298 L197 64 L462 64 L482 191 L545 184 L526 0 Z " />
<glyph glyph-name="uni00C8" unicode="&#xc8;" horiz-adv-x="589" d="M397 740 L387 703 L189 745 L206 813 L397 740 Z M526 0 L42 0 L42 64 L124 64 L124 586 L42 586 L42 650 L517 650 L537 466 L473 459 L453 586 L197 586 L197 362 L504 362 L504 298 L197 298 L197 64 L462 64 L482 191 L545 184 L526 0 Z " />
<glyph glyph-name="uni0114" unicode="&#x114;" horiz-adv-x="589" d="M449 816 Q449 699 327 699 Q205 699 205 816 L263 816 Q263 776 279.5 761.5 Q296 747 327 747 Q391 747 391 816 L449 816 Z M526 0 L42 0 L42 64 L124 64 L124 586 L42 586 L42 650 L517 650 L537 466 L473 459 L453 586 L197 586 L197 362 L504 362 L504 298 L197 298 L197 64 L462 64 L482 191 L545 184 L526 0 Z " />
<glyph glyph-name="uni011A" unicode="&#x11a;" horiz-adv-x="589" d="M455 792 L329 701 L307 701 L181 790 L201 824 L321 763 L436 827 L455 792 Z M526 0 L42 0 L42 64 L124 64 L124 586 L42 586 L42 650 L517 650 L537 466 L473 459 L453 586 L197 586 L197 362 L504 362 L504 298 L197 298 L197 64 L462 64 L482 191 L545 184 L526 0 Z " />
<glyph glyph-name="uni0116" unicode="&#x116;" horiz-adv-x="589" d="M281 718 L281 803 L362 803 L362 718 L281 718 Z M526 0 L42 0 L42 64 L124 64 L124 586 L42 586 L42 650 L517 650 L537 466 L473 459 L453 586 L197 586 L197 362 L504 362 L504 298 L197 298 L197 64 L462 64 L482 191 L545 184 L526 0 Z " />
<glyph glyph-name="uni0112" unicode="&#x112;" horiz-adv-x="589" d="M462 733 L183 733 L183 790 L462 790 L462 733 Z M526 0 L42 0 L42 64 L124 64 L124 586 L42 586 L42 650 L517 650 L537 466 L473 459 L453 586 L197 586 L197 362 L504 362 L504 298 L197 298 L197 64 L462 64 L482 191 L545 184 L526 0 Z " />
<glyph glyph-name="uni0118" unicode="&#x118;" horiz-adv-x="588" d="M526 0 L487 0 Q451 -22 437 -48 Q423 -74 423 -99 Q423 -155 481 -155 Q510 -155 535 -140 L544 -189 Q507 -209 465 -209 Q418 -209 389.5 -185 Q361 -161 361 -118 Q361 -80 381.5 -49.5 Q402 -19 433 0 L42 0 L42 64 L124 64 L124 586 L42 586 L42 650 L517 650 L537 466 L473 459 L453 586 L197 586 L197 362 L504 362 L504 298 L197 298 L197 64 L462 64 L482 191 L545 184 L526 0 Z " />
<glyph glyph-name="uni1EBC" unicode="&#x1ebc;" horiz-adv-x="589" d="M469 798 Q462 758 444.5 733.5 Q427 709 391 709 Q353 709 325 726.5 Q297 744 268 744 Q254 744 240 736.5 Q226 729 218 705 L185 718 Q189 744 209 772 Q229 800 267 800 Q300 800 325 782.5 Q350 765 386 765 Q400 765 412.5 772 Q425 779 433 807 L469 798 Z M526 0 L42 0 L42 64 L124 64 L124 586 L42 586 L42 650 L517 650 L537 466 L473 459 L453 586 L197 586 L197 362 L504 362 L504 298 L197 298 L197 64 L462 64 L482 191 L545 184 L526 0 Z " />
<glyph glyph-name="uni011E" unicode="&#x11e;" horiz-adv-x="691" d="M479 816 Q479 699 357 699 Q235 699 235 816 L293 816 Q293 776 309.5 761.5 Q326 747 357 747 Q421 747 421 816 L479 816 Z M664 270 L613 270 L613 0 L557 0 L548 90 Q519 47 465.5 18.5 Q412 -10 340 -10 Q206 -10 123 86 Q40 182 40 322 Q40 416 80.5 492.5 Q121 569 192.5 614.5 Q264 660 357 660 Q435 660 493.5 638.5 Q552 617 589 584 L607 462 L545 455 L525 547 Q498 565 459.5 579.5 Q421 594 361 594 Q252 594 185 519 Q118 444 118 325 Q118 204 182 130 Q246 56 353 56 Q442 56 491 104.5 Q540 153 540 212 L540 270 L385 270 L385 335 L664 335 L664 270 Z " />
<glyph glyph-name="uni0122" unicode="&#x122;" horiz-adv-x="691" d="M664 270 L613 270 L613 0 L557 0 L548 90 Q519 47 465.5 18.5 Q412 -10 340 -10 Q206 -10 123 86 Q40 182 40 322 Q40 416 80.5 492.5 Q121 569 192.5 614.5 Q264 660 357 660 Q435 660 493.5 638.5 Q552 617 589 584 L607 462 L545 455 L525 547 Q498 565 459.5 579.5 Q421 594 361 594 Q252 594 185 519 Q118 444 118 325 Q118 204 182 130 Q246 56 353 56 Q442 56 491 104.5 Q540 153 540 212 L540 270 L385 270 L385 335 L664 335 L664 270 Z M384 -64 L366 -218 L309 -218 L317 -64 L384 -64 Z " />
<glyph glyph-name="uni011C" unicode="&#x11c;" horiz-adv-x="691" d="M491 737 L472 702 L352 764 L236 701 L217 734 L344 827 L365 827 L491 737 Z M664 270 L613 270 L613 0 L557 0 L548 90 Q519 47 465.5 18.5 Q412 -10 340 -10 Q206 -10 123 86 Q40 182 40 322 Q40 416 80.5 492.5 Q121 569 192.5 614.5 Q264 660 357 660 Q435 660 493.5 638.5 Q552 617 589 584 L607 462 L545 455 L525 547 Q498 565 459.5 579.5 Q421 594 361 594 Q252 594 185 519 Q118 444 118 325 Q118 204 182 130 Q246 56 353 56 Q442 56 491 104.5 Q540 153 540 212 L540 270 L385 270 L385 335 L664 335 L664 270 Z " />
<glyph glyph-name="uni0120" unicode="&#x120;" horiz-adv-x="691" d="M315 718 L315 803 L396 803 L396 718 L315 718 Z M664 270 L613 270 L613 0 L557 0 L548 90 Q519 47 465.5 18.5 Q412 -10 340 -10 Q206 -10 123 86 Q40 182 40 322 Q40 416 80.5 492.5 Q121 569 192.5 614.5 Q264 660 357 660 Q435 660 493.5 638.5 Q552 617 589 584 L607 462 L545 455 L525 547 Q498 565 459.5 579.5 Q421 594 361 594 Q252 594 185 519 Q118 444 118 325 Q118 204 182 130 Q246 56 353 56 Q442 56 491 104.5 Q540 153 540 212 L540 270 L385 270 L385 335 L664 335 L664 270 Z " />
<glyph glyph-name="uni0126" unicode="&#x126;" horiz-adv-x="756" d="M49 462 L49 515 L124 515 L124 586 L42 586 L42 650 L279 650 L279 586 L197 586 L197 515 L558 515 L558 586 L476 586 L476 650 L713 650 L713 586 L631 586 L631 515 L705 515 L705 462 L631 462 L631 64 L713 64 L713 0 L476 0 L476 64 L558 64 L558 300 L197 300 L197 64 L279 64 L279 0 L42 0 L42 64 L124 64 L124 462 L49 462 Z M197 362 L558 362 L558 462 L197 462 L197 362 Z " />
<glyph glyph-name="uni0124" unicode="&#x124;" horiz-adv-x="755" d="M518 737 L499 702 L379 764 L263 701 L244 734 L371 827 L392 827 L518 737 Z M713 0 L476 0 L476 64 L558 64 L558 300 L197 300 L197 64 L279 64 L279 0 L42 0 L42 64 L124 64 L124 586 L42 586 L42 650 L279 650 L279 586 L197 586 L197 362 L558 362 L558 586 L476 586 L476 650 L713 650 L713 586 L631 586 L631 64 L713 64 L713 0 Z " />
<glyph glyph-name="uni00CD" unicode="&#xcd;" horiz-adv-x="322" d="M283 745 L86 703 L75 740 L266 813 L283 745 Z M279 0 L42 0 L42 64 L124 64 L124 586 L42 586 L42 650 L279 650 L279 586 L198 586 L198 64 L279 64 L279 0 Z " />
<glyph glyph-name="uni00CE" unicode="&#xce;" horiz-adv-x="322" d="M299 737 L280 702 L160 764 L44 701 L25 734 L152 827 L173 827 L299 737 Z M279 0 L42 0 L42 64 L124 64 L124 586 L42 586 L42 650 L279 650 L279 586 L198 586 L198 64 L279 64 L279 0 Z " />
<glyph glyph-name="uni00CF" unicode="&#xcf;" horiz-adv-x="322" d="M38 718 L38 803 L119 803 L119 718 L38 718 Z M210 718 L210 803 L290 803 L290 718 L210 718 Z M279 0 L42 0 L42 64 L124 64 L124 586 L42 586 L42 650 L279 650 L279 586 L198 586 L198 64 L279 64 L279 0 Z " />
<glyph glyph-name="uni00CC" unicode="&#xcc;" horiz-adv-x="322" d="M246 740 L236 703 L38 745 L55 813 L246 740 Z M279 0 L42 0 L42 64 L124 64 L124 586 L42 586 L42 650 L279 650 L279 586 L198 586 L198 64 L279 64 L279 0 Z " />
<glyph glyph-name="uni012C" unicode="&#x12c;" horiz-adv-x="322" d="M283 816 Q283 699 161 699 Q39 699 39 816 L97 816 Q97 776 113.5 761.5 Q130 747 161 747 Q225 747 225 816 L283 816 Z M279 0 L42 0 L42 64 L124 64 L124 586 L42 586 L42 650 L279 650 L279 586 L198 586 L198 64 L279 64 L279 0 Z " />
<glyph glyph-name="uni0130" unicode="&#x130;" horiz-adv-x="322" d="M119 718 L119 803 L200 803 L200 718 L119 718 Z M279 0 L42 0 L42 64 L124 64 L124 586 L42 586 L42 650 L279 650 L279 586 L198 586 L198 64 L279 64 L279 0 Z " />
<glyph glyph-name="uni012A" unicode="&#x12a;" horiz-adv-x="322" d="M303 733 L24 733 L24 790 L303 790 L303 733 Z M279 0 L42 0 L42 64 L124 64 L124 586 L42 586 L42 650 L279 650 L279 586 L198 586 L198 64 L279 64 L279 0 Z " />
<glyph glyph-name="uni012E" unicode="&#x12e;" horiz-adv-x="322" d="M248 -189 Q211 -209 169 -209 Q122 -209 93.5 -185 Q65 -161 65 -118 Q65 -80 85.5 -49.5 Q106 -19 137 0 L42 0 L42 64 L124 64 L124 586 L42 586 L42 650 L279 650 L279 586 L198 586 L198 64 L279 64 L279 0 L191 0 Q155 -22 141 -48 Q127 -74 127 -99 Q127 -155 185 -155 Q214 -155 239 -140 L248 -189 Z " />
<glyph glyph-name="uni0128" unicode="&#x128;" horiz-adv-x="322" d="M308 798 Q300 758 283 733.5 Q266 709 230 709 Q192 709 164 726.5 Q136 744 107 744 Q93 744 78.5 736.5 Q64 729 57 705 L24 718 Q28 744 48 772 Q68 800 106 800 Q139 800 164 782.5 Q189 765 225 765 Q238 765 251 772 Q264 779 272 807 L308 798 Z M279 0 L42 0 L42 64 L124 64 L124 586 L42 586 L42 650 L279 650 L279 586 L198 586 L198 64 L279 64 L279 0 Z " />
<glyph glyph-name="uni0134" unicode="&#x134;" horiz-adv-x="456" d="M427 737 L408 702 L288 764 L172 701 L153 734 L280 827 L301 827 L427 737 Z M418 586 L346 586 L346 166 Q346 78 302 34 Q258 -10 179 -10 Q115 -10 76.5 17.5 Q38 45 17 89 L70 129 Q91 88 115.5 73.5 Q140 59 173 59 Q226 59 249.5 88 Q273 117 273 166 L273 586 L144 586 L144 650 L418 650 L418 586 Z " />
<glyph glyph-name="uni0136" unicode="&#x136;" horiz-adv-x="641" d="M635 0 L401 0 L401 64 L478 64 L306 299 L198 299 L198 64 L273 64 L273 0 L42 0 L42 64 L124 64 L124 586 L42 586 L42 650 L274 650 L274 586 L198 586 L198 362 L304 362 L471 587 L394 587 L394 651 L623 651 L623 587 L549 587 L362 338 L562 64 L635 64 L635 0 Z M376 -64 L358 -218 L301 -218 L309 -64 L376 -64 Z " />
<glyph glyph-name="uni0139" unicode="&#x139;" horiz-adv-x="545" d="M298 745 L101 703 L90 740 L281 813 L298 745 Z M511 0 L42 0 L42 64 L124 64 L124 586 L42 586 L42 650 L306 650 L306 586 L197 586 L197 64 L446 64 L466 213 L531 208 L511 0 Z " />
<glyph glyph-name="uni013D" unicode="&#x13d;" horiz-adv-x="545" d="M434 682 L412 458 L355 458 L368 682 L434 682 Z M511 0 L42 0 L42 64 L124 64 L124 586 L42 586 L42 650 L306 650 L306 586 L197 586 L197 64 L446 64 L466 213 L531 208 L511 0 Z " />
<glyph glyph-name="uni013B" unicode="&#x13b;" horiz-adv-x="545" d="M511 0 L42 0 L42 64 L124 64 L124 586 L42 586 L42 650 L306 650 L306 586 L197 586 L197 64 L446 64 L466 213 L531 208 L511 0 Z M342 -64 L324 -218 L267 -218 L275 -64 L342 -64 Z " />
<glyph glyph-name="uni013F" unicode="&#x13f;" horiz-adv-x="545" d="M511 0 L42 0 L42 64 L124 64 L124 586 L42 586 L42 650 L306 650 L306 586 L197 586 L197 64 L446 64 L466 213 L531 208 L511 0 Z M333 295 L333 386 L410 386 L410 295 L333 295 Z " />
<glyph glyph-name="uni0141" unicode="&#x141;" horiz-adv-x="546" d="M512 0 L43 0 L43 64 L125 64 L125 266 L45 235 L45 294 L125 325 L125 586 L43 586 L43 650 L307 650 L307 586 L198 586 L198 354 L354 416 L354 357 L198 295 L198 64 L447 64 L467 213 L532 208 L512 0 Z " />
<glyph glyph-name="uni00D1" unicode="&#xd1;" horiz-adv-x="738" d="M506 798 Q498 758 481 733.5 Q464 709 428 709 Q390 709 362 726.5 Q334 744 305 744 Q291 744 276.5 736.5 Q262 729 255 705 L222 718 Q226 744 246 772 Q266 800 304 800 Q337 800 362 782.5 Q387 765 423 765 Q436 765 449 772 Q462 779 470 807 L506 798 Z M703 586 L622 586 L622 0 L575 0 L198 512 L194 512 L194 64 L297 64 L297 0 L49 0 L49 64 L124 64 L124 586 L38 586 L38 650 L178 650 L548 149 L552 149 L552 586 L454 586 L454 650 L703 650 L703 586 Z " />
<glyph glyph-name="uni0143" unicode="&#x143;" horiz-adv-x="738" d="M514 745 L317 703 L306 740 L497 813 L514 745 Z M703 586 L622 586 L622 0 L575 0 L198 512 L194 512 L194 64 L297 64 L297 0 L49 0 L49 64 L124 64 L124 586 L38 586 L38 650 L178 650 L548 149 L552 149 L552 586 L454 586 L454 650 L703 650 L703 586 Z " />
<glyph glyph-name="uni0147" unicode="&#x147;" horiz-adv-x="738" d="M502 792 L376 701 L354 701 L228 790 L248 824 L368 763 L483 827 L502 792 Z M703 586 L622 586 L622 0 L575 0 L198 512 L194 512 L194 64 L297 64 L297 0 L49 0 L49 64 L124 64 L124 586 L38 586 L38 650 L178 650 L548 149 L552 149 L552 586 L454 586 L454 650 L703 650 L703 586 Z " />
<glyph glyph-name="uni0145" unicode="&#x145;" horiz-adv-x="738" d="M703 586 L622 586 L622 0 L575 0 L198 512 L194 512 L194 64 L297 64 L297 0 L49 0 L49 64 L124 64 L124 586 L38 586 L38 650 L178 650 L548 149 L552 149 L552 586 L454 586 L454 650 L703 650 L703 586 Z M416 -64 L398 -218 L341 -218 L349 -64 L416 -64 Z " />
<glyph glyph-name="uni014A" unicode="&#x14a;" horiz-adv-x="738" d="M703 586 L622 586 L622 -18 Q622 -106 577.5 -150 Q533 -194 454 -194 Q390 -194 351.5 -167 Q313 -140 292 -96 L345 -56 Q366 -96 390.5 -111 Q415 -126 448 -126 Q502 -126 525 -97 Q548 -68 548 -18 L548 36 L198 512 L194 512 L194 64 L297 64 L297 0 L49 0 L49 64 L124 64 L124 586 L38 586 L38 650 L178 650 L548 149 L552 149 L552 586 L454 586 L454 650 L703 650 L703 586 Z " />
<glyph glyph-name="uni1E46" unicode="&#x1e46;" horiz-adv-x="738" d="M703 586 L622 586 L622 0 L575 0 L198 512 L194 512 L194 64 L297 64 L297 0 L49 0 L49 64 L124 64 L124 586 L38 586 L38 650 L178 650 L548 149 L552 149 L552 586 L454 586 L454 650 L703 650 L703 586 Z M335 -174 L335 -83 L412 -83 L412 -174 L335 -174 Z " />
<glyph glyph-name="uni00D2" unicode="&#xd2;" horiz-adv-x="728" d="M433 740 L423 703 L225 745 L242 813 L433 740 Z M690 325 Q690 233 649 157 Q608 81 534 35.5 Q460 -10 362 -10 Q215 -10 127 88.5 Q39 187 39 325 Q39 465 129.5 562.5 Q220 660 364 660 Q510 660 600 562 Q690 464 690 325 Z M611 324 Q611 441 544 517.5 Q477 594 364 594 Q248 594 183 516 Q118 438 118 326 Q118 216 183 136 Q248 56 366 56 Q481 56 546 133.5 Q611 211 611 324 Z " />
<glyph glyph-name="uni00D6" unicode="&#xd6;" horiz-adv-x="728" d="M241 718 L241 803 L322 803 L322 718 L241 718 Z M413 718 L413 803 L493 803 L493 718 L413 718 Z M690 325 Q690 233 649 157 Q608 81 534 35.5 Q460 -10 362 -10 Q215 -10 127 88.5 Q39 187 39 325 Q39 465 129.5 562.5 Q220 660 364 660 Q510 660 600 562 Q690 464 690 325 Z M611 324 Q611 441 544 517.5 Q477 594 364 594 Q248 594 183 516 Q118 438 118 326 Q118 216 183 136 Q248 56 366 56 Q481 56 546 133.5 Q611 211 611 324 Z " />
<glyph glyph-name="uni00D5" unicode="&#xd5;" horiz-adv-x="728" d="M511 798 Q504 758 486.5 733.5 Q469 709 433 709 Q395 709 367 726.5 Q339 744 310 744 Q296 744 282 736.5 Q268 729 260 705 L227 718 Q231 744 251 772 Q271 800 309 800 Q342 800 367 782.5 Q392 765 428 765 Q442 765 454.5 772 Q467 779 475 807 L511 798 Z M690 325 Q690 233 649 157 Q608 81 534 35.5 Q460 -10 362 -10 Q215 -10 127 88.5 Q39 187 39 325 Q39 465 129.5 562.5 Q220 660 364 660 Q510 660 600 562 Q690 464 690 325 Z M611 324 Q611 441 544 517.5 Q477 594 364 594 Q248 594 183 516 Q118 438 118 326 Q118 216 183 136 Q248 56 366 56 Q481 56 546 133.5 Q611 211 611 324 Z " />
<glyph glyph-name="uni014E" unicode="&#x14e;" horiz-adv-x="728" d="M494 816 Q494 699 372 699 Q250 699 250 816 L308 816 Q308 776 324.5 761.5 Q341 747 372 747 Q436 747 436 816 L494 816 Z M690 325 Q690 233 649 157 Q608 81 534 35.5 Q460 -10 362 -10 Q215 -10 127 88.5 Q39 187 39 325 Q39 465 129.5 562.5 Q220 660 364 660 Q510 660 600 562 Q690 464 690 325 Z M611 324 Q611 441 544 517.5 Q477 594 364 594 Q248 594 183 516 Q118 438 118 326 Q118 216 183 136 Q248 56 366 56 Q481 56 546 133.5 Q611 211 611 324 Z " />
<glyph glyph-name="uni00D3" unicode="&#xd3;" horiz-adv-x="728" d="M518 745 L321 703 L310 740 L501 813 L518 745 Z M690 325 Q690 233 649 157 Q608 81 534 35.5 Q460 -10 362 -10 Q215 -10 127 88.5 Q39 187 39 325 Q39 465 129.5 562.5 Q220 660 364 660 Q510 660 600 562 Q690 464 690 325 Z M611 324 Q611 441 544 517.5 Q477 594 364 594 Q248 594 183 516 Q118 438 118 326 Q118 216 183 136 Q248 56 366 56 Q481 56 546 133.5 Q611 211 611 324 Z " />
<glyph glyph-name="uni00D4" unicode="&#xd4;" horiz-adv-x="728" d="M504 737 L485 702 L365 764 L249 701 L230 734 L357 827 L378 827 L504 737 Z M690 325 Q690 233 649 157 Q608 81 534 35.5 Q460 -10 362 -10 Q215 -10 127 88.5 Q39 187 39 325 Q39 465 129.5 562.5 Q220 660 364 660 Q510 660 600 562 Q690 464 690 325 Z M611 324 Q611 441 544 517.5 Q477 594 364 594 Q248 594 183 516 Q118 438 118 326 Q118 216 183 136 Q248 56 366 56 Q481 56 546 133.5 Q611 211 611 324 Z " />
<glyph glyph-name="uni0150" unicode="&#x150;" horiz-adv-x="728" d="M451 831 L294 703 L268 729 L402 882 L451 831 Z M602 745 L404 703 L394 740 L584 813 L602 745 Z M690 325 Q690 233 649 157 Q608 81 534 35.5 Q460 -10 362 -10 Q215 -10 127 88.5 Q39 187 39 325 Q39 465 129.5 562.5 Q220 660 364 660 Q510 660 600 562 Q690 464 690 325 Z M611 324 Q611 441 544 517.5 Q477 594 364 594 Q248 594 183 516 Q118 438 118 326 Q118 216 183 136 Q248 56 366 56 Q481 56 546 133.5 Q611 211 611 324 Z " />
<glyph glyph-name="uni014C" unicode="&#x14c;" horiz-adv-x="728" d="M513 733 L234 733 L234 790 L513 790 L513 733 Z M690 325 Q690 233 649 157 Q608 81 534 35.5 Q460 -10 362 -10 Q215 -10 127 88.5 Q39 187 39 325 Q39 465 129.5 562.5 Q220 660 364 660 Q510 660 600 562 Q690 464 690 325 Z M611 324 Q611 441 544 517.5 Q477 594 364 594 Q248 594 183 516 Q118 438 118 326 Q118 216 183 136 Q248 56 366 56 Q481 56 546 133.5 Q611 211 611 324 Z " />
<glyph glyph-name="uni00D8" unicode="&#xd8;" horiz-adv-x="735" d="M693 325 Q693 233 652 157 Q611 81 537 35.5 Q463 -10 365 -10 Q248 -10 165 56 L116 0 L43 0 L125 93 Q42 189 42 325 Q42 465 132.5 562.5 Q223 660 367 660 Q482 660 566 595 L615 650 L694 650 L609 555 Q693 460 693 325 Z M121 326 Q121 222 174 149 L520 542 Q457 594 367 594 Q252 594 186.5 516 Q121 438 121 326 Z M614 324 Q614 428 561 500 L213 109 Q275 56 369 56 Q484 56 549 133.5 Q614 211 614 324 Z " />
<glyph glyph-name="uni01FE" unicode="&#x1fe;" horiz-adv-x="735" d="M534 745 L337 703 L326 740 L517 813 L534 745 Z M693 325 Q693 233 652 157 Q611 81 537 35.5 Q463 -10 365 -10 Q248 -10 165 56 L116 0 L43 0 L125 93 Q42 189 42 325 Q42 465 132.5 562.5 Q223 660 367 660 Q482 660 566 595 L615 650 L694 650 L609 555 Q693 460 693 325 Z M121 326 Q121 222 174 149 L520 542 Q457 594 367 594 Q252 594 186.5 516 Q121 438 121 326 Z M614 324 Q614 428 561 500 L213 109 Q275 56 369 56 Q484 56 549 133.5 Q614 211 614 324 Z " />
<glyph glyph-name="uni0154" unicode="&#x154;" horiz-adv-x="616" d="M444 745 L247 703 L236 740 L427 813 L444 745 Z M607 0 L477 0 L337 272 L198 272 L198 64 L285 64 L285 0 L42 0 L42 64 L124 64 L124 586 L42 586 L42 650 L323 650 Q444 650 496 597.5 Q548 545 548 466 Q548 403 513 353.5 Q478 304 409 286 L525 64 L607 64 L607 0 Z M471 463 Q471 527 434 556.5 Q397 586 314 586 L198 586 L198 333 L316 333 Q399 333 435 367.5 Q471 402 471 463 Z " />
<glyph glyph-name="uni0158" unicode="&#x158;" horiz-adv-x="616" d="M436 792 L310 701 L288 701 L162 790 L182 824 L302 763 L417 827 L436 792 Z M607 0 L477 0 L337 272 L198 272 L198 64 L285 64 L285 0 L42 0 L42 64 L124 64 L124 586 L42 586 L42 650 L323 650 Q444 650 496 597.5 Q548 545 548 466 Q548 403 513 353.5 Q478 304 409 286 L525 64 L607 64 L607 0 Z M471 463 Q471 527 434 556.5 Q397 586 314 586 L198 586 L198 333 L316 333 Q399 333 435 367.5 Q471 402 471 463 Z " />
<glyph glyph-name="uni0156" unicode="&#x156;" horiz-adv-x="616" d="M607 0 L477 0 L337 272 L198 272 L198 64 L285 64 L285 0 L42 0 L42 64 L124 64 L124 586 L42 586 L42 650 L323 650 Q444 650 496 597.5 Q548 545 548 466 Q548 403 513 353.5 Q478 304 409 286 L525 64 L607 64 L607 0 Z M471 463 Q471 527 434 556.5 Q397 586 314 586 L198 586 L198 333 L316 333 Q399 333 435 367.5 Q471 402 471 463 Z M377 -64 L359 -218 L302 -218 L310 -64 L377 -64 Z " />
<glyph glyph-name="uni015A" unicode="&#x15a;" horiz-adv-x="533" d="M411 745 L214 703 L203 740 L394 813 L411 745 Z M490 182 Q490 88 423.5 39 Q357 -10 258 -10 Q122 -10 49 43 L63 171 L123 165 L119 83 Q152 66 185 60 Q218 54 254 54 Q318 54 364.5 81.5 Q411 109 411 175 Q411 249 360 271.5 Q309 294 249 308 Q203 318 158 333.5 Q113 349 83 382.5 Q53 416 53 480 Q53 572 114.5 616 Q176 660 260 660 Q314 660 369 645 Q424 630 455 606 L461 477 L401 471 L391 568 Q360 584 328 589.5 Q296 595 267 595 Q206 595 168.5 567.5 Q131 540 131 488 Q131 427 176 406 Q221 385 276 372 Q320 362 369.5 346.5 Q419 331 454.5 293.5 Q490 256 490 182 Z " />
<glyph glyph-name="uni015E" unicode="&#x15e;" horiz-adv-x="533" d="M389 -125 Q389 -170 356.5 -189.5 Q324 -209 281 -209 Q221 -209 185 -179 L202 -138 Q232 -161 277 -161 Q328 -161 328 -120 Q328 -95 311 -87.5 Q294 -80 270 -80 L240 -80 L240 -10 Q115 -5 49 43 L63 171 L123 165 L119 83 Q152 66 185 60 Q218 54 254 54 Q318 54 364.5 81.5 Q411 109 411 175 Q411 249 360 271.5 Q309 294 249 308 Q203 318 158 333.5 Q113 349 83 382.5 Q53 416 53 480 Q53 572 114.5 616 Q176 660 260 660 Q314 660 369 645 Q424 630 455 606 L461 477 L401 471 L391 568 Q360 584 328 589.5 Q296 595 267 595 Q206 595 168.5 567.5 Q131 540 131 488 Q131 427 176 406 Q221 385 276 372 Q320 362 369.5 346.5 Q419 331 454.5 293.5 Q490 256 490 182 Q490 96 434 48 Q378 0 292 -8 L292 -47 L300 -47 Q346 -47 367.5 -69.5 Q389 -92 389 -125 Z " />
<glyph glyph-name="uni0160" unicode="&#x160;" horiz-adv-x="533" d="M397 792 L271 701 L249 701 L123 790 L143 824 L263 763 L378 827 L397 792 Z M490 182 Q490 88 423.5 39 Q357 -10 258 -10 Q122 -10 49 43 L63 171 L123 165 L119 83 Q152 66 185 60 Q218 54 254 54 Q318 54 364.5 81.5 Q411 109 411 175 Q411 249 360 271.5 Q309 294 249 308 Q203 318 158 333.5 Q113 349 83 382.5 Q53 416 53 480 Q53 572 114.5 616 Q176 660 260 660 Q314 660 369 645 Q424 630 455 606 L461 477 L401 471 L391 568 Q360 584 328 589.5 Q296 595 267 595 Q206 595 168.5 567.5 Q131 540 131 488 Q131 427 176 406 Q221 385 276 372 Q320 362 369.5 346.5 Q419 331 454.5 293.5 Q490 256 490 182 Z " />
<glyph glyph-name="uni015C" unicode="&#x15c;" horiz-adv-x="533" d="M408 737 L389 702 L269 764 L153 701 L134 734 L261 827 L282 827 L408 737 Z M490 182 Q490 88 423.5 39 Q357 -10 258 -10 Q122 -10 49 43 L63 171 L123 165 L119 83 Q152 66 185 60 Q218 54 254 54 Q318 54 364.5 81.5 Q411 109 411 175 Q411 249 360 271.5 Q309 294 249 308 Q203 318 158 333.5 Q113 349 83 382.5 Q53 416 53 480 Q53 572 114.5 616 Q176 660 260 660 Q314 660 369 645 Q424 630 455 606 L461 477 L401 471 L391 568 Q360 584 328 589.5 Q296 595 267 595 Q206 595 168.5 567.5 Q131 540 131 488 Q131 427 176 406 Q221 385 276 372 Q320 362 369.5 346.5 Q419 331 454.5 293.5 Q490 256 490 182 Z " />
<glyph glyph-name="uni0218" unicode="&#x218;" horiz-adv-x="533" d="M490 182 Q490 88 423.5 39 Q357 -10 258 -10 Q122 -10 49 43 L63 171 L123 165 L119 83 Q152 66 185 60 Q218 54 254 54 Q318 54 364.5 81.5 Q411 109 411 175 Q411 249 360 271.5 Q309 294 249 308 Q203 318 158 333.5 Q113 349 83 382.5 Q53 416 53 480 Q53 572 114.5 616 Q176 660 260 660 Q314 660 369 645 Q424 630 455 606 L461 477 L401 471 L391 568 Q360 584 328 589.5 Q296 595 267 595 Q206 595 168.5 567.5 Q131 540 131 488 Q131 427 176 406 Q221 385 276 372 Q320 362 369.5 346.5 Q419 331 454.5 293.5 Q490 256 490 182 Z M318 -64 L300 -218 L243 -218 L251 -64 L318 -64 Z " />
<glyph glyph-name="uni1E62" unicode="&#x1e62;" horiz-adv-x="533" d="M490 182 Q490 88 423.5 39 Q357 -10 258 -10 Q122 -10 49 43 L63 171 L123 165 L119 83 Q152 66 185 60 Q218 54 254 54 Q318 54 364.5 81.5 Q411 109 411 175 Q411 249 360 271.5 Q309 294 249 308 Q203 318 158 333.5 Q113 349 83 382.5 Q53 416 53 480 Q53 572 114.5 616 Q176 660 260 660 Q314 660 369 645 Q424 630 455 606 L461 477 L401 471 L391 568 Q360 584 328 589.5 Q296 595 267 595 Q206 595 168.5 567.5 Q131 540 131 488 Q131 427 176 406 Q221 385 276 372 Q320 362 369.5 346.5 Q419 331 454.5 293.5 Q490 256 490 182 Z M237 -174 L237 -83 L314 -83 L314 -174 L237 -174 Z " />
<glyph glyph-name="uni0166" unicode="&#x166;" horiz-adv-x="624" d="M600 452 L535 447 L515 586 L347 586 L347 325 L499 325 L499 273 L347 273 L347 64 L462 64 L462 0 L162 0 L162 64 L274 64 L274 273 L124 273 L124 325 L274 325 L274 586 L106 586 L86 447 L22 452 L41 650 L580 650 L600 452 Z " />
<glyph glyph-name="uni0164" unicode="&#x164;" horiz-adv-x="621" d="M446 792 L320 701 L298 701 L172 790 L192 824 L312 763 L427 827 L446 792 Z M599 452 L534 447 L514 586 L346 586 L346 64 L461 64 L461 0 L161 0 L161 64 L273 64 L273 586 L105 586 L85 447 L21 452 L40 650 L579 650 L599 452 Z " />
<glyph glyph-name="uni0162" unicode="&#x162;" horiz-adv-x="621" d="M599 452 L534 447 L514 586 L346 586 L346 64 L461 64 L461 0 L161 0 L161 64 L273 64 L273 586 L105 586 L85 447 L21 452 L40 650 L579 650 L599 452 Z M346 -64 L328 -218 L271 -218 L279 -64 L346 -64 Z " />
<glyph glyph-name="uni021A" unicode="&#x21a;" horiz-adv-x="621" d="M599 452 L534 447 L514 586 L346 586 L346 64 L461 64 L461 0 L161 0 L161 64 L273 64 L273 586 L105 586 L85 447 L21 452 L40 650 L579 650 L599 452 Z M346 -64 L328 -218 L271 -218 L279 -64 L346 -64 Z " />
<glyph glyph-name="uni00DA" unicode="&#xda;" horiz-adv-x="717" d="M510 745 L313 703 L302 740 L493 813 L510 745 Z M680 586 L617 586 L617 267 Q617 198 593.5 134.5 Q570 71 513.5 30.5 Q457 -10 357 -10 Q212 -10 157.5 70.5 Q103 151 103 256 L103 586 L36 586 L36 650 L267 650 L267 586 L177 586 L177 258 Q177 162 222 109 Q267 56 361 56 Q548 56 548 267 L548 586 L455 586 L455 650 L680 650 L680 586 Z " />
<glyph glyph-name="uni00DB" unicode="&#xdb;" horiz-adv-x="717" d="M497 737 L478 702 L358 764 L242 701 L223 734 L350 827 L371 827 L497 737 Z M680 586 L617 586 L617 267 Q617 198 593.5 134.5 Q570 71 513.5 30.5 Q457 -10 357 -10 Q212 -10 157.5 70.5 Q103 151 103 256 L103 586 L36 586 L36 650 L267 650 L267 586 L177 586 L177 258 Q177 162 222 109 Q267 56 361 56 Q548 56 548 267 L548 586 L455 586 L455 650 L680 650 L680 586 Z " />
<glyph glyph-name="uni00D9" unicode="&#xd9;" horiz-adv-x="717" d="M447 740 L437 703 L239 745 L256 813 L447 740 Z M680 586 L617 586 L617 267 Q617 198 593.5 134.5 Q570 71 513.5 30.5 Q457 -10 357 -10 Q212 -10 157.5 70.5 Q103 151 103 256 L103 586 L36 586 L36 650 L267 650 L267 586 L177 586 L177 258 Q177 162 222 109 Q267 56 361 56 Q548 56 548 267 L548 586 L455 586 L455 650 L680 650 L680 586 Z " />
<glyph glyph-name="uni00DC" unicode="&#xdc;" horiz-adv-x="717" d="M237 718 L237 803 L318 803 L318 718 L237 718 Z M409 718 L409 803 L489 803 L489 718 L409 718 Z M680 586 L617 586 L617 267 Q617 198 593.5 134.5 Q570 71 513.5 30.5 Q457 -10 357 -10 Q212 -10 157.5 70.5 Q103 151 103 256 L103 586 L36 586 L36 650 L267 650 L267 586 L177 586 L177 258 Q177 162 222 109 Q267 56 361 56 Q548 56 548 267 L548 586 L455 586 L455 650 L680 650 L680 586 Z " />
<glyph glyph-name="uni016C" unicode="&#x16c;" horiz-adv-x="717" d="M483 816 Q483 699 361 699 Q239 699 239 816 L297 816 Q297 776 313.5 761.5 Q330 747 361 747 Q425 747 425 816 L483 816 Z M680 586 L617 586 L617 267 Q617 198 593.5 134.5 Q570 71 513.5 30.5 Q457 -10 357 -10 Q212 -10 157.5 70.5 Q103 151 103 256 L103 586 L36 586 L36 650 L267 650 L267 586 L177 586 L177 258 Q177 162 222 109 Q267 56 361 56 Q548 56 548 267 L548 586 L455 586 L455 650 L680 650 L680 586 Z " />
<glyph glyph-name="uni0170" unicode="&#x170;" horiz-adv-x="717" d="M427 831 L270 703 L244 729 L378 882 L427 831 Z M578 745 L380 703 L370 740 L560 813 L578 745 Z M680 586 L617 586 L617 267 Q617 198 593.5 134.5 Q570 71 513.5 30.5 Q457 -10 357 -10 Q212 -10 157.5 70.5 Q103 151 103 256 L103 586 L36 586 L36 650 L267 650 L267 586 L177 586 L177 258 Q177 162 222 109 Q267 56 361 56 Q548 56 548 267 L548 586 L455 586 L455 650 L680 650 L680 586 Z " />
<glyph glyph-name="uni016A" unicode="&#x16a;" horiz-adv-x="717" d="M504 733 L225 733 L225 790 L504 790 L504 733 Z M680 586 L617 586 L617 267 Q617 198 593.5 134.5 Q570 71 513.5 30.5 Q457 -10 357 -10 Q212 -10 157.5 70.5 Q103 151 103 256 L103 586 L36 586 L36 650 L267 650 L267 586 L177 586 L177 258 Q177 162 222 109 Q267 56 361 56 Q548 56 548 267 L548 586 L455 586 L455 650 L680 650 L680 586 Z " />
<glyph glyph-name="uni0172" unicode="&#x172;" horiz-adv-x="719" d="M681 586 L618 586 L618 267 Q618 174 575 93.5 Q532 13 417 -5 Q386 -27 373.5 -51.5 Q361 -76 361 -99 Q361 -155 419 -155 Q448 -155 473 -140 L482 -189 Q445 -209 403 -209 Q356 -209 327.5 -185 Q299 -161 299 -118 Q299 -84 315 -56.5 Q331 -29 356 -10 Q212 -9 158 71 Q104 151 104 256 L104 586 L37 586 L37 650 L268 650 L268 586 L178 586 L178 258 Q178 162 223 109 Q268 56 362 56 Q549 56 549 267 L549 586 L456 586 L456 650 L681 650 L681 586 Z " />
<glyph glyph-name="uni016E" unicode="&#x16e;" horiz-adv-x="717" d="M462 784 Q462 743 437 716.5 Q412 690 363 690 Q265 690 265 782 Q265 823 291 848.5 Q317 874 364 874 Q415 874 438.5 848.5 Q462 823 462 784 Z M413 784 Q413 804 402 819 Q391 834 363 834 Q314 834 314 782 Q314 730 363 730 Q413 730 413 784 Z M680 586 L617 586 L617 267 Q617 198 593.5 134.5 Q570 71 513.5 30.5 Q457 -10 357 -10 Q212 -10 157.5 70.5 Q103 151 103 256 L103 586 L36 586 L36 650 L267 650 L267 586 L177 586 L177 258 Q177 162 222 109 Q267 56 361 56 Q548 56 548 267 L548 586 L455 586 L455 650 L680 650 L680 586 Z " />
<glyph glyph-name="uni0168" unicode="&#x168;" horiz-adv-x="717" d="M510 798 Q502 758 485 733.5 Q468 709 432 709 Q394 709 366 726.5 Q338 744 309 744 Q295 744 280.5 736.5 Q266 729 259 705 L226 718 Q230 744 250 772 Q270 800 308 800 Q341 800 366 782.5 Q391 765 427 765 Q440 765 453 772 Q466 779 474 807 L510 798 Z M680 586 L617 586 L617 267 Q617 198 593.5 134.5 Q570 71 513.5 30.5 Q457 -10 357 -10 Q212 -10 157.5 70.5 Q103 151 103 256 L103 586 L36 586 L36 650 L267 650 L267 586 L177 586 L177 258 Q177 162 222 109 Q267 56 361 56 Q548 56 548 267 L548 586 L455 586 L455 650 L680 650 L680 586 Z " />
<glyph glyph-name="uni01D3" unicode="&#x1d3;" horiz-adv-x="717" d="M498 792 L372 701 L350 701 L224 790 L244 824 L364 763 L479 827 L498 792 Z M680 586 L617 586 L617 267 Q617 198 593.5 134.5 Q570 71 513.5 30.5 Q457 -10 357 -10 Q212 -10 157.5 70.5 Q103 151 103 256 L103 586 L36 586 L36 650 L267 650 L267 586 L177 586 L177 258 Q177 162 222 109 Q267 56 361 56 Q548 56 548 267 L548 586 L455 586 L455 650 L680 650 L680 586 Z " />
<glyph glyph-name="uni1E82" unicode="&#x1e82;" horiz-adv-x="934" d="M608 745 L411 703 L400 740 L591 813 L608 745 Z M929 586 L874 586 L700 0 L641 0 L470 520 L466 520 L300 0 L241 0 L55 586 L0 586 L0 650 L225 650 L225 586 L133 586 L270 119 L274 119 L424 586 L359 586 L359 650 L583 650 L583 586 L518 586 L670 116 L674 116 L800 586 L706 586 L706 650 L929 650 L929 586 Z " />
<glyph glyph-name="uni0174" unicode="&#x174;" horiz-adv-x="934" d="M610 737 L591 702 L471 764 L355 701 L336 734 L463 827 L484 827 L610 737 Z M929 586 L874 586 L700 0 L641 0 L470 520 L466 520 L300 0 L241 0 L55 586 L0 586 L0 650 L225 650 L225 586 L133 586 L270 119 L274 119 L424 586 L359 586 L359 650 L583 650 L583 586 L518 586 L670 116 L674 116 L800 586 L706 586 L706 650 L929 650 L929 586 Z " />
<glyph glyph-name="uni1E84" unicode="&#x1e84;" horiz-adv-x="934" d="M347 718 L347 803 L428 803 L428 718 L347 718 Z M519 718 L519 803 L599 803 L599 718 L519 718 Z M929 586 L874 586 L700 0 L641 0 L470 520 L466 520 L300 0 L241 0 L55 586 L0 586 L0 650 L225 650 L225 586 L133 586 L270 119 L274 119 L424 586 L359 586 L359 650 L583 650 L583 586 L518 586 L670 116 L674 116 L800 586 L706 586 L706 650 L929 650 L929 586 Z " />
<glyph glyph-name="uni1E80" unicode="&#x1e80;" horiz-adv-x="934" d="M540 740 L530 703 L332 745 L349 813 L540 740 Z M929 586 L874 586 L700 0 L641 0 L470 520 L466 520 L300 0 L241 0 L55 586 L0 586 L0 650 L225 650 L225 586 L133 586 L270 119 L274 119 L424 586 L359 586 L359 650 L583 650 L583 586 L518 586 L670 116 L674 116 L800 586 L706 586 L706 650 L929 650 L929 586 Z " />
<glyph glyph-name="uni0178" unicode="&#x178;" horiz-adv-x="613" d="M182 718 L182 803 L263 803 L263 718 L182 718 Z M354 718 L354 803 L434 803 L434 718 L354 718 Z M610 586 L546 586 L344 248 L344 64 L458 64 L458 0 L159 0 L159 64 L271 64 L271 249 L60 586 L-4 586 L-4 650 L233 650 L233 586 L144 586 L308 316 L313 316 L472 586 L382 586 L382 650 L610 650 L610 586 Z " />
<glyph glyph-name="uni0176" unicode="&#x176;" horiz-adv-x="613" d="M449 737 L430 702 L310 764 L194 701 L175 734 L302 827 L323 827 L449 737 Z M610 586 L546 586 L344 248 L344 64 L458 64 L458 0 L159 0 L159 64 L271 64 L271 249 L60 586 L-4 586 L-4 650 L233 650 L233 586 L144 586 L308 316 L313 316 L472 586 L382 586 L382 650 L610 650 L610 586 Z " />
<glyph glyph-name="uni1EF2" unicode="&#x1ef2;" horiz-adv-x="613" d="M370 740 L360 703 L162 745 L179 813 L370 740 Z M610 586 L546 586 L344 248 L344 64 L458 64 L458 0 L159 0 L159 64 L271 64 L271 249 L60 586 L-4 586 L-4 650 L233 650 L233 586 L144 586 L308 316 L313 316 L472 586 L382 586 L382 650 L610 650 L610 586 Z " />
<glyph glyph-name="uni00DD" unicode="&#xdd;" horiz-adv-x="613" d="M441 745 L244 703 L233 740 L424 813 L441 745 Z M610 586 L546 586 L344 248 L344 64 L458 64 L458 0 L159 0 L159 64 L271 64 L271 249 L60 586 L-4 586 L-4 650 L233 650 L233 586 L144 586 L308 316 L313 316 L472 586 L382 586 L382 650 L610 650 L610 586 Z " />
<glyph glyph-name="uni0232" unicode="&#x232;" horiz-adv-x="613" d="M450 733 L171 733 L171 790 L450 790 L450 733 Z M610 586 L546 586 L344 248 L344 64 L458 64 L458 0 L159 0 L159 64 L271 64 L271 249 L60 586 L-4 586 L-4 650 L233 650 L233 586 L144 586 L308 316 L313 316 L472 586 L382 586 L382 650 L610 650 L610 586 Z " />
<glyph glyph-name="uni0179" unicode="&#x179;" horiz-adv-x="577" d="M434 745 L237 703 L226 740 L417 813 L434 745 Z M514 0 L34 0 L32 44 L416 583 L416 586 L136 586 L108 453 L46 462 L71 650 L519 650 L521 610 L135 67 L135 64 L449 64 L477 202 L540 193 L514 0 Z " />
<glyph glyph-name="uni017D" unicode="&#x17d;" horiz-adv-x="577" d="M430 792 L304 701 L282 701 L156 790 L176 824 L296 763 L411 827 L430 792 Z M514 0 L34 0 L32 44 L416 583 L416 586 L136 586 L108 453 L46 462 L71 650 L519 650 L521 610 L135 67 L135 64 L449 64 L477 202 L540 193 L514 0 Z " />
<glyph glyph-name="uni017B" unicode="&#x17b;" horiz-adv-x="577" d="M256 718 L256 803 L337 803 L337 718 L256 718 Z M514 0 L34 0 L32 44 L416 583 L416 586 L136 586 L108 453 L46 462 L71 650 L519 650 L521 610 L135 67 L135 64 L449 64 L477 202 L540 193 L514 0 Z " />
<glyph glyph-name="uni018F" unicode="&#x18f;" horiz-adv-x="684" d="M122 435 L63 442 L72 578 Q120 614 187 637 Q254 660 337 660 Q488 660 565.5 562 Q643 464 643 323 Q643 189 566.5 89.5 Q490 -10 334 -10 Q201 -10 122.5 68.5 Q44 147 44 282 L44 346 L564 346 Q556 459 498 526.5 Q440 594 333 594 Q219 594 135 541 L122 435 Z M565 288 L123 288 L123 282 Q123 194 170.5 125 Q218 56 337 56 Q454 56 506.5 125 Q559 194 565 288 Z " />
<glyph glyph-name="uni00DE" unicode="&#xde;" horiz-adv-x="572" d="M279 0 L42 0 L42 64 L124 64 L124 586 L42 586 L42 650 L279 650 L279 586 L198 586 L198 525 L323 525 Q443 525 496 471.5 Q549 418 549 340 Q549 242 487 190.5 Q425 139 329 139 L198 139 L198 64 L279 64 L279 0 Z M317 471 L198 471 L198 194 L319 194 Q471 194 471 338 Q471 400 433.5 435.5 Q396 471 317 471 Z " />
<glyph glyph-name="uni00D0" unicode="&#xd0;" horiz-adv-x="706" d="M665 326 Q665 183 577.5 91.5 Q490 0 336 0 L42 0 L42 63 L124 63 L124 308 L46 308 L46 370 L124 370 L124 587 L42 587 L42 650 L333 650 Q492 650 578.5 558.5 Q665 467 665 326 Z M587 325 Q587 443 521.5 515 Q456 587 332 587 L197 587 L197 370 L332 370 L332 308 L197 308 L197 63 L332 63 Q456 63 521.5 133.5 Q587 204 587 325 Z " />
<glyph glyph-name="uni0132" unicode="&#x132;" horiz-adv-x="777" d="M279 0 L42 0 L42 64 L124 64 L124 586 L42 586 L42 650 L279 650 L279 586 L198 586 L198 64 L279 64 L279 0 Z M739 586 L667 586 L667 166 Q667 78 623 34 Q579 -10 500 -10 Q436 -10 397.5 17.5 Q359 45 338 89 L391 129 Q412 88 436.5 73.5 Q461 59 494 59 Q547 59 570.5 88 Q594 117 594 166 L594 586 L465 586 L465 650 L739 650 L739 586 Z " />
<glyph glyph-name="uni0152" unicode="&#x152;" horiz-adv-x="998" d="M937 0 L533 0 L533 38 Q498 16 456.5 3 Q415 -10 365 -10 Q268 -10 194.5 35.5 Q121 81 80 157 Q39 233 39 325 Q39 418 81 494 Q123 570 196.5 615 Q270 660 365 660 Q414 660 456 647 Q498 634 533 611 L533 650 L928 650 L948 466 L883 459 L863 586 L606 586 L606 362 L912 362 L912 298 L606 298 L606 64 L872 64 L892 191 L957 184 L937 0 Z M533 116 L533 534 Q465 594 368 594 Q252 594 184.5 516 Q117 438 117 327 Q117 219 182.5 137.5 Q248 56 369 56 Q473 56 533 116 Z " />
<glyph glyph-name="uni01C4" unicode="&#x1c4;" horiz-adv-x="1281" d="M1134 792 L1008 701 L986 701 L860 790 L880 824 L1000 763 L1115 827 L1134 792 Z M1218 0 L738 0 L736 44 L1120 583 L1120 586 L840 586 L812 453 L750 462 L775 650 L1223 650 L1225 610 L839 67 L839 64 L1153 64 L1181 202 L1244 193 L1218 0 Z M665 326 Q665 183 577.5 91.5 Q490 0 336 0 L42 0 L42 63 L124 63 L124 587 L42 587 L42 650 L333 650 Q492 650 578.5 558.5 Q665 467 665 326 Z M587 325 Q587 443 521.5 515 Q456 587 332 587 L197 587 L197 63 L332 63 Q456 63 521.5 133.5 Q587 204 587 325 Z " />
<glyph glyph-name="uni01C5" unicode="&#x1c5;" horiz-adv-x="1169" d="M1075 638 L954 519 L932 519 L811 636 L837 670 L947 586 L1049 671 L1075 638 Z M665 326 Q665 183 577.5 91.5 Q490 0 336 0 L42 0 L42 63 L124 63 L124 587 L42 587 L42 650 L333 650 Q492 650 578.5 558.5 Q665 467 665 326 Z M587 325 Q587 443 521.5 515 Q456 587 332 587 L197 587 L197 63 L332 63 Q456 63 521.5 133.5 Q587 204 587 325 Z M1117 0 L743 0 L740 43 L1020 388 L810 388 L797 299 L741 306 L753 445 L1111 445 L1114 403 L832 57 L1061 57 L1084 147 L1141 138 L1117 0 Z " />
<glyph glyph-name="uni01C7" unicode="&#x1c7;" horiz-adv-x="1000" d="M962 586 L890 586 L890 166 Q890 78 846 34 Q802 -10 723 -10 Q659 -10 620.5 17.5 Q582 45 561 89 L614 129 Q635 88 659.5 73.5 Q684 59 717 59 Q770 59 793.5 88 Q817 117 817 166 L817 586 L688 586 L688 650 L962 650 L962 586 Z M511 0 L42 0 L42 64 L124 64 L124 586 L42 586 L42 650 L306 650 L306 586 L197 586 L197 64 L446 64 L466 213 L531 208 L511 0 Z " />
<glyph glyph-name="uni01CA" unicode="&#x1ca;" horiz-adv-x="1185" d="M1146 586 L1074 586 L1074 166 Q1074 78 1030 34 Q986 -10 907 -10 Q843 -10 804.5 17.5 Q766 45 745 89 L798 129 Q819 88 843.5 73.5 Q868 59 901 59 Q954 59 977.5 88 Q1001 117 1001 166 L1001 586 L872 586 L872 650 L1146 650 L1146 586 Z M703 586 L622 586 L622 0 L575 0 L198 512 L194 512 L194 64 L297 64 L297 0 L49 0 L49 64 L124 64 L124 586 L38 586 L38 650 L178 650 L548 149 L552 149 L552 586 L454 586 L454 650 L703 650 L703 586 Z " />
<glyph glyph-name="uni01F1" unicode="&#x1f1;" horiz-adv-x="1279" d="M1215 0 L735 0 L733 44 L1117 583 L1117 586 L837 586 L809 453 L747 462 L772 650 L1220 650 L1222 610 L836 67 L836 64 L1150 64 L1178 202 L1241 193 L1215 0 Z M665 326 Q665 183 577.5 91.5 Q490 0 336 0 L42 0 L42 63 L124 63 L124 587 L42 587 L42 650 L333 650 Q492 650 578.5 558.5 Q665 467 665 326 Z M587 325 Q587 443 521.5 515 Q456 587 332 587 L197 587 L197 63 L332 63 Q456 63 521.5 133.5 Q587 204 587 325 Z " />
<glyph glyph-name="uni01F2" unicode="&#x1f2;" horiz-adv-x="1169" d="M665 326 Q665 183 577.5 91.5 Q490 0 336 0 L42 0 L42 63 L124 63 L124 587 L42 587 L42 650 L333 650 Q492 650 578.5 558.5 Q665 467 665 326 Z M587 325 Q587 443 521.5 515 Q456 587 332 587 L197 587 L197 63 L332 63 Q456 63 521.5 133.5 Q587 204 587 325 Z M1117 0 L743 0 L740 43 L1020 388 L810 388 L797 299 L741 306 L753 445 L1111 445 L1114 403 L832 57 L1061 57 L1084 147 L1141 138 L1117 0 Z " />
<glyph glyph-name="uni01C8" unicode="&#x1c8;" horiz-adv-x="779" d="M628 560 L628 651 L704 651 L704 560 L628 560 Z M511 0 L42 0 L42 64 L124 64 L124 586 L42 586 L42 650 L306 650 L306 586 L197 586 L197 64 L446 64 L466 213 L531 208 L511 0 Z M704 -13 Q704 -140 650 -185.5 Q596 -231 513 -224 L511 -170 Q538 -170 566.5 -161 Q595 -152 614 -118.5 Q633 -85 633 -13 L633 388 L534 388 L534 445 L704 445 L704 -13 Z " />
<glyph glyph-name="uni01CB" unicode="&#x1cb;" horiz-adv-x="974" d="M823 560 L823 651 L899 651 L899 560 L823 560 Z M703 586 L622 586 L622 0 L575 0 L198 512 L194 512 L194 64 L297 64 L297 0 L49 0 L49 64 L124 64 L124 586 L38 586 L38 650 L178 650 L548 149 L552 149 L552 586 L454 586 L454 650 L703 650 L703 586 Z M899 -13 Q899 -140 844.5 -185.5 Q790 -231 708 -224 L706 -170 Q734 -170 762 -161 Q790 -152 809 -118.5 Q828 -85 828 -13 L828 388 L729 388 L729 445 L899 445 L899 -13 Z " />
<glyph glyph-name="uni00E1" unicode="&#xe1;" horiz-adv-x="483" d="M377 624 L205 520 L183 551 L337 683 L377 624 Z M81 411 Q116 434 155 444 Q194 454 238 454 Q397 454 397 305 L397 93 Q397 45 435 45 Q452 45 465 51 L466 5 Q439 -10 408 -10 Q329 -10 327 80 L327 82 Q306 46 267.5 18 Q229 -10 175 -10 Q131 -10 85.5 17 Q40 44 40 115 Q40 199 106.5 225.5 Q173 252 248 252 Q268 252 288.5 251 Q309 250 327 248 L327 288 Q327 336 306.5 366 Q286 396 226 396 Q177 396 140 378 L123 301 L65 308 L81 411 Z M327 167 L327 201 Q308 202 287 204 Q266 206 244 206 Q194 206 153.5 190.5 Q113 175 113 123 Q113 80 140 64 Q167 48 196 48 Q242 48 282.5 80 Q323 112 327 167 Z " />
<glyph glyph-name="uni00E0" unicode="&#xe0;" horiz-adv-x="483" d="M295 551 L274 520 L101 624 L141 683 L295 551 Z M81 411 Q116 434 155 444 Q194 454 238 454 Q397 454 397 305 L397 93 Q397 45 435 45 Q452 45 465 51 L466 5 Q439 -10 408 -10 Q329 -10 327 80 L327 82 Q306 46 267.5 18 Q229 -10 175 -10 Q131 -10 85.5 17 Q40 44 40 115 Q40 199 106.5 225.5 Q173 252 248 252 Q268 252 288.5 251 Q309 250 327 248 L327 288 Q327 336 306.5 366 Q286 396 226 396 Q177 396 140 378 L123 301 L65 308 L81 411 Z M327 167 L327 201 Q308 202 287 204 Q266 206 244 206 Q194 206 153.5 190.5 Q113 175 113 123 Q113 80 140 64 Q167 48 196 48 Q242 48 282.5 80 Q323 112 327 167 Z " />
<glyph glyph-name="uni00E2" unicode="&#xe2;" horiz-adv-x="483" d="M367 553 L340 519 L229 603 L128 519 L103 551 L224 671 L246 671 L367 553 Z M81 411 Q116 434 155 444 Q194 454 238 454 Q397 454 397 305 L397 93 Q397 45 435 45 Q452 45 465 51 L466 5 Q439 -10 408 -10 Q329 -10 327 80 L327 82 Q306 46 267.5 18 Q229 -10 175 -10 Q131 -10 85.5 17 Q40 44 40 115 Q40 199 106.5 225.5 Q173 252 248 252 Q268 252 288.5 251 Q309 250 327 248 L327 288 Q327 336 306.5 366 Q286 396 226 396 Q177 396 140 378 L123 301 L65 308 L81 411 Z M327 167 L327 201 Q308 202 287 204 Q266 206 244 206 Q194 206 153.5 190.5 Q113 175 113 123 Q113 80 140 64 Q167 48 196 48 Q242 48 282.5 80 Q323 112 327 167 Z " />
<glyph glyph-name="uni00E4" unicode="&#xe4;" horiz-adv-x="483" d="M108 555 L108 640 L189 640 L189 555 L108 555 Z M279 555 L279 640 L360 640 L360 555 L279 555 Z M81 411 Q116 434 155 444 Q194 454 238 454 Q397 454 397 305 L397 93 Q397 45 435 45 Q452 45 465 51 L466 5 Q439 -10 408 -10 Q329 -10 327 80 L327 82 Q306 46 267.5 18 Q229 -10 175 -10 Q131 -10 85.5 17 Q40 44 40 115 Q40 199 106.5 225.5 Q173 252 248 252 Q268 252 288.5 251 Q309 250 327 248 L327 288 Q327 336 306.5 366 Q286 396 226 396 Q177 396 140 378 L123 301 L65 308 L81 411 Z M327 167 L327 201 Q308 202 287 204 Q266 206 244 206 Q194 206 153.5 190.5 Q113 175 113 123 Q113 80 140 64 Q167 48 196 48 Q242 48 282.5 80 Q323 112 327 167 Z " />
<glyph glyph-name="uni00E3" unicode="&#xe3;" horiz-adv-x="483" d="M370 646 Q363 606 345.5 579.5 Q328 553 293 553 Q254 553 226 572.5 Q198 592 170 592 Q156 592 141 582.5 Q126 573 119 549 L86 561 Q90 587 109.5 618 Q129 649 167 649 Q201 649 226 630.5 Q251 612 287 612 Q300 612 313 620 Q326 628 334 655 L370 646 Z M81 411 Q116 434 155 444 Q194 454 238 454 Q397 454 397 305 L397 93 Q397 45 435 45 Q452 45 465 51 L466 5 Q439 -10 408 -10 Q329 -10 327 80 L327 82 Q306 46 267.5 18 Q229 -10 175 -10 Q131 -10 85.5 17 Q40 44 40 115 Q40 199 106.5 225.5 Q173 252 248 252 Q268 252 288.5 251 Q309 250 327 248 L327 288 Q327 336 306.5 366 Q286 396 226 396 Q177 396 140 378 L123 301 L65 308 L81 411 Z M327 167 L327 201 Q308 202 287 204 Q266 206 244 206 Q194 206 153.5 190.5 Q113 175 113 123 Q113 80 140 64 Q167 48 196 48 Q242 48 282.5 80 Q323 112 327 167 Z " />
<glyph glyph-name="uni00E5" unicode="&#xe5;" horiz-adv-x="483" d="M334 607 Q334 566 309 540 Q284 514 235 514 Q137 514 137 606 Q137 646 163 672 Q189 698 236 698 Q287 698 310.5 672.5 Q334 647 334 607 Z M285 608 Q285 628 274 643 Q263 658 235 658 Q210 658 198 643 Q186 628 186 606 Q186 554 235 554 Q261 554 273 570 Q285 586 285 608 Z M81 411 Q116 434 155 444 Q194 454 238 454 Q397 454 397 305 L397 93 Q397 45 435 45 Q452 45 465 51 L466 5 Q439 -10 408 -10 Q329 -10 327 80 L327 82 Q306 46 267.5 18 Q229 -10 175 -10 Q131 -10 85.5 17 Q40 44 40 115 Q40 199 106.5 225.5 Q173 252 248 252 Q268 252 288.5 251 Q309 250 327 248 L327 288 Q327 336 306.5 366 Q286 396 226 396 Q177 396 140 378 L123 301 L65 308 L81 411 Z M327 167 L327 201 Q308 202 287 204 Q266 206 244 206 Q194 206 153.5 190.5 Q113 175 113 123 Q113 80 140 64 Q167 48 196 48 Q242 48 282.5 80 Q323 112 327 167 Z " />
<glyph glyph-name="uni0103" unicode="&#x103;" horiz-adv-x="483" d="M354 655 Q354 532 231 532 Q109 532 109 655 L168 655 Q168 580 232 580 Q295 580 295 655 L354 655 Z M81 411 Q116 434 155 444 Q194 454 238 454 Q397 454 397 305 L397 93 Q397 45 435 45 Q452 45 465 51 L466 5 Q439 -10 408 -10 Q329 -10 327 80 L327 82 Q306 46 267.5 18 Q229 -10 175 -10 Q131 -10 85.5 17 Q40 44 40 115 Q40 199 106.5 225.5 Q173 252 248 252 Q268 252 288.5 251 Q309 250 327 248 L327 288 Q327 336 306.5 366 Q286 396 226 396 Q177 396 140 378 L123 301 L65 308 L81 411 Z M327 167 L327 201 Q308 202 287 204 Q266 206 244 206 Q194 206 153.5 190.5 Q113 175 113 123 Q113 80 140 64 Q167 48 196 48 Q242 48 282.5 80 Q323 112 327 167 Z " />
<glyph glyph-name="uni0101" unicode="&#x101;" horiz-adv-x="483" d="M353 564 L109 564 L109 621 L353 621 L353 564 Z M81 411 Q116 434 155 444 Q194 454 238 454 Q397 454 397 305 L397 93 Q397 45 435 45 Q452 45 465 51 L466 5 Q439 -10 408 -10 Q329 -10 327 80 L327 82 Q306 46 267.5 18 Q229 -10 175 -10 Q131 -10 85.5 17 Q40 44 40 115 Q40 199 106.5 225.5 Q173 252 248 252 Q268 252 288.5 251 Q309 250 327 248 L327 288 Q327 336 306.5 366 Q286 396 226 396 Q177 396 140 378 L123 301 L65 308 L81 411 Z M327 167 L327 201 Q308 202 287 204 Q266 206 244 206 Q194 206 153.5 190.5 Q113 175 113 123 Q113 80 140 64 Q167 48 196 48 Q242 48 282.5 80 Q323 112 327 167 Z " />
<glyph glyph-name="uni0105" unicode="&#x105;" horiz-adv-x="483" d="M480 -189 Q443 -209 401 -209 Q354 -209 325.5 -185 Q297 -161 297 -118 Q297 -80 317 -50 Q337 -20 368 -1 Q327 19 327 80 L327 82 Q306 46 267.5 18 Q229 -10 175 -10 Q131 -10 85.5 17 Q40 44 40 115 Q40 199 106.5 225.5 Q173 252 248 252 Q268 252 288.5 251 Q309 250 327 248 L327 288 Q327 336 306.5 366 Q286 396 226 396 Q177 396 140 378 L123 301 L65 308 L81 411 Q116 434 155 444 Q194 454 238 454 Q397 454 397 305 L397 93 Q397 45 435 45 Q452 45 465 51 L466 5 Q439 -10 408 -10 Q380 -30 369.5 -53 Q359 -76 359 -99 Q359 -155 417 -155 Q446 -155 471 -140 L480 -189 Z M327 167 L327 201 Q308 202 287 204 Q266 206 244 206 Q194 206 153.5 190.5 Q113 175 113 123 Q113 80 140 64 Q167 48 196 48 Q242 48 282.5 80 Q323 112 327 167 Z " />
<glyph glyph-name="uni00E6" unicode="&#xe6;" horiz-adv-x="759" d="M724 128 Q715 71 667.5 30.5 Q620 -10 537 -10 Q405 -10 354 95 Q331 58 289 24 Q247 -10 179 -10 Q132 -10 85.5 17 Q39 44 39 115 Q39 199 106.5 225.5 Q174 252 250 252 Q269 252 289.5 251 Q310 250 328 248 L328 288 Q328 334 308 365 Q288 396 231 396 Q178 396 141 378 L123 301 L65 308 L82 411 Q146 454 247 454 Q345 454 379 382 Q437 454 531 454 Q623 454 671.5 396 Q720 338 720 259 Q720 233 714 206 L402 206 Q408 51 543 51 Q596 51 625 75.5 Q654 100 665 141 L724 128 Z M646 257 Q651 306 623 350.5 Q595 395 529 395 Q468 395 438.5 354.5 Q409 314 403 257 L646 257 Z M114 123 Q114 80 141 64 Q168 48 197 48 Q244 48 284.5 80 Q325 112 328 168 L328 201 Q309 202 288 204 Q267 206 247 206 Q196 206 155 190.5 Q114 175 114 123 Z " />
<glyph glyph-name="uni01FD" unicode="&#x1fd;" horiz-adv-x="759" d="M561 624 L389 520 L367 551 L521 683 L561 624 Z M724 128 Q715 71 667.5 30.5 Q620 -10 537 -10 Q405 -10 354 95 Q331 58 289 24 Q247 -10 179 -10 Q132 -10 85.5 17 Q39 44 39 115 Q39 199 106.5 225.5 Q174 252 250 252 Q269 252 289.5 251 Q310 250 328 248 L328 288 Q328 334 308 365 Q288 396 231 396 Q178 396 141 378 L123 301 L65 308 L82 411 Q146 454 247 454 Q345 454 379 382 Q437 454 531 454 Q623 454 671.5 396 Q720 338 720 259 Q720 233 714 206 L402 206 Q408 51 543 51 Q596 51 625 75.5 Q654 100 665 141 L724 128 Z M646 257 Q651 306 623 350.5 Q595 395 529 395 Q468 395 438.5 354.5 Q409 314 403 257 L646 257 Z M114 123 Q114 80 141 64 Q168 48 197 48 Q244 48 284.5 80 Q325 112 328 168 L328 201 Q309 202 288 204 Q267 206 247 206 Q196 206 155 190.5 Q114 175 114 123 Z " />
<glyph glyph-name="uni01E3" unicode="&#x1e3;" horiz-adv-x="759" d="M504 564 L260 564 L260 621 L504 621 L504 564 Z M724 128 Q715 71 667.5 30.5 Q620 -10 537 -10 Q405 -10 354 95 Q331 58 289 24 Q247 -10 179 -10 Q132 -10 85.5 17 Q39 44 39 115 Q39 199 106.5 225.5 Q174 252 250 252 Q269 252 289.5 251 Q310 250 328 248 L328 288 Q328 334 308 365 Q288 396 231 396 Q178 396 141 378 L123 301 L65 308 L82 411 Q146 454 247 454 Q345 454 379 382 Q437 454 531 454 Q623 454 671.5 396 Q720 338 720 259 Q720 233 714 206 L402 206 Q408 51 543 51 Q596 51 625 75.5 Q654 100 665 141 L724 128 Z M646 257 Q651 306 623 350.5 Q595 395 529 395 Q468 395 438.5 354.5 Q409 314 403 257 L646 257 Z M114 123 Q114 80 141 64 Q168 48 197 48 Q244 48 284.5 80 Q325 112 328 168 L328 201 Q309 202 288 204 Q267 206 247 206 Q196 206 155 190.5 Q114 175 114 123 Z " />
<glyph glyph-name="uni00E7" unicode="&#xe7;" horiz-adv-x="462" d="M360 -126 Q360 -171 328 -190.5 Q296 -210 252 -210 Q192 -210 156 -180 L173 -139 Q203 -162 248 -162 Q299 -162 299 -121 Q299 -96 282 -88.5 Q265 -81 241 -81 L211 -81 L211 -8 Q131 0 84.5 58.5 Q38 117 38 216 Q38 308 90 381 Q142 454 246 454 Q290 454 327 444 Q364 434 398 408 L415 301 L357 294 L340 369 Q300 394 245 394 Q174 394 143 343 Q112 292 112 220 Q112 140 147 95 Q182 50 248 50 Q348 50 368 163 L428 150 Q420 95 381 46.5 Q342 -2 263 -9 L263 -48 L271 -48 Q318 -48 339 -70.5 Q360 -93 360 -126 Z " />
<glyph glyph-name="uni0107" unicode="&#x107;" horiz-adv-x="462" d="M379 624 L207 520 L185 551 L339 683 L379 624 Z M428 150 Q419 92 375.5 41 Q332 -10 240 -10 Q148 -10 93 49.5 Q38 109 38 216 Q38 308 90 381 Q142 454 246 454 Q290 454 327 444 Q364 434 398 408 L415 301 L357 294 L340 369 Q300 394 245 394 Q174 394 143 343 Q112 292 112 220 Q112 140 147 95 Q182 50 248 50 Q348 50 368 163 L428 150 Z " />
<glyph glyph-name="uni010D" unicode="&#x10d;" horiz-adv-x="462" d="M375 638 L254 519 L232 519 L111 636 L137 670 L247 586 L349 671 L375 638 Z M428 150 Q419 92 375.5 41 Q332 -10 240 -10 Q148 -10 93 49.5 Q38 109 38 216 Q38 308 90 381 Q142 454 246 454 Q290 454 327 444 Q364 434 398 408 L415 301 L357 294 L340 369 Q300 394 245 394 Q174 394 143 343 Q112 292 112 220 Q112 140 147 95 Q182 50 248 50 Q348 50 368 163 L428 150 Z " />
<glyph glyph-name="uni0109" unicode="&#x109;" horiz-adv-x="462" d="M379 553 L352 519 L241 603 L140 519 L115 551 L236 671 L258 671 L379 553 Z M428 150 Q419 92 375.5 41 Q332 -10 240 -10 Q148 -10 93 49.5 Q38 109 38 216 Q38 308 90 381 Q142 454 246 454 Q290 454 327 444 Q364 434 398 408 L415 301 L357 294 L340 369 Q300 394 245 394 Q174 394 143 343 Q112 292 112 220 Q112 140 147 95 Q182 50 248 50 Q348 50 368 163 L428 150 Z " />
<glyph glyph-name="uni010B" unicode="&#x10b;" horiz-adv-x="462" d="M203 553 L203 644 L280 644 L280 553 L203 553 Z M428 150 Q419 92 375.5 41 Q332 -10 240 -10 Q148 -10 93 49.5 Q38 109 38 216 Q38 308 90 381 Q142 454 246 454 Q290 454 327 444 Q364 434 398 408 L415 301 L357 294 L340 369 Q300 394 245 394 Q174 394 143 343 Q112 292 112 220 Q112 140 147 95 Q182 50 248 50 Q348 50 368 163 L428 150 Z " />
<glyph glyph-name="uni010F" unicode="&#x10f;" horiz-adv-x="559" d="M535 0 L388 0 L388 90 Q366 50 328 20 Q290 -10 229 -10 Q143 -10 90.5 48.5 Q38 107 38 211 Q38 300 84 377 Q130 454 239 454 Q343 454 388 373 L388 631 L280 631 L280 688 L458 688 L458 57 L535 57 L535 0 Z M603 681 L581 457 L524 457 L537 681 L603 681 Z M388 197 L388 268 Q386 324 347 359 Q308 394 255 394 Q181 394 146.5 340 Q112 286 112 216 Q112 134 150.5 92 Q189 50 247 50 Q307 50 346.5 98.5 Q386 147 388 197 Z " />
<glyph glyph-name="uni0111" unicode="&#x111;" horiz-adv-x="550" d="M535 0 L388 0 L388 90 Q366 50 328 20 Q290 -10 229 -10 Q143 -10 90.5 48.5 Q38 107 38 211 Q38 300 84 377 Q130 454 239 454 Q343 454 388 373 L388 519 L210 519 L210 568 L388 568 L388 631 L280 631 L280 688 L458 688 L458 568 L525 568 L525 519 L458 519 L458 57 L535 57 L535 0 Z M388 197 L388 268 Q386 324 347 359 Q308 394 255 394 Q181 394 146.5 340 Q112 286 112 216 Q112 134 150.5 92 Q189 50 247 50 Q307 50 346.5 98.5 Q386 147 388 197 Z " />
<glyph glyph-name="uni00E9" unicode="&#xe9;" horiz-adv-x="470" d="M397 624 L225 520 L203 551 L357 683 L397 624 Z M435 128 Q426 71 378 30.5 Q330 -10 248 -10 Q154 -10 96 49 Q38 108 38 216 Q38 320 93 387 Q148 454 242 454 Q334 454 382 396 Q430 338 431 259 Q431 233 425 206 L112 206 Q118 50 253 50 Q306 50 336 75 Q366 100 376 141 L435 128 Z M357 258 Q362 308 333.5 352 Q305 396 240 396 Q178 396 149 355 Q120 314 113 258 L357 258 Z " />
<glyph glyph-name="uni00E8" unicode="&#xe8;" horiz-adv-x="470" d="M303 551 L282 520 L109 624 L149 683 L303 551 Z M435 128 Q426 71 378 30.5 Q330 -10 248 -10 Q154 -10 96 49 Q38 108 38 216 Q38 320 93 387 Q148 454 242 454 Q334 454 382 396 Q430 338 431 259 Q431 233 425 206 L112 206 Q118 50 253 50 Q306 50 336 75 Q366 100 376 141 L435 128 Z M357 258 Q362 308 333.5 352 Q305 396 240 396 Q178 396 149 355 Q120 314 113 258 L357 258 Z " />
<glyph glyph-name="uni00EA" unicode="&#xea;" horiz-adv-x="470" d="M380 553 L353 519 L242 603 L141 519 L116 551 L237 671 L259 671 L380 553 Z M435 128 Q426 71 378 30.5 Q330 -10 248 -10 Q154 -10 96 49 Q38 108 38 216 Q38 320 93 387 Q148 454 242 454 Q334 454 382 396 Q430 338 431 259 Q431 233 425 206 L112 206 Q118 50 253 50 Q306 50 336 75 Q366 100 376 141 L435 128 Z M357 258 Q362 308 333.5 352 Q305 396 240 396 Q178 396 149 355 Q120 314 113 258 L357 258 Z " />
<glyph glyph-name="uni00EB" unicode="&#xeb;" horiz-adv-x="470" d="M121 555 L121 640 L202 640 L202 555 L121 555 Z M292 555 L292 640 L373 640 L373 555 L292 555 Z M435 128 Q426 71 378 30.5 Q330 -10 248 -10 Q154 -10 96 49 Q38 108 38 216 Q38 320 93 387 Q148 454 242 454 Q334 454 382 396 Q430 338 431 259 Q431 233 425 206 L112 206 Q118 50 253 50 Q306 50 336 75 Q366 100 376 141 L435 128 Z M357 258 Q362 308 333.5 352 Q305 396 240 396 Q178 396 149 355 Q120 314 113 258 L357 258 Z " />
<glyph glyph-name="uni0115" unicode="&#x115;" horiz-adv-x="470" d="M366 655 Q366 532 243 532 Q121 532 121 655 L180 655 Q180 580 244 580 Q307 580 307 655 L366 655 Z M435 128 Q426 71 378 30.5 Q330 -10 248 -10 Q154 -10 96 49 Q38 108 38 216 Q38 320 93 387 Q148 454 242 454 Q334 454 382 396 Q430 338 431 259 Q431 233 425 206 L112 206 Q118 50 253 50 Q306 50 336 75 Q366 100 376 141 L435 128 Z M357 258 Q362 308 333.5 352 Q305 396 240 396 Q178 396 149 355 Q120 314 113 258 L357 258 Z " />
<glyph glyph-name="uni011B" unicode="&#x11b;" horiz-adv-x="470" d="M375 638 L254 519 L232 519 L111 636 L137 670 L247 586 L349 671 L375 638 Z M435 128 Q426 71 378 30.5 Q330 -10 248 -10 Q154 -10 96 49 Q38 108 38 216 Q38 320 93 387 Q148 454 242 454 Q334 454 382 396 Q430 338 431 259 Q431 233 425 206 L112 206 Q118 50 253 50 Q306 50 336 75 Q366 100 376 141 L435 128 Z M357 258 Q362 308 333.5 352 Q305 396 240 396 Q178 396 149 355 Q120 314 113 258 L357 258 Z " />
<glyph glyph-name="uni0117" unicode="&#x117;" horiz-adv-x="470" d="M203 553 L203 644 L280 644 L280 553 L203 553 Z M435 128 Q426 71 378 30.5 Q330 -10 248 -10 Q154 -10 96 49 Q38 108 38 216 Q38 320 93 387 Q148 454 242 454 Q334 454 382 396 Q430 338 431 259 Q431 233 425 206 L112 206 Q118 50 253 50 Q306 50 336 75 Q366 100 376 141 L435 128 Z M357 258 Q362 308 333.5 352 Q305 396 240 396 Q178 396 149 355 Q120 314 113 258 L357 258 Z " />
<glyph glyph-name="uni0113" unicode="&#x113;" horiz-adv-x="470" d="M368 564 L124 564 L124 621 L368 621 L368 564 Z M435 128 Q426 71 378 30.5 Q330 -10 248 -10 Q154 -10 96 49 Q38 108 38 216 Q38 320 93 387 Q148 454 242 454 Q334 454 382 396 Q430 338 431 259 Q431 233 425 206 L112 206 Q118 50 253 50 Q306 50 336 75 Q366 100 376 141 L435 128 Z M357 258 Q362 308 333.5 352 Q305 396 240 396 Q178 396 149 355 Q120 314 113 258 L357 258 Z " />
<glyph glyph-name="uni1EBD" unicode="&#x1ebd;" horiz-adv-x="470" d="M380 646 Q373 606 355.5 579.5 Q338 553 303 553 Q264 553 236 572.5 Q208 592 180 592 Q166 592 151 582.5 Q136 573 129 549 L96 561 Q100 587 119.5 618 Q139 649 177 649 Q211 649 236 630.5 Q261 612 297 612 Q310 612 323 620 Q336 628 344 655 L380 646 Z M435 128 Q426 71 378 30.5 Q330 -10 248 -10 Q154 -10 96 49 Q38 108 38 216 Q38 320 93 387 Q148 454 242 454 Q334 454 382 396 Q430 338 431 259 Q431 233 425 206 L112 206 Q118 50 253 50 Q306 50 336 75 Q366 100 376 141 L435 128 Z M357 258 Q362 308 333.5 352 Q305 396 240 396 Q178 396 149 355 Q120 314 113 258 L357 258 Z " />
<glyph glyph-name="uni0119" unicode="&#x119;" horiz-adv-x="470" d="M435 128 Q428 82 396 46 Q364 10 309 -3 Q275 -25 262 -50 Q249 -75 249 -99 Q249 -155 307 -155 Q336 -155 361 -140 L370 -189 Q333 -209 291 -209 Q244 -209 215.5 -185 Q187 -161 187 -118 Q187 -84 203 -56.5 Q219 -29 244 -10 Q151 -8 94.5 50.5 Q38 109 38 216 Q38 320 93 387 Q148 454 242 454 Q334 454 382 396 Q430 338 431 259 Q431 233 425 206 L112 206 Q118 50 253 50 Q306 50 336 75 Q366 100 376 141 L435 128 Z M357 258 Q362 308 333.5 352 Q305 396 240 396 Q178 396 149 355 Q120 314 113 258 L357 258 Z " />
<glyph glyph-name="uni011F" unicode="&#x11f;" horiz-adv-x="548" d="M382 655 Q382 532 259 532 Q137 532 137 655 L196 655 Q196 580 260 580 Q323 580 323 655 L382 655 Z M531 388 L459 388 L459 6 Q459 -99 401.5 -161 Q344 -223 240 -223 Q170 -223 114.5 -191 Q59 -159 41 -92 L97 -64 Q114 -116 156 -139.5 Q198 -163 243 -163 Q307 -163 347.5 -118.5 Q388 -74 388 9 L388 91 Q368 52 330 23 Q292 -6 229 -6 Q150 -6 94 50 Q38 106 38 211 Q38 300 86 377 Q134 454 237 454 Q343 454 388 375 L388 445 L531 445 L531 388 Z M388 192 L388 269 Q388 325 349.5 359.5 Q311 394 256 394 Q181 394 147.5 340 Q114 286 114 216 Q114 134 151.5 94 Q189 54 244 54 Q308 54 347 98 Q386 142 388 192 Z " />
<glyph glyph-name="uni011D" unicode="&#x11d;" horiz-adv-x="548" d="M393 553 L366 519 L255 603 L154 519 L129 551 L250 671 L272 671 L393 553 Z M531 388 L459 388 L459 6 Q459 -99 401.5 -161 Q344 -223 240 -223 Q170 -223 114.5 -191 Q59 -159 41 -92 L97 -64 Q114 -116 156 -139.5 Q198 -163 243 -163 Q307 -163 347.5 -118.5 Q388 -74 388 9 L388 91 Q368 52 330 23 Q292 -6 229 -6 Q150 -6 94 50 Q38 106 38 211 Q38 300 86 377 Q134 454 237 454 Q343 454 388 375 L388 445 L531 445 L531 388 Z M388 192 L388 269 Q388 325 349.5 359.5 Q311 394 256 394 Q181 394 147.5 340 Q114 286 114 216 Q114 134 151.5 94 Q189 54 244 54 Q308 54 347 98 Q386 142 388 192 Z " />
<glyph glyph-name="uni0123" unicode="&#x123;" horiz-adv-x="548" d="M224 544 L242 698 L299 698 L291 544 L224 544 Z M531 388 L459 388 L459 6 Q459 -99 401.5 -161 Q344 -223 240 -223 Q170 -223 114.5 -191 Q59 -159 41 -92 L97 -64 Q114 -116 156 -139.5 Q198 -163 243 -163 Q307 -163 347.5 -118.5 Q388 -74 388 9 L388 91 Q368 52 330 23 Q292 -6 229 -6 Q150 -6 94 50 Q38 106 38 211 Q38 300 86 377 Q134 454 237 454 Q343 454 388 375 L388 445 L531 445 L531 388 Z M388 192 L388 269 Q388 325 349.5 359.5 Q311 394 256 394 Q181 394 147.5 340 Q114 286 114 216 Q114 134 151.5 94 Q189 54 244 54 Q308 54 347 98 Q386 142 388 192 Z " />
<glyph glyph-name="uni0121" unicode="&#x121;" horiz-adv-x="548" d="M223 553 L223 644 L300 644 L300 553 L223 553 Z M531 388 L459 388 L459 6 Q459 -99 401.5 -161 Q344 -223 240 -223 Q170 -223 114.5 -191 Q59 -159 41 -92 L97 -64 Q114 -116 156 -139.5 Q198 -163 243 -163 Q307 -163 347.5 -118.5 Q388 -74 388 9 L388 91 Q368 52 330 23 Q292 -6 229 -6 Q150 -6 94 50 Q38 106 38 211 Q38 300 86 377 Q134 454 237 454 Q343 454 388 375 L388 445 L531 445 L531 388 Z M388 192 L388 269 Q388 325 349.5 359.5 Q311 394 256 394 Q181 394 147.5 340 Q114 286 114 216 Q114 134 151.5 94 Q189 54 244 54 Q308 54 347 98 Q386 142 388 192 Z " />
<glyph glyph-name="uni0127" unicode="&#x127;" horiz-adv-x="561" d="M551 0 L325 0 L325 57 L403 57 L403 264 Q403 336 373.5 365.5 Q344 395 298 395 Q240 395 203.5 355.5 Q167 316 165 267 L165 57 L242 57 L242 0 L17 0 L17 57 L94 57 L94 517 L22 517 L22 566 L94 566 L94 631 L17 631 L17 688 L165 688 L165 566 L337 566 L337 517 L165 517 L165 365 Q214 454 321 454 Q386 454 430 414 Q474 374 474 285 L474 57 L551 57 L551 0 Z " />
<glyph glyph-name="uni0125" unicode="&#x125;" horiz-adv-x="561" d="M238 749 L211 715 L100 799 L-1 715 L-26 747 L95 867 L117 867 L238 749 Z M551 0 L325 0 L325 57 L403 57 L403 264 Q403 336 373.5 365.5 Q344 395 298 395 Q240 395 203.5 355.5 Q167 316 165 267 L165 57 L242 57 L242 0 L17 0 L17 57 L94 57 L94 631 L17 631 L17 688 L165 688 L165 365 Q214 454 321 454 Q386 454 430 414 Q474 374 474 285 L474 57 L551 57 L551 0 Z " />
<glyph glyph-name="uni00ED" unicode="&#xed;" horiz-adv-x="280" d="M241 624 L69 520 L47 551 L201 683 L241 624 Z M34 57 L112 57 L112 388 L32 388 L32 445 L182 445 L182 57 L260 57 L260 0 L34 0 L34 57 Z " />
<glyph glyph-name="uni00EC" unicode="&#xec;" horiz-adv-x="280" d="M186 551 L165 520 L-8 624 L32 683 L186 551 Z M34 57 L112 57 L112 388 L32 388 L32 445 L182 445 L182 57 L260 57 L260 0 L34 0 L34 57 Z " />
<glyph glyph-name="uni00EE" unicode="&#xee;" horiz-adv-x="279" d="M265 553 L238 519 L127 603 L26 519 L1 551 L122 671 L144 671 L265 553 Z M34 57 L112 57 L112 388 L32 388 L32 445 L182 445 L182 57 L260 57 L260 0 L34 0 L34 57 Z " />
<glyph glyph-name="uni00EF" unicode="&#xef;" horiz-adv-x="280" d="M173 555 L173 640 L254 640 L254 555 L173 555 Z M2 555 L2 640 L83 640 L83 555 L2 555 Z M34 57 L112 57 L112 388 L32 388 L32 445 L182 445 L182 57 L260 57 L260 0 L34 0 L34 57 Z " />
<glyph glyph-name="uni012D" unicode="&#x12d;" horiz-adv-x="279" d="M265 655 Q265 532 142 532 Q20 532 20 655 L79 655 Q79 580 143 580 Q206 580 206 655 L265 655 Z M34 57 L112 57 L112 388 L32 388 L32 445 L182 445 L182 57 L260 57 L260 0 L34 0 L34 57 Z " />
<glyph glyph-name="uni0131" unicode="&#x131;" horiz-adv-x="280" d="M34 57 L112 57 L112 388 L32 388 L32 445 L182 445 L182 57 L260 57 L260 0 L34 0 L34 57 Z " />
<glyph glyph-name="uni012B" unicode="&#x12b;" horiz-adv-x="280" d="M252 564 L8 564 L8 621 L252 621 L252 564 Z M34 57 L112 57 L112 388 L32 388 L32 445 L182 445 L182 57 L260 57 L260 0 L34 0 L34 57 Z " />
<glyph glyph-name="uni012F" unicode="&#x12f;" horiz-adv-x="279" d="M105 560 L105 651 L181 651 L181 560 L105 560 Z M226 -140 L235 -189 Q197 -209 156 -209 Q109 -209 80 -185 Q51 -161 51 -118 Q51 -80 71.5 -49.5 Q92 -19 123 0 L34 0 L34 57 L112 57 L112 388 L32 388 L32 445 L182 445 L182 57 L260 57 L260 0 L178 0 Q141 -22 127.5 -48 Q114 -74 114 -99 Q114 -155 172 -155 Q201 -155 226 -140 Z " />
<glyph glyph-name="uni0129" unicode="&#x129;" horiz-adv-x="279" d="M276 646 Q269 606 251.5 579.5 Q234 553 199 553 Q160 553 132 572.5 Q104 592 76 592 Q62 592 47 582.5 Q32 573 25 549 L-8 561 Q-4 587 15.5 618 Q35 649 73 649 Q107 649 132 630.5 Q157 612 193 612 Q206 612 219 620 Q232 628 240 655 L276 646 Z M34 57 L112 57 L112 388 L32 388 L32 445 L182 445 L182 57 L260 57 L260 0 L34 0 L34 57 Z " />
<glyph glyph-name="uni0135" unicode="&#x135;" horiz-adv-x="252" d="M248 553 L221 519 L110 603 L9 519 L-16 551 L105 671 L127 671 L248 553 Z M7 445 L177 445 L177 -13 Q177 -140 122.5 -185.5 Q68 -231 -14 -224 L-16 -173 Q12 -173 40 -163 Q68 -153 87 -119 Q106 -85 106 -13 L106 388 L7 388 L7 445 Z " />
<glyph glyph-name="uni0237" unicode="&#x237;" horiz-adv-x="252" d="M7 445 L177 445 L177 -13 Q177 -140 122.5 -185.5 Q68 -231 -14 -224 L-16 -173 Q12 -173 40 -163 Q68 -153 87 -119 Q106 -85 106 -13 L106 388 L7 388 L7 445 Z " />
<glyph glyph-name="uni0137" unicode="&#x137;" horiz-adv-x="520" d="M509 0 L299 0 L299 57 L366 57 L244 208 L165 208 L165 57 L229 57 L229 0 L17 0 L17 57 L94 57 L94 631 L15 631 L15 688 L165 688 L165 262 L245 262 L347 388 L278 388 L278 445 L486 445 L486 388 L418 388 L299 241 L446 57 L509 57 L509 0 Z M295 -64 L277 -218 L220 -218 L228 -64 L295 -64 Z " />
<glyph glyph-name="uni013A" unicode="&#x13a;" horiz-adv-x="267" d="M224 755 L27 713 L16 750 L207 823 L224 755 Z M246 0 L20 0 L20 57 L98 57 L98 631 L19 631 L19 688 L168 688 L168 57 L246 57 L246 0 Z " />
<glyph glyph-name="uni013E" unicode="&#x13e;" horiz-adv-x="276" d="M246 0 L20 0 L20 57 L98 57 L98 631 L19 631 L19 688 L168 688 L168 57 L246 57 L246 0 Z M314 681 L292 457 L235 457 L248 681 L314 681 Z " />
<glyph glyph-name="uni013C" unicode="&#x13c;" horiz-adv-x="267" d="M246 0 L20 0 L20 57 L98 57 L98 631 L19 631 L19 688 L168 688 L168 57 L246 57 L246 0 Z M170 -64 L152 -218 L95 -218 L103 -64 L170 -64 Z " />
<glyph glyph-name="uni0140" unicode="&#x140;" horiz-adv-x="284" d="M246 0 L20 0 L20 57 L98 57 L98 631 L19 631 L19 688 L168 688 L168 57 L246 57 L246 0 Z M229 293 L229 384 L306 384 L306 293 L229 293 Z " />
<glyph glyph-name="uni0142" unicode="&#x142;" horiz-adv-x="273" d="M21 242 L21 301 L101 338 L101 631 L22 631 L22 688 L171 688 L171 370 L253 409 L253 350 L171 311 L171 57 L249 57 L249 0 L23 0 L23 57 L101 57 L101 279 L21 242 Z " />
<glyph glyph-name="uni00F1" unicode="&#xf1;" horiz-adv-x="573" d="M434 646 Q427 606 409.5 579.5 Q392 553 357 553 Q318 553 290 572.5 Q262 592 234 592 Q220 592 205 582.5 Q190 573 183 549 L150 561 Q154 587 173.5 618 Q193 649 231 649 Q265 649 290 630.5 Q315 612 351 612 Q364 612 377 620 Q390 628 398 655 L434 646 Z M564 0 L339 0 L339 57 L416 57 L416 264 Q416 336 387 365.5 Q358 395 313 395 Q253 395 216.5 355.5 Q180 316 178 265 L178 57 L256 57 L256 0 L30 0 L30 57 L108 57 L108 388 L28 388 L28 445 L178 445 L178 366 Q226 454 334 454 Q399 454 443 414 Q487 374 487 285 L487 57 L564 57 L564 0 Z " />
<glyph glyph-name="uni0144" unicode="&#x144;" horiz-adv-x="573" d="M448 624 L276 520 L254 551 L408 683 L448 624 Z M564 0 L339 0 L339 57 L416 57 L416 264 Q416 336 387 365.5 Q358 395 313 395 Q253 395 216.5 355.5 Q180 316 178 265 L178 57 L256 57 L256 0 L30 0 L30 57 L108 57 L108 388 L28 388 L28 445 L178 445 L178 366 Q226 454 334 454 Q399 454 443 414 Q487 374 487 285 L487 57 L564 57 L564 0 Z " />
<glyph glyph-name="uni0149" unicode="&#x149;" horiz-adv-x="573" d="M41 524 L88 721 L152 721 L104 524 L41 524 Z M564 0 L339 0 L339 57 L416 57 L416 264 Q416 336 387 365.5 Q358 395 313 395 Q253 395 216.5 355.5 Q180 316 178 265 L178 57 L256 57 L256 0 L30 0 L30 57 L108 57 L108 388 L28 388 L28 445 L178 445 L178 366 Q226 454 334 454 Q399 454 443 414 Q487 374 487 285 L487 57 L564 57 L564 0 Z " />
<glyph glyph-name="uni0148" unicode="&#x148;" horiz-adv-x="573" d="M430 638 L309 519 L287 519 L166 636 L192 670 L302 586 L404 671 L430 638 Z M564 0 L339 0 L339 57 L416 57 L416 264 Q416 336 387 365.5 Q358 395 313 395 Q253 395 216.5 355.5 Q180 316 178 265 L178 57 L256 57 L256 0 L30 0 L30 57 L108 57 L108 388 L28 388 L28 445 L178 445 L178 366 Q226 454 334 454 Q399 454 443 414 Q487 374 487 285 L487 57 L564 57 L564 0 Z " />
<glyph glyph-name="uni0146" unicode="&#x146;" horiz-adv-x="573" d="M564 0 L339 0 L339 57 L416 57 L416 264 Q416 336 387 365.5 Q358 395 313 395 Q253 395 216.5 355.5 Q180 316 178 265 L178 57 L256 57 L256 0 L30 0 L30 57 L108 57 L108 388 L28 388 L28 445 L178 445 L178 366 Q226 454 334 454 Q399 454 443 414 Q487 374 487 285 L487 57 L564 57 L564 0 Z M337 -64 L319 -218 L262 -218 L270 -64 L337 -64 Z " />
<glyph glyph-name="uni1E47" unicode="&#x1e47;" horiz-adv-x="573" d="M564 0 L339 0 L339 57 L416 57 L416 264 Q416 336 387 365.5 Q358 395 313 395 Q253 395 216.5 355.5 Q180 316 178 265 L178 57 L256 57 L256 0 L30 0 L30 57 L108 57 L108 388 L28 388 L28 445 L178 445 L178 366 Q226 454 334 454 Q399 454 443 414 Q487 374 487 285 L487 57 L564 57 L564 0 Z M257 -174 L257 -83 L334 -83 L334 -174 L257 -174 Z " />
<glyph glyph-name="uni014B" unicode="&#x14b;" horiz-adv-x="554" d="M30 57 L108 57 L108 388 L28 388 L28 445 L178 445 L178 365 Q227 454 334 454 Q399 454 443 414 Q487 374 487 285 L487 -13 Q487 -140 432.5 -185.5 Q378 -231 295 -224 L294 -173 Q322 -173 350 -163 Q378 -153 397 -119 Q416 -85 416 -13 L416 264 Q416 336 387 365.5 Q358 395 312 395 Q252 395 215 354.5 Q178 314 178 262 L178 57 L256 57 L256 0 L30 0 L30 57 Z " />
<glyph glyph-name="uni00F3" unicode="&#xf3;" horiz-adv-x="513" d="M411 624 L239 520 L217 551 L371 683 L411 624 Z M476 223 Q476 122 416 56 Q356 -10 253 -10 Q152 -10 94.5 54 Q37 118 37 219 Q37 316 93 385.5 Q149 455 257 455 Q366 455 421 386.5 Q476 318 476 223 Z M402 224 Q402 300 363.5 347.5 Q325 395 255 395 Q185 395 147.5 346 Q110 297 110 223 Q110 150 147 100 Q184 50 255 50 Q326 50 364 99.5 Q402 149 402 224 Z " />
<glyph glyph-name="uni00F2" unicode="&#xf2;" horiz-adv-x="513" d="M317 551 L296 520 L123 624 L163 683 L317 551 Z M476 223 Q476 122 416 56 Q356 -10 253 -10 Q152 -10 94.5 54 Q37 118 37 219 Q37 316 93 385.5 Q149 455 257 455 Q366 455 421 386.5 Q476 318 476 223 Z M402 224 Q402 300 363.5 347.5 Q325 395 255 395 Q185 395 147.5 346 Q110 297 110 223 Q110 150 147 100 Q184 50 255 50 Q326 50 364 99.5 Q402 149 402 224 Z " />
<glyph glyph-name="uni00F4" unicode="&#xf4;" horiz-adv-x="513" d="M392 553 L365 519 L254 603 L153 519 L128 551 L249 671 L271 671 L392 553 Z M476 223 Q476 122 416 56 Q356 -10 253 -10 Q152 -10 94.5 54 Q37 118 37 219 Q37 316 93 385.5 Q149 455 257 455 Q366 455 421 386.5 Q476 318 476 223 Z M402 224 Q402 300 363.5 347.5 Q325 395 255 395 Q185 395 147.5 346 Q110 297 110 223 Q110 150 147 100 Q184 50 255 50 Q326 50 364 99.5 Q402 149 402 224 Z " />
<glyph glyph-name="uni00F6" unicode="&#xf6;" horiz-adv-x="513" d="M131 555 L131 640 L212 640 L212 555 L131 555 Z M302 555 L302 640 L383 640 L383 555 L302 555 Z M476 223 Q476 122 416 56 Q356 -10 253 -10 Q152 -10 94.5 54 Q37 118 37 219 Q37 316 93 385.5 Q149 455 257 455 Q366 455 421 386.5 Q476 318 476 223 Z M402 224 Q402 300 363.5 347.5 Q325 395 255 395 Q185 395 147.5 346 Q110 297 110 223 Q110 150 147 100 Q184 50 255 50 Q326 50 364 99.5 Q402 149 402 224 Z " />
<glyph glyph-name="uni00F5" unicode="&#xf5;" horiz-adv-x="513" d="M396 646 Q389 606 371.5 579.5 Q354 553 319 553 Q280 553 252 572.5 Q224 592 196 592 Q182 592 167 582.5 Q152 573 145 549 L112 561 Q116 587 135.5 618 Q155 649 193 649 Q227 649 252 630.5 Q277 612 313 612 Q326 612 339 620 Q352 628 360 655 L396 646 Z M476 223 Q476 122 416 56 Q356 -10 253 -10 Q152 -10 94.5 54 Q37 118 37 219 Q37 316 93 385.5 Q149 455 257 455 Q366 455 421 386.5 Q476 318 476 223 Z M402 224 Q402 300 363.5 347.5 Q325 395 255 395 Q185 395 147.5 346 Q110 297 110 223 Q110 150 147 100 Q184 50 255 50 Q326 50 364 99.5 Q402 149 402 224 Z " />
<glyph glyph-name="uni014F" unicode="&#x14f;" horiz-adv-x="513" d="M384 655 Q384 532 261 532 Q139 532 139 655 L198 655 Q198 580 262 580 Q325 580 325 655 L384 655 Z M476 223 Q476 122 416 56 Q356 -10 253 -10 Q152 -10 94.5 54 Q37 118 37 219 Q37 316 93 385.5 Q149 455 257 455 Q366 455 421 386.5 Q476 318 476 223 Z M402 224 Q402 300 363.5 347.5 Q325 395 255 395 Q185 395 147.5 346 Q110 297 110 223 Q110 150 147 100 Q184 50 255 50 Q326 50 364 99.5 Q402 149 402 224 Z " />
<glyph glyph-name="uni0151" unicode="&#x151;" horiz-adv-x="513" d="M312 678 L186 519 L155 541 L255 718 L312 678 Z M468 624 L295 520 L274 551 L428 683 L468 624 Z M476 223 Q476 122 416 56 Q356 -10 253 -10 Q152 -10 94.5 54 Q37 118 37 219 Q37 316 93 385.5 Q149 455 257 455 Q366 455 421 386.5 Q476 318 476 223 Z M402 224 Q402 300 363.5 347.5 Q325 395 255 395 Q185 395 147.5 346 Q110 297 110 223 Q110 150 147 100 Q184 50 255 50 Q326 50 364 99.5 Q402 149 402 224 Z " />
<glyph glyph-name="uni014D" unicode="&#x14d;" horiz-adv-x="513" d="M378 564 L134 564 L134 621 L378 621 L378 564 Z M476 223 Q476 122 416 56 Q356 -10 253 -10 Q152 -10 94.5 54 Q37 118 37 219 Q37 316 93 385.5 Q149 455 257 455 Q366 455 421 386.5 Q476 318 476 223 Z M402 224 Q402 300 363.5 347.5 Q325 395 255 395 Q185 395 147.5 346 Q110 297 110 223 Q110 150 147 100 Q184 50 255 50 Q326 50 364 99.5 Q402 149 402 224 Z " />
<glyph glyph-name="uni00F8" unicode="&#xf8;" horiz-adv-x="516" d="M478 223 Q478 121 417.5 55.5 Q357 -10 254 -10 Q178 -10 123 29 L99 0 L38 0 L89 61 Q38 123 38 219 Q38 316 94 385 Q150 454 259 454 Q335 454 390 415 L416 445 L478 445 L425 383 Q478 319 478 223 Z M113 223 Q113 161 138 118 L346 363 Q310 393 257 393 Q187 393 150 345 Q113 297 113 223 Z M402 224 Q402 283 377 327 L168 81 Q203 51 257 51 Q328 51 365 100.5 Q402 150 402 224 Z " />
<glyph glyph-name="uni01FF" unicode="&#x1ff;" horiz-adv-x="516" d="M431 624 L258 520 L237 551 L391 683 L431 624 Z M478 223 Q478 121 417.5 55.5 Q357 -10 254 -10 Q178 -10 123 29 L99 0 L38 0 L89 61 Q38 123 38 219 Q38 316 94 385 Q150 454 259 454 Q335 454 390 415 L416 445 L478 445 L425 383 Q478 319 478 223 Z M113 223 Q113 161 138 118 L346 363 Q310 393 257 393 Q187 393 150 345 Q113 297 113 223 Z M402 224 Q402 283 377 327 L168 81 Q203 51 257 51 Q328 51 365 100.5 Q402 150 402 224 Z " />
<glyph glyph-name="uni0155" unicode="&#x155;" horiz-adv-x="420" d="M406 624 L234 520 L212 551 L366 683 L406 624 Z M284 453 Q332 453 360 430 L377 318 L320 311 L303 387 Q286 393 269 393 Q230 393 204 360.5 Q178 328 178 276 L178 57 L281 57 L281 0 L30 0 L30 57 L108 57 L108 388 L28 388 L28 445 L174 445 L174 365 Q187 402 216.5 427.5 Q246 453 284 453 Z " />
<glyph glyph-name="uni0159" unicode="&#x159;" horiz-adv-x="420" d="M376 638 L255 519 L233 519 L112 636 L138 670 L248 586 L350 671 L376 638 Z M284 453 Q332 453 360 430 L377 318 L320 311 L303 387 Q286 393 269 393 Q230 393 204 360.5 Q178 328 178 276 L178 57 L281 57 L281 0 L30 0 L30 57 L108 57 L108 388 L28 388 L28 445 L174 445 L174 365 Q187 402 216.5 427.5 Q246 453 284 453 Z " />
<glyph glyph-name="uni0157" unicode="&#x157;" horiz-adv-x="420" d="M284 453 Q332 453 360 430 L377 318 L320 311 L303 387 Q286 393 269 393 Q230 393 204 360.5 Q178 328 178 276 L178 57 L281 57 L281 0 L30 0 L30 57 L108 57 L108 388 L28 388 L28 445 L174 445 L174 365 Q187 402 216.5 427.5 Q246 453 284 453 Z M176 -64 L158 -218 L101 -218 L109 -64 L176 -64 Z " />
<glyph glyph-name="uni015B" unicode="&#x15b;" horiz-adv-x="438" d="M365 624 L193 520 L171 551 L325 683 L365 624 Z M399 129 Q399 64 344.5 27 Q290 -10 210 -10 Q163 -10 116.5 2.5 Q70 15 41 34 L55 135 L111 129 L108 70 Q154 48 207 48 Q254 48 290.5 66.5 Q327 85 327 123 Q327 160 299 175 Q271 190 229.5 197 Q188 204 146 214 Q104 224 76 248.5 Q48 273 48 325 Q48 396 100 425 Q152 454 213 454 Q259 454 299.5 442 Q340 430 368 413 L379 309 L321 302 L310 374 Q268 396 219 396 Q177 396 150 380 Q123 364 123 330 Q123 295 151 280.5 Q179 266 220 259.5 Q261 253 302 243 Q343 233 371 207.5 Q399 182 399 129 Z " />
<glyph glyph-name="uni015F" unicode="&#x15f;" horiz-adv-x="438" d="M338 -125 Q338 -170 306 -189.5 Q274 -209 230 -209 Q170 -209 134 -179 L151 -138 Q181 -161 226 -161 Q277 -161 277 -120 Q277 -95 260 -87.5 Q243 -80 219 -80 L189 -80 L189 -9 Q146 -7 106 5.5 Q66 18 41 34 L55 135 L111 129 L108 70 Q154 48 207 48 Q254 48 290.5 66.5 Q327 85 327 123 Q327 160 299 175 Q271 190 229.5 197 Q188 204 146 214 Q104 224 76 248.5 Q48 273 48 325 Q48 396 100 425 Q152 454 213 454 Q259 454 299.5 442 Q340 430 368 413 L379 309 L321 302 L310 374 Q268 396 219 396 Q177 396 150 380 Q123 364 123 330 Q123 295 151 280.5 Q179 266 220 259.5 Q261 253 302 243 Q343 233 371 207.5 Q399 182 399 129 Q399 70 354 34 Q309 -2 241 -8 L241 -47 L249 -47 Q296 -47 317 -69.5 Q338 -92 338 -125 Z " />
<glyph glyph-name="uni0161" unicode="&#x161;" horiz-adv-x="438" d="M351 638 L230 519 L208 519 L87 636 L113 670 L223 586 L325 671 L351 638 Z M399 129 Q399 64 344.5 27 Q290 -10 210 -10 Q163 -10 116.5 2.5 Q70 15 41 34 L55 135 L111 129 L108 70 Q154 48 207 48 Q254 48 290.5 66.5 Q327 85 327 123 Q327 160 299 175 Q271 190 229.5 197 Q188 204 146 214 Q104 224 76 248.5 Q48 273 48 325 Q48 396 100 425 Q152 454 213 454 Q259 454 299.5 442 Q340 430 368 413 L379 309 L321 302 L310 374 Q268 396 219 396 Q177 396 150 380 Q123 364 123 330 Q123 295 151 280.5 Q179 266 220 259.5 Q261 253 302 243 Q343 233 371 207.5 Q399 182 399 129 Z " />
<glyph glyph-name="uni015D" unicode="&#x15d;" horiz-adv-x="438" d="M356 553 L329 519 L218 603 L117 519 L92 551 L213 671 L235 671 L356 553 Z M399 129 Q399 64 344.5 27 Q290 -10 210 -10 Q163 -10 116.5 2.5 Q70 15 41 34 L55 135 L111 129 L108 70 Q154 48 207 48 Q254 48 290.5 66.5 Q327 85 327 123 Q327 160 299 175 Q271 190 229.5 197 Q188 204 146 214 Q104 224 76 248.5 Q48 273 48 325 Q48 396 100 425 Q152 454 213 454 Q259 454 299.5 442 Q340 430 368 413 L379 309 L321 302 L310 374 Q268 396 219 396 Q177 396 150 380 Q123 364 123 330 Q123 295 151 280.5 Q179 266 220 259.5 Q261 253 302 243 Q343 233 371 207.5 Q399 182 399 129 Z " />
<glyph glyph-name="uni1E63" unicode="&#x1e63;" horiz-adv-x="438" d="M399 129 Q399 64 344.5 27 Q290 -10 210 -10 Q163 -10 116.5 2.5 Q70 15 41 34 L55 135 L111 129 L108 70 Q154 48 207 48 Q254 48 290.5 66.5 Q327 85 327 123 Q327 160 299 175 Q271 190 229.5 197 Q188 204 146 214 Q104 224 76 248.5 Q48 273 48 325 Q48 396 100 425 Q152 454 213 454 Q259 454 299.5 442 Q340 430 368 413 L379 309 L321 302 L310 374 Q268 396 219 396 Q177 396 150 380 Q123 364 123 330 Q123 295 151 280.5 Q179 266 220 259.5 Q261 253 302 243 Q343 233 371 207.5 Q399 182 399 129 Z M180 -174 L180 -83 L257 -83 L257 -174 L180 -174 Z " />
<glyph glyph-name="uni0219" unicode="&#x219;" horiz-adv-x="438" d="M399 129 Q399 64 344.5 27 Q290 -10 210 -10 Q163 -10 116.5 2.5 Q70 15 41 34 L55 135 L111 129 L108 70 Q154 48 207 48 Q254 48 290.5 66.5 Q327 85 327 123 Q327 160 299 175 Q271 190 229.5 197 Q188 204 146 214 Q104 224 76 248.5 Q48 273 48 325 Q48 396 100 425 Q152 454 213 454 Q259 454 299.5 442 Q340 430 368 413 L379 309 L321 302 L310 374 Q268 396 219 396 Q177 396 150 380 Q123 364 123 330 Q123 295 151 280.5 Q179 266 220 259.5 Q261 253 302 243 Q343 233 371 207.5 Q399 182 399 129 Z M256 -64 L238 -218 L181 -218 L189 -64 L256 -64 Z " />
<glyph glyph-name="uni00DF" unicode="&#xdf;" horiz-adv-x="652" d="M633 128 Q633 63 581 26.5 Q529 -10 453 -10 Q404 -10 353.5 1.5 Q303 13 274 34 L287 135 L344 129 L341 73 Q362 58 391 53 Q420 48 448 48 Q494 48 527.5 66 Q561 84 561 122 Q561 159 532.5 175 Q504 191 462.5 198.5 Q421 206 379.5 215.5 Q338 225 309.5 248 Q281 271 281 320 Q281 374 314 401.5 Q347 429 389.5 447 Q432 465 465 486.5 Q498 508 498 550 Q498 592 457.5 615.5 Q417 639 346 639 Q247 639 210.5 594.5 Q174 550 174 486 L174 0 L26 0 L26 57 L103 57 L103 388 L39 388 L39 445 L103 445 L103 491 Q103 587 168.5 642.5 Q234 698 351 698 Q457 698 513 657 Q569 616 569 554 Q569 503 537 475 Q505 447 463 428.5 Q421 410 389 388 Q357 366 357 328 Q357 296 385 282.5 Q413 269 454 262 Q495 255 536 244.5 Q577 234 605 207.5 Q633 181 633 128 Z " />
<glyph glyph-name="uni0167" unicode="&#x167;" horiz-adv-x="373" d="M23 230 L23 283 L88 283 L88 389 L16 389 L16 445 L88 445 L88 588 L158 588 L158 445 L332 445 L332 389 L158 389 L158 283 L322 283 L322 230 L158 230 L158 140 Q158 100 175 75.5 Q192 51 233 51 Q259 51 281.5 67 Q304 83 314 137 L367 120 Q349 -10 226 -10 Q159 -10 123.5 28 Q88 66 88 131 L88 230 L23 230 Z " />
<glyph glyph-name="uni0165" unicode="&#x165;" horiz-adv-x="371" d="M326 761 L304 537 L247 537 L260 761 L326 761 Z M366 120 Q348 -10 225 -10 Q158 -10 122.5 28 Q87 66 87 131 L87 389 L15 389 L15 445 L87 445 L87 588 L157 588 L157 445 L331 445 L331 389 L157 389 L157 140 Q157 100 174.5 75.5 Q192 51 232 51 Q258 51 280.5 67 Q303 83 313 137 L366 120 Z " />
<glyph glyph-name="uni021B" unicode="&#x21b;" horiz-adv-x="371" d="M366 120 Q348 -10 225 -10 Q158 -10 122.5 28 Q87 66 87 131 L87 389 L15 389 L15 445 L87 445 L87 588 L157 588 L157 445 L331 445 L331 389 L157 389 L157 140 Q157 100 174.5 75.5 Q192 51 232 51 Q258 51 280.5 67 Q303 83 313 137 L366 120 Z M265 -64 L247 -218 L190 -218 L198 -64 L265 -64 Z " />
<glyph glyph-name="uni0163" unicode="&#x163;" horiz-adv-x="371" d="M366 120 Q348 -10 225 -10 Q158 -10 122.5 28 Q87 66 87 131 L87 389 L15 389 L15 445 L87 445 L87 588 L157 588 L157 445 L331 445 L331 389 L157 389 L157 140 Q157 100 174.5 75.5 Q192 51 232 51 Q258 51 280.5 67 Q303 83 313 137 L366 120 Z M265 -64 L247 -218 L190 -218 L198 -64 L265 -64 Z " />
<glyph glyph-name="uni00FA" unicode="&#xfa;" horiz-adv-x="562" d="M421 624 L249 520 L227 551 L381 683 L421 624 Z M546 0 L396 0 L396 84 Q375 42 334.5 16 Q294 -10 241 -10 Q176 -10 131.5 30.5 Q87 71 87 160 L87 388 L9 388 L9 445 L157 445 L157 180 Q157 108 187 79 Q217 50 264 50 Q321 50 357.5 93 Q394 136 396 184 L396 388 L303 388 L303 445 L466 445 L466 57 L546 57 L546 0 Z " />
<glyph glyph-name="uni00F9" unicode="&#xf9;" horiz-adv-x="562" d="M310 551 L289 520 L116 624 L156 683 L310 551 Z M546 0 L396 0 L396 84 Q375 42 334.5 16 Q294 -10 241 -10 Q176 -10 131.5 30.5 Q87 71 87 160 L87 388 L9 388 L9 445 L157 445 L157 180 Q157 108 187 79 Q217 50 264 50 Q321 50 357.5 93 Q394 136 396 184 L396 388 L303 388 L303 445 L466 445 L466 57 L546 57 L546 0 Z " />
<glyph glyph-name="uni00FB" unicode="&#xfb;" horiz-adv-x="562" d="M401 553 L374 519 L263 603 L162 519 L137 551 L258 671 L280 671 L401 553 Z M546 0 L396 0 L396 84 Q375 42 334.5 16 Q294 -10 241 -10 Q176 -10 131.5 30.5 Q87 71 87 160 L87 388 L9 388 L9 445 L157 445 L157 180 Q157 108 187 79 Q217 50 264 50 Q321 50 357.5 93 Q394 136 396 184 L396 388 L303 388 L303 445 L466 445 L466 57 L546 57 L546 0 Z " />
<glyph glyph-name="uni00FC" unicode="&#xfc;" horiz-adv-x="562" d="M133 555 L133 640 L214 640 L214 555 L133 555 Z M304 555 L304 640 L385 640 L385 555 L304 555 Z M546 0 L396 0 L396 84 Q375 42 334.5 16 Q294 -10 241 -10 Q176 -10 131.5 30.5 Q87 71 87 160 L87 388 L9 388 L9 445 L157 445 L157 180 Q157 108 187 79 Q217 50 264 50 Q321 50 357.5 93 Q394 136 396 184 L396 388 L303 388 L303 445 L466 445 L466 57 L546 57 L546 0 Z " />
<glyph glyph-name="uni016D" unicode="&#x16d;" horiz-adv-x="562" d="M387 655 Q387 532 264 532 Q142 532 142 655 L201 655 Q201 580 265 580 Q328 580 328 655 L387 655 Z M546 0 L396 0 L396 84 Q375 42 334.5 16 Q294 -10 241 -10 Q176 -10 131.5 30.5 Q87 71 87 160 L87 388 L9 388 L9 445 L157 445 L157 180 Q157 108 187 79 Q217 50 264 50 Q321 50 357.5 93 Q394 136 396 184 L396 388 L303 388 L303 445 L466 445 L466 57 L546 57 L546 0 Z " />
<glyph glyph-name="uni0171" unicode="&#x171;" horiz-adv-x="562" d="M314 678 L188 519 L157 541 L257 718 L314 678 Z M470 624 L297 520 L276 551 L430 683 L470 624 Z M546 0 L396 0 L396 84 Q375 42 334.5 16 Q294 -10 241 -10 Q176 -10 131.5 30.5 Q87 71 87 160 L87 388 L9 388 L9 445 L157 445 L157 180 Q157 108 187 79 Q217 50 264 50 Q321 50 357.5 93 Q394 136 396 184 L396 388 L303 388 L303 445 L466 445 L466 57 L546 57 L546 0 Z " />
<glyph glyph-name="uni016B" unicode="&#x16b;" horiz-adv-x="562" d="M391 564 L147 564 L147 621 L391 621 L391 564 Z M546 0 L396 0 L396 84 Q375 42 334.5 16 Q294 -10 241 -10 Q176 -10 131.5 30.5 Q87 71 87 160 L87 388 L9 388 L9 445 L157 445 L157 180 Q157 108 187 79 Q217 50 264 50 Q321 50 357.5 93 Q394 136 396 184 L396 388 L303 388 L303 445 L466 445 L466 57 L546 57 L546 0 Z " />
<glyph glyph-name="uni0173" unicode="&#x173;" horiz-adv-x="562" d="M546 0 L497 0 Q461 -22 447 -48 Q433 -74 433 -99 Q433 -155 491 -155 Q520 -155 545 -140 L554 -189 Q517 -209 475 -209 Q428 -209 399.5 -185 Q371 -161 371 -118 Q371 -80 391.5 -49.5 Q412 -19 443 0 L396 0 L396 84 Q375 42 334.5 16 Q294 -10 241 -10 Q176 -10 131.5 30.5 Q87 71 87 160 L87 388 L9 388 L9 445 L157 445 L157 180 Q157 108 187 79 Q217 50 264 50 Q321 50 357.5 93 Q394 136 396 184 L396 388 L303 388 L303 445 L466 445 L466 57 L546 57 L546 0 Z " />
<glyph glyph-name="uni016F" unicode="&#x16f;" horiz-adv-x="562" d="M363 607 Q363 566 338.5 540 Q314 514 264 514 Q166 514 166 606 Q166 646 192 672 Q218 698 265 698 Q316 698 339.5 672.5 Q363 647 363 607 Z M314 608 Q314 628 303 643 Q292 658 264 658 Q238 658 226.5 643 Q215 628 215 606 Q215 554 264 554 Q290 554 302 570 Q314 586 314 608 Z M546 0 L396 0 L396 84 Q375 42 334.5 16 Q294 -10 241 -10 Q176 -10 131.5 30.5 Q87 71 87 160 L87 388 L9 388 L9 445 L157 445 L157 180 Q157 108 187 79 Q217 50 264 50 Q321 50 357.5 93 Q394 136 396 184 L396 388 L303 388 L303 445 L466 445 L466 57 L546 57 L546 0 Z " />
<glyph glyph-name="uni0169" unicode="&#x169;" horiz-adv-x="562" d="M415 646 Q408 606 390 579.5 Q372 553 338 553 Q299 553 271 572.5 Q243 592 215 592 Q201 592 186.5 582.5 Q172 573 164 549 L131 561 Q135 587 154.5 618 Q174 649 212 649 Q246 649 271 630.5 Q296 612 332 612 Q346 612 358.5 620 Q371 628 379 655 L415 646 Z M546 0 L396 0 L396 84 Q375 42 334.5 16 Q294 -10 241 -10 Q176 -10 131.5 30.5 Q87 71 87 160 L87 388 L9 388 L9 445 L157 445 L157 180 Q157 108 187 79 Q217 50 264 50 Q321 50 357.5 93 Q394 136 396 184 L396 388 L303 388 L303 445 L466 445 L466 57 L546 57 L546 0 Z " />
<glyph glyph-name="uni01D4" unicode="&#x1d4;" horiz-adv-x="562" d="M400 639 L279 520 L257 520 L136 637 L162 671 L272 587 L374 672 L400 639 Z M546 0 L396 0 L396 84 Q375 42 334.5 16 Q294 -10 241 -10 Q176 -10 131.5 30.5 Q87 71 87 160 L87 388 L9 388 L9 445 L157 445 L157 180 Q157 108 187 79 Q217 50 264 50 Q321 50 357.5 93 Q394 136 396 184 L396 388 L303 388 L303 445 L466 445 L466 57 L546 57 L546 0 Z " />
<glyph glyph-name="uni1E83" unicode="&#x1e83;" horiz-adv-x="765" d="M551 624 L379 520 L357 551 L511 683 L551 624 Z M756 388 L705 388 L574 0 L520 0 L384 340 L379 340 L246 0 L194 0 L58 388 L9 388 L9 445 L219 445 L219 388 L134 388 L227 107 L232 107 L364 445 L411 445 L550 107 L555 107 L637 388 L556 388 L556 445 L756 445 L756 388 Z " />
<glyph glyph-name="uni0175" unicode="&#x175;" horiz-adv-x="765" d="M521 553 L494 519 L383 603 L282 519 L257 551 L378 671 L400 671 L521 553 Z M756 388 L705 388 L574 0 L520 0 L384 340 L379 340 L246 0 L194 0 L58 388 L9 388 L9 445 L219 445 L219 388 L134 388 L227 107 L232 107 L364 445 L411 445 L550 107 L555 107 L637 388 L556 388 L556 445 L756 445 L756 388 Z " />
<glyph glyph-name="uni1E85" unicode="&#x1e85;" horiz-adv-x="765" d="M264 555 L264 640 L345 640 L345 555 L264 555 Z M435 555 L435 640 L516 640 L516 555 L435 555 Z M756 388 L705 388 L574 0 L520 0 L384 340 L379 340 L246 0 L194 0 L58 388 L9 388 L9 445 L219 445 L219 388 L134 388 L227 107 L232 107 L364 445 L411 445 L550 107 L555 107 L637 388 L556 388 L556 445 L756 445 L756 388 Z " />
<glyph glyph-name="uni1E81" unicode="&#x1e81;" horiz-adv-x="765" d="M422 551 L401 520 L228 624 L268 683 L422 551 Z M756 388 L705 388 L574 0 L520 0 L384 340 L379 340 L246 0 L194 0 L58 388 L9 388 L9 445 L219 445 L219 388 L134 388 L227 107 L232 107 L364 445 L411 445 L550 107 L555 107 L637 388 L556 388 L556 445 L756 445 L756 388 Z " />
<glyph glyph-name="uni00FF" unicode="&#xff;" horiz-adv-x="511" d="M143 555 L143 640 L224 640 L224 555 L143 555 Z M314 555 L314 640 L395 640 L395 555 L314 555 Z M502 388 L449 388 L292 0 L232 -156 L308 -156 L308 -213 L82 -213 L82 -156 L165 -156 L223 1 L61 388 L8 388 L8 445 L214 445 L214 388 L136 388 L261 89 L267 89 L378 388 L306 388 L306 445 L502 445 L502 388 Z " />
<glyph glyph-name="uni0177" unicode="&#x177;" horiz-adv-x="511" d="M397 553 L370 519 L259 603 L158 519 L133 551 L254 671 L276 671 L397 553 Z M502 388 L449 388 L292 0 L232 -156 L308 -156 L308 -213 L82 -213 L82 -156 L165 -156 L223 1 L61 388 L8 388 L8 445 L214 445 L214 388 L136 388 L261 89 L267 89 L378 388 L306 388 L306 445 L502 445 L502 388 Z " />
<glyph glyph-name="uni0233" unicode="&#x233;" horiz-adv-x="511" d="M384 564 L140 564 L140 621 L384 621 L384 564 Z M502 388 L449 388 L292 0 L232 -156 L308 -156 L308 -213 L82 -213 L82 -156 L165 -156 L223 1 L61 388 L8 388 L8 445 L214 445 L214 388 L136 388 L261 89 L267 89 L378 388 L306 388 L306 445 L502 445 L502 388 Z " />
<glyph glyph-name="uni1EF3" unicode="&#x1ef3;" horiz-adv-x="511" d="M315 551 L294 520 L121 624 L161 683 L315 551 Z M502 388 L449 388 L292 0 L232 -156 L308 -156 L308 -213 L82 -213 L82 -156 L165 -156 L223 1 L61 388 L8 388 L8 445 L214 445 L214 388 L136 388 L261 89 L267 89 L378 388 L306 388 L306 445 L502 445 L502 388 Z " />
<glyph glyph-name="uni00FD" unicode="&#xfd;" horiz-adv-x="511" d="M405 624 L233 520 L211 551 L365 683 L405 624 Z M502 388 L449 388 L292 0 L232 -156 L308 -156 L308 -213 L82 -213 L82 -156 L165 -156 L223 1 L61 388 L8 388 L8 445 L214 445 L214 388 L136 388 L261 89 L267 89 L378 388 L306 388 L306 445 L502 445 L502 388 Z " />
<glyph glyph-name="uni017A" unicode="&#x17a;" horiz-adv-x="464" d="M375 624 L203 520 L181 551 L335 683 L375 624 Z M413 0 L39 0 L36 43 L316 388 L106 388 L93 299 L37 306 L49 445 L407 445 L410 403 L128 57 L357 57 L380 147 L437 138 L413 0 Z " />
<glyph glyph-name="uni017E" unicode="&#x17e;" horiz-adv-x="464" d="M370 638 L249 519 L227 519 L106 636 L132 670 L242 586 L344 671 L370 638 Z M413 0 L39 0 L36 43 L316 388 L106 388 L93 299 L37 306 L49 445 L407 445 L410 403 L128 57 L357 57 L380 147 L437 138 L413 0 Z " />
<glyph glyph-name="uni017C" unicode="&#x17c;" horiz-adv-x="464" d="M199 553 L199 644 L276 644 L276 553 L199 553 Z M413 0 L39 0 L36 43 L316 388 L106 388 L93 299 L37 306 L49 445 L407 445 L410 403 L128 57 L357 57 L380 147 L437 138 L413 0 Z " />
<glyph glyph-name="uni00FE" unicode="&#xfe;" horiz-adv-x="524" d="M-11 -156 L66 -156 L66 631 L-14 631 L-14 688 L137 688 L137 351 Q157 392 195.5 423 Q234 454 297 454 Q380 454 433.5 396 Q487 338 487 235 Q487 176 466.5 119.5 Q446 63 401 26.5 Q356 -10 284 -10 Q181 -10 137 65 L137 -156 L241 -156 L241 -213 L-11 -213 L-11 -156 Z M272 51 Q343 51 377.5 104.5 Q412 158 412 229 Q412 309 374 351 Q336 393 281 393 Q218 393 178.5 344.5 Q139 296 137 246 L137 183 Q137 127 175.5 89 Q214 51 272 51 Z " />
<glyph glyph-name="uni0259" unicode="&#x259;" horiz-adv-x="470" d="M35 316 Q44 373 92 413.5 Q140 454 222 454 Q316 454 374 395 Q432 336 432 228 Q432 124 377 57 Q322 -10 228 -10 Q136 -10 88 48 Q40 106 39 185 Q39 211 45 238 L358 238 Q352 394 217 394 Q164 394 134 369 Q104 344 94 303 L35 316 Z M113 186 Q108 136 136.5 92 Q165 48 230 48 Q292 48 321 89 Q350 130 357 186 L113 186 Z " />
<glyph glyph-name="uni00F0" unicode="&#xf0;" horiz-adv-x="524" d="M157 526 L215 596 Q174 624 134 646 L163 698 Q186 685 209 671.5 Q232 658 253 643 L301 701 L340 674 L291 614 Q373 548 424 459 Q475 370 475 257 L475 223 Q475 121 415.5 55.5 Q356 -10 253 -10 Q152 -10 94.5 54 Q37 118 37 219 Q37 320 95 387 Q153 454 248 454 Q290 454 321 440 Q352 426 375 406 Q340 497 253 567 L197 498 L157 526 Z M252 393 Q184 393 148 345 Q112 297 112 223 Q112 151 148 101 Q184 51 256 51 Q326 51 363 99 Q400 147 400 220 L400 263 Q398 304 359 348.5 Q320 393 252 393 Z " />
<glyph glyph-name="uni0133" unicode="&#x133;" horiz-adv-x="532" d="M105 560 L105 651 L181 651 L181 560 L105 560 Z M380 560 L380 651 L456 651 L456 560 L380 560 Z M260 0 L34 0 L34 57 L112 57 L112 388 L32 388 L32 445 L182 445 L182 57 L260 57 L260 0 Z M456 -13 Q456 -140 402 -185.5 Q348 -231 265 -224 L263 -170 Q290 -170 318.5 -161 Q347 -152 366 -118.5 Q385 -85 385 -13 L385 388 L286 388 L286 445 L456 445 L456 -13 Z " />
<glyph glyph-name="uni0153" unicode="&#x153;" horiz-adv-x="833" d="M798 128 Q789 71 741.5 30.5 Q694 -10 611 -10 Q490 -10 435 79 Q374 -10 253 -10 Q152 -10 94.5 54 Q37 118 37 219 Q37 316 93 385.5 Q149 455 257 455 Q321 455 366.5 429.5 Q412 404 438 362 Q494 454 605 454 Q696 454 744.5 396 Q793 338 794 259 Q794 233 788 206 L475 206 L475 201 Q484 50 616 50 Q668 50 698 75 Q728 100 739 141 L798 128 Z M720 258 Q725 308 696.5 352 Q668 396 603 396 Q542 396 512.5 355 Q483 314 476 258 L720 258 Z M401 237 Q398 308 360 351.5 Q322 395 255 395 Q185 395 147.5 346 Q110 297 110 223 Q110 150 147 100 Q184 50 255 50 Q321 50 358.5 93 Q396 136 401 203 L401 237 Z " />
<glyph glyph-name="uni01C6" unicode="&#x1c6;" horiz-adv-x="1014" d="M535 0 L388 0 L388 90 Q366 50 328 20 Q290 -10 229 -10 Q143 -10 90.5 48.5 Q38 107 38 211 Q38 300 84 377 Q130 454 239 454 Q343 454 388 373 L388 631 L280 631 L280 688 L458 688 L458 57 L535 57 L535 0 Z M921 638 L800 519 L778 519 L657 636 L683 670 L793 586 L895 671 L921 638 Z M962 0 L588 0 L585 43 L865 388 L655 388 L642 299 L586 306 L598 445 L956 445 L959 403 L677 57 L906 57 L929 147 L986 138 L962 0 Z M388 197 L388 268 Q386 324 347 359 Q308 394 255 394 Q181 394 146.5 340 Q112 286 112 216 Q112 134 150.5 92 Q189 50 247 50 Q307 50 346.5 98.5 Q386 147 388 197 Z " />
<glyph glyph-name="uni01C9" unicode="&#x1c9;" horiz-adv-x="518" d="M246 0 L20 0 L20 57 L98 57 L98 631 L19 631 L19 688 L168 688 L168 57 L246 57 L246 0 Z M367 560 L367 651 L443 651 L443 560 L367 560 Z M443 -13 Q443 -140 388.5 -185.5 Q334 -231 252 -224 L250 -170 Q278 -170 306 -161 Q334 -152 353 -118.5 Q372 -85 372 -13 L372 388 L273 388 L273 445 L443 445 L443 -13 Z " />
<glyph glyph-name="uni01CC" unicode="&#x1cc;" horiz-adv-x="824" d="M673 560 L673 651 L749 651 L749 560 L673 560 Z M564 0 L339 0 L339 57 L416 57 L416 264 Q416 336 387 365.5 Q358 395 313 395 Q253 395 216.5 355.5 Q180 316 178 265 L178 57 L256 57 L256 0 L30 0 L30 57 L108 57 L108 388 L28 388 L28 445 L178 445 L178 366 Q226 454 334 454 Q399 454 443 414 Q487 374 487 285 L487 57 L564 57 L564 0 Z M749 -13 Q749 -140 694.5 -185.5 Q640 -231 558 -224 L556 -170 Q584 -170 612 -161 Q640 -152 659 -118.5 Q678 -85 678 -13 L678 388 L579 388 L579 445 L749 445 L749 -13 Z " />
<glyph glyph-name="uni01F3" unicode="&#x1f3;" horiz-adv-x="1014" d="M535 0 L388 0 L388 90 Q366 50 328 20 Q290 -10 229 -10 Q143 -10 90.5 48.5 Q38 107 38 211 Q38 300 84 377 Q130 454 239 454 Q343 454 388 373 L388 631 L280 631 L280 688 L458 688 L458 57 L535 57 L535 0 Z M962 0 L588 0 L585 43 L865 388 L655 388 L642 299 L586 306 L598 445 L956 445 L959 403 L677 57 L906 57 L929 147 L986 138 L962 0 Z M388 197 L388 268 Q386 324 347 359 Q308 394 255 394 Q181 394 146.5 340 Q112 286 112 216 Q112 134 150.5 92 Q189 50 247 50 Q307 50 346.5 98.5 Q386 147 388 197 Z " />
<glyph glyph-name="uni002C" unicode="&#x2c;" horiz-adv-x="201" d="M24 -102 L76 114 L146 114 L93 -102 L24 -102 Z " />
<glyph glyph-name="uni002E" unicode="&#x2e;" horiz-adv-x="211" d="M57 0 L57 108 L154 108 L154 0 L57 0 Z " />
<glyph glyph-name="uni2026" unicode="&#x2026;" horiz-adv-x="585" d="M57 0 L57 108 L154 108 L154 0 L57 0 Z M243 0 L243 108 L340 108 L340 0 L243 0 Z M430 0 L430 108 L528 108 L528 0 L430 0 Z " />
<glyph glyph-name="uni003A" unicode="&#x3a;" horiz-adv-x="224" d="M65 337 L65 445 L159 445 L159 337 L65 337 Z M65 0 L65 108 L159 108 L159 0 L65 0 Z " />
<glyph glyph-name="uni003B" unicode="&#x3b;" horiz-adv-x="234" d="M79 337 L79 445 L173 445 L173 337 L79 337 Z M154 114 L101 -102 L32 -102 L85 114 L154 114 Z " />
<glyph glyph-name="uni003F" unicode="&#x3f;" horiz-adv-x="446" d="M106 460 L48 465 L56 585 Q86 616 133.5 638 Q181 660 232 660 Q308 660 362 624 Q416 588 416 525 Q416 474 385 440 Q354 406 314 380.5 Q274 355 243 330 Q212 305 212 272 Q212 231 265 231 L265 181 Q197 177 167 202.5 Q137 228 137 266 Q137 311 167.5 341 Q198 371 237.5 395 Q277 419 307.5 446.5 Q338 474 338 515 Q338 549 310 572 Q282 595 227 595 Q166 595 119 556 L106 460 Z M167 0 L167 97 L256 97 L256 0 L167 0 Z " />
<glyph glyph-name="uni00BF" unicode="&#xbf;" horiz-adv-x="440" d="M277 446 L277 349 L188 349 L188 446 L277 446 Z M338 -14 L396 -19 L388 -139 Q358 -170 310.5 -192 Q263 -214 212 -214 Q136 -214 82 -178 Q28 -142 28 -79 Q28 -28 59 6 Q90 40 130 65.5 Q170 91 201 116 Q232 141 232 174 Q232 215 179 215 L179 265 Q247 269 277 243.5 Q307 218 307 180 Q307 135 276.5 105 Q246 75 206.5 51 Q167 27 136.5 -0.5 Q106 -28 106 -69 Q106 -103 134 -126 Q162 -149 217 -149 Q278 -149 325 -110 L338 -14 Z " />
<glyph glyph-name="uni0021" unicode="&#x21;" horiz-adv-x="240" d="M161 650 L146 192 L92 192 L78 650 L161 650 Z M77 0 L77 97 L167 97 L167 0 L77 0 Z " />
<glyph glyph-name="uni00A1" unicode="&#xa1;" horiz-adv-x="223" d="M64 349 L64 446 L154 446 L154 349 L64 349 Z M153 -210 L70 -210 L85 248 L139 248 L153 -210 Z " />
<glyph glyph-name="uni203D" unicode="&#x203d;" horiz-adv-x="641" d="M293 466 L237 478 L261 596 Q286 618 326.5 633 Q367 648 412 648 Q488 648 548.5 607.5 Q609 567 609 494 Q609 432 566.5 399 Q524 366 467.5 341 Q411 316 366 283.5 Q321 251 316 191 L266 205 Q268 272 308 308.5 Q348 345 399.5 368.5 Q451 392 490 418 Q529 444 529 491 Q529 544 481.5 566.5 Q434 589 397 589 Q357 589 321 564 L293 466 Z M244 204 L195 183 L30 612 L107 644 L244 204 Z M215 0 L215 97 L304 97 L304 0 L215 0 Z " />
<glyph glyph-name="uni002D" unicode="&#x2d;" horiz-adv-x="348" d="M58 261 L289 261 L289 200 L58 200 L58 261 Z " />
<glyph glyph-name="uni2013" unicode="&#x2013;" horiz-adv-x="623" d="M61 257 L563 257 L563 206 L61 206 L61 257 Z " />
<glyph glyph-name="uni2014" unicode="&#x2014;" horiz-adv-x="1079" d="M74 257 L1014 257 L1014 206 L74 206 L74 257 Z " />
<glyph glyph-name="uni005F" unicode="&#x5f;" horiz-adv-x="534" d="M52 -74 L484 -74 L484 -125 L52 -125 L52 -74 Z " />
<glyph glyph-name="uni0040" unicode="&#x40;" horiz-adv-x="906" d="M298 405 Q330 427 367 440.5 Q404 454 461 454 Q617 454 617 305 L617 112 Q617 40 690 40 Q733 40 757 73 Q781 106 791 155 Q801 204 801 252 Q801 386 749.5 461.5 Q698 537 620.5 568 Q543 599 465 599 Q304 599 202 494.5 Q100 390 100 224 Q100 104 152 21 Q204 -62 287.5 -104.5 Q371 -147 467 -147 Q524 -147 581.5 -131.5 Q639 -116 684 -85 L708 -130 Q658 -163 593.5 -182.5 Q529 -202 458 -202 Q342 -202 247 -148.5 Q152 -95 96 0 Q40 95 40 219 Q40 339 94 437.5 Q148 536 243 595 Q338 654 462 654 Q550 654 642.5 618 Q735 582 798 498 Q861 414 861 272 Q861 208 844 143 Q827 78 786.5 34 Q746 -10 675 -10 Q622 -10 589.5 17 Q557 44 549 87 Q529 50 490 20 Q451 -10 396 -10 Q350 -10 304 17 Q258 44 258 115 Q258 171 289.5 200 Q321 229 369.5 239 Q418 249 468 249 Q488 249 508 248 Q528 247 546 246 L546 288 Q546 339 525 369.5 Q504 400 451 400 Q396 400 352 372 L333 295 L280 301 L298 405 Z M546 204 Q528 206 507 207.5 Q486 209 466 209 Q415 209 374 192.5 Q333 176 333 123 Q333 80 359.5 62.5 Q386 45 417 45 Q464 45 504.5 80.5 Q545 116 546 173 L546 204 Z " />
<glyph glyph-name="uni0026" unicode="&#x26;" horiz-adv-x="730" d="M427 362 L707 362 L707 299 L602 299 Q583 252 548.5 198 Q514 144 468 98 Q538 58 601 58 Q643 58 682 79 L699 18 Q649 -10 591 -10 Q545 -10 499.5 6 Q454 22 410 50 Q371 23 327.5 6.5 Q284 -10 237 -10 Q164 -10 105.5 31.5 Q47 73 47 154 Q47 219 86 257.5 Q125 296 176 324 Q138 410 138 479 Q138 557 185.5 608.5 Q233 660 318 660 Q388 660 433 623 Q478 586 478 525 Q478 449 410 404.5 Q342 360 258 319 Q320 204 423 127 Q459 162 485 206.5 Q511 251 525 299 L427 299 L427 362 Z M405 522 Q405 551 383.5 576.5 Q362 602 316 602 Q265 602 237.5 568.5 Q210 535 210 485 Q210 426 240 357 Q304 391 354.5 429.5 Q405 468 405 522 Z M195 285 Q160 264 139.5 235 Q119 206 119 165 Q119 106 159.5 79 Q200 52 255 52 Q311 52 365 82 Q260 165 195 285 Z " />
<glyph glyph-name="uni002F" unicode="&#x2f;" horiz-adv-x="339" d="M316 688 L101 0 L32 0 L247 688 L316 688 Z " />
<glyph glyph-name="uni005C" unicode="&#x5c;" horiz-adv-x="387" d="M92 688 L161 688 L376 0 L307 0 L92 688 Z " />
<glyph glyph-name="uni007C" unicode="&#x7c;" horiz-adv-x="233" d="M148 730 L148 -80 L85 -80 L85 730 L148 730 Z " />
<glyph glyph-name="uni0028" unicode="&#x28;" horiz-adv-x="274" d="M200 718 L267 718 Q101 507 101 270 Q101 154 142.5 37 Q184 -80 267 -183 L198 -183 Q115 -73 77 41.5 Q39 156 39 270 Q39 386 78.5 499 Q118 612 200 718 Z " />
<glyph glyph-name="uni0029" unicode="&#x29;" horiz-adv-x="275" d="M74 -183 L7 -183 Q173 28 173 265 Q173 381 131.5 497.5 Q90 614 7 718 L76 718 Q159 608 197 493.5 Q235 379 235 265 Q235 150 195.5 37 Q156 -76 74 -183 Z " />
<glyph glyph-name="uni005B" unicode="&#x5b;" horiz-adv-x="282" d="M84 -213 L84 750 L261 750 L261 698 L147 698 L147 -161 L261 -161 L261 -213 L84 -213 Z " />
<glyph glyph-name="uni005D" unicode="&#x5d;" horiz-adv-x="282" d="M197 -213 L20 -213 L20 -161 L134 -161 L134 698 L20 698 L20 750 L197 750 L197 -213 Z " />
<glyph glyph-name="uni007B" unicode="&#x7b;" horiz-adv-x="280" d="M110 267 Q163 258 185.5 234.5 Q208 211 208 183 Q208 150 186.5 101.5 Q165 53 143.5 0.5 Q122 -52 122 -96 Q122 -160 185 -160 L249 -160 L249 -212 L185 -212 Q124 -212 93 -180 Q62 -148 62 -96 Q62 -46 83 7.5 Q104 61 125.5 108 Q147 155 147 185 Q147 224 109.5 235.5 Q72 247 49 247 L30 247 L30 287 L49 287 Q72 287 109.5 298 Q147 309 147 348 Q147 378 125.5 426.5 Q104 475 83 529.5 Q62 584 62 634 Q62 750 185 750 L249 750 L249 698 L185 698 Q122 698 122 634 Q122 590 143.5 536 Q165 482 186.5 433 Q208 384 208 351 Q208 323 186 299 Q164 275 110 267 Z " />
<glyph glyph-name="uni007D" unicode="&#x7d;" horiz-adv-x="280" d="M170 271 Q117 280 94.5 303.5 Q72 327 72 355 Q72 388 93.5 436.5 Q115 485 136.5 537.5 Q158 590 158 634 Q158 698 95 698 L31 698 L31 750 L95 750 Q156 750 187 718 Q218 686 218 634 Q218 584 197 530.5 Q176 477 154.5 430 Q133 383 133 353 Q133 314 170.5 302.5 Q208 291 231 291 L250 291 L250 251 L231 251 Q208 251 170.5 240 Q133 229 133 190 Q133 160 154.5 111.5 Q176 63 197 8.5 Q218 -46 218 -96 Q218 -212 95 -212 L31 -212 L31 -160 L95 -160 Q158 -160 158 -96 Q158 -52 136.5 2 Q115 56 93.5 105 Q72 154 72 187 Q72 215 94 239 Q116 263 170 271 Z " />
<glyph glyph-name="uni301A" unicode="&#x301a;" horiz-adv-x="451" d="M84 -213 L84 750 L420 750 L420 698 L306 698 L306 -161 L420 -161 L420 -213 L84 -213 Z M147 698 L147 -161 L244 -161 L244 698 L147 698 Z " />
<glyph glyph-name="uni301B" unicode="&#x301b;" horiz-adv-x="451" d="M367 -213 L31 -213 L31 -161 L145 -161 L145 698 L31 698 L31 750 L367 750 L367 -213 Z M304 -161 L304 698 L207 698 L207 -161 L304 -161 Z " />
<glyph glyph-name="uni005E" unicode="&#x5e;" horiz-adv-x="452" d="M202 656 L247 656 L413 373 L347 373 L224 587 L107 373 L41 373 L202 656 Z " />
<glyph glyph-name="uni007E" unicode="&#x7e;" horiz-adv-x="611" d="M417 200 Q370 200 334.5 218 Q299 236 264.5 253.5 Q230 271 188 271 Q164 271 139.5 259.5 Q115 248 89 207 L47 234 Q76 288 114 312 Q152 336 192 336 Q235 336 269.5 318 Q304 300 339 282.5 Q374 265 417 265 Q448 265 471.5 281 Q495 297 521 342 L567 312 Q506 200 417 200 Z " />
<glyph glyph-name="uni00B0" unicode="&#xb0;" horiz-adv-x="396" d="M198 342 Q125 342 82 387 Q39 432 39 500 Q39 568 83.5 614 Q128 660 200 660 Q274 660 316 613.5 Q358 567 358 501 Q358 434 315 388 Q272 342 198 342 Z M198 395 Q242 395 270 422.5 Q298 450 298 500 Q298 552 270 579.5 Q242 607 199 607 Q156 607 127 579.5 Q98 552 98 501 Q98 451 126.5 423 Q155 395 198 395 Z " />
<glyph glyph-name="uni00A7" unicode="&#xa7;" horiz-adv-x="589" d="M503 137 Q503 67 448 28.5 Q393 -10 301 -10 Q246 -10 184 5 Q122 20 79 47 L91 157 L149 151 L145 75 Q180 58 221.5 51 Q263 44 302 44 Q353 44 392.5 64 Q432 84 432 132 Q432 181 387.5 196 Q343 211 269 222 Q216 228 162.5 240 Q109 252 74 277 Q39 302 39 346 Q39 381 61.5 405 Q84 429 119 443 Q85 474 85 522 Q85 589 140.5 624.5 Q196 660 279 660 Q389 660 475 620 L483 493 L425 487 L414 580 Q352 607 283 607 Q228 607 192 587.5 Q156 568 156 527 Q156 483 196.5 465 Q237 447 295 437 Q352 428 412 416 Q472 404 513 379 Q554 354 554 303 Q554 268 534 243 Q514 218 480 202 Q503 177 503 137 Z M486 293 Q486 326 451.5 342.5 Q417 359 366.5 368 Q316 377 269 385 Q241 390 213 396.5 Q185 403 160 414 Q106 394 106 354 Q106 316 155.5 302.5 Q205 289 295 274 Q335 268 372 260 Q409 252 438 239 Q486 258 486 293 Z " />
<glyph glyph-name="uni2022" unicode="&#x2022;" horiz-adv-x="357" d="M69 244 Q69 290 100 322.5 Q131 355 177 355 Q224 355 256.5 322.5 Q289 290 289 244 Q289 198 256.5 166 Q224 134 177 134 Q131 134 100 166 Q69 198 69 244 Z " />
<glyph glyph-name="uni00B6" unicode="&#xb6;" horiz-adv-x="618" d="M578 650 L578 588 L502 588 L502 0 L435 0 L435 588 L372 588 L372 0 L304 0 L304 310 L247 310 Q155 310 92.5 349.5 Q30 389 30 484 Q30 552 85 601 Q140 650 253 650 L578 650 Z " />
<glyph glyph-name="uni0023" unicode="&#x23;" horiz-adv-x="591" d="M493 521 L470 403 L550 403 L550 346 L459 346 L428 182 L520 182 L520 125 L417 125 L393 0 L330 0 L354 125 L178 125 L154 0 L91 0 L115 125 L38 125 L38 182 L126 182 L157 346 L68 346 L68 403 L168 403 L191 521 L254 521 L231 403 L407 403 L430 521 L493 521 Z M189 182 L365 182 L396 346 L220 346 L189 182 Z " />
<glyph glyph-name="uni0025" unicode="&#x25;" horiz-adv-x="687" d="M175 244 Q115 244 75.5 278 Q36 312 36 383 Q36 456 77 493.5 Q118 531 183 531 Q245 531 283.5 496.5 Q322 462 322 392 Q322 324 284 284 Q246 244 175 244 Z M581 521 L379 267 L177 0 L102 0 L332 287 L506 521 L581 521 Z M176 294 Q262 294 262 391 Q262 481 181 481 Q96 481 96 384 Q96 294 176 294 Z M506 -10 Q445 -10 406 24 Q367 58 367 129 Q367 202 408 239.5 Q449 277 514 277 Q576 277 614.5 242.5 Q653 208 653 138 Q653 70 614.5 30 Q576 -10 506 -10 Z M506 40 Q593 40 593 137 Q593 227 512 227 Q427 227 427 130 Q427 40 506 40 Z " />
<glyph glyph-name="uni2030" unicode="&#x2030;" horiz-adv-x="991" d="M175 244 Q115 244 75.5 278 Q36 312 36 383 Q36 456 77 493.5 Q118 531 183 531 Q245 531 283.5 496.5 Q322 462 322 392 Q322 324 284 284 Q246 244 175 244 Z M581 521 L379 267 L177 0 L102 0 L332 287 L506 521 L581 521 Z M176 294 Q262 294 262 391 Q262 481 181 481 Q96 481 96 384 Q96 294 176 294 Z M506 -10 Q445 -10 406 24 Q367 58 367 129 Q367 202 408 239.5 Q449 277 514 277 Q576 277 614.5 242.5 Q653 208 653 138 Q653 70 614.5 30 Q576 -10 506 -10 Z M814 -10 Q753 -10 713.5 24 Q674 58 674 129 Q674 202 715.5 239.5 Q757 277 822 277 Q883 277 921.5 242.5 Q960 208 960 138 Q960 70 922 30 Q884 -10 814 -10 Z M506 40 Q593 40 593 137 Q593 227 512 227 Q427 227 427 130 Q427 40 506 40 Z M814 40 Q900 40 900 137 Q900 227 820 227 Q734 227 734 130 Q734 40 814 40 Z " />
<glyph glyph-name="uni00AA" unicode="&#xaa;" horiz-adv-x="377" d="M177 662 Q150 662 120 647 L107 595 L64 599 L74 669 Q119 701 184 701 Q296 701 296 603 L296 467 Q296 437 319 437 Q330 437 337 440 L338 409 Q319 398 295 398 Q240 398 238 459 Q224 435 198.5 416.5 Q173 398 137 398 Q106 398 75 416 Q44 434 44 480 Q44 535 89.5 551.5 Q135 568 182 568 Q198 568 212 567 Q226 566 238 565 L238 589 Q238 617 226 639.5 Q214 662 177 662 Z M238 516 L238 535 Q226 536 212 537.5 Q198 539 185 539 Q156 539 131 529 Q106 519 106 487 Q106 461 122 450 Q138 439 158 439 Q187 439 211.5 459.5 Q236 480 238 516 Z " />
<glyph glyph-name="uni00BA" unicode="&#xba;" horiz-adv-x="379" d="M38 547 Q38 611 76.5 656 Q115 701 190 701 Q265 701 302.5 656.5 Q340 612 340 550 Q340 483 298 440.5 Q256 398 186 398 Q118 398 78 439.5 Q38 481 38 547 Z M100 551 Q100 506 122 475 Q144 444 188 444 Q231 444 254.5 474 Q278 504 278 551 Q278 654 189 654 Q146 654 123 625.5 Q100 597 100 551 Z " />
<glyph glyph-name="uni2020" unicode="&#x2020;" horiz-adv-x="467" d="M29 428 L202 428 L202 650 L265 650 L265 428 L439 428 L439 366 L265 366 L265 -141 L202 -141 L202 366 L29 366 L29 428 Z " />
<glyph glyph-name="uni2021" unicode="&#x2021;" horiz-adv-x="513" d="M52 119 L225 119 L225 366 L52 366 L52 428 L225 428 L225 650 L288 650 L288 428 L462 428 L462 366 L288 366 L288 119 L462 119 L462 57 L288 57 L288 -141 L225 -141 L225 57 L52 57 L52 119 Z " />
<glyph glyph-name="uni0027" unicode="&#x27;" horiz-adv-x="191" d="M126 377 L65 377 L60 650 L131 650 L126 377 Z " />
<glyph glyph-name="uni0022" unicode="&#x22;" horiz-adv-x="371" d="M126 377 L65 377 L60 650 L131 650 L126 377 Z M306 377 L245 377 L240 650 L311 650 L306 377 Z " />
<glyph glyph-name="uni201C" unicode="&#x201c;" horiz-adv-x="365" d="M167 668 L115 452 L45 452 L98 668 L167 668 Z M331 668 L279 452 L209 452 L262 668 L331 668 Z " />
<glyph glyph-name="uni201D" unicode="&#x201d;" horiz-adv-x="363" d="M40 454 L92 670 L162 670 L109 454 L40 454 Z M204 454 L256 670 L326 670 L273 454 L204 454 Z " />
<glyph glyph-name="uni2018" unicode="&#x2018;" horiz-adv-x="203" d="M167 656 L115 440 L45 440 L98 656 L167 656 Z " />
<glyph glyph-name="uni2019" unicode="&#x2019;" horiz-adv-x="201" d="M44 479 L96 695 L166 695 L113 479 L44 479 Z " />
<glyph glyph-name="uni201A" unicode="&#x201a;" horiz-adv-x="201" d="M24 -102 L76 114 L146 114 L93 -102 L24 -102 Z " />
<glyph glyph-name="uni201E" unicode="&#x201e;" horiz-adv-x="367" d="M24 -102 L76 114 L146 114 L93 -102 L24 -102 Z M190 -102 L242 114 L312 114 L259 -102 L190 -102 Z " />
<glyph glyph-name="uni2039" unicode="&#x2039;" horiz-adv-x="287" d="M239 25 L179 25 L41 271 L179 511 L239 511 L110 271 L239 25 Z " />
<glyph glyph-name="uni203A" unicode="&#x203a;" horiz-adv-x="287" d="M108 25 L48 25 L176 271 L48 511 L108 511 L246 271 L108 25 Z " />
<glyph glyph-name="uni00AB" unicode="&#xab;" horiz-adv-x="451" d="M239 25 L179 25 L41 271 L179 511 L239 511 L110 271 L239 25 Z M404 25 L343 25 L205 271 L343 511 L404 511 L275 271 L404 25 Z " />
<glyph glyph-name="uni00BB" unicode="&#xbb;" horiz-adv-x="451" d="M272 25 L212 25 L341 271 L212 511 L272 511 L410 271 L272 25 Z M108 25 L48 25 L176 271 L48 511 L108 511 L246 271 L108 25 Z " />
<glyph glyph-name="uni002A" unicode="&#x2a;" horiz-adv-x="415" d="M369 556 L251 489 L369 424 L340 379 L230 450 L235 333 L180 333 L185 449 L76 379 L47 424 L165 489 L47 556 L76 601 L185 528 L180 650 L235 650 L229 528 L340 601 L369 556 Z " />
<glyph glyph-name="uni00B7" unicode="&#xb7;" horiz-adv-x="219" d="M59 256 L59 358 L156 358 L156 256 L59 256 Z " />
<glyph glyph-name="uniFB01" unicode="&#xfb01;" horiz-adv-x="569" d="M400 57 L400 388 L174 388 L174 57 L275 57 L275 0 L26 0 L26 57 L103 57 L103 388 L39 388 L39 445 L103 445 L103 520 Q103 605 159.5 651.5 Q216 698 296 698 Q340 698 379 685.5 Q418 673 444 654 L461 550 L403 543 L385 618 Q373 625 348 632.5 Q323 640 290 640 Q240 640 207 613 Q174 586 174 522 L174 445 L471 445 L471 57 L548 57 L548 0 L323 0 L323 57 L400 57 Z " />
<glyph glyph-name="uniFB02" unicode="&#xfb02;" horiz-adv-x="569" d="M548 0 L322 0 L322 57 L400 57 L400 603 Q376 626 348 634 Q320 642 288 642 Q236 642 205 611 Q174 580 174 525 L174 445 L293 445 L293 388 L174 388 L174 57 L275 57 L275 0 L26 0 L26 57 L103 57 L103 388 L39 388 L39 445 L103 445 L103 522 Q103 602 151 650 Q199 698 273 698 Q313 698 343.5 691.5 Q374 685 400 665 L400 688 L470 688 L470 57 L548 57 L548 0 Z " />
<glyph glyph-name="uniFB00" unicode="&#xfb00;" horiz-adv-x="615" d="M399 57 L399 388 L174 388 L174 57 L275 57 L275 0 L26 0 L26 57 L103 57 L103 388 L39 388 L39 445 L103 445 L103 512 Q103 592 154.5 640 Q206 688 278 688 Q330 688 367 670 Q404 652 428 631 Q473 698 555 698 Q586 698 611 692 Q636 686 659 666 L676 563 L618 556 L599 632 Q580 640 548 640 Q469 640 469 534 L469 445 L585 445 L585 388 L469 388 L469 57 L570 57 L570 0 L321 0 L321 57 L399 57 Z M174 515 L174 445 L399 445 L399 528 Q399 558 406 582 Q382 604 353 618 Q324 632 289 632 Q241 632 207.5 602 Q174 572 174 515 Z " />
<glyph glyph-name="uniFB03" unicode="&#xfb03;" horiz-adv-x="866" d="M400 57 L400 388 L174 388 L174 57 L275 57 L275 0 L26 0 L26 57 L103 57 L103 388 L39 388 L39 445 L103 445 L103 512 Q103 592 154.5 640 Q206 688 278 688 Q332 688 371 668 Q410 648 433 625 Q486 698 594 698 Q637 698 676.5 685.5 Q716 673 741 654 L758 550 L701 543 L682 618 Q670 625 645 632.5 Q620 640 587 640 Q537 640 504 613 Q471 586 471 522 L471 445 L768 445 L768 57 L845 57 L845 0 L620 0 L620 57 L698 57 L698 388 L471 388 L471 57 L572 57 L572 0 L323 0 L323 57 L400 57 Z M174 515 L174 445 L400 445 L400 520 Q400 552 409 579 Q384 602 355 617 Q326 632 289 632 Q241 632 207.5 602 Q174 572 174 515 Z " />
<glyph glyph-name="uniFB04" unicode="&#xfb04;" horiz-adv-x="865" d="M399 57 L399 388 L174 388 L174 57 L275 57 L275 0 L26 0 L26 57 L103 57 L103 388 L39 388 L39 445 L103 445 L103 512 Q103 592 154.5 640 Q206 688 278 688 Q326 688 367 671.5 Q408 655 431 630 Q478 698 569 698 Q609 698 639.5 691.5 Q670 685 696 665 L696 688 L767 688 L767 57 L844 57 L844 0 L619 0 L619 57 L696 57 L696 603 Q672 626 644 634 Q616 642 584 642 Q534 642 502 612 Q470 582 470 525 L470 445 L589 445 L589 388 L470 388 L470 57 L571 57 L571 0 L322 0 L322 57 L399 57 Z M174 515 L174 445 L399 445 L399 522 Q399 555 409 587 Q390 606 357 619 Q324 632 289 632 Q241 632 207.5 602 Q174 572 174 515 Z " />
<glyph glyph-name="uni00A6" unicode="&#xa6;" horiz-adv-x="228" d="M146 730 L146 426 L82 426 L82 730 L146 730 Z M146 224 L146 -80 L82 -80 L82 224 L146 224 Z " />
<glyph glyph-name="uni2212" unicode="&#x2212;" horiz-adv-x="468" d="M61 254 L61 308 L408 308 L408 254 L61 254 Z " />
<glyph glyph-name="uni002B" unicode="&#x2b;" horiz-adv-x="421" d="M37 254 L37 308 L187 308 L187 455 L240 455 L240 308 L384 308 L384 254 L240 254 L240 108 L187 108 L187 254 L37 254 Z " />
<glyph glyph-name="uni00D7" unicode="&#xd7;" horiz-adv-x="388" d="M89 131 L52 169 L157 274 L53 379 L90 417 L194 312 L297 415 L334 377 L232 275 L335 172 L298 133 L194 237 L89 131 Z " />
<glyph glyph-name="uni003C" unicode="&#x3c;" horiz-adv-x="407" d="M349 14 L30 269 L30 289 L348 549 L348 480 L107 280 L349 83 L349 14 Z " />
<glyph glyph-name="uni003D" unicode="&#x3d;" horiz-adv-x="578" d="M61 364 L61 418 L518 418 L518 364 L61 364 Z M61 144 L61 196 L518 196 L518 144 L61 144 Z " />
<glyph glyph-name="uni003E" unicode="&#x3e;" horiz-adv-x="407" d="M377 269 L58 14 L58 83 L300 280 L59 480 L59 549 L377 289 L377 269 Z " />
<glyph glyph-name="uni221E" unicode="&#x221e;" horiz-adv-x="727" d="M525 79 Q464 79 427 120 Q390 161 362 213 Q334 161 297.5 120 Q261 79 200 79 Q131 79 88 131 Q45 183 45 254 Q45 330 91 381 Q137 432 203 432 Q264 432 299.5 388.5 Q335 345 363 292 Q393 345 431.5 388.5 Q470 432 532 432 Q600 432 641 381 Q682 330 682 257 Q682 180 637 129.5 Q592 79 525 79 Z M516 133 Q560 133 590 165.5 Q620 198 620 257 Q620 306 596 341.5 Q572 377 524 377 Q473 377 441.5 339.5 Q410 302 383 252 Q408 206 438.5 169.5 Q469 133 516 133 Z M205 133 Q252 133 283.5 169 Q315 205 342 253 Q316 302 286 339.5 Q256 377 208 377 Q164 377 134.5 342 Q105 307 105 254 Q105 202 132 167.5 Q159 133 205 133 Z " />
<glyph glyph-name="uni00B1" unicode="&#xb1;" horiz-adv-x="451" d="M53 259 L53 313 L202 313 L202 460 L255 460 L255 313 L400 313 L400 259 L255 259 L255 113 L202 113 L202 259 L53 259 Z M53 0 L53 53 L400 53 L400 0 L53 0 Z " />
<glyph glyph-name="uni2264" unicode="&#x2264;" horiz-adv-x="428" d="M365 100 L46 294 L46 324 L364 523 L364 458 L128 311 L365 165 L365 100 Z M46 0 L46 53 L365 53 L365 0 L46 0 Z " />
<glyph glyph-name="uni2260" unicode="&#x2260;" horiz-adv-x="574" d="M58 364 L58 418 L354 418 L409 492 L474 492 L420 418 L515 418 L515 364 L381 364 L261 196 L515 196 L515 144 L223 144 L169 68 L98 68 L153 144 L58 144 L58 196 L191 196 L315 364 L58 364 Z " />
<glyph glyph-name="uni2265" unicode="&#x2265;" horiz-adv-x="428" d="M62 100 L62 165 L299 311 L63 458 L63 523 L381 324 L381 294 L62 100 Z M381 0 L62 0 L62 53 L381 53 L381 0 Z " />
<glyph glyph-name="uni00F7" unicode="&#xf7;" horiz-adv-x="448" d="M173 374 L173 477 L270 477 L270 374 L173 374 Z M397 254 L50 254 L50 308 L397 308 L397 254 Z M173 86 L173 189 L270 189 L270 86 L173 86 Z " />
<glyph glyph-name="uni00AC" unicode="&#xac;" horiz-adv-x="605" d="M491 99 L491 256 L62 256 L62 308 L543 308 L543 99 L491 99 Z " />
<glyph glyph-name="uni2248" unicode="&#x2248;" horiz-adv-x="629" d="M426 318 Q380 318 344.5 336 Q309 354 275 372 Q241 390 199 390 Q174 390 149 378 Q124 366 99 325 L57 353 Q86 407 124 431.5 Q162 456 202 456 Q245 456 279.5 438 Q314 420 348.5 401.5 Q383 383 426 383 Q458 383 481 398.5 Q504 414 532 460 L578 431 Q514 318 426 318 Z M426 118 Q380 118 344.5 136 Q309 154 275 172 Q241 190 199 190 Q174 190 149 177.5 Q124 165 99 125 L57 153 Q86 207 124 231 Q162 255 202 255 Q245 255 279.5 237 Q314 219 348.5 201 Q383 183 426 183 Q458 183 481 199 Q504 215 532 261 L578 230 Q514 118 426 118 Z " />
<glyph glyph-name="uni221A" unicode="&#x221a;" horiz-adv-x="578" d="M270 0 L130 385 L20 385 L20 441 L174 441 L300 95 L519 697 L578 697 L321 0 L270 0 Z " />
<glyph glyph-name="uni2202" unicode="&#x2202;" horiz-adv-x="480" d="M90 321 Q90 369 117 407 L23 502 L53 532 L147 439 Q190 472 241 472 Q293 472 334 439 L427 532 L458 502 L364 408 Q392 367 392 321 Q392 272 363 232 L458 138 L427 107 L332 201 Q293 170 241 170 Q190 170 148 202 L53 107 L23 138 L118 233 Q90 272 90 321 Z M151 321 Q151 279 177.5 253 Q204 227 242 227 Q279 227 304.5 253 Q330 279 330 321 Q330 363 304.5 389 Q279 415 242 415 Q205 415 178 389.5 Q151 364 151 321 Z " />
<glyph glyph-name="uni2211" unicode="&#x2211;" horiz-adv-x="564" d="M32 -140 L32 -77 L284 253 L32 587 L32 650 L526 650 L526 587 L115 587 L357 266 L357 244 L115 -77 L526 -77 L526 -140 L32 -140 Z " />
<glyph glyph-name="uni220F" unicode="&#x220f;" horiz-adv-x="681" d="M41 64 L123 64 L123 586 L41 586 L41 650 L639 650 L639 586 L557 586 L557 64 L639 64 L639 0 L403 0 L403 64 L485 64 L485 586 L196 586 L196 64 L278 64 L278 0 L41 0 L41 64 Z " />
<glyph glyph-name="uni25CA" unicode="&#x25ca;" horiz-adv-x="595" d="M298 -11 L30 320 L298 660 L565 320 L298 -11 Z M298 72 L496 320 L298 571 L99 320 L298 72 Z " />
<glyph glyph-name="uni222B" unicode="&#x222b;" horiz-adv-x="374" d="M5 -140 L5 -80 L47 -80 Q107 -80 129 -49 Q151 -18 151 59 L151 495 Q151 591 188.5 640 Q226 689 324 689 L371 689 L371 628 L316 628 Q259 628 236 598.5 Q213 569 213 492 L213 54 Q213 -42 173.5 -91 Q134 -140 42 -140 L5 -140 Z " />
<glyph glyph-name="uni00B5" unicode="&#xb5;" horiz-adv-x="572" d="M96 -213 L96 388 L19 388 L19 445 L167 445 L167 173 Q168 105 197 76 Q226 47 273 47 Q331 47 367 87.5 Q403 128 405 175 L405 388 L313 388 L313 445 L475 445 L475 57 L555 57 L555 0 L405 0 L405 84 Q384 41 344 15.5 Q304 -10 250 -10 Q202 -10 167 10 L167 -213 L96 -213 Z " />
<glyph glyph-name="uni03C0" unicode="&#x3c0;" horiz-adv-x="583" d="M31 57 L108 57 L108 388 L29 388 L29 445 L555 445 L555 388 L475 388 L475 57 L552 57 L552 0 L326 0 L326 57 L404 57 L404 388 L179 388 L179 57 L256 57 L256 0 L31 0 L31 57 Z " />
<glyph glyph-name="uni2206" unicode="&#x2206;" horiz-adv-x="542" d="M25 0 L276 661 L516 0 L25 0 Z M107 57 L435 57 L275 506 L107 57 Z " />
<glyph glyph-name="uni0394" unicode="&#x394;" horiz-adv-x="492" d="M-1 0 L250 661 L490 0 L-1 0 Z M81 57 L409 57 L249 506 L81 57 Z " />
<glyph glyph-name="uni03A3" unicode="&#x3a3;" horiz-adv-x="542" d="M33 0 L33 63 L236 323 L33 587 L33 650 L510 650 L510 587 L116 587 L310 337 L310 315 L116 63 L510 63 L510 0 L33 0 Z " />
<glyph glyph-name="uni2126" unicode="&#x2126;" horiz-adv-x="715" d="M358 594 Q251 594 188.5 535.5 Q126 477 126 362 Q126 274 166 220 Q206 166 298 165 L298 0 L47 0 L47 61 L235 61 L235 119 Q150 124 98.5 193 Q47 262 47 367 Q47 469 92.5 533.5 Q138 598 209 629 Q280 660 358 660 Q435 660 506 629.5 Q577 599 622 534.5 Q667 470 667 367 Q667 273 622.5 198.5 Q578 124 485 119 L485 61 L667 61 L667 0 L426 0 L426 165 Q523 164 556 225 Q589 286 589 363 Q589 476 527.5 535 Q466 594 358 594 Z " />
<glyph glyph-name="uni00B4" unicode="&#xb4;" horiz-adv-x="440" d="M364 624 L192 520 L170 551 L324 683 L364 624 Z " />
<glyph glyph-name="uni0060" unicode="&#x60;" horiz-adv-x="440" d="M352 551 L331 520 L158 624 L198 683 L352 551 Z " />
<glyph glyph-name="uni02C6" unicode="&#x2c6;" horiz-adv-x="338" d="M322 553 L295 519 L184 603 L83 519 L58 551 L179 671 L201 671 L322 553 Z " />
<glyph glyph-name="uni00A8" unicode="&#xa8;" horiz-adv-x="395" d="M62 555 L62 640 L143 640 L143 555 L62 555 Z M233 555 L233 640 L314 640 L314 555 L233 555 Z " />
<glyph glyph-name="uni02DC" unicode="&#x2dc;" horiz-adv-x="374" d="M319 646 Q312 606 294 579.5 Q276 553 242 553 Q203 553 175 572.5 Q147 592 119 592 Q105 592 90.5 582.5 Q76 573 68 549 L35 561 Q39 587 58.5 618 Q78 649 116 649 Q150 649 175 630.5 Q200 612 236 612 Q250 612 262.5 620 Q275 628 283 655 L319 646 Z " />
<glyph glyph-name="uni00AF" unicode="&#xaf;" horiz-adv-x="335" d="M286 564 L42 564 L42 621 L286 621 L286 564 Z " />
<glyph glyph-name="uni02D8" unicode="&#x2d8;" horiz-adv-x="399" d="M320 655 Q320 532 197 532 Q75 532 75 655 L134 655 Q134 580 198 580 Q261 580 261 655 L320 655 Z " />
<glyph glyph-name="uni02D9" unicode="&#x2d9;" horiz-adv-x="209" d="M64 553 L64 644 L141 644 L141 553 L64 553 Z " />
<glyph glyph-name="uni02DA" unicode="&#x2da;" horiz-adv-x="260" d="M229 607 Q229 566 204.5 540 Q180 514 130 514 Q32 514 32 606 Q32 646 58 672 Q84 698 131 698 Q182 698 205.5 672.5 Q229 647 229 607 Z M180 608 Q180 628 169 643 Q158 658 130 658 Q104 658 92.5 643 Q81 628 81 606 Q81 554 130 554 Q156 554 168 570 Q180 586 180 608 Z " />
<glyph glyph-name="uni00B8" unicode="&#xb8;" horiz-adv-x="256" d="M259 -125 Q259 -170 226.5 -189.5 Q194 -209 151 -209 Q91 -209 55 -179 L72 -138 Q102 -161 147 -161 Q198 -161 198 -120 Q198 -95 181 -87.5 Q164 -80 140 -80 L110 -80 L110 6 L162 6 L162 -47 L170 -47 Q216 -47 237.5 -69.5 Q259 -92 259 -125 Z " />
<glyph glyph-name="uni02DD" unicode="&#x2dd;" horiz-adv-x="430" d="M226 678 L100 519 L69 541 L169 718 L226 678 Z M382 624 L209 520 L188 551 L342 683 L382 624 Z " />
<glyph glyph-name="uni02DB" unicode="&#x2db;" horiz-adv-x="280" d="M227 -189 Q190 -209 148 -209 Q102 -209 73 -185 Q44 -161 44 -118 Q44 -73 72.5 -38.5 Q101 -4 140 12 L185 8 Q140 -15 123 -43.5 Q106 -72 106 -99 Q106 -155 164 -155 Q193 -155 218 -140 L227 -189 Z " />
<glyph glyph-name="uni02C7" unicode="&#x2c7;" horiz-adv-x="338" d="M322 638 L201 519 L179 519 L58 636 L84 670 L194 586 L296 671 L322 638 Z " />
<glyph glyph-name="uni0323" unicode="&#x323;" horiz-adv-x="833" d="M95 -174 L95 -83 L172 -83 L172 -174 L95 -174 Z " />
<glyph glyph-name="uni2122" unicode="&#x2122;" horiz-adv-x="1066" d="M1011 602 L955 602 L955 275 L1007 275 L1007 227 L847 227 L847 275 L895 275 L895 525 L892 525 L755 251 L725 251 L583 528 L580 528 L580 275 L630 275 L630 227 L471 227 L471 275 L524 275 L524 602 L467 602 L467 650 L575 650 L741 331 L744 331 L902 650 L1011 650 L1011 602 Z M453 514 L403 512 L393 602 L283 602 L283 275 L358 275 L358 227 L150 227 L150 275 L224 275 L224 602 L113 602 L102 512 L52 514 L62 650 L443 650 L453 514 Z " />
<glyph glyph-name="uni2120" unicode="&#x2120;" horiz-adv-x="998" d="M217 222 Q174 222 128 235 Q82 248 59 265 L68 353 L115 349 L112 293 Q153 272 210 272 Q299 272 299 345 Q299 386 268 402.5 Q237 419 195 428 Q150 437 106.5 456 Q63 475 63 539 Q63 600 105.5 629 Q148 658 203 658 Q240 658 278.5 648 Q317 638 338 621 L343 532 L297 527 L289 590 Q251 609 211 609 Q174 609 150.5 593 Q127 577 127 545 Q127 508 155 495.5 Q183 483 218 475 Q247 468 281 457.5 Q315 447 339 422.5 Q363 398 363 349 Q363 287 321 254.5 Q279 222 217 222 Z M404 275 L456 275 L456 602 L401 602 L401 650 L509 650 L674 331 L677 331 L836 650 L944 650 L944 602 L888 602 L888 275 L941 275 L941 227 L780 227 L780 275 L829 275 L829 525 L826 525 L688 251 L658 251 L516 528 L513 528 L513 275 L563 275 L563 227 L404 227 L404 275 Z " />
<glyph glyph-name="uni00AE" unicode="&#xae;" horiz-adv-x="591" d="M296 159 Q192 159 119 231.5 Q46 304 46 409 Q46 513 119 586.5 Q192 660 297 660 Q402 660 474.5 586.5 Q547 513 547 409 Q547 305 473.5 232 Q400 159 296 159 Z M297 200 Q386 200 445 261.5 Q504 323 504 409 Q504 496 446 557.5 Q388 619 297 619 Q206 619 147 557.5 Q88 496 88 409 Q88 322 147 261 Q206 200 297 200 Z M177 308 L213 308 L213 528 L177 528 L177 559 L306 559 Q360 559 385 536.5 Q410 514 410 479 Q410 419 347 400 L398 308 L434 308 L434 277 L371 277 L309 393 L252 393 L252 308 L290 308 L290 277 L177 277 L177 308 Z M299 423 Q367 423 367 478 Q367 528 299 528 L252 528 L252 423 L299 423 Z " />
<glyph glyph-name="uni00A9" unicode="&#xa9;" horiz-adv-x="624" d="M580 260 Q580 148 501.5 70.5 Q423 -7 312 -7 Q201 -7 122.5 70.5 Q44 148 44 260 Q44 372 122 450.5 Q200 529 313 529 Q426 529 503 450.5 Q580 372 580 260 Z M537 260 Q537 354 474.5 420.5 Q412 487 313 487 Q213 487 150 420.5 Q87 354 87 260 Q87 166 150.5 100 Q214 34 312 34 Q408 34 472.5 100 Q537 166 537 260 Z M429 122 Q389 91 316 91 Q244 91 198.5 138.5 Q153 186 153 261 Q153 334 197 384 Q241 434 311 434 Q353 434 382 423.5 Q411 413 431 396 L440 331 L404 327 L395 377 Q378 388 361 393.5 Q344 399 316 399 Q261 399 229.5 361.5 Q198 324 198 262 Q198 200 230.5 163.5 Q263 127 322 127 Q366 127 392 140 L402 191 L438 187 L429 122 Z " />
<glyph glyph-name="uni2117" unicode="&#x2117;" horiz-adv-x="624" d="M312 -7 Q201 -7 122.5 70.5 Q44 148 44 260 Q44 372 122 450.5 Q200 529 313 529 Q426 529 503 450.5 Q580 372 580 260 Q580 148 501.5 70.5 Q423 -7 312 -7 Z M312 34 Q408 34 472.5 100 Q537 166 537 260 Q537 354 474.5 420.5 Q412 487 313 487 Q213 487 150 420.5 Q87 354 87 260 Q87 166 150.5 100 Q214 34 312 34 Z M195 137 L239 137 L239 390 L195 390 L195 427 L347 427 Q412 427 442 395.5 Q472 364 472 321 Q472 266 438 237.5 Q404 209 351 209 L284 209 L284 137 L343 137 L343 100 L195 100 L195 137 Z M344 246 Q423 246 423 319 Q423 390 343 390 L284 390 L284 246 L344 246 Z " />
<glyph glyph-name="uni267E" unicode="&#x267e;" horiz-adv-x="624" d="M312 -7 Q201 -7 122.5 70.5 Q44 148 44 260 Q44 372 122 450.5 Q200 529 313 529 Q426 529 503 450.5 Q580 372 580 261 Q580 148 501.5 70.5 Q423 -7 312 -7 Z M312 34 Q408 34 472.5 100 Q537 166 537 261 Q537 355 474.5 421 Q412 487 313 487 Q213 487 150 420.5 Q87 354 87 260 Q87 166 150.5 100 Q214 34 312 34 Z M410 156 Q372 156 351 179.5 Q330 203 314 232 Q298 203 277 179.5 Q256 156 218 156 Q178 156 152.5 185 Q127 214 127 263 Q127 314 154.5 343 Q182 372 219 372 Q255 372 276.5 347 Q298 322 314 290 Q332 322 354.5 347 Q377 372 415 372 Q452 372 476.5 343 Q501 314 501 265 Q501 213 475 184.5 Q449 156 410 156 Z M412 336 Q380 336 361.5 312 Q343 288 329 260 Q342 232 360.5 211.5 Q379 191 408 191 Q431 191 448.5 209.5 Q466 228 466 265 Q466 336 412 336 Z M219 191 Q248 191 265.5 212 Q283 233 299 261 Q283 290 266 313 Q249 336 220 336 Q197 336 179.5 318.5 Q162 301 162 264 Q162 191 219 191 Z " />
<glyph glyph-name="uni24CA" unicode="&#x24ca;" horiz-adv-x="624" d="M312 -7 Q201 -7 122.5 70.5 Q44 148 44 260 Q44 372 122 450.5 Q200 529 313 529 Q426 529 503 450.5 Q580 372 580 260 Q580 148 501.5 70.5 Q423 -7 312 -7 Z M312 34 Q408 34 472.5 100 Q537 166 537 260 Q537 354 474.5 420.5 Q412 487 313 487 Q213 487 150 420.5 Q87 354 87 260 Q87 166 150.5 100 Q214 34 312 34 Z M354 401 L475 401 L475 365 L442 365 L442 235 Q442 182 416.5 138 Q391 94 313 94 Q237 94 212.5 135 Q188 176 188 229 L188 365 L153 365 L153 401 L277 401 L277 365 L231 365 L231 231 Q231 184 249.5 157 Q268 130 315 130 Q401 130 401 235 L401 365 L354 365 L354 401 Z " />
<glyph glyph-name="uni20AC" unicode="&#x20ac;" horiz-adv-x="601" d="M37 297 L37 343 L104 343 Q126 424 188 476.5 Q250 529 341 529 Q456 529 519 479 L535 361 L475 355 L456 452 Q417 472 350 472 Q284 472 240.5 437 Q197 402 180 343 L371 343 L371 297 L171 297 Q170 288 169.5 278.5 Q169 269 169 260 Q169 249 169.5 238.5 Q170 228 171 218 L346 218 L346 173 L181 173 Q220 50 352 50 Q379 50 407 55 Q435 60 459 71 L478 167 L538 161 L522 42 Q491 21 443.5 6.5 Q396 -8 339 -8 Q250 -8 188.5 42 Q127 92 105 173 L37 173 L37 218 L96 218 Q95 228 94.5 238 Q94 248 94 258 Q94 268 94 277.5 Q94 287 96 297 L37 297 Z " />
<glyph glyph-name="uni0024" unicode="&#x24;" horiz-adv-x="470" d="M426 148 Q426 78 379.5 38 Q333 -2 259 -7 L259 -65 L217 -65 L217 -7 Q162 -4 117.5 11 Q73 26 48 42 L65 156 L125 151 L117 78 Q166 55 217 50 L217 246 Q158 259 105.5 283.5 Q53 308 53 384 Q53 456 102 490.5 Q151 525 217 528 L217 593 L259 593 L259 528 Q306 525 341 512 Q376 499 402 481 L408 366 L349 362 L338 446 Q304 467 259 472 L259 301 Q292 294 331 279.5 Q370 265 398 234.5 Q426 204 426 148 Z M128 392 Q128 352 154 335.5 Q180 319 217 310 L217 472 Q128 464 128 392 Z M351 141 Q351 184 324.5 204.5 Q298 225 259 236 L259 51 Q300 56 325.5 77.5 Q351 99 351 141 Z " />
<glyph glyph-name="uni00A2" unicode="&#xa2;" horiz-adv-x="475" d="M430 150 Q422 96 385 48 Q348 0 271 -8 L271 -84 L225 -84 L225 -9 Q140 -4 90 55 Q40 114 40 216 Q40 303 86.5 373 Q133 443 225 452 L225 529 L271 529 L271 453 Q346 448 400 408 L417 301 L359 294 L342 368 Q310 388 271 392 L271 52 Q351 62 371 163 L430 150 Z M116 220 Q116 70 225 53 L225 391 Q166 382 141 334 Q116 286 116 220 Z " />
<glyph glyph-name="uni00A3" unicode="&#xa3;" horiz-adv-x="509" d="M460 83 Q450 63 416.5 31.5 Q383 0 327 0 L43 0 L43 54 Q89 76 102.5 119 Q116 162 116 235 L48 235 L48 281 L116 281 L116 334 Q116 438 166 483.5 Q216 529 279 529 Q332 529 363 518.5 Q394 508 421 490 L438 373 L379 366 L361 455 Q331 472 288 472 Q244 472 215 442.5 Q186 413 186 335 L186 281 L365 281 L365 235 L186 235 Q186 170 174 126 Q162 82 122 56 L312 56 Q357 56 382.5 74.5 Q408 93 424 116 L460 83 Z " />
<glyph glyph-name="uni0192" unicode="&#x192;" horiz-adv-x="387" d="M53 272 L133 272 L140 381 Q149 529 301 529 Q313 529 332 528 Q351 527 367 525 L367 473 Q348 475 332 477 Q316 479 302 479 Q258 479 235.5 458 Q213 437 209 379 L203 272 L320 272 L320 226 L200 226 L189 18 Q186 -31 162.5 -71.5 Q139 -112 61 -112 Q47 -112 18 -108 L18 -58 Q30 -61 41.5 -61.5 Q53 -62 61 -62 Q93 -62 105 -43 Q117 -24 120 29 L131 226 L53 226 L53 272 Z " />
<glyph glyph-name="uni00A5" unicode="&#xa5;" horiz-adv-x="587" d="M237 465 L166 465 L298 259 L303 259 L430 465 L357 465 L357 521 L553 521 L553 465 L502 465 L364 249 L467 249 L467 206 L336 206 L332 199 L332 152 L467 152 L467 110 L332 110 L332 56 L428 56 L428 0 L169 0 L169 56 L262 56 L262 110 L125 110 L125 152 L262 152 L262 200 L258 206 L125 206 L125 249 L229 249 L86 465 L34 465 L34 521 L237 521 L237 465 Z " />
<glyph glyph-name="uni20B9" unicode="&#x20b9;" horiz-adv-x="533" d="M61 269 L216 269 Q331 269 342 350 L61 350 L61 393 L342 393 Q330 465 216 465 L61 465 L61 521 L482 521 L482 466 L387 466 Q413 437 418 393 L469 393 L469 350 L417 350 Q402 256 303 229 L399 56 L465 56 L465 0 L351 0 L234 216 L61 216 L61 269 Z " />
<glyph glyph-name="uni00A4" unicode="&#xa4;" horiz-adv-x="514" d="M106 270 Q106 318 133 356 L39 451 L69 481 L163 388 Q206 421 257 421 Q309 421 350 388 L443 481 L474 451 L380 357 Q408 316 408 270 Q408 221 379 181 L474 87 L443 56 L348 150 Q309 119 257 119 Q206 119 164 151 L69 56 L39 87 L134 182 Q106 221 106 270 Z M167 270 Q167 228 193.5 202 Q220 176 258 176 Q295 176 320.5 202 Q346 228 346 270 Q346 312 320.5 338 Q295 364 258 364 Q221 364 194 338.5 Q167 313 167 270 Z " />
<glyph glyph-name="uni20A5" unicode="&#x20a5;" horiz-adv-x="908" d="M879 0 L666 0 L666 57 L731 57 L731 264 Q731 336 702.5 365.5 Q674 395 630 395 Q600 395 576 382 L502 214 L502 57 L579 57 L579 0 L408 0 L351 -130 L297 -130 L367 29 L367 57 L379 57 L431 175 L431 264 Q431 337 403.5 366 Q376 395 332 395 Q270 395 237 350.5 Q204 306 203 263 L203 57 L285 57 L285 0 L55 0 L55 57 L133 57 L133 388 L54 388 L54 445 L203 445 L203 362 Q225 402 262 428 Q299 454 352 454 Q404 454 442.5 428 Q481 402 495 347 Q509 378 530 402 L602 565 L656 565 L605 448 Q626 454 652 454 Q716 454 758.5 414 Q801 374 801 285 L801 57 L879 57 L879 0 Z " />
<glyph glyph-name="uni20A4" unicode="&#x20a4;" horiz-adv-x="579" d="M533 104 Q520 78 480.5 39 Q441 0 376 0 L36 0 L36 61 Q89 86 107.5 132 Q126 178 127 230 L51 230 L51 279 L127 279 L127 360 L51 360 L51 409 L127 409 L127 417 Q127 548 185.5 604 Q244 660 321 660 Q370 660 414 650 Q458 640 490 612 L508 488 L447 481 L430 569 Q391 594 327 594 Q273 594 236 556 Q199 518 199 418 L199 409 L426 409 L426 360 L199 360 L199 279 L426 279 L426 230 L199 230 Q198 187 183 140 Q168 93 122 64 L361 64 Q414 64 444 88 Q474 112 493 141 L533 104 Z " />
<glyph glyph-name="uni20A1" unicode="&#x20a1;" horiz-adv-x="691" d="M602 689 L656 689 L430 60 Q485 67 519 85 L538 181 L600 175 L583 50 Q552 26 505.5 12 Q459 -2 406 -7 L384 -71 L330 -71 L352 -10 Q312 -10 274 -1 L249 -71 L196 -71 L226 14 Q145 48 94 126.5 Q43 205 43 322 Q43 469 129 564.5 Q215 660 348 660 Q404 660 451 641 L468 689 L521 689 L495 617 Q532 592 554 554 L602 689 Z M358 594 Q252 594 186.5 521.5 Q121 449 121 325 Q121 231 156 170.5 Q191 110 250 81 L430 583 Q397 594 358 594 Z M372 56 L375 56 L530 487 Q515 531 475 560 L297 64 Q335 56 372 56 Z " />
<glyph glyph-name="uni20A2" unicode="&#x20a2;" horiz-adv-x="667" d="M578 50 Q500 -10 361 -10 Q219 -10 131 84.5 Q43 179 43 321 Q43 411 81 488.5 Q119 566 188.5 613 Q258 660 352 660 Q433 660 487.5 639 Q542 618 582 584 L600 459 L537 453 L519 548 Q488 569 450.5 581.5 Q413 594 358 594 Q252 594 186 518 Q120 442 120 324 Q120 218 172 148 Q224 78 316 61 L316 308 L236 308 L236 366 L382 366 L382 287 Q395 324 423.5 348.5 Q452 373 489 373 Q534 373 562 351 L577 248 L524 241 L508 310 Q494 315 475 315 Q437 315 412 283.5 Q387 252 387 202 L387 56 Q459 57 514 85 L533 181 L595 175 L578 50 Z " />
<glyph glyph-name="uni20AB" unicode="&#x20ab;" horiz-adv-x="550" d="M206 634 L371 634 L371 688 L437 688 L437 634 L498 634 L498 586 L437 586 L437 186 L506 186 L506 137 L371 137 L371 218 Q352 181 317 154.5 Q282 128 221 128 Q141 128 93.5 179 Q46 230 46 325 Q46 404 87.5 466 Q129 528 228 528 Q331 528 371 456 L371 586 L206 586 L206 634 Z M243 477 Q174 477 145 433.5 Q116 390 116 329 Q116 252 150 216 Q184 180 237 180 Q300 180 335.5 223 Q371 266 371 313 L371 367 Q369 415 335.5 446 Q302 477 243 477 Z M74 52 L462 52 L462 0 L74 0 L74 52 Z " />
<glyph glyph-name="uni20A3" unicode="&#x20a3;" horiz-adv-x="783" d="M197 586 L197 369 L529 369 L529 288 Q542 326 572 351 Q602 376 639 376 Q687 376 716 353 L733 241 L676 234 L659 310 Q641 316 624 316 Q585 316 559.5 283.5 Q534 251 534 199 L534 57 L637 57 L637 0 L385 0 L385 57 L463 57 L463 305 L197 305 L197 64 L310 64 L310 0 L42 0 L42 64 L124 64 L124 586 L42 586 L42 650 L515 650 L535 463 L470 456 L450 586 L197 586 Z " />
<glyph glyph-name="uni20A6" unicode="&#x20a6;" horiz-adv-x="767" d="M718 586 L637 586 L637 420 L719 420 L719 371 L637 371 L637 281 L719 281 L719 233 L637 233 L637 0 L590 0 L418 233 L209 233 L209 64 L312 64 L312 0 L64 0 L64 64 L139 64 L139 233 L56 233 L56 281 L139 281 L139 371 L56 371 L56 420 L139 420 L139 586 L53 586 L53 650 L193 650 L363 420 L567 420 L567 586 L469 586 L469 650 L718 650 L718 586 Z M209 512 L209 420 L280 420 L213 512 L209 512 Z M209 371 L209 281 L383 281 L316 371 L209 371 Z M399 371 L465 281 L567 281 L567 371 L399 371 Z M563 149 L567 149 L567 233 L501 233 L563 149 Z " />
<glyph glyph-name="uni20A7" unicode="&#x20a7;" horiz-adv-x="1316" d="M543 451 Q543 349 481 295.5 Q419 242 323 242 L196 242 L196 64 L308 64 L308 0 L41 0 L41 64 L123 64 L123 586 L41 586 L41 650 L317 650 Q438 650 490.5 591 Q543 532 543 451 Z M904 120 Q886 -10 763 -10 Q696 -10 660.5 28 Q625 66 625 131 L625 389 L553 389 L553 445 L625 445 L625 588 L695 588 L695 445 L869 445 L869 389 L695 389 L695 140 Q695 100 712.5 75.5 Q730 51 770 51 Q796 51 818.5 67 Q841 83 851 137 L904 120 Z M465 449 Q465 512 427.5 549 Q390 586 311 586 L196 586 L196 306 L314 306 Q465 306 465 449 Z M1273 129 Q1273 64 1218.5 27 Q1164 -10 1084 -10 Q1037 -10 990.5 2.5 Q944 15 915 34 L929 135 L985 129 L982 70 Q1028 48 1081 48 Q1128 48 1164.5 66.5 Q1201 85 1201 123 Q1201 160 1173 175 Q1145 190 1103.5 197 Q1062 204 1020 214 Q978 224 950 248.5 Q922 273 922 325 Q922 396 974 425 Q1026 454 1087 454 Q1133 454 1173.5 442 Q1214 430 1242 413 L1253 309 L1195 302 L1184 374 Q1142 396 1093 396 Q1051 396 1024 380 Q997 364 997 330 Q997 295 1025 280.5 Q1053 266 1094 259.5 Q1135 253 1176 243 Q1217 233 1245 207.5 Q1273 182 1273 129 Z " />
<glyph glyph-name="uni20A8" unicode="&#x20a8;" horiz-adv-x="942" d="M723 397 Q682 397 655 381 Q628 365 628 330 Q628 295 656 280 Q684 265 725 258 Q766 251 807 241 Q848 231 876 206.5 Q904 182 904 130 Q904 68 856 29 Q808 -10 711 -10 Q602 -10 518.5 42.5 Q435 95 393 174 L338 272 L197 272 L197 64 L285 64 L285 0 L42 0 L42 64 L123 64 L123 586 L42 586 L42 650 L322 650 Q442 650 495 597.5 Q548 545 548 467 Q548 401 512 352.5 Q476 304 408 286 L458 201 Q494 135 565 91 Q636 47 716 47 Q766 47 799 65.5 Q832 84 832 124 Q832 161 804 176.5 Q776 192 734 198.5 Q692 205 650.5 215 Q609 225 581 249 Q553 273 553 325 Q553 396 605 425 Q657 454 717 454 Q764 454 804 442 Q844 430 873 413 L883 309 L826 302 L815 373 Q794 383 772 390 Q750 397 723 397 Z M315 333 Q399 333 434.5 367.5 Q470 402 470 463 Q470 527 433.5 556.5 Q397 586 313 586 L197 586 L197 333 L315 333 Z " />
<glyph glyph-name="uni20AA" unicode="&#x20aa;" horiz-adv-x="781" d="M90 0 L90 650 L303 650 Q401 650 449 624.5 Q497 599 512 539.5 Q527 480 527 377 L527 244 L455 244 L455 382 Q455 470 446.5 514 Q438 558 406 573 Q374 588 304 588 L162 588 L162 0 L90 0 Z M344 62 L500 62 Q568 62 596.5 83 Q625 104 631 151 Q637 198 637 276 L637 650 L709 650 L709 281 Q709 178 697.5 116.5 Q686 55 641.5 27.5 Q597 0 499 0 L272 0 L272 406 L344 406 L344 62 Z " />
<glyph glyph-name="uni20A9" unicode="&#x20a9;" horiz-adv-x="996" d="M962 586 L907 586 L865 444 L939 444 L939 392 L849 392 L822 302 L939 302 L939 250 L807 250 L733 0 L674 0 L591 250 L413 250 L333 0 L274 0 L194 250 L60 250 L60 302 L178 302 L149 392 L60 392 L60 444 L133 444 L88 586 L33 586 L33 650 L258 650 L258 586 L166 586 L207 444 L411 444 L457 586 L392 586 L392 650 L616 650 L616 586 L551 586 L597 444 L795 444 L833 586 L739 586 L739 650 L962 650 L962 586 Z M499 520 L474 444 L528 444 L503 520 L499 520 Z M223 392 L249 302 L365 302 L394 392 L223 392 Z M614 392 L643 302 L757 302 L781 392 L614 392 Z M458 392 L429 302 L574 302 L545 392 L458 392 Z M703 116 L707 116 L743 250 L660 250 L703 116 Z M303 119 L307 119 L349 250 L264 250 L303 119 Z " />
<glyph glyph-name="uni20AD" unicode="&#x20ad;" horiz-adv-x="679" d="M64 299 L64 362 L130 362 L130 586 L48 586 L48 650 L280 650 L280 586 L204 586 L204 362 L310 362 L477 587 L400 587 L400 651 L629 651 L629 587 L555 587 L386 362 L569 362 L569 299 L396 299 L568 64 L641 64 L641 0 L407 0 L407 64 L484 64 L312 299 L204 299 L204 64 L279 64 L279 0 L48 0 L48 64 L130 64 L130 299 L64 299 Z " />
<glyph glyph-name="uni20AE" unicode="&#x20ae;" horiz-adv-x="632" d="M605 452 L540 447 L520 586 L352 586 L352 392 L492 443 L492 387 L352 337 L352 266 L492 316 L492 262 L352 211 L352 64 L467 64 L467 0 L167 0 L167 64 L279 64 L279 185 L148 138 L148 193 L279 240 L279 311 L148 264 L148 318 L279 365 L279 586 L111 586 L91 447 L27 452 L46 650 L585 650 L605 452 Z " />
<glyph glyph-name="uni20B1" unicode="&#x20b1;" horiz-adv-x="654" d="M58 477 L58 522 L136 522 L136 586 L54 586 L54 650 L330 650 Q423 650 475 614 Q527 578 545 522 L621 522 L621 477 L554 477 Q555 470 555.5 464 Q556 458 556 451 Q556 441 555.5 432 Q555 423 554 415 L621 415 L621 370 L543 370 Q520 307 465 274.5 Q410 242 336 242 L209 242 L209 64 L321 64 L321 0 L54 0 L54 64 L136 64 L136 370 L58 370 L58 415 L136 415 L136 477 L58 477 Z M209 586 L209 522 L461 522 Q426 586 324 586 L209 586 Z M478 449 Q478 459 476 477 L209 477 L209 415 L475 415 Q478 430 478 449 Z M327 306 Q424 306 459 370 L209 370 L209 306 L327 306 Z " />
<glyph glyph-name="uni20B4" unicode="&#x20b4;" horiz-adv-x="589" d="M40 371 L40 410 L390 410 Q428 440 428 490 Q428 545 390.5 570 Q353 595 294 595 Q266 595 230.5 590 Q195 585 162 570 L149 471 L91 477 L100 613 Q134 633 193.5 646.5 Q253 660 306 660 Q386 660 446 623 Q506 586 506 497 Q506 444 481 410 L548 410 L548 371 L438 371 Q409 352 370.5 339 Q332 326 292 312 L262 301 L548 301 L548 262 L191 262 Q150 227 150 171 Q150 108 193 81.5 Q236 55 304 55 Q337 55 371.5 61.5 Q406 68 432 85 L450 179 L513 172 L496 50 Q421 -10 298 -10 Q202 -10 137 31.5 Q72 73 72 163 Q72 223 102 262 L40 262 L40 301 L144 301 Q172 320 206 333 Q240 346 275 358 Q297 365 312 371 L40 371 Z " />
<glyph glyph-name="uni20BA" unicode="&#x20ba;" horiz-adv-x="599" d="M58 230 L143 266 L143 340 L58 304 L58 355 L143 391 L143 586 L61 586 L61 650 L314 650 L314 586 L217 586 L217 423 L423 512 L423 461 L217 372 L217 298 L423 387 L423 336 L217 247 L217 64 L280 64 Q398 64 447 135.5 Q496 207 496 334 L568 334 Q568 187 502 93.5 Q436 0 283 0 L61 0 L61 64 L143 64 L143 215 L58 179 L58 230 Z " />
<glyph glyph-name="uni20BD" unicode="&#x20bd;" horiz-adv-x="592" d="M58 64 L140 64 L140 138 L58 138 L58 190 L140 190 L140 255 L58 255 L58 318 L140 318 L140 586 L58 586 L58 650 L334 650 Q455 650 507.5 594 Q560 538 560 457 Q560 355 498 305 Q436 255 340 255 L213 255 L213 190 L467 190 L467 138 L213 138 L213 64 L324 64 L324 0 L58 0 L58 64 Z M330 318 Q482 318 482 454 Q482 586 328 586 L213 586 L213 318 L330 318 Z " />
<glyph glyph-name="uni00BD" unicode="&#xbd;" horiz-adv-x="746" d="M561 650 L371 325 L189 0 L136 0 L333 337 L508 650 L561 650 Z M41 331 L116 331 L116 605 L41 605 L41 650 L174 650 L174 331 L246 331 L246 286 L41 286 L41 331 Z M489 252 L444 257 L455 333 Q477 352 509.5 361 Q542 370 574 370 Q638 370 666 340 Q694 310 694 273 Q694 225 658.5 180.5 Q623 136 579.5 101 Q536 66 510 45 L666 45 L676 99 L723 94 L713 0 L441 0 L436 41 Q478 76 523 114 Q568 152 599 191 Q630 230 630 268 Q630 292 613.5 308.5 Q597 325 559 325 Q528 325 502 308 L489 252 Z " />
<glyph glyph-name="uni00BC" unicode="&#xbc;" horiz-adv-x="708" d="M567 650 L377 325 L195 0 L142 0 L339 337 L514 650 L567 650 Z M44 331 L119 331 L119 605 L44 605 L44 650 L177 650 L177 331 L249 331 L249 286 L44 286 L44 331 Z M557 -1 L557 89 L377 89 L371 132 L501 364 L615 364 L615 133 L676 133 L672 89 L615 89 L615 -1 L557 -1 Z M530 319 L424 133 L557 133 L557 319 L530 319 Z " />
<glyph glyph-name="uni00BE" unicode="&#xbe;" horiz-adv-x="734" d="M97 549 L52 554 L61 623 Q84 642 118.5 651 Q153 660 182 660 Q232 660 262.5 636 Q293 612 293 571 Q293 544 276.5 520.5 Q260 497 219 485 L219 483 Q270 476 289.5 449.5 Q309 423 309 392 Q309 338 266.5 311 Q224 284 165 284 Q114 284 80.5 310 Q47 336 41 381 L83 393 Q89 369 108.5 349.5 Q128 330 167 330 Q204 330 225 349.5 Q246 369 246 398 Q246 426 223 443 Q200 460 142 461 L142 499 Q231 503 231 563 Q231 615 168 615 Q136 615 108 599 L97 549 Z M595 650 L405 325 L223 0 L170 0 L367 337 L542 650 L595 650 Z M583 -1 L583 89 L403 89 L397 132 L527 364 L641 364 L641 133 L702 133 L698 89 L641 89 L641 -1 L583 -1 Z M556 319 L450 133 L583 133 L583 319 L556 319 Z " />
<glyph glyph-name="uni2153" unicode="&#x2153;" horiz-adv-x="744" d="M555 650 L365 325 L183 0 L130 0 L327 337 L502 650 L555 650 Z M41 331 L116 331 L116 605 L41 605 L41 650 L174 650 L174 331 L246 331 L246 286 L41 286 L41 331 Z M499 258 L454 263 L463 332 Q486 352 520.5 360.5 Q555 369 584 369 Q634 369 664.5 344.5 Q695 320 695 280 Q695 253 678.5 229.5 Q662 206 621 194 L621 192 Q672 184 691.5 158 Q711 132 711 101 Q711 47 668.5 20 Q626 -7 567 -7 Q516 -7 482.5 19 Q449 45 443 90 L485 102 Q491 78 510.5 58.5 Q530 39 569 39 Q606 39 627 58.5 Q648 78 648 107 Q648 135 625 151.5 Q602 168 544 170 L544 208 Q633 212 633 272 Q633 324 570 324 Q538 324 510 308 L499 258 Z " />
<glyph glyph-name="uni2154" unicode="&#x2154;" horiz-adv-x="795" d="M91 542 L46 547 L57 623 Q79 642 111.5 651 Q144 660 176 660 Q240 660 268 630 Q296 600 296 563 Q296 515 260.5 470.5 Q225 426 181.5 391 Q138 356 112 335 L268 335 L278 389 L325 384 L315 290 L43 290 L38 331 Q80 366 125 404 Q170 442 201 481 Q232 520 232 558 Q232 582 215.5 598.5 Q199 615 161 615 Q130 615 104 598 L91 542 Z M617 650 L427 325 L245 0 L192 0 L389 337 L564 650 L617 650 Z M550 258 L505 263 L514 332 Q536 352 571 360.5 Q606 369 635 369 Q685 369 715.5 344.5 Q746 320 746 280 Q746 253 729 229.5 Q712 206 672 194 L672 192 Q723 184 742.5 158 Q762 132 762 101 Q762 47 719 20 Q676 -7 618 -7 Q567 -7 533.5 19 Q500 45 494 90 L536 102 Q542 78 561.5 58.5 Q581 39 620 39 Q658 39 678.5 58.5 Q699 78 699 107 Q699 135 676 151.5 Q653 168 595 170 L595 208 Q684 212 684 272 Q684 324 621 324 Q589 324 561 308 L550 258 Z " />
<glyph glyph-name="uni215B" unicode="&#x215b;" horiz-adv-x="736" d="M565 650 L375 325 L193 0 L140 0 L337 337 L512 650 L565 650 Z M41 331 L116 331 L116 605 L41 605 L41 650 L174 650 L174 331 L246 331 L246 286 L41 286 L41 331 Z M560 -6 Q502 -6 463.5 18 Q425 42 425 89 Q425 129 452.5 149.5 Q480 170 514 183 Q482 198 458.5 219 Q435 240 435 274 Q435 317 470.5 343.5 Q506 370 564 370 Q619 370 655 345 Q691 320 691 280 Q691 246 667 227.5 Q643 209 611 196 Q647 180 675.5 157 Q704 134 704 94 Q704 47 663 20.5 Q622 -6 560 -6 Z M498 280 Q498 254 521 240 Q544 226 576 212 Q598 222 614.5 235.5 Q631 249 631 273 Q631 302 610.5 314.5 Q590 327 564 327 Q498 327 498 280 Z M563 37 Q597 37 619 51.5 Q641 66 641 90 Q641 120 612.5 136.5 Q584 153 548 168 Q522 156 503 141 Q484 126 484 99 Q484 37 563 37 Z " />
<glyph glyph-name="uni2044" unicode="&#x2044;" horiz-adv-x="136" d="M281 650 L91 325 L-91 0 L-144 0 L53 337 L228 650 L281 650 Z " />
<glyph glyph-name="uni2113" unicode="&#x2113;" horiz-adv-x="389" d="M57 191 L33 231 L106 280 L106 491 Q106 566 138.5 613 Q171 660 244 660 Q308 660 336 624 Q364 588 364 538 Q364 462 311 396.5 Q258 331 177 271 L177 153 Q177 92 194.5 71 Q212 50 240 50 Q284 50 328 81 L343 30 Q297 -10 229 -10 Q106 -10 106 143 L106 222 L57 191 Z M177 478 L177 334 Q234 381 264.5 427.5 Q295 474 295 529 Q295 599 238 599 Q196 599 186.5 565.5 Q177 532 177 478 Z " />
<glyph glyph-name="uni212E" unicode="&#x212e;" horiz-adv-x="611" d="M579 235 L151 235 Q147 235 147 232 L147 95 Q147 86 153 78 Q177 49 218 26 Q259 3 310 3 Q366 3 414.5 26 Q463 49 495 87 L519 87 Q482 44 430 16 Q378 -12 310 -12 Q194 -12 118.5 62 Q43 136 43 242 Q43 348 118.5 422 Q194 496 310 496 Q426 496 502.5 422 Q579 348 579 242 L579 235 Z M474 255 L474 392 Q474 405 469 410 Q449 436 404.5 458.5 Q360 481 310 481 Q260 481 215.5 456.5 Q171 432 154 407 Q147 396 147 388 L147 255 Q147 251 151 251 L473 251 Q474 251 474 255 Z " />
<glyph glyph-name="uni2116" unicode="&#x2116;" horiz-adv-x="981" d="M627 375 Q627 439 665.5 484 Q704 529 779 529 Q854 529 891.5 484.5 Q929 440 929 378 Q929 311 887 268.5 Q845 226 775 226 Q707 226 667 267.5 Q627 309 627 375 Z M396 521 L612 521 L612 465 L545 465 L545 0 L501 0 L189 398 L185 398 L185 56 L270 56 L270 0 L55 0 L55 56 L118 56 L118 465 L47 465 L47 521 L169 521 L474 133 L478 133 L478 465 L396 465 L396 521 Z M689 379 Q689 334 711 303 Q733 272 777 272 Q820 272 843.5 302 Q867 332 867 379 Q867 482 778 482 Q735 482 712 453.5 Q689 425 689 379 Z M628 140 L628 190 L931 190 L931 140 L628 140 Z " />
<glyph glyph-name="uni2071" unicode="&#x2071;" horiz-adv-x="205" d="M74 781 L74 844 L135 844 L135 781 L74 781 Z M29 458 L78 458 L78 662 L27 662 L27 705 L136 705 L136 458 L184 458 L184 415 L29 415 L29 458 Z " />
<glyph glyph-name="uni207F" unicode="&#x207f;" horiz-adv-x="407" d="M234 458 L283 458 L283 585 Q283 631 265.5 649.5 Q248 668 218 668 Q181 668 159.5 646.5 Q138 625 136 594 L136 458 L184 458 L184 415 L29 415 L29 458 L78 458 L78 662 L27 662 L27 705 L136 705 L136 655 Q169 711 238 711 Q281 711 311.5 685 Q342 659 342 602 L342 458 L390 458 L390 415 L234 415 L234 458 Z " />
<glyph glyph-name="uni207C" unicode="&#x207c;" horiz-adv-x="401" d="M51 645 L51 685 L348 685 L348 645 L51 645 Z M51 510 L51 549 L348 549 L348 510 L51 510 Z " />
<glyph glyph-name="uni207B" unicode="&#x207b;" horiz-adv-x="329" d="M49 578 L49 617 L281 617 L281 578 L49 578 Z " />
<glyph glyph-name="uni207A" unicode="&#x207a;" horiz-adv-x="292" d="M30 578 L30 617 L128 617 L128 711 L169 711 L169 617 L262 617 L262 578 L169 578 L169 485 L128 485 L128 578 L30 578 Z " />
<glyph glyph-name="uni2070" unicode="&#x2070;" horiz-adv-x="378" d="M39 593 Q39 666 69 725.5 Q99 785 190 785 Q282 785 311 725 Q340 665 340 598 Q340 518 306.5 463.5 Q273 409 187 409 Q102 409 70.5 463 Q39 517 39 593 Z M102 599 Q102 539 118.5 497.5 Q135 456 188 456 Q241 456 259 496.5 Q277 537 277 601 Q277 655 261.5 696.5 Q246 738 189 738 Q134 738 118 696.5 Q102 655 102 599 Z " />
<glyph glyph-name="uni00B9" unicode="&#xb9;" horiz-adv-x="260" d="M35 460 L110 460 L110 734 L35 734 L35 779 L168 779 L168 460 L240 460 L240 415 L35 415 L35 460 Z " />
<glyph glyph-name="uni00B2" unicode="&#xb2;" horiz-adv-x="347" d="M87 667 L42 672 L53 748 Q75 767 107.5 776 Q140 785 172 785 Q236 785 264 755 Q292 725 292 688 Q292 640 256.5 596 Q221 552 177.5 516.5 Q134 481 108 460 L264 460 L274 514 L321 509 L311 415 L39 415 L34 456 Q76 491 121 529 Q166 567 197 606 Q228 645 228 683 Q228 707 211.5 723.5 Q195 740 157 740 Q126 740 100 723 L87 667 Z " />
<glyph glyph-name="uni00B3" unicode="&#xb3;" horiz-adv-x="342" d="M93 673 L48 678 L57 747 Q80 766 114.5 775 Q149 784 178 784 Q228 784 258.5 760 Q289 736 289 695 Q289 668 272.5 644.5 Q256 621 215 609 L215 607 Q266 600 285.5 573.5 Q305 547 305 516 Q305 462 262.5 435 Q220 408 161 408 Q110 408 76.5 434 Q43 460 37 505 L79 517 Q85 493 104.5 473.5 Q124 454 163 454 Q200 454 221 473.5 Q242 493 242 522 Q242 550 219 567 Q196 584 138 585 L138 623 Q227 627 227 687 Q227 739 164 739 Q132 739 104 723 L93 673 Z " />
<glyph glyph-name="uni2074" unicode="&#x2074;" horiz-adv-x="356" d="M208 414 L208 504 L28 504 L22 547 L152 779 L266 779 L266 548 L327 548 L323 504 L266 504 L266 414 L208 414 Z M181 734 L75 548 L208 548 L208 734 L181 734 Z " />
<glyph glyph-name="uni2075" unicode="&#x2075;" horiz-adv-x="334" d="M302 524 Q302 464 260 436 Q218 408 159 408 Q108 408 74.5 434 Q41 460 35 505 L77 517 Q83 493 102 473.5 Q121 454 160 454 Q240 454 240 524 Q240 570 206.5 583.5 Q173 597 132 597 Q117 597 103.5 596 Q90 595 77 594 L57 610 L57 779 L282 779 L287 689 L241 684 L235 734 L112 734 L112 639 L139 639 Q202 639 252 617 Q302 595 302 524 Z " />
<glyph glyph-name="uni2076" unicode="&#x2076;" horiz-adv-x="349" d="M195 740 Q146 740 124 705 Q102 670 101 590 Q111 611 134 627.5 Q157 644 200 644 Q260 644 284 610 Q308 576 308 533 Q308 480 275.5 444.5 Q243 409 177 409 Q100 409 69.5 459 Q39 509 39 583 Q39 669 76 727 Q113 785 188 785 Q213 785 242.5 775 Q272 765 300 736 L268 702 Q247 727 228.5 733.5 Q210 740 195 740 Z M183 600 Q140 600 122 578.5 Q104 557 103 534 Q107 500 123 478 Q139 456 179 456 Q249 456 249 530 Q249 600 183 600 Z " />
<glyph glyph-name="uni2077" unicode="&#x2077;" horiz-adv-x="308" d="M29 779 L284 779 L292 752 L148 415 L90 415 L229 734 L80 734 L80 672 L29 672 L29 779 Z " />
<glyph glyph-name="uni2078" unicode="&#x2078;" horiz-adv-x="353" d="M172 409 Q114 409 75.5 433.5 Q37 458 37 504 Q37 544 64.5 564 Q92 584 126 598 Q94 613 70.5 633.5 Q47 654 47 689 Q47 732 82.5 758.5 Q118 785 176 785 Q231 785 267 760.5 Q303 736 303 695 Q303 660 279 642 Q255 624 223 611 Q259 595 287.5 572.5 Q316 550 316 509 Q316 462 275 435.5 Q234 409 172 409 Z M110 695 Q110 670 133 655 Q156 640 188 627 Q210 638 226.5 651 Q243 664 243 688 Q243 717 222.5 729.5 Q202 742 176 742 Q110 742 110 695 Z M175 452 Q209 452 231 466.5 Q253 481 253 505 Q253 535 224.5 551.5 Q196 568 160 583 Q134 571 115 556 Q96 541 96 514 Q96 452 175 452 Z " />
<glyph glyph-name="uni2079" unicode="&#x2079;" horiz-adv-x="348" d="M156 454 Q205 454 224.5 489 Q244 524 246 604 Q236 582 213 566 Q190 550 148 550 Q87 550 63 584 Q39 618 39 661 Q39 714 72 749.5 Q105 785 170 785 Q247 785 278 735 Q309 685 309 609 Q309 523 273 466 Q237 409 163 409 Q138 409 106.5 419 Q75 429 48 458 L80 492 Q100 467 121 460.5 Q142 454 156 454 Z M164 594 Q204 594 222.5 613.5 Q241 633 244 655 Q241 692 225.5 715 Q210 738 169 738 Q98 738 98 664 Q98 594 164 594 Z " />
<glyph glyph-name="uni207D" unicode="&#x207d;" horiz-adv-x="220" d="M143 855 L194 855 Q88 727 88 581 Q88 429 194 304 L142 304 Q88 371 63.5 440.5 Q39 510 39 581 Q39 728 143 855 Z " />
<glyph glyph-name="uni207E" unicode="&#x207e;" horiz-adv-x="219" d="M76 303 L24 303 Q131 431 131 576 Q131 726 24 854 L77 854 Q130 786 155 716 Q180 646 180 576 Q180 431 76 303 Z " />
<glyph glyph-name="uni2090" unicode="&#x2090;" horiz-adv-x="348" d="M161 257 Q144 257 131 252.5 Q118 248 105 241 L94 191 L49 196 L58 263 Q103 296 169 296 Q283 296 283 198 L283 62 Q283 32 307 32 Q316 32 325 35 L325 4 Q306 -7 282 -7 Q227 -7 225 53 Q212 30 186 11.5 Q160 -7 124 -7 Q93 -7 62.5 11 Q32 29 32 75 Q32 130 77 146.5 Q122 163 171 163 Q185 163 199 162 Q213 161 225 160 L225 191 Q225 220 210 238.5 Q195 257 161 257 Z M225 117 L225 130 Q213 132 199.5 133 Q186 134 173 134 Q143 134 118 124 Q93 114 93 82 Q93 56 109.5 45 Q126 34 146 34 Q176 34 200.5 56 Q225 78 225 117 Z " />
<glyph glyph-name="uni2091" unicode="&#x2091;" horiz-adv-x="336" d="M181 39 Q216 39 234 55 Q252 71 257 95 L305 85 Q300 48 267 20.5 Q234 -7 176 -7 Q112 -7 72 31.5 Q32 70 32 140 Q32 208 69.5 252 Q107 296 172 296 Q243 296 278 246.5 Q313 197 298 134 L93 134 Q98 39 181 39 Z M171 253 Q134 253 116 229.5 Q98 206 94 171 L242 171 Q246 201 229 227 Q212 253 171 253 Z " />
<glyph glyph-name="uni2095" unicode="&#x2095;" horiz-adv-x="400" d="M227 43 L276 43 L276 170 Q276 216 257.5 234.5 Q239 253 210 253 Q174 253 152 231.5 Q130 210 128 179 L128 43 L176 43 L176 0 L22 0 L22 43 L70 43 L70 404 L22 404 L22 447 L128 447 L128 240 Q161 296 230 296 Q274 296 304 270 Q334 244 334 187 L334 43 L382 43 L382 0 L227 0 L227 43 Z " />
<glyph glyph-name="uni2096" unicode="&#x2096;" horiz-adv-x="370" d="M199 290 L342 290 L342 247 L297 247 L224 158 L319 43 L356 43 L356 0 L212 0 L212 43 L254 43 L178 132 L128 132 L128 43 L168 43 L168 0 L22 0 L22 43 L70 43 L70 404 L20 404 L20 447 L128 447 L128 173 L182 173 L243 247 L199 247 L199 290 Z " />
<glyph glyph-name="uni2097" unicode="&#x2097;" horiz-adv-x="198" d="M22 43 L70 43 L70 404 L20 404 L20 447 L128 447 L128 43 L177 43 L177 0 L22 0 L22 43 Z " />
<glyph glyph-name="uni2098" unicode="&#x2098;" horiz-adv-x="600" d="M427 43 L476 43 L476 170 Q476 215 458.5 234 Q441 253 413 253 Q376 253 356 228.5 Q336 204 335 176 L335 43 L383 43 L383 0 L228 0 L228 43 L277 43 L277 170 Q277 216 259.5 234.5 Q242 253 214 253 Q176 253 157 229 Q138 205 136 177 L136 43 L182 43 L182 0 L29 0 L29 43 L78 43 L78 247 L27 247 L27 290 L136 290 L136 239 Q166 296 233 296 Q266 296 293 279 Q320 262 330 226 Q344 257 369 276.5 Q394 296 433 296 Q475 296 504.5 270 Q534 244 534 187 L534 43 L582 43 L582 0 L427 0 L427 43 Z " />
<glyph glyph-name="uni2099" unicode="&#x2099;" horiz-adv-x="407" d="M234 43 L283 43 L283 170 Q283 216 265.5 234.5 Q248 253 218 253 Q181 253 159.5 231.5 Q138 210 136 179 L136 43 L184 43 L184 0 L29 0 L29 43 L78 43 L78 247 L27 247 L27 290 L136 290 L136 240 Q169 296 238 296 Q281 296 311.5 270 Q342 244 342 187 L342 43 L390 43 L390 0 L234 0 L234 43 Z " />
<glyph glyph-name="uni2092" unicode="&#x2092;" horiz-adv-x="364" d="M31 142 Q31 206 69.5 251 Q108 296 183 296 Q258 296 295.5 251 Q333 206 333 145 Q333 78 291 35.5 Q249 -7 179 -7 Q111 -7 71 34.5 Q31 76 31 142 Z M93 146 Q93 101 115 70 Q137 39 181 39 Q224 39 247.5 69.5 Q271 100 271 146 Q271 249 182 249 Q139 249 116 220.5 Q93 192 93 146 Z " />
<glyph glyph-name="uni209A" unicode="&#x209a;" horiz-adv-x="394" d="M22 -95 L70 -95 L70 247 L19 247 L19 290 L128 290 L128 231 Q142 256 167 276 Q192 296 234 296 Q290 296 326 258 Q362 220 362 153 Q362 94 329.5 43.5 Q297 -7 226 -7 Q156 -7 128 41 L128 -95 L193 -95 L193 -138 L22 -138 L22 -95 Z M212 39 Q256 39 278 70.5 Q300 102 300 148 Q300 199 276 224.5 Q252 250 218 250 Q178 250 153.5 221.5 Q129 193 128 161 L128 118 Q128 81 153 60 Q178 39 212 39 Z " />
<glyph glyph-name="uni209B" unicode="&#x209b;" horiz-adv-x="316" d="M157 37 Q186 37 205.5 47.5 Q225 58 225 80 Q225 107 197 116 Q169 125 131.5 130.5 Q94 136 66 152 Q38 168 38 210 Q38 257 74 276.5 Q110 296 150 296 Q177 296 205 291 Q233 286 262 269 L271 206 L226 200 L216 242 Q200 249 186.5 251 Q173 253 161 253 Q101 253 101 216 Q101 188 128.5 179.5 Q156 171 192.5 166 Q229 161 256.5 144.5 Q284 128 284 84 Q284 40 252 16.5 Q220 -7 168 -7 Q130 -7 92.5 3.5 Q55 14 34 28 L43 98 L88 93 L87 55 Q112 37 157 37 Z " />
<glyph glyph-name="uni209C" unicode="&#x209c;" horiz-adv-x="283" d="M21 290 L67 290 L67 382 L126 382 L126 290 L239 290 L239 247 L126 247 L126 94 Q126 39 171 39 Q186 39 201 48.5 Q216 58 222 93 L264 80 Q252 -7 165 -7 Q67 -7 67 86 L67 247 L21 247 L21 290 Z " />
<glyph glyph-name="uni2093" unicode="&#x2093;" horiz-adv-x="361" d="M19 43 L58 43 L151 144 L57 247 L20 247 L20 290 L161 290 L161 247 L121 247 L184 173 L251 247 L216 247 L216 290 L338 290 L338 247 L303 247 L212 149 L309 43 L345 43 L345 0 L208 0 L208 43 L245 43 L178 118 L112 43 L147 43 L147 0 L19 0 L19 43 Z " />
<glyph glyph-name="uni208C" unicode="&#x208c;" horiz-adv-x="396" d="M49 230 L49 270 L346 270 L346 230 L49 230 Z M49 95 L49 134 L346 134 L346 95 L49 95 Z " />
<glyph glyph-name="uni208B" unicode="&#x208b;" horiz-adv-x="329" d="M49 163 L49 202 L281 202 L281 163 L49 163 Z " />
<glyph glyph-name="uni208A" unicode="&#x208a;" horiz-adv-x="291" d="M29 163 L29 202 L127 202 L127 296 L168 296 L168 202 L261 202 L261 163 L168 163 L168 70 L127 70 L127 163 L29 163 Z " />
<glyph glyph-name="uni2080" unicode="&#x2080;" horiz-adv-x="378" d="M39 178 Q39 251 69 310.5 Q99 370 190 370 Q282 370 311 310 Q340 250 340 183 Q340 104 306.5 49 Q273 -6 187 -6 Q102 -6 70.5 48 Q39 102 39 178 Z M102 184 Q102 124 118.5 82.5 Q135 41 188 41 Q241 41 259 81.5 Q277 122 277 186 Q277 240 261.5 281.5 Q246 323 189 323 Q134 323 118 281.5 Q102 240 102 184 Z " />
<glyph glyph-name="uni2081" unicode="&#x2081;" horiz-adv-x="260" d="M35 45 L110 45 L110 319 L35 319 L35 364 L168 364 L168 45 L240 45 L240 0 L35 0 L35 45 Z " />
<glyph glyph-name="uni2082" unicode="&#x2082;" horiz-adv-x="347" d="M87 252 L42 257 L53 333 Q75 352 107.5 361 Q140 370 172 370 Q236 370 264 340 Q292 310 292 273 Q292 225 256.5 180.5 Q221 136 177.5 101 Q134 66 108 45 L264 45 L274 99 L321 94 L311 0 L39 0 L34 41 Q76 76 121 114 Q166 152 197 191 Q228 230 228 268 Q228 292 211.5 308.5 Q195 325 157 325 Q126 325 100 308 L87 252 Z " />
<glyph glyph-name="uni2083" unicode="&#x2083;" horiz-adv-x="342" d="M93 258 L48 263 L57 332 Q80 352 114.5 360.5 Q149 369 178 369 Q228 369 258.5 344.5 Q289 320 289 280 Q289 253 272.5 229.5 Q256 206 215 194 L215 192 Q266 184 285.5 158 Q305 132 305 101 Q305 47 262.5 20 Q220 -7 161 -7 Q110 -7 76.5 19 Q43 45 37 90 L79 102 Q85 78 104.5 58.5 Q124 39 163 39 Q200 39 221 58.5 Q242 78 242 107 Q242 135 219 151.5 Q196 168 138 170 L138 208 Q227 212 227 272 Q227 324 164 324 Q132 324 104 308 L93 258 Z " />
<glyph glyph-name="uni2084" unicode="&#x2084;" horiz-adv-x="356" d="M208 -1 L208 89 L28 89 L22 132 L152 364 L266 364 L266 133 L327 133 L323 89 L266 89 L266 -1 L208 -1 Z M181 319 L75 133 L208 133 L208 319 L181 319 Z " />
<glyph glyph-name="uni2085" unicode="&#x2085;" horiz-adv-x="334" d="M302 109 Q302 49 260 21 Q218 -7 159 -7 Q108 -7 74.5 19 Q41 45 35 90 L77 102 Q83 78 102 58.5 Q121 39 160 39 Q240 39 240 109 Q240 156 206.5 169 Q173 182 132 182 Q117 182 103.5 181 Q90 180 77 179 L57 195 L57 364 L282 364 L287 274 L241 269 L235 319 L112 319 L112 224 L139 224 Q202 224 252 202 Q302 180 302 109 Z " />
<glyph glyph-name="uni2086" unicode="&#x2086;" horiz-adv-x="348" d="M195 325 Q146 325 124 289.5 Q102 254 101 175 Q111 196 134 212.5 Q157 229 200 229 Q260 229 284 195 Q308 161 308 118 Q308 66 275.5 30 Q243 -6 177 -6 Q100 -6 69.5 44 Q39 94 39 168 Q39 254 76 312 Q113 370 188 370 Q213 370 242.5 360 Q272 350 300 321 L268 287 Q247 312 228.5 318.5 Q210 325 195 325 Z M183 185 Q140 185 122 163.5 Q104 142 103 119 Q107 84 123 62.5 Q139 41 179 41 Q249 41 249 115 Q249 185 183 185 Z " />
<glyph glyph-name="uni2087" unicode="&#x2087;" horiz-adv-x="308" d="M29 364 L284 364 L292 337 L148 0 L90 0 L229 319 L80 319 L80 257 L29 257 L29 364 Z " />
<glyph glyph-name="uni2088" unicode="&#x2088;" horiz-adv-x="352" d="M172 -6 Q114 -6 75.5 18 Q37 42 37 89 Q37 129 64.5 149.5 Q92 170 126 183 Q94 198 70.5 219 Q47 240 47 274 Q47 317 82.5 343.5 Q118 370 176 370 Q231 370 267 345 Q303 320 303 280 Q303 246 279 227.5 Q255 209 223 196 Q259 180 287.5 157 Q316 134 316 94 Q316 47 275 20.5 Q234 -6 172 -6 Z M110 280 Q110 254 133 240 Q156 226 188 212 Q210 222 226.5 235.5 Q243 249 243 273 Q243 302 222.5 314.5 Q202 327 176 327 Q110 327 110 280 Z M175 37 Q209 37 231 51.5 Q253 66 253 90 Q253 120 224.5 136.5 Q196 153 160 168 Q134 156 115 141 Q96 126 96 99 Q96 37 175 37 Z " />
<glyph glyph-name="uni2089" unicode="&#x2089;" horiz-adv-x="348" d="M156 39 Q205 39 224.5 74.5 Q244 110 246 189 Q236 167 213 151 Q190 135 148 135 Q87 135 63 169 Q39 203 39 246 Q39 298 72 334 Q105 370 170 370 Q247 370 278 320 Q309 270 309 194 Q309 108 273 51 Q237 -6 163 -6 Q138 -6 106.5 4 Q75 14 48 43 L80 77 Q100 52 121 45.5 Q142 39 156 39 Z M164 179 Q204 179 222.5 198.5 Q241 218 244 240 Q241 278 225.5 300.5 Q210 323 169 323 Q98 323 98 249 Q98 179 164 179 Z " />
<glyph glyph-name="uni208D" unicode="&#x208d;" horiz-adv-x="218" d="M143 440 L194 440 Q88 312 88 166 Q88 14 194 -111 L142 -111 Q88 -44 63.5 26 Q39 96 39 166 Q39 313 143 440 Z " />
<glyph glyph-name="uni208E" unicode="&#x208e;" horiz-adv-x="219" d="M76 -112 L24 -112 Q131 16 131 161 Q131 311 24 439 L77 439 Q130 372 155 301.5 Q180 231 180 161 Q180 16 76 -112 Z " />
<glyph glyph-name="uni2610" unicode="&#x2610;" horiz-adv-x="879" d="M101 0 L101 651 L778 651 L778 0 L101 0 Z M160 592 L160 58 L720 58 L720 592 L160 592 Z " />
<glyph glyph-name="uni2611" unicode="&#x2611;" horiz-adv-x="879" d="M101 0 L101 651 L778 651 L778 0 L101 0 Z M160 592 L160 58 L720 58 L720 592 L160 592 Z M301 320 L387 173 L586 557 L673 505 L387 109 L225 249 L301 320 Z " />
<glyph glyph-name="uni2713" unicode="&#x2713;" horiz-adv-x="641" d="M182 339 L275 181 L490 596 L584 539 L274 111 L99 263 L182 339 Z " />
<glyph glyph-name="uni2193" unicode="&#x2193;" horiz-adv-x="533" d="M490 253 L279 -21 L253 -21 L43 253 L108 253 L235 107 L235 701 L297 701 L297 107 L425 253 L490 253 Z " />
<glyph glyph-name="uni2190" unicode="&#x2190;" horiz-adv-x="765" d="M317 29 L43 238 L43 263 L316 476 L316 411 L170 281 L765 281 L765 221 L169 221 L317 94 L317 29 Z " />
<glyph glyph-name="uni2192" unicode="&#x2192;" horiz-adv-x="766" d="M723 238 L448 29 L448 94 L596 221 L0 221 L0 281 L595 281 L449 411 L449 476 L723 263 L723 238 Z " />
<glyph glyph-name="uni2191" unicode="&#x2191;" horiz-adv-x="533" d="M281 701 L490 427 L425 427 L298 574 L298 -21 L237 -21 L237 572 L108 428 L43 428 L256 701 L281 701 Z " />
<glyph glyph-name="uni2012" unicode="&#x2012;" horiz-adv-x="347" d="M347 281 L347 221 L0 221 L0 281 L347 281 Z " />
<glyph glyph-name="uni2196" unicode="&#x2196;" horiz-adv-x="627" d="M61 590 L403 544 L357 498 L164 511 L584 92 L541 49 L120 468 L132 274 L85 229 L43 573 L61 590 Z " />
<glyph glyph-name="uni2197" unicode="&#x2197;" horiz-adv-x="627" d="M224 544 L566 590 L584 573 L541 229 L494 274 L506 467 L87 49 L43 92 L462 511 L271 498 L224 544 Z " />
<glyph glyph-name="uni2198" unicode="&#x2198;" horiz-adv-x="627" d="M566 49 L224 95 L271 142 L462 127 L43 547 L87 590 L506 172 L494 365 L541 411 L584 66 L566 49 Z " />
<glyph glyph-name="uni2199" unicode="&#x2199;" horiz-adv-x="627" d="M403 95 L61 49 L43 66 L85 411 L132 365 L120 170 L541 590 L584 547 L164 127 L357 142 L403 95 Z " />
<glyph glyph-name="uni25B6" unicode="&#x25b6;" horiz-adv-x="591" d="M94 -35 L94 540 L553 252 L94 -35 Z " />
<glyph glyph-name="uni25B8" unicode="&#x25b8;" horiz-adv-x="418" d="M381 234 L94 -53 L94 522 L381 234 Z " />
<glyph glyph-name="uni25BA" unicode="&#x25ba;" horiz-adv-x="905" d="M864 234 L90 -53 L90 522 L864 234 Z " />
<glyph glyph-name="uni25C0" unicode="&#x25c0;" horiz-adv-x="591" d="M497 -35 L38 252 L497 540 L497 -35 Z " />
<glyph glyph-name="uni25C2" unicode="&#x25c2;" horiz-adv-x="418" d="M324 -53 L38 235 L324 522 L324 -53 Z " />
<glyph glyph-name="uni25C4" unicode="&#x25c4;" horiz-adv-x="906" d="M814 -53 L40 233 L814 522 L814 -53 Z " />
<glyph glyph-name="uni25B2" unicode="&#x25b2;" horiz-adv-x="650" d="M612 23 L38 23 L325 481 L612 23 Z " />
<glyph glyph-name="uni25BC" unicode="&#x25bc;" horiz-adv-x="650" d="M38 480 L612 480 L325 22 L38 480 Z " />
<glyph glyph-name="uni261C" unicode="&#x261c;" horiz-adv-x="927" d="M844 394 L844 42 L690 42 Q688 54 687.5 66.5 Q687 79 686 92 Q583 52 536.5 44 Q490 36 461 36 Q427 36 387 41 Q347 46 347 46 Q338 44 322 44 Q306 44 291 44 Q262 44 242 52.5 Q222 61 222 90 Q222 106 237 121 Q215 138 215 161 Q215 178 226 189 Q205 207 205 229 Q205 240 211 250 L109 251 Q75 251 62.5 267.5 Q50 284 50 302 Q50 323 64 338.5 Q78 354 109 354 L257 354 Q254 363 254 373 Q254 387 261 403 Q268 419 268 419 Q306 434 342.5 440.5 Q379 447 414 447 Q494 447 563 416.5 Q632 386 686 351 Q687 362 687.5 373 Q688 384 690 394 L844 394 Z M684 131 Q681 182 681 235 Q681 254 681.5 272.5 Q682 291 683 310 Q621 346 548.5 380.5 Q476 415 403 415 Q374 415 345 408.5 Q316 402 288 386 Q288 386 287.5 381.5 Q287 377 287 373 Q287 364 306 364 Q339 373 362 376 Q385 379 400 379 Q423 379 433 374.5 Q443 370 448 367 Q464 331 474.5 309.5 Q485 288 511 262 Q511 244 496 231 Q478 248 457 271 Q436 294 424 318 L106 318 Q83 318 83 302 Q83 287 106 287 L404 285 Q431 258 431 230 Q431 218 428 210 Q425 202 421 196 Q421 196 426 183.5 Q431 171 431 160 Q431 139 414 119 Q414 119 416 110.5 Q418 102 418 96 Q418 83 414 74 Q414 74 420 73 Q426 72 461 72 Q486 72 533.5 81 Q581 90 684 131 Z M391 248 L243 248 Q243 248 240 241 Q237 234 237 229 Q237 228 238.5 219.5 Q240 211 243 211 L395 207 Q395 212 394.5 228 Q394 244 391 248 Z M393 180 L253 180 Q253 180 249.5 173 Q246 166 246 161 Q246 147 253 143 L395 139 L395 156 Q395 161 394.5 170 Q394 179 393 180 Z M379 112 L261 112 Q261 112 258 103 Q255 94 255 92 Q255 77 291 77 Q298 77 306 77 Q314 77 322 78 Q331 78 339.5 78.5 Q348 79 355 79 L378 79 Q380 83 380 95 Q380 96 380 103 Q380 110 379 112 Z " />
<glyph glyph-name="uni261D" unicode="&#x261d;" horiz-adv-x="535" d="M72 -98 L72 56 L122 60 Q82 163 74 209.5 Q66 256 66 285 Q66 319 71 359 Q76 399 76 399 Q74 408 74 424 Q74 440 74 455 Q74 484 82.5 504 Q91 524 120 524 Q136 524 151 509 Q168 531 191 531 Q208 531 219 520 Q237 541 259 541 Q270 541 280 535 L281 637 Q281 671 297.5 683.5 Q314 696 332 696 Q353 696 368.5 682 Q384 668 384 637 L384 489 Q393 492 403 492 Q417 492 433 485 Q449 478 449 478 Q464 440 470.5 403.5 Q477 367 477 332 Q477 252 446.5 182.5 Q416 113 381 60 L424 56 L424 -98 L72 -98 Z M102 285 Q102 259 111 212 Q120 165 161 62 Q183 63 205.5 63.5 Q228 64 250 64 Q272 64 295 63.5 Q318 63 340 62 Q376 124 410.5 197 Q445 270 445 343 Q445 372 438.5 401 Q432 430 416 458 Q416 458 411.5 458.5 Q407 459 403 459 Q394 459 394 440 Q403 407 406 384 Q409 361 409 346 Q409 323 404.5 313 Q400 303 397 298 Q361 282 339.5 271.5 Q318 261 292 235 Q274 235 261 250 Q278 268 301 289 Q324 310 348 322 L348 640 Q348 663 332 663 Q317 663 317 640 L315 342 Q288 315 260 315 Q248 315 240 318 Q232 321 226 325 Q226 325 213.5 320 Q201 315 190 315 Q169 315 149 332 Q149 332 140.5 330 Q132 328 126 328 Q113 328 104 332 Q104 332 103 326 Q102 320 102 285 Z M278 355 L278 503 Q278 503 271 506 Q264 509 259 509 Q258 509 249.5 507.5 Q241 506 241 503 L237 351 Q242 351 258 351.5 Q274 352 278 355 Z M210 353 L210 493 Q210 493 203 496.5 Q196 500 191 500 Q177 500 173 493 L169 351 L186 351 Q191 351 200 351.5 Q209 352 210 353 Z M142 367 L142 485 Q142 485 133 488 Q124 491 122 491 Q107 491 107 455 Q107 448 107 440 Q107 432 108 424 Q108 415 108.5 406.5 Q109 398 109 391 L109 368 Q113 366 125 366 Q126 366 133 366 Q140 366 142 367 Z " />
<glyph glyph-name="uni261E" unicode="&#x261e;" horiz-adv-x="927" d="M83 42 L83 394 L237 394 L241 351 Q295 386 364 416.5 Q433 447 513 447 Q548 447 585 440.5 Q622 434 659 419 Q659 419 666 403 Q673 387 673 373 Q673 363 670 354 L818 354 Q850 354 863.5 338.5 Q877 323 877 302 Q877 284 864.5 267.5 Q852 251 818 251 L716 250 Q722 240 722 229 Q722 207 701 189 Q712 178 712 161 Q712 138 690 121 Q705 106 705 90 Q705 61 684.5 52.5 Q664 44 636 44 Q621 44 605 44 Q589 44 580 46 Q580 46 540 41 Q500 36 466 36 Q437 36 390.5 44 Q344 52 241 92 L237 42 L83 42 Z M524 415 Q450 415 377.5 380.5 Q305 346 243 310 Q244 288 244.5 265 Q245 242 245 220 Q245 198 244.5 175.5 Q244 153 243 131 Q345 90 392.5 81 Q440 72 466 72 Q500 72 506.5 73 Q513 74 513 74 Q509 83 509 96 Q509 102 511 110.5 Q513 119 513 119 Q496 139 496 160 Q496 171 501 183.5 Q506 196 506 196 Q502 202 499 210 Q496 218 496 230 Q496 258 523 285 L821 287 Q844 287 844 302 Q844 318 821 318 L503 318 Q491 294 470 271 Q449 248 431 231 Q416 244 416 262 Q442 288 452.5 309.5 Q463 331 479 367 Q484 370 494 374.5 Q504 379 527 379 Q542 379 565 376 Q588 373 621 364 Q640 364 640 373 Q640 377 639.5 381.5 Q639 386 639 386 Q611 402 582 408.5 Q553 415 524 415 Z M684 248 L536 248 Q533 244 532.5 228 Q532 212 532 207 L684 211 Q687 211 688.5 219.5 Q690 228 690 229 Q690 234 687 241 Q684 248 684 248 Z M674 180 L534 180 Q533 179 532.5 170 Q532 161 532 156 L532 139 L674 143 Q681 147 681 161 Q681 166 677.5 173 Q674 180 674 180 Z M666 112 L548 112 Q547 110 547 103 Q547 96 547 95 Q547 83 549 79 L572 79 Q579 79 587.5 78.5 Q596 78 605 78 Q612 77 620 77 Q628 77 636 77 Q672 77 672 92 Q672 94 669 103 Q666 112 666 112 Z " />
<glyph glyph-name="uni261F" unicode="&#x261f;" horiz-adv-x="536" d="M72 696 L424 696 L424 542 Q414 540 403 539.5 Q392 539 381 538 Q416 484 446.5 415 Q477 346 477 266 Q477 231 470.5 194.5 Q464 158 449 120 Q449 120 433 113 Q417 106 403 106 Q393 106 384 109 L384 -39 Q384 -70 368.5 -84 Q353 -98 332 -98 Q314 -98 297.5 -85.5 Q281 -73 281 -39 L280 63 Q270 57 259 57 Q237 57 219 78 Q208 67 191 67 Q168 67 151 89 Q136 74 120 74 Q91 74 82.5 94 Q74 114 74 143 Q74 158 74 174 Q74 190 76 199 Q76 199 71 239 Q66 279 66 313 Q66 342 74 388.5 Q82 435 122 538 Q109 539 96.5 539.5 Q84 540 72 542 L72 696 Z M340 535 Q321 534 302.5 533.5 Q284 533 265 533 Q212 533 161 536 Q120 433 111 385.5 Q102 338 102 313 Q102 278 103 272 Q104 266 104 266 Q113 270 126 270 Q132 270 140.5 268 Q149 266 149 266 Q169 283 190 283 Q201 283 213.5 278 Q226 273 226 273 Q232 277 240 280 Q248 283 260 283 Q288 283 315 256 L317 -42 Q317 -65 332 -65 Q348 -65 348 -42 L348 276 Q324 288 301 309 Q278 330 261 348 Q274 363 292 363 Q318 337 339.5 326.5 Q361 316 397 300 Q400 295 404.5 285 Q409 275 409 252 Q409 237 406 214 Q403 191 394 158 Q394 139 403 139 Q407 139 411.5 139.5 Q416 140 416 140 Q432 168 438.5 197 Q445 226 445 255 Q445 328 410.5 400.5 Q376 473 340 535 Z M278 95 L278 243 Q274 246 258 246.5 Q242 247 237 247 L241 95 Q241 92 249.5 90.5 Q258 89 259 89 Q264 89 271 92 Q278 95 278 95 Z M210 105 L210 245 Q209 246 200 246.5 Q191 247 186 247 L169 247 L173 105 Q177 98 191 98 Q196 98 203 101.5 Q210 105 210 105 Z M142 113 L142 231 Q140 232 133 232 Q126 232 125 232 Q113 232 109 230 L109 207 Q109 200 108.5 191.5 Q108 183 108 174 Q107 166 107 158 Q107 150 107 143 Q107 107 122 107 Q124 107 133 110 Q142 113 142 113 Z " />
<glyph glyph-name="uni261A" unicode="&#x261a;" horiz-adv-x="957" d="M875 394 L875 42 L721 42 Q720 54 719 66.5 Q718 79 717 92 Q614 52 567 44 Q520 36 492 36 Q458 36 418 41 Q378 46 378 46 Q369 44 353 44 Q337 44 322 44 Q294 44 273.5 52.5 Q253 61 253 90 Q253 106 268 121 Q246 138 246 161 Q246 178 257 189 Q236 207 236 229 Q236 240 242 250 L110 251 Q76 251 63.5 267.5 Q51 284 51 302 Q51 323 64.5 338.5 Q78 354 110 354 L278 354 Q276 358 276.5 373 Q277 388 289 405 Q337 410 367 424.5 Q397 439 429 439 Q509 439 577.5 413 Q646 387 716 347 Q717 358 718.5 370 Q720 382 721 394 L875 394 Z " />
<glyph glyph-name="uni261B" unicode="&#x261b;" horiz-adv-x="957" d="M82 42 L82 394 L236 394 L240 347 Q310 387 378.5 413 Q447 439 528 439 Q560 439 590 424.5 Q620 410 668 405 Q680 388 680 373 Q680 358 679 354 L847 354 Q878 354 892 338.5 Q906 323 906 302 Q906 284 893.5 267.5 Q881 251 847 251 L715 250 Q721 240 721 229 Q721 207 700 189 Q711 178 711 161 Q711 138 689 121 Q704 106 704 90 Q704 61 684 52.5 Q664 44 635 44 Q620 44 604 44 Q588 44 579 46 Q579 46 539 41 Q499 36 465 36 Q436 36 389.5 44 Q343 52 240 92 L236 42 L82 42 Z " />
</font>
</defs>
</svg>
