<svg xmlns="http://www.w3.org/2000/svg">
<defs>
<font id="Zilla Slab Light Italic">
<font-face  font-family="Zilla Slab" units-per-em="1000" ascent="787" descent="-213" font-style="italic" font-weight="300" font-stretch="normal" slope="-6" cap-height="650" x-height="441" underline-position="-75" underline-thickness="50" />

<glyph glyph-name="uni0020" unicode="&#x20;" horiz-adv-x="231" d="" />
<glyph glyph-name="uni0041" unicode="A" horiz-adv-x="625" d="M-21 51 L40 51 L312 599 L207 599 L212 650 L382 650 L548 51 L611 51 L606 0 L389 0 L394 51 L488 51 L451 192 L165 192 L97 51 L196 51 L191 0 L-25 0 L-21 51 Z M348 566 L188 238 L439 238 L352 566 L348 566 Z " />
<glyph glyph-name="uni0042" unicode="B" horiz-adv-x="585" d="M359 650 Q450 650 493.5 612 Q537 574 537 512 Q537 449 501 405.5 Q465 362 415 352 L414 348 Q476 338 504 297 Q532 256 532 201 Q532 118 472 59 Q412 0 300 0 L14 0 L19 51 L101 51 L158 599 L76 599 L82 650 L359 650 Z M325 361 Q386 361 432 396.5 Q478 432 478 497 Q478 599 351 599 L213 599 L189 361 L325 361 Z M298 51 Q374 51 423.5 90 Q473 129 473 200 Q473 252 443.5 282.5 Q414 313 352 313 L184 313 L156 51 L298 51 Z " />
<glyph glyph-name="uni0043" unicode="C" horiz-adv-x="633" d="M535 45 Q494 16 440 3 Q386 -10 335 -10 Q196 -10 122 73 Q48 156 48 290 Q48 449 144 554.5 Q240 660 391 660 Q458 660 510.5 639 Q563 618 597 584 L602 467 L553 461 L544 559 Q514 581 477.5 594.5 Q441 608 391 608 Q265 608 185 522 Q105 436 105 293 Q105 172 166.5 107 Q228 42 347 42 Q427 42 487 72 L516 168 L564 162 L535 45 Z " />
<glyph glyph-name="uni0044" unicode="D" horiz-adv-x="689" d="M362 650 Q504 650 578.5 568.5 Q653 487 653 360 Q653 207 556 103.5 Q459 0 296 0 L13 0 L19 50 L101 50 L158 600 L76 600 L81 650 L362 650 Z M299 50 Q436 50 515.5 137 Q595 224 595 356 Q595 464 534 532 Q473 600 356 600 L212 600 L155 50 L299 50 Z " />
<glyph glyph-name="uni0045" unicode="E" horiz-adv-x="574" d="M477 0 L13 0 L18 51 L101 51 L159 599 L76 599 L81 650 L541 650 L541 468 L491 462 L486 599 L215 599 L188 356 L498 356 L493 305 L183 305 L156 51 L432 51 L466 188 L514 183 L477 0 Z " />
<glyph glyph-name="uni0046" unicode="F" horiz-adv-x="544" d="M533 466 L480 460 L476 599 L214 599 L185 328 L486 328 L481 277 L180 277 L156 51 L272 51 L267 0 L13 0 L18 51 L101 51 L159 599 L76 599 L81 650 L532 650 L533 466 Z " />
<glyph glyph-name="uni0047" unicode="G" horiz-adv-x="680" d="M651 277 L597 277 L568 0 L525 0 L527 96 Q495 51 437.5 20.5 Q380 -10 308 -10 Q188 -10 117.5 76 Q47 162 47 292 Q47 397 92.5 480.5 Q138 564 217 612 Q296 660 396 660 Q462 660 517 639 Q572 618 606 584 L611 467 L562 461 L552 558 Q529 575 492 591.5 Q455 608 395 608 Q266 608 185 522.5 Q104 437 104 295 Q104 177 162 109.5 Q220 42 321 42 Q417 42 472.5 95 Q528 148 534 204 L542 277 L381 277 L387 328 L657 328 L651 277 Z " />
<glyph glyph-name="uni0048" unicode="H" horiz-adv-x="733" d="M19 51 L101 51 L158 599 L76 599 L82 650 L302 650 L296 599 L213 599 L188 356 L562 356 L587 599 L505 599 L511 650 L731 650 L725 599 L642 599 L585 51 L668 51 L663 0 L443 0 L448 51 L530 51 L557 307 L183 307 L156 51 L239 51 L234 0 L14 0 L19 51 Z " />
<glyph glyph-name="uni0049" unicode="I" horiz-adv-x="303" d="M18 51 L101 51 L158 599 L75 599 L81 650 L301 650 L296 599 L212 599 L155 51 L239 51 L233 0 L13 0 L18 51 Z " />
<glyph glyph-name="uni004A" unicode="J" horiz-adv-x="436" d="M179 650 L437 650 L432 599 L359 599 L313 161 Q305 76 259.5 33 Q214 -10 140 -10 Q82 -10 49 15 Q16 40 0 82 L44 114 Q76 44 141 44 Q196 44 224 76 Q252 108 258 161 L304 599 L174 599 L179 650 Z " />
<glyph glyph-name="uni004B" unicode="K" horiz-adv-x="616" d="M18 51 L100 51 L157 599 L75 599 L80 650 L297 650 L292 599 L212 599 L187 356 L296 356 L496 600 L419 600 L425 651 L637 651 L631 600 L560 600 L340 337 L513 51 L586 51 L581 0 L365 0 L371 51 L448 51 L295 306 L182 306 L155 51 L234 51 L228 0 L12 0 L18 51 Z " />
<glyph glyph-name="uni004C" unicode="L" horiz-adv-x="526" d="M464 0 L13 0 L18 51 L101 51 L159 599 L76 599 L81 650 L330 650 L325 599 L214 599 L156 51 L418 51 L454 206 L504 202 L464 0 Z " />
<glyph glyph-name="uni004D" unicode="M" horiz-adv-x="854" d="M19 51 L101 51 L158 599 L74 599 L79 650 L214 650 L410 116 L414 116 L718 650 L853 650 L848 599 L762 599 L705 51 L788 51 L783 0 L565 0 L570 51 L649 51 L697 508 L694 508 L418 28 L384 28 L207 509 L203 509 L154 51 L235 51 L230 0 L14 0 L19 51 Z " />
<glyph glyph-name="uni004E" unicode="N" horiz-adv-x="710" d="M25 51 L101 51 L158 599 L74 599 L79 650 L204 650 L521 117 L524 117 L574 599 L479 599 L484 650 L716 650 L711 599 L628 599 L566 0 L528 0 L208 539 L205 539 L153 51 L259 51 L254 0 L20 0 L25 51 Z " />
<glyph glyph-name="uni004F" unicode="O" horiz-adv-x="717" d="M396 660 Q527 660 604 572 Q681 484 681 359 Q681 258 635.5 174.5 Q590 91 510 40.5 Q430 -10 329 -10 Q198 -10 122 78 Q46 166 46 291 Q46 392 92 476 Q138 560 217.5 610 Q297 660 396 660 Z M337 42 Q423 42 487 85.5 Q551 129 586.5 200.5 Q622 272 622 355 Q622 463 562 535.5 Q502 608 390 608 Q264 608 184.5 515.5 Q105 423 105 296 Q105 192 162.5 117 Q220 42 337 42 Z " />
<glyph glyph-name="uni0050" unicode="P" horiz-adv-x="556" d="M19 51 L101 51 L158 599 L76 599 L82 650 L337 650 Q444 650 492 597 Q540 544 540 474 Q540 368 476.5 308.5 Q413 249 308 249 L177 249 L156 51 L269 51 L263 0 L14 0 L19 51 Z M307 299 Q388 299 435 344 Q482 389 482 471 Q482 530 443 564.5 Q404 599 329 599 L213 599 L182 299 L307 299 Z " />
<glyph glyph-name="uni0051" unicode="Q" horiz-adv-x="727" d="M396 660 Q527 660 604 572 Q681 484 681 359 Q681 193 566 84 L648 -6 L612 -41 L527 52 Q438 -10 329 -10 Q198 -10 122 78 Q46 166 46 291 Q46 392 92 476 Q138 560 217.5 610 Q297 660 396 660 Z M398 194 L435 229 L531 122 Q622 215 622 355 Q622 463 562 535.5 Q502 608 390 608 Q264 608 184.5 515.5 Q105 423 105 296 Q105 192 162.5 117 Q220 42 337 42 Q423 42 492 90 L398 194 Z " />
<glyph glyph-name="uni0052" unicode="R" horiz-adv-x="595" d="M19 51 L101 51 L158 599 L76 599 L82 650 L343 650 Q450 650 498.5 603 Q547 556 547 489 Q547 414 507.5 361 Q468 308 385 290 L481 51 L563 51 L557 0 L440 0 L331 279 L180 279 L156 51 L246 51 L241 0 L14 0 L19 51 Z M315 327 Q407 327 448 372.5 Q489 418 489 484 Q489 599 332 599 L213 599 L185 327 L315 327 Z " />
<glyph glyph-name="uni0053" unicode="S" horiz-adv-x="519" d="M460 191 Q460 96 399 43 Q338 -10 225 -10 Q165 -10 109.5 4 Q54 18 26 39 L49 158 L94 153 L83 71 Q111 55 150.5 48 Q190 41 225 41 Q302 41 351 75 Q400 109 400 183 Q400 260 352 280.5 Q304 301 247 315 Q187 330 133 361.5 Q79 393 79 478 Q79 572 146 616 Q213 660 292 660 Q341 660 393 646 Q445 632 471 611 L464 485 L417 480 L417 583 Q387 599 354.5 604 Q322 609 298 609 Q223 609 180 575 Q137 541 137 481 Q137 421 176.5 400.5 Q216 380 273 366 Q350 346 405 316 Q460 286 460 191 Z " />
<glyph glyph-name="uni0054" unicode="T" horiz-adv-x="599" d="M592 458 L541 454 L537 599 L362 599 L304 51 L419 51 L414 0 L131 0 L136 51 L249 51 L307 599 L129 599 L95 454 L45 458 L83 650 L593 650 L592 458 Z " />
<glyph glyph-name="uni0055" unicode="U" horiz-adv-x="698" d="M489 650 L698 650 L693 599 L629 599 L595 266 Q588 197 561.5 133.5 Q535 70 478.5 30 Q422 -10 325 -10 Q185 -10 138 70 Q91 150 102 255 L138 599 L70 599 L75 650 L291 650 L285 599 L194 599 L158 257 Q136 42 331 42 Q518 42 543 266 L577 599 L484 599 L489 650 Z " />
<glyph glyph-name="uni0056" unicode="V" horiz-adv-x="625" d="M249 599 L152 599 L293 82 L297 82 L543 599 L444 599 L449 650 L666 650 L660 599 L600 599 L308 0 L259 0 L92 599 L29 599 L34 650 L254 650 L249 599 Z " />
<glyph glyph-name="uni0057" unicode="W" horiz-adv-x="898" d="M928 599 L872 599 L642 0 L593 0 L482 547 L478 547 L253 0 L203 0 L88 599 L34 599 L39 650 L249 650 L243 599 L146 599 L236 93 L241 93 L449 599 L381 599 L387 650 L597 650 L591 599 L523 599 L625 91 L630 91 L816 599 L719 599 L724 650 L933 650 L928 599 Z " />
<glyph glyph-name="uni0058" unicode="X" horiz-adv-x="609" d="M573 0 L362 0 L367 51 L455 51 L304 296 L110 51 L189 51 L184 0 L-22 0 L-16 51 L47 51 L279 338 L116 599 L51 599 L56 650 L262 650 L257 599 L179 599 L315 378 L491 599 L422 599 L428 650 L633 650 L628 599 L554 599 L340 338 L518 51 L579 51 L573 0 Z " />
<glyph glyph-name="uni0059" unicode="Y" horiz-adv-x="591" d="M624 599 L559 599 L321 248 L301 51 L415 51 L409 0 L129 0 L134 51 L246 51 L266 248 L95 599 L30 599 L35 650 L257 650 L251 599 L156 599 L300 301 L304 301 L502 599 L409 599 L414 650 L628 650 L624 599 Z " />
<glyph glyph-name="uni005A" unicode="Z" horiz-adv-x="562" d="M473 0 L6 0 L8 37 L457 596 L457 599 L151 599 L107 458 L61 466 L107 650 L533 650 L538 615 L88 54 L87 51 L427 51 L471 194 L519 185 L473 0 Z " />
<glyph glyph-name="uni0061" unicode="a" horiz-adv-x="500" d="M447 444 Q438 410 430 377 Q422 344 418 311 L385 46 L454 46 L451 15 L432 0 L335 0 L338 90 Q316 50 280 20 Q244 -10 186 -10 Q113 -10 74.5 39.5 Q36 89 36 177 Q36 233 55 297.5 Q74 362 119 407.5 Q164 453 242 453 Q347 453 376 368 Q384 409 395 444 L447 444 Z M246 406 Q185 406 152 369.5 Q119 333 106 281.5 Q93 230 93 186 Q93 36 199 36 Q258 36 296 82 Q334 128 346 174 L361 285 Q361 336 329.5 371 Q298 406 246 406 Z " />
<glyph glyph-name="uni0062" unicode="b" horiz-adv-x="501" d="M50 672 L68 688 L184 688 L143 356 Q166 395 202 424 Q238 453 296 453 Q371 453 412.5 402.5 Q454 352 454 264 Q454 208 435 144.5 Q416 81 371 35.5 Q326 -10 247 -10 Q197 -10 159 12 Q121 34 105 75 Q101 56 96 37.5 Q91 19 86 0 L34 0 Q42 28 50 61.5 Q58 95 62 127 L124 642 L46 642 L50 672 Z M244 36 Q304 36 337 73 Q370 110 383.5 161.5 Q397 213 397 255 Q397 406 285 406 Q224 406 184 359.5 Q144 313 132 264 L119 155 Q120 106 155.5 71 Q191 36 244 36 Z " />
<glyph glyph-name="uni0063" unicode="c" horiz-adv-x="440" d="M252 406 Q192 406 157 372.5 Q122 339 107 288.5 Q92 238 92 187 Q92 117 118.5 76.5 Q145 36 205 36 Q304 36 342 156 L385 145 Q370 87 326.5 38.5 Q283 -10 201 -10 Q122 -10 78.5 41.5 Q35 93 35 183 Q35 241 56 303.5 Q77 366 123.5 409.5 Q170 453 249 453 Q331 453 388 405 L394 306 L347 300 L338 375 Q303 406 252 406 Z " />
<glyph glyph-name="uni0064" unicode="d" horiz-adv-x="507" d="M307 672 L326 688 L472 688 L392 46 L473 46 L470 15 L451 0 L342 0 L346 90 Q322 50 283.5 20 Q245 -10 186 -10 Q113 -10 74 40 Q35 90 35 175 Q35 232 55.5 297 Q76 362 122.5 407.5 Q169 453 247 453 Q347 453 379 376 L412 642 L304 642 L307 672 Z M251 406 Q190 406 155.5 369.5 Q121 333 106.5 281.5 Q92 230 92 183 Q92 36 200 36 Q261 36 302.5 85 Q344 134 355 181 L369 290 Q367 340 334 373 Q301 406 251 406 Z " />
<glyph glyph-name="uni0065" unicode="e" horiz-adv-x="435" d="M209 36 Q303 36 339 130 L382 119 Q367 65 320.5 27.5 Q274 -10 200 -10 Q119 -10 77 40 Q35 90 35 181 Q35 296 96 374.5 Q157 453 255 453 Q311 453 352 424 Q393 395 393 345 Q393 296 356 261.5 Q319 227 235 209 Q202 202 165.5 195 Q129 188 92 183 Q92 115 118.5 75.5 Q145 36 209 36 Z M215 245 Q295 264 315 289 Q335 314 335 340 Q335 406 251 406 Q173 406 137.5 349 Q102 292 94 225 Q134 230 163.5 235 Q193 240 215 245 Z " />
<glyph glyph-name="uni0066" unicode="f" horiz-adv-x="303" d="M287 698 Q318 698 341.5 692 Q365 686 389 669 L395 570 L348 564 L338 642 Q324 649 308 651 Q292 653 279 653 Q197 653 183 532 L172 444 L309 444 L305 415 L285 397 L166 397 L109 -67 Q89 -223 -27 -223 Q-72 -223 -105 -196.5 Q-138 -170 -136 -105 L-92 -92 Q-95 -148 -72.5 -162.5 Q-50 -177 -30 -177 Q42 -177 56 -66 L113 397 L27 397 L30 426 L50 444 L119 444 L130 530 Q150 698 287 698 Z " />
<glyph glyph-name="uni0067" unicode="g" horiz-adv-x="510" d="M396 444 L514 444 L511 413 L492 397 L435 397 L387 2 Q374 -99 324 -161 Q274 -223 179 -223 Q111 -223 63.5 -189 Q16 -155 9 -92 L51 -73 Q59 -128 98.5 -151 Q138 -174 183 -174 Q313 -174 334 5 L344 87 Q320 48 282 19 Q244 -10 186 -10 Q113 -10 74 39.5 Q35 89 35 174 Q35 232 55.5 297 Q76 362 122.5 407.5 Q169 453 247 453 Q350 453 381 372 L396 444 Z M249 406 Q190 406 155.5 370 Q121 334 106.5 282 Q92 230 92 182 Q92 36 197 36 Q261 36 302.5 85.5 Q344 135 355 182 L368 284 Q368 334 336.5 370 Q305 406 249 406 Z " />
<glyph glyph-name="uni0068" unicode="h" horiz-adv-x="501" d="M45 0 L123 642 L43 642 L47 671 L66 688 L182 688 L142 361 Q166 403 203 428 Q240 453 292 453 Q356 453 392.5 412 Q429 371 418 280 L389 46 L469 46 L465 15 L446 0 L331 0 L364 267 Q373 343 346.5 374.5 Q320 406 272 406 Q214 406 177.5 365.5 Q141 325 131 276 L98 0 L45 0 Z " />
<glyph glyph-name="uni0069" unicode="i" horiz-adv-x="250" d="M129 568 L137 647 L198 647 L190 568 L129 568 Z M37 426 L56 444 L173 444 L124 46 L204 46 L200 15 L181 0 L66 0 L114 397 L33 397 L37 426 Z " />
<glyph glyph-name="uni006A" unicode="j" horiz-adv-x="242" d="M134 568 L142 647 L203 647 L195 568 L134 568 Z M24 426 L43 444 L185 444 L127 -27 Q104 -215 -4 -223 Q-40 -224 -78 -208 L-75 -166 Q-23 -188 18.5 -161.5 Q60 -135 74 -27 L126 397 L20 397 L24 426 Z " />
<glyph glyph-name="uni006B" unicode="k" horiz-adv-x="440" d="M47 671 L66 688 L182 688 L129 254 L216 254 Q265 293 295 340.5 Q325 388 329 444 L387 444 Q381 381 344 328 Q307 275 249 235 L352 46 L413 46 L409 15 L390 0 L319 0 L207 210 L123 210 L98 0 L45 0 L123 642 L43 642 L47 671 Z " />
<glyph glyph-name="uni006C" unicode="l" horiz-adv-x="234" d="M53 671 L71 688 L189 688 L110 46 L189 46 L185 15 L167 0 L52 0 L130 642 L49 642 L53 671 Z " />
<glyph glyph-name="uni006D" unicode="m" horiz-adv-x="783" d="M426 280 L392 0 L340 0 L372 267 Q381 344 356.5 375 Q332 406 285 406 Q220 406 187.5 361 Q155 316 148 262 L116 0 L64 0 L112 397 L30 397 L34 426 L53 444 L161 444 L157 357 Q180 400 215.5 426.5 Q251 453 305 453 Q411 453 426 349 Q448 396 484.5 424.5 Q521 453 577 453 Q641 453 676.5 410.5 Q712 368 702 280 L672 46 L752 46 L748 15 L729 0 L615 0 L647 267 Q656 343 631.5 374.5 Q607 406 558 406 Q500 406 468 368.5 Q436 331 426 284 L426 280 Z " />
<glyph glyph-name="uni006E" unicode="n" horiz-adv-x="518" d="M53 444 L161 444 L157 357 Q182 400 219.5 426.5 Q257 453 310 453 Q374 453 410.5 412 Q447 371 436 280 L407 46 L487 46 L483 15 L464 0 L350 0 L382 267 Q391 343 366 374.5 Q341 406 290 406 Q231 406 194 363 Q157 320 149 270 L148 262 L116 0 L64 0 L112 397 L30 397 L34 426 L53 444 Z " />
<glyph glyph-name="uni006F" unicode="o" horiz-adv-x="479" d="M36 188 Q36 294 93 373.5 Q150 453 260 453 Q354 453 393 393.5 Q432 334 432 252 Q432 143 373.5 66.5 Q315 -10 208 -10 Q117 -10 76.5 46 Q36 102 36 188 Z M93 190 Q93 122 119 79 Q145 36 213 36 Q297 36 335.5 100 Q374 164 374 251 Q374 318 348.5 362 Q323 406 254 406 Q174 406 133.5 344 Q93 282 93 190 Z " />
<glyph glyph-name="uni0070" unicode="p" horiz-adv-x="517" d="M195 -197 L175 -213 L-28 -213 L-24 -184 L-6 -167 L43 -167 L112 397 L31 397 L35 426 L54 444 L162 444 L157 350 Q180 391 216.5 422 Q253 453 313 453 Q387 453 428.5 402.5 Q470 352 470 264 Q470 208 451 144.5 Q432 81 387 35.5 Q342 -10 263 -10 Q160 -10 124 68 L95 -167 L198 -167 L195 -197 Z M260 36 Q320 36 353 73 Q386 110 399.5 161.5 Q413 213 413 255 Q413 329 383 367.5 Q353 406 301 406 Q237 406 197.5 356.5 Q158 307 148 258 L136 162 Q134 110 169 73 Q204 36 260 36 Z " />
<glyph glyph-name="uni0071" unicode="q" horiz-adv-x="500" d="M425 -197 L406 -213 L210 -213 L214 -184 L233 -167 L312 -167 L344 87 Q320 47 282 18.5 Q244 -10 186 -10 Q113 -10 74 40 Q35 90 35 175 Q35 232 55.5 297 Q76 362 122.5 407.5 Q169 453 247 453 Q352 453 383 368 Q391 409 402 444 L455 444 Q445 410 437.5 377 Q430 344 425 311 L366 -167 L429 -167 L425 -197 Z M251 406 Q190 406 155.5 369.5 Q121 333 106.5 281.5 Q92 230 92 183 Q92 36 200 36 Q258 36 300 82.5 Q342 129 355 175 L368 283 Q369 334 336 370 Q303 406 251 406 Z " />
<glyph glyph-name="uni0072" unicode="r" horiz-adv-x="339" d="M222 16 L203 0 L1 0 L5 29 L23 46 L78 46 L121 397 L41 397 L45 426 L63 444 L169 444 L166 350 Q185 393 214.5 423.5 Q244 454 285 454 Q314 454 341 437 L330 382 Q303 397 276 397 Q233 397 202.5 355.5 Q172 314 160 264 L160 263 L132 46 L226 46 L222 16 Z " />
<glyph glyph-name="uni0073" unicode="s" horiz-adv-x="412" d="M177 36 Q294 36 294 122 Q294 166 263 182 Q232 198 176 212 Q132 223 95.5 244.5 Q59 266 59 323 Q59 384 103.5 418.5 Q148 453 209 453 Q256 453 295 440 Q334 427 357 412 L356 310 L312 304 L308 379 Q288 390 267 398 Q246 406 216 406 Q115 406 115 329 Q115 297 137.5 281.5 Q160 266 210 253 Q256 241 303 218.5 Q350 196 350 128 Q350 66 305.5 28 Q261 -10 187 -10 Q140 -10 94 3.5 Q48 17 25 34 L47 128 L91 124 L80 59 Q120 36 177 36 Z " />
<glyph glyph-name="uni0074" unicode="t" horiz-adv-x="338" d="M29 426 L49 444 L110 444 L126 569 L145 588 L181 588 L163 444 L319 444 L315 415 L295 397 L158 397 L126 134 Q114 36 187 36 Q211 36 230.5 51 Q250 66 267 122 L307 108 Q290 47 261 18.5 Q232 -10 181 -10 Q121 -10 93 28 Q65 66 73 130 L105 397 L25 397 L29 426 Z " />
<glyph glyph-name="uni0075" unicode="u" horiz-adv-x="517" d="M475 46 L471 17 L452 0 L344 0 L347 85 Q323 42 286.5 16.5 Q250 -9 198 -9 Q134 -9 98 31.5 Q62 72 72 163 L100 397 L21 397 L25 428 L44 444 L159 444 L127 176 Q117 101 140.5 69 Q164 37 219 37 Q274 37 308.5 75.5 Q343 114 354 160 L389 444 L442 444 L393 46 L475 46 Z " />
<glyph glyph-name="uni0076" unicode="v" horiz-adv-x="466" d="M220 413 L201 397 L129 397 L225 64 L231 64 Q299 138 335 209 Q371 280 371 351 Q371 374 367.5 397 Q364 420 354 444 L417 444 Q450 312 375 184 Q321 93 223 0 L190 0 L73 397 L15 397 L18 426 L37 444 L224 444 L220 413 Z " />
<glyph glyph-name="uni0077" unicode="w" horiz-adv-x="708" d="M482 65 L486 65 Q609 210 609 354 Q609 404 594 444 L656 444 Q686 302 610 168 Q561 78 478 0 L447 0 L369 355 L365 355 L205 0 L171 0 L68 397 L16 397 L20 426 L39 444 L225 444 L221 413 L202 397 L125 397 L198 90 L202 90 L360 444 L399 444 L482 65 Z " />
<glyph glyph-name="uni0078" unicode="x" horiz-adv-x="468" d="M440 16 L421 0 L247 0 L250 29 L269 46 L318 46 L220 202 Q144 156 110.5 106.5 Q77 57 91 0 L29 0 Q13 71 71 129 Q129 187 198 231 L89 397 L23 397 L27 426 L45 444 L222 444 L218 413 L199 397 L149 397 L238 256 Q385 353 356 444 L416 444 Q437 388 383.5 331 Q330 274 259 228 L377 46 L443 46 L440 16 Z " />
<glyph glyph-name="uni0079" unicode="y" horiz-adv-x="465" d="M225 64 L231 64 Q369 213 369 351 Q369 374 365.5 397 Q362 420 352 444 L416 444 Q449 312 374 184 Q325 100 237 13 L214 -167 L295 -167 L292 -197 L273 -213 L79 -213 L83 -184 L101 -167 L161 -167 L186 14 L74 397 L15 397 L18 426 L37 444 L224 444 L220 413 L201 397 L130 397 L225 64 Z " />
<glyph glyph-name="uni007A" unicode="z" horiz-adv-x="447" d="M368 0 L18 0 L10 36 L339 397 L118 397 L97 303 L51 309 L77 444 L396 444 L409 408 L84 46 L327 46 L361 141 L404 133 L368 0 Z " />
<glyph glyph-name="uni0030" unicode="0" horiz-adv-x="566" d="M46 224 Q46 348 114 439 Q182 530 310 530 Q416 530 466 463 Q516 396 516 293 Q516 165 447 77.5 Q378 -10 253 -10 Q149 -10 97.5 55 Q46 120 46 224 Z M104 231 Q104 145 140.5 93 Q177 41 259 41 Q354 41 405.5 111 Q457 181 457 292 Q457 375 422.5 427 Q388 479 304 479 Q206 479 155 408.5 Q104 338 104 231 Z " />
<glyph glyph-name="uni0031" unicode="1" horiz-adv-x="370" d="M30 51 L152 51 L196 470 L75 470 L80 521 L258 521 L208 51 L328 51 L322 0 L25 0 L30 51 Z " />
<glyph glyph-name="uni0032" unicode="2" horiz-adv-x="500" d="M113 371 L69 377 L96 486 Q128 506 177 518.5 Q226 531 273 531 Q357 531 392 485.5 Q427 440 427 389 Q427 316 369 251 Q311 186 234.5 135 Q158 84 103 51 L372 51 L391 136 L437 133 L413 0 L27 0 L26 44 Q190 151 278.5 225.5 Q367 300 367 383 Q367 481 252 481 Q231 481 199.5 474.5 Q168 468 139 456 L113 371 Z " />
<glyph glyph-name="uni0033" unicode="3" horiz-adv-x="499" d="M132 371 L88 377 L114 476 Q134 493 176 512 Q218 531 271 531 Q340 531 388 494 Q436 457 436 389 Q436 336 406 288 Q376 240 293 218 L293 214 Q373 200 402 156.5 Q431 113 431 69 Q431 -22 370.5 -81.5 Q310 -141 206 -141 Q120 -141 77.5 -102 Q35 -63 25 -10 L69 6 Q83 -35 114.5 -63.5 Q146 -92 209 -92 Q306 -92 339 -39 Q372 14 372 66 Q372 120 332.5 151.5 Q293 183 191 187 L195 231 Q298 238 337.5 284 Q377 330 377 380 Q377 481 255 481 Q210 481 160 455 L132 371 Z " />
<glyph glyph-name="uni0034" unicode="4" horiz-adv-x="521" d="M349 -131 L294 -131 L312 35 L4 35 L3 84 L287 521 L418 521 L372 84 L477 84 L464 35 L367 35 L349 -131 Z M317 84 L358 471 L307 471 L57 84 L317 84 Z " />
<glyph glyph-name="uni0035" unicode="5" horiz-adv-x="501" d="M433 77 Q433 -17 376.5 -78.5 Q320 -140 213 -140 Q128 -140 85.5 -101 Q43 -62 34 -10 L78 6 Q105 -91 213 -91 Q291 -91 332 -47.5 Q373 -4 373 69 Q373 160 315 187.5 Q257 215 174 215 Q134 215 94 212 L76 232 L107 521 L452 521 L445 395 L398 390 L398 471 L154 471 L132 264 Q145 265 158.5 265 Q172 265 184 265 Q250 265 306.5 250 Q363 235 398 194.5 Q433 154 433 77 Z " />
<glyph glyph-name="uni0036" unicode="6" horiz-adv-x="526" d="M467 227 Q467 139 416.5 64.5 Q366 -10 245 -10 Q132 -10 92.5 61 Q53 132 53 251 Q53 352 79 446 Q105 540 164.5 600 Q224 660 326 660 Q387 660 426 637 Q465 614 495 573 L457 537 Q407 610 317 610 Q219 610 168.5 521 Q118 432 110 278 Q128 321 176 359.5 Q224 398 306 398 Q393 398 430 350 Q467 302 467 227 Z M410 218 Q410 282 382.5 315 Q355 348 291 348 Q201 348 160.5 295 Q120 242 110 195 Q112 130 141 86 Q170 42 250 42 Q336 42 373 93 Q410 144 410 218 Z " />
<glyph glyph-name="uni0037" unicode="7" horiz-adv-x="457" d="M62 521 L455 521 L459 484 L152 -130 L91 -130 L399 471 L107 471 L96 360 L44 360 L62 521 Z " />
<glyph glyph-name="uni0038" unicode="8" horiz-adv-x="528" d="M230 -10 Q145 -10 90 29 Q35 68 35 146 Q35 226 89 266.5 Q143 307 212 335 Q162 360 125.5 394.5 Q89 429 89 486 Q89 560 151 610 Q213 660 304 660 Q382 660 434 620 Q486 580 486 510 Q486 442 438 404.5 Q390 367 327 340 Q382 314 426 277 Q470 240 470 173 Q470 90 400.5 40 Q331 -10 230 -10 Z M148 495 Q148 445 188 416 Q228 387 280 363 Q339 387 383.5 418.5 Q428 450 428 507 Q428 559 391.5 584.5 Q355 610 300 610 Q237 610 192.5 579 Q148 548 148 495 Z M238 40 Q306 40 359 72.5 Q412 105 412 166 Q412 223 365 254.5 Q318 286 259 312 Q194 286 142.5 252 Q91 218 91 154 Q91 97 133 68.5 Q175 40 238 40 Z " />
<glyph glyph-name="uni0039" unicode="9" horiz-adv-x="525" d="M54 293 Q54 381 104.5 455.5 Q155 530 276 530 Q388 530 428 459 Q468 388 468 269 Q468 168 442 74 Q416 -20 356 -80 Q296 -140 195 -140 Q134 -140 95 -117 Q56 -94 26 -53 L64 -17 Q114 -90 204 -90 Q302 -90 352.5 -1 Q403 88 411 242 Q393 199 345 160.5 Q297 122 215 122 Q128 122 91 170 Q54 218 54 293 Z M111 302 Q111 238 138.5 205 Q166 172 230 172 Q320 172 360.5 225 Q401 278 411 325 Q409 390 380 434 Q351 478 271 478 Q185 478 148 427 Q111 376 111 302 Z " />
<glyph glyph-name="uni00C1" unicode="&#xc1;" horiz-adv-x="626" d="M525 753 L328 707 L320 739 L511 808 L525 753 Z M-21 51 L40 51 L312 599 L207 599 L212 650 L382 650 L548 51 L611 51 L606 0 L389 0 L394 51 L488 51 L451 192 L165 192 L97 51 L196 51 L191 0 L-25 0 L-21 51 Z M348 566 L188 238 L439 238 L352 566 L348 566 Z " />
<glyph glyph-name="uni00C2" unicode="&#xc2;" horiz-adv-x="626" d="M383 820 L494 736 L476 706 L369 769 L251 705 L235 732 L368 820 L383 820 Z M-21 51 L40 51 L312 599 L207 599 L212 650 L382 650 L548 51 L611 51 L606 0 L389 0 L394 51 L488 51 L451 192 L165 192 L97 51 L196 51 L191 0 L-25 0 L-21 51 Z M348 566 L188 238 L439 238 L352 566 L348 566 Z " />
<glyph glyph-name="uni00C4" unicode="&#xc4;" horiz-adv-x="626" d="M412 722 L419 793 L486 793 L479 722 L412 722 Z M248 722 L255 793 L321 793 L314 722 L248 722 Z M-21 51 L40 51 L312 599 L207 599 L212 650 L382 650 L548 51 L611 51 L606 0 L389 0 L394 51 L488 51 L451 192 L165 192 L97 51 L196 51 L191 0 L-25 0 L-21 51 Z M348 566 L188 238 L439 238 L352 566 L348 566 Z " />
<glyph glyph-name="uni00C5" unicode="&#xc5;" horiz-adv-x="626" d="M359 690 Q273 690 273 772 Q273 817 302 845.5 Q331 874 380 874 Q466 874 466 793 Q466 750 438 720 Q410 690 359 690 Z M363 725 Q394 725 409.5 744 Q425 763 425 790 Q425 840 376 840 Q346 840 329.5 821 Q313 802 313 774 Q313 725 363 725 Z M-21 51 L40 51 L312 599 L207 599 L212 650 L382 650 L548 51 L611 51 L606 0 L389 0 L394 51 L488 51 L451 192 L165 192 L97 51 L196 51 L191 0 L-25 0 L-21 51 Z M348 566 L188 238 L439 238 L352 566 L348 566 Z " />
<glyph glyph-name="uni00C0" unicode="&#xc0;" horiz-adv-x="626" d="M405 707 L208 753 L222 808 L413 739 L405 707 Z M-21 51 L40 51 L312 599 L207 599 L212 650 L382 650 L548 51 L611 51 L606 0 L389 0 L394 51 L488 51 L451 192 L165 192 L97 51 L196 51 L191 0 L-25 0 L-21 51 Z M348 566 L188 238 L439 238 L352 566 L348 566 Z " />
<glyph glyph-name="uni00C3" unicode="&#xc3;" horiz-adv-x="626" d="M243 707 L216 719 Q224 744 246.5 768.5 Q269 793 303 793 Q336 793 358 775 Q380 757 418 757 Q431 757 444 764.5 Q457 772 468 800 L498 792 Q472 712 415 712 Q378 712 352.5 730 Q327 748 299 748 Q286 748 270 740 Q254 732 243 707 Z M-21 51 L40 51 L312 599 L207 599 L212 650 L382 650 L548 51 L611 51 L606 0 L389 0 L394 51 L488 51 L451 192 L165 192 L97 51 L196 51 L191 0 L-25 0 L-21 51 Z M348 566 L188 238 L439 238 L352 566 L348 566 Z " />
<glyph glyph-name="uni0102" unicode="&#x102;" horiz-adv-x="626" d="M445 812 L491 812 Q485 752 452.5 726 Q420 700 364 700 Q250 700 261 812 L307 812 Q302 769 318.5 754.5 Q335 740 368 740 Q404 740 422 756 Q440 772 445 812 Z M-21 51 L40 51 L312 599 L207 599 L212 650 L382 650 L548 51 L611 51 L606 0 L389 0 L394 51 L488 51 L451 192 L165 192 L97 51 L196 51 L191 0 L-25 0 L-21 51 Z M348 566 L188 238 L439 238 L352 566 L348 566 Z " />
<glyph glyph-name="uni0100" unicode="&#x100;" horiz-adv-x="626" d="M234 782 L499 782 L494 736 L229 736 L234 782 Z M-21 51 L40 51 L312 599 L207 599 L212 650 L382 650 L548 51 L611 51 L606 0 L389 0 L394 51 L488 51 L451 192 L165 192 L97 51 L196 51 L191 0 L-25 0 L-21 51 Z M348 566 L188 238 L439 238 L352 566 L348 566 Z " />
<glyph glyph-name="uni0104" unicode="&#x104;" horiz-adv-x="625" d="M-21 51 L40 51 L312 599 L207 599 L212 650 L382 650 L548 51 L611 51 L606 0 L543 0 Q497 -26 479.5 -56 Q462 -86 462 -113 Q462 -165 518 -165 Q546 -165 575 -149 L579 -189 Q541 -209 502 -209 Q412 -209 412 -126 Q412 -86 436.5 -53 Q461 -20 496 0 L389 0 L394 51 L488 51 L451 192 L165 192 L97 51 L196 51 L191 0 L-25 0 L-21 51 Z M348 566 L188 238 L439 238 L352 566 L348 566 Z " />
<glyph glyph-name="uni00C6" unicode="&#xc6;" horiz-adv-x="901" d="M805 0 L337 0 L342 51 L424 51 L439 192 L173 192 L90 51 L187 51 L182 0 L-36 0 L-31 51 L34 51 L357 599 L258 599 L263 650 L864 650 L863 469 L814 462 L808 599 L539 599 L513 356 L820 356 L815 305 L508 305 L481 51 L760 51 L795 188 L843 182 L805 0 Z M444 238 L482 599 L412 599 L200 238 L444 238 Z " />
<glyph glyph-name="uni01FC" unicode="&#x1fc;" horiz-adv-x="901" d="M827 753 L630 707 L622 739 L813 808 L827 753 Z M805 0 L337 0 L342 51 L424 51 L439 192 L173 192 L90 51 L187 51 L182 0 L-36 0 L-31 51 L34 51 L357 599 L258 599 L263 650 L864 650 L863 469 L814 462 L808 599 L539 599 L513 356 L820 356 L815 305 L508 305 L481 51 L760 51 L795 188 L843 182 L805 0 Z M444 238 L482 599 L412 599 L200 238 L444 238 Z " />
<glyph glyph-name="uni01E2" unicode="&#x1e2;" horiz-adv-x="901" d="M554 782 L819 782 L814 736 L549 736 L554 782 Z M805 0 L337 0 L342 51 L424 51 L439 192 L173 192 L90 51 L187 51 L182 0 L-36 0 L-31 51 L34 51 L357 599 L258 599 L263 650 L864 650 L863 469 L814 462 L808 599 L539 599 L513 356 L820 356 L815 305 L508 305 L481 51 L760 51 L795 188 L843 182 L805 0 Z M444 238 L482 599 L412 599 L200 238 L444 238 Z " />
<glyph glyph-name="uni00C7" unicode="&#xc7;" horiz-adv-x="631" d="M534 45 Q493 16 439 3 Q385 -10 334 -10 L329 -10 L325 -48 L333 -48 Q412 -48 412 -120 Q412 -165 379 -187 Q346 -209 302 -209 Q247 -209 217 -179 L236 -146 Q263 -169 305 -169 Q330 -169 347 -157.5 Q364 -146 364 -119 Q364 -93 347.5 -86 Q331 -79 307 -79 L280 -79 L287 -7 Q170 6 108.5 86.5 Q47 167 47 290 Q47 449 142.5 554.5 Q238 660 390 660 Q458 660 510 639 Q562 618 596 584 L601 467 L552 461 L543 559 Q513 581 476.5 594.5 Q440 608 390 608 Q264 608 184 522 Q104 436 104 293 Q104 172 166 107 Q228 42 346 42 Q426 42 486 72 L515 168 L563 162 L534 45 Z " />
<glyph glyph-name="uni0106" unicode="&#x106;" horiz-adv-x="633" d="M542 753 L345 707 L337 739 L528 808 L542 753 Z M535 45 Q494 16 440 3 Q386 -10 335 -10 Q196 -10 122 73 Q48 156 48 290 Q48 449 144 554.5 Q240 660 391 660 Q458 660 510.5 639 Q563 618 597 584 L602 467 L553 461 L544 559 Q514 581 477.5 594.5 Q441 608 391 608 Q265 608 185 522 Q105 436 105 293 Q105 172 166.5 107 Q228 42 347 42 Q427 42 487 72 L516 168 L564 162 L535 45 Z " />
<glyph glyph-name="uni010C" unicode="&#x10c;" horiz-adv-x="633" d="M383 705 L271 789 L290 818 L396 755 L515 820 L530 792 L398 705 L383 705 Z M535 45 Q494 16 440 3 Q386 -10 335 -10 Q196 -10 122 73 Q48 156 48 290 Q48 449 144 554.5 Q240 660 391 660 Q458 660 510.5 639 Q563 618 597 584 L602 467 L553 461 L544 559 Q514 581 477.5 594.5 Q441 608 391 608 Q265 608 185 522 Q105 436 105 293 Q105 172 166.5 107 Q228 42 347 42 Q427 42 487 72 L516 168 L564 162 L535 45 Z " />
<glyph glyph-name="uni0108" unicode="&#x108;" horiz-adv-x="633" d="M411 820 L522 736 L504 706 L397 769 L279 705 L263 732 L396 820 L411 820 Z M535 45 Q494 16 440 3 Q386 -10 335 -10 Q196 -10 122 73 Q48 156 48 290 Q48 449 144 554.5 Q240 660 391 660 Q458 660 510.5 639 Q563 618 597 584 L602 467 L553 461 L544 559 Q514 581 477.5 594.5 Q441 608 391 608 Q265 608 185 522 Q105 436 105 293 Q105 172 166.5 107 Q228 42 347 42 Q427 42 487 72 L516 168 L564 162 L535 45 Z " />
<glyph glyph-name="uni010A" unicode="&#x10a;" horiz-adv-x="633" d="M365 722 L372 793 L438 793 L431 722 L365 722 Z M535 45 Q494 16 440 3 Q386 -10 335 -10 Q196 -10 122 73 Q48 156 48 290 Q48 449 144 554.5 Q240 660 391 660 Q458 660 510.5 639 Q563 618 597 584 L602 467 L553 461 L544 559 Q514 581 477.5 594.5 Q441 608 391 608 Q265 608 185 522 Q105 436 105 293 Q105 172 166.5 107 Q228 42 347 42 Q427 42 487 72 L516 168 L564 162 L535 45 Z " />
<glyph glyph-name="uni010E" unicode="&#x10e;" horiz-adv-x="689" d="M347 705 L235 789 L254 818 L360 755 L479 820 L494 792 L362 705 L347 705 Z M13 0 L19 50 L101 50 L158 600 L76 600 L81 650 L362 650 Q504 650 578.5 568.5 Q653 487 653 360 Q653 207 556 103.5 Q459 0 296 0 L13 0 Z M299 50 Q436 50 515.5 137 Q595 224 595 356 Q595 464 534 532 Q473 600 356 600 L212 600 L155 50 L299 50 Z " />
<glyph glyph-name="uni0110" unicode="&#x110;" horiz-adv-x="690" d="M51 362 L135 362 L160 600 L77 600 L82 650 L363 650 Q505 650 579.5 568.5 Q654 487 654 360 Q654 207 557 103.5 Q460 0 297 0 L14 0 L20 50 L102 50 L130 316 L46 316 L51 362 Z M300 50 Q436 50 516 137 Q596 224 596 356 Q596 464 535 532 Q474 600 357 600 L214 600 L189 362 L322 362 L317 316 L184 316 L156 50 L300 50 Z " />
<glyph glyph-name="uni00C9" unicode="&#xc9;" horiz-adv-x="574" d="M497 753 L300 707 L292 739 L483 808 L497 753 Z M477 0 L13 0 L18 51 L101 51 L159 599 L76 599 L81 650 L541 650 L541 468 L491 462 L486 599 L215 599 L188 356 L498 356 L493 305 L183 305 L156 51 L432 51 L466 188 L514 183 L477 0 Z " />
<glyph glyph-name="uni00CA" unicode="&#xca;" horiz-adv-x="574" d="M385 820 L496 736 L478 706 L371 769 L253 705 L237 732 L370 820 L385 820 Z M477 0 L13 0 L18 51 L101 51 L159 599 L76 599 L81 650 L541 650 L541 468 L491 462 L486 599 L215 599 L188 356 L498 356 L493 305 L183 305 L156 51 L432 51 L466 188 L514 183 L477 0 Z " />
<glyph glyph-name="uni00CB" unicode="&#xcb;" horiz-adv-x="574" d="M253 722 L260 793 L326 793 L319 722 L253 722 Z M417 722 L424 793 L491 793 L484 722 L417 722 Z M477 0 L13 0 L18 51 L101 51 L159 599 L76 599 L81 650 L541 650 L541 468 L491 462 L486 599 L215 599 L188 356 L498 356 L493 305 L183 305 L156 51 L432 51 L466 188 L514 183 L477 0 Z " />
<glyph glyph-name="uni00C8" unicode="&#xc8;" horiz-adv-x="574" d="M431 707 L234 753 L248 808 L439 739 L431 707 Z M477 0 L13 0 L18 51 L101 51 L159 599 L76 599 L81 650 L541 650 L541 468 L491 462 L486 599 L215 599 L188 356 L498 356 L493 305 L183 305 L156 51 L432 51 L466 188 L514 183 L477 0 Z " />
<glyph glyph-name="uni0114" unicode="&#x114;" horiz-adv-x="574" d="M440 812 L486 812 Q480 752 447 726 Q414 700 359 700 Q245 700 256 812 L302 812 Q298 769 314 754.5 Q330 740 363 740 Q399 740 417.5 756 Q436 772 440 812 Z M477 0 L13 0 L18 51 L101 51 L159 599 L76 599 L81 650 L541 650 L541 468 L491 462 L486 599 L215 599 L188 356 L498 356 L493 305 L183 305 L156 51 L432 51 L466 188 L514 183 L477 0 Z " />
<glyph glyph-name="uni011A" unicode="&#x11a;" horiz-adv-x="574" d="M347 705 L235 789 L254 818 L360 755 L479 820 L494 792 L362 705 L347 705 Z M477 0 L13 0 L18 51 L101 51 L159 599 L76 599 L81 650 L541 650 L541 468 L491 462 L486 599 L215 599 L188 356 L498 356 L493 305 L183 305 L156 51 L432 51 L466 188 L514 183 L477 0 Z " />
<glyph glyph-name="uni0116" unicode="&#x116;" horiz-adv-x="574" d="M326 722 L333 793 L399 793 L392 722 L326 722 Z M477 0 L13 0 L18 51 L101 51 L159 599 L76 599 L81 650 L541 650 L541 468 L491 462 L486 599 L215 599 L188 356 L498 356 L493 305 L183 305 L156 51 L432 51 L466 188 L514 183 L477 0 Z " />
<glyph glyph-name="uni0112" unicode="&#x112;" horiz-adv-x="574" d="M228 782 L493 782 L488 736 L223 736 L228 782 Z M477 0 L13 0 L18 51 L101 51 L159 599 L76 599 L81 650 L541 650 L541 468 L491 462 L486 599 L215 599 L188 356 L498 356 L493 305 L183 305 L156 51 L432 51 L466 188 L514 183 L477 0 Z " />
<glyph glyph-name="uni0118" unicode="&#x118;" horiz-adv-x="573" d="M476 0 L438 0 Q392 -26 374.5 -56 Q357 -86 357 -113 Q357 -165 413 -165 Q441 -165 470 -149 L474 -189 Q436 -209 397 -209 Q307 -209 307 -126 Q307 -86 331.5 -53 Q356 -20 391 0 L12 0 L17 51 L100 51 L158 599 L75 599 L80 650 L540 650 L540 468 L490 462 L485 599 L214 599 L187 356 L497 356 L492 305 L182 305 L155 51 L431 51 L465 188 L513 183 L476 0 Z " />
<glyph glyph-name="uni1EBC" unicode="&#x1ebc;" horiz-adv-x="574" d="M247 707 L220 719 Q228 744 250.5 768.5 Q273 793 307 793 Q340 793 362 775 Q384 757 422 757 Q435 757 448 764.5 Q461 772 472 800 L502 792 Q476 712 419 712 Q382 712 356.5 730 Q331 748 303 748 Q290 748 274 740 Q258 732 247 707 Z M477 0 L13 0 L18 51 L101 51 L159 599 L76 599 L81 650 L541 650 L541 468 L491 462 L486 599 L215 599 L188 356 L498 356 L493 305 L183 305 L156 51 L432 51 L466 188 L514 183 L477 0 Z " />
<glyph glyph-name="uni011E" unicode="&#x11e;" horiz-adv-x="680" d="M470 812 L516 812 Q510 752 477 726 Q444 700 389 700 Q275 700 286 812 L332 812 Q328 769 344 754.5 Q360 740 393 740 Q429 740 447.5 756 Q466 772 470 812 Z M651 277 L597 277 L568 0 L525 0 L527 96 Q495 51 437.5 20.5 Q380 -10 308 -10 Q188 -10 117.5 76 Q47 162 47 292 Q47 397 92.5 480.5 Q138 564 217 612 Q296 660 396 660 Q462 660 517 639 Q572 618 606 584 L611 467 L562 461 L552 558 Q529 575 492 591.5 Q455 608 395 608 Q266 608 185 522.5 Q104 437 104 295 Q104 177 162 109.5 Q220 42 321 42 Q417 42 472.5 95 Q528 148 534 204 L542 277 L381 277 L387 328 L657 328 L651 277 Z " />
<glyph glyph-name="uni0122" unicode="&#x122;" horiz-adv-x="680" d="M651 277 L597 277 L568 0 L525 0 L527 96 Q495 51 437.5 20.5 Q380 -10 308 -10 Q188 -10 117.5 76 Q47 162 47 292 Q47 397 92.5 480.5 Q138 564 217 612 Q296 660 396 660 Q462 660 517 639 Q572 618 606 584 L611 467 L562 461 L552 558 Q529 575 492 591.5 Q455 608 395 608 Q266 608 185 522.5 Q104 437 104 295 Q104 177 162 109.5 Q220 42 321 42 Q417 42 472.5 95 Q528 148 534 204 L542 277 L381 277 L387 328 L657 328 L651 277 Z M335 -66 L303 -219 L258 -219 L283 -66 L335 -66 Z " />
<glyph glyph-name="uni011C" unicode="&#x11c;" horiz-adv-x="680" d="M406 820 L517 736 L499 706 L392 769 L274 705 L258 732 L391 820 L406 820 Z M651 277 L597 277 L568 0 L525 0 L527 96 Q495 51 437.5 20.5 Q380 -10 308 -10 Q188 -10 117.5 76 Q47 162 47 292 Q47 397 92.5 480.5 Q138 564 217 612 Q296 660 396 660 Q462 660 517 639 Q572 618 606 584 L611 467 L562 461 L552 558 Q529 575 492 591.5 Q455 608 395 608 Q266 608 185 522.5 Q104 437 104 295 Q104 177 162 109.5 Q220 42 321 42 Q417 42 472.5 95 Q528 148 534 204 L542 277 L381 277 L387 328 L657 328 L651 277 Z " />
<glyph glyph-name="uni0120" unicode="&#x120;" horiz-adv-x="680" d="M356 722 L363 793 L429 793 L422 722 L356 722 Z M651 277 L597 277 L568 0 L525 0 L527 96 Q495 51 437.5 20.5 Q380 -10 308 -10 Q188 -10 117.5 76 Q47 162 47 292 Q47 397 92.5 480.5 Q138 564 217 612 Q296 660 396 660 Q462 660 517 639 Q572 618 606 584 L611 467 L562 461 L552 558 Q529 575 492 591.5 Q455 608 395 608 Q266 608 185 522.5 Q104 437 104 295 Q104 177 162 109.5 Q220 42 321 42 Q417 42 472.5 95 Q528 148 534 204 L542 277 L381 277 L387 328 L657 328 L651 277 Z " />
<glyph glyph-name="uni0126" unicode="&#x126;" horiz-adv-x="734" d="M449 51 L531 51 L558 307 L184 307 L157 51 L240 51 L235 0 L15 0 L20 51 L102 51 L146 472 L70 472 L74 512 L150 512 L159 599 L77 599 L83 650 L303 650 L297 599 L214 599 L205 512 L579 512 L588 599 L506 599 L512 650 L732 650 L726 599 L643 599 L634 512 L712 512 L708 472 L630 472 L586 51 L669 51 L664 0 L444 0 L449 51 Z M189 356 L563 356 L575 472 L201 472 L189 356 Z " />
<glyph glyph-name="uni0124" unicode="&#x124;" horiz-adv-x="732" d="M436 820 L547 736 L529 706 L422 769 L304 705 L288 732 L421 820 L436 820 Z M19 51 L101 51 L158 599 L76 599 L82 650 L302 650 L296 599 L213 599 L188 356 L562 356 L587 599 L505 599 L511 650 L731 650 L725 599 L642 599 L585 51 L668 51 L663 0 L443 0 L448 51 L530 51 L557 307 L183 307 L156 51 L239 51 L234 0 L14 0 L19 51 Z " />
<glyph glyph-name="uni00CD" unicode="&#xcd;" horiz-adv-x="303" d="M339 753 L142 707 L134 739 L325 808 L339 753 Z M18 51 L101 51 L158 599 L75 599 L81 650 L301 650 L296 599 L212 599 L155 51 L239 51 L233 0 L13 0 L18 51 Z " />
<glyph glyph-name="uni00CE" unicode="&#xce;" horiz-adv-x="303" d="M221 820 L332 736 L314 706 L207 769 L89 705 L73 732 L206 820 L221 820 Z M18 51 L101 51 L158 599 L75 599 L81 650 L301 650 L296 599 L212 599 L155 51 L239 51 L233 0 L13 0 L18 51 Z " />
<glyph glyph-name="uni00CF" unicode="&#xcf;" horiz-adv-x="303" d="M248 722 L255 793 L322 793 L315 722 L248 722 Z M84 722 L91 793 L157 793 L150 722 L84 722 Z M18 51 L101 51 L158 599 L75 599 L81 650 L301 650 L296 599 L212 599 L155 51 L239 51 L233 0 L13 0 L18 51 Z " />
<glyph glyph-name="uni00CC" unicode="&#xcc;" horiz-adv-x="303" d="M250 707 L53 753 L67 808 L258 739 L250 707 Z M18 51 L101 51 L158 599 L75 599 L81 650 L301 650 L296 599 L212 599 L155 51 L239 51 L233 0 L13 0 L18 51 Z " />
<glyph glyph-name="uni012C" unicode="&#x12c;" horiz-adv-x="303" d="M273 812 L319 812 Q313 752 280.5 726 Q248 700 192 700 Q78 700 89 812 L135 812 Q130 769 146.5 754.5 Q163 740 196 740 Q232 740 250 756 Q268 772 273 812 Z M18 51 L101 51 L158 599 L75 599 L81 650 L301 650 L296 599 L212 599 L155 51 L239 51 L233 0 L13 0 L18 51 Z " />
<glyph glyph-name="uni0130" unicode="&#x130;" horiz-adv-x="303" d="M163 722 L170 793 L236 793 L229 722 L163 722 Z M18 51 L101 51 L158 599 L75 599 L81 650 L301 650 L296 599 L212 599 L155 51 L239 51 L233 0 L13 0 L18 51 Z " />
<glyph glyph-name="uni012A" unicode="&#x12a;" horiz-adv-x="303" d="M75 782 L340 782 L335 736 L70 736 L75 782 Z M18 51 L101 51 L158 599 L75 599 L81 650 L301 650 L296 599 L212 599 L155 51 L239 51 L233 0 L13 0 L18 51 Z " />
<glyph glyph-name="uni012E" unicode="&#x12e;" horiz-adv-x="302" d="M185 -189 Q147 -209 108 -209 Q18 -209 18 -126 Q18 -86 42.5 -53 Q67 -20 102 0 L13 0 L18 51 L101 51 L158 599 L75 599 L81 650 L301 650 L296 599 L212 599 L155 51 L239 51 L233 0 L149 0 Q103 -26 85.5 -56 Q68 -86 68 -113 Q68 -165 124 -165 Q152 -165 181 -149 L185 -189 Z " />
<glyph glyph-name="uni0128" unicode="&#x128;" horiz-adv-x="303" d="M94 707 L67 719 Q75 744 97.5 768.5 Q120 793 154 793 Q187 793 209.5 775 Q232 757 269 757 Q282 757 295 764.5 Q308 772 319 800 L349 792 Q323 712 266 712 Q229 712 203.5 730 Q178 748 150 748 Q137 748 121 740 Q105 732 94 707 Z M18 51 L101 51 L158 599 L75 599 L81 650 L301 650 L296 599 L212 599 L155 51 L239 51 L233 0 L13 0 L18 51 Z " />
<glyph glyph-name="uni0134" unicode="&#x134;" horiz-adv-x="436" d="M340 820 L451 736 L433 706 L326 769 L208 705 L192 732 L325 820 L340 820 Z M179 650 L437 650 L432 599 L359 599 L313 161 Q305 76 259.5 33 Q214 -10 140 -10 Q82 -10 49 15 Q16 40 0 82 L44 114 Q76 44 141 44 Q196 44 224 76 Q252 108 258 161 L304 599 L174 599 L179 650 Z " />
<glyph glyph-name="uni0136" unicode="&#x136;" horiz-adv-x="615" d="M371 51 L448 51 L295 306 L182 306 L155 51 L234 51 L228 0 L12 0 L18 51 L100 51 L157 599 L75 599 L80 650 L297 650 L292 599 L212 599 L187 356 L296 356 L496 600 L419 600 L425 651 L637 651 L631 600 L560 600 L340 337 L513 51 L586 51 L581 0 L365 0 L371 51 Z M317 -66 L285 -219 L240 -219 L265 -66 L317 -66 Z " />
<glyph glyph-name="uni0139" unicode="&#x139;" horiz-adv-x="526" d="M335 753 L138 707 L130 739 L321 808 L335 753 Z M464 0 L13 0 L18 51 L101 51 L159 599 L76 599 L81 650 L330 650 L325 599 L214 599 L156 51 L418 51 L454 206 L504 202 L464 0 Z " />
<glyph glyph-name="uni013D" unicode="&#x13d;" horiz-adv-x="525" d="M443 681 L401 457 L356 457 L392 681 L443 681 Z M464 0 L13 0 L18 51 L101 51 L159 599 L76 599 L81 650 L330 650 L325 599 L214 599 L156 51 L418 51 L454 206 L504 202 L464 0 Z " />
<glyph glyph-name="uni013B" unicode="&#x13b;" horiz-adv-x="526" d="M464 0 L13 0 L18 51 L101 51 L159 599 L76 599 L81 650 L330 650 L325 599 L214 599 L156 51 L418 51 L454 206 L504 202 L464 0 Z M279 -66 L247 -219 L202 -219 L227 -66 L279 -66 Z " />
<glyph glyph-name="uni013F" unicode="&#x13f;" horiz-adv-x="526" d="M464 0 L13 0 L18 51 L101 51 L159 599 L76 599 L81 650 L330 650 L325 599 L214 599 L156 51 L418 51 L454 206 L504 202 L464 0 Z M326 299 L334 378 L394 378 L386 299 L326 299 Z " />
<glyph glyph-name="uni0141" unicode="&#x141;" horiz-adv-x="526" d="M465 0 L14 0 L19 51 L102 51 L125 268 L44 235 L48 283 L130 316 L160 599 L77 599 L82 650 L331 650 L326 599 L215 599 L187 340 L354 408 L349 360 L182 291 L157 51 L419 51 L455 206 L505 202 L465 0 Z " />
<glyph glyph-name="uni00D1" unicode="&#xd1;" horiz-adv-x="710" d="M282 707 L255 719 Q263 744 285.5 768.5 Q308 793 342 793 Q375 793 397.5 775 Q420 757 457 757 Q470 757 483 764.5 Q496 772 507 800 L537 792 Q511 712 454 712 Q417 712 391.5 730 Q366 748 338 748 Q325 748 309 740 Q293 732 282 707 Z M25 51 L101 51 L158 599 L74 599 L79 650 L204 650 L521 117 L524 117 L574 599 L479 599 L484 650 L716 650 L711 599 L628 599 L566 0 L528 0 L208 539 L205 539 L153 51 L259 51 L254 0 L20 0 L25 51 Z " />
<glyph glyph-name="uni0143" unicode="&#x143;" horiz-adv-x="710" d="M548 753 L351 707 L343 739 L534 808 L548 753 Z M25 51 L101 51 L158 599 L74 599 L79 650 L204 650 L521 117 L524 117 L574 599 L479 599 L484 650 L716 650 L711 599 L628 599 L566 0 L528 0 L208 539 L205 539 L153 51 L259 51 L254 0 L20 0 L25 51 Z " />
<glyph glyph-name="uni0147" unicode="&#x147;" horiz-adv-x="710" d="M387 705 L275 789 L294 818 L400 755 L519 820 L534 792 L402 705 L387 705 Z M25 51 L101 51 L158 599 L74 599 L79 650 L204 650 L521 117 L524 117 L574 599 L479 599 L484 650 L716 650 L711 599 L628 599 L566 0 L528 0 L208 539 L205 539 L153 51 L259 51 L254 0 L20 0 L25 51 Z " />
<glyph glyph-name="uni0145" unicode="&#x145;" horiz-adv-x="710" d="M25 51 L101 51 L158 599 L74 599 L79 650 L204 650 L521 117 L524 117 L574 599 L479 599 L484 650 L716 650 L711 599 L628 599 L566 0 L528 0 L208 539 L205 539 L153 51 L259 51 L254 0 L20 0 L25 51 Z M358 -66 L326 -219 L281 -219 L306 -66 L358 -66 Z " />
<glyph glyph-name="uni014A" unicode="&#x14a;" horiz-adv-x="709" d="M253 0 L19 0 L24 51 L100 51 L157 599 L73 599 L78 650 L203 650 L520 117 L523 117 L573 599 L478 599 L483 650 L715 650 L710 599 L627 599 L563 -23 Q556 -107 509.5 -151 Q463 -195 388 -195 Q330 -195 296.5 -170.5 Q263 -146 247 -102 L291 -71 Q323 -141 389 -141 Q446 -141 474.5 -107.5 Q503 -74 507 -24 L511 26 L207 539 L204 539 L152 51 L258 51 L253 0 Z " />
<glyph glyph-name="uni1E46" unicode="&#x1e46;" horiz-adv-x="710" d="M25 51 L101 51 L158 599 L74 599 L79 650 L204 650 L521 117 L524 117 L574 599 L479 599 L484 650 L716 650 L711 599 L628 599 L566 0 L528 0 L208 539 L205 539 L153 51 L259 51 L254 0 L20 0 L25 51 Z M291 -168 L299 -89 L360 -89 L352 -168 L291 -168 Z " />
<glyph glyph-name="uni00D2" unicode="&#xd2;" horiz-adv-x="716" d="M436 707 L239 753 L253 808 L444 739 L436 707 Z M396 660 Q527 660 604 572 Q681 484 681 359 Q681 258 635.5 174.5 Q590 91 510 40.5 Q430 -10 329 -10 Q198 -10 122 78 Q46 166 46 291 Q46 392 92 476 Q138 560 217.5 610 Q297 660 396 660 Z M337 42 Q423 42 487 85.5 Q551 129 586.5 200.5 Q622 272 622 355 Q622 463 562 535.5 Q502 608 390 608 Q264 608 184.5 515.5 Q105 423 105 296 Q105 192 162.5 117 Q220 42 337 42 Z " />
<glyph glyph-name="uni00D6" unicode="&#xd6;" horiz-adv-x="716" d="M295 722 L302 793 L368 793 L361 722 L295 722 Z M459 722 L466 793 L533 793 L526 722 L459 722 Z M396 660 Q527 660 604 572 Q681 484 681 359 Q681 258 635.5 174.5 Q590 91 510 40.5 Q430 -10 329 -10 Q198 -10 122 78 Q46 166 46 291 Q46 392 92 476 Q138 560 217.5 610 Q297 660 396 660 Z M337 42 Q423 42 487 85.5 Q551 129 586.5 200.5 Q622 272 622 355 Q622 463 562 535.5 Q502 608 390 608 Q264 608 184.5 515.5 Q105 423 105 296 Q105 192 162.5 117 Q220 42 337 42 Z " />
<glyph glyph-name="uni00D5" unicode="&#xd5;" horiz-adv-x="716" d="M295 707 L268 719 Q276 744 298.5 768.5 Q321 793 355 793 Q388 793 410 775 Q432 757 470 757 Q483 757 496 764.5 Q509 772 520 800 L550 792 Q524 712 467 712 Q430 712 404.5 730 Q379 748 351 748 Q338 748 322 740 Q306 732 295 707 Z M396 660 Q527 660 604 572 Q681 484 681 359 Q681 258 635.5 174.5 Q590 91 510 40.5 Q430 -10 329 -10 Q198 -10 122 78 Q46 166 46 291 Q46 392 92 476 Q138 560 217.5 610 Q297 660 396 660 Z M337 42 Q423 42 487 85.5 Q551 129 586.5 200.5 Q622 272 622 355 Q622 463 562 535.5 Q502 608 390 608 Q264 608 184.5 515.5 Q105 423 105 296 Q105 192 162.5 117 Q220 42 337 42 Z " />
<glyph glyph-name="uni014E" unicode="&#x14e;" horiz-adv-x="716" d="M489 812 L535 812 Q529 752 496.5 726 Q464 700 408 700 Q294 700 305 812 L351 812 Q346 769 362.5 754.5 Q379 740 412 740 Q448 740 466 756 Q484 772 489 812 Z M396 660 Q527 660 604 572 Q681 484 681 359 Q681 258 635.5 174.5 Q590 91 510 40.5 Q430 -10 329 -10 Q198 -10 122 78 Q46 166 46 291 Q46 392 92 476 Q138 560 217.5 610 Q297 660 396 660 Z M337 42 Q423 42 487 85.5 Q551 129 586.5 200.5 Q622 272 622 355 Q622 463 562 535.5 Q502 608 390 608 Q264 608 184.5 515.5 Q105 423 105 296 Q105 192 162.5 117 Q220 42 337 42 Z " />
<glyph glyph-name="uni00D3" unicode="&#xd3;" horiz-adv-x="716" d="M551 753 L354 707 L346 739 L537 808 L551 753 Z M396 660 Q527 660 604 572 Q681 484 681 359 Q681 258 635.5 174.5 Q590 91 510 40.5 Q430 -10 329 -10 Q198 -10 122 78 Q46 166 46 291 Q46 392 92 476 Q138 560 217.5 610 Q297 660 396 660 Z M337 42 Q423 42 487 85.5 Q551 129 586.5 200.5 Q622 272 622 355 Q622 463 562 535.5 Q502 608 390 608 Q264 608 184.5 515.5 Q105 423 105 296 Q105 192 162.5 117 Q220 42 337 42 Z " />
<glyph glyph-name="uni00D4" unicode="&#xd4;" horiz-adv-x="716" d="M428 820 L539 736 L521 706 L414 769 L296 705 L280 732 L413 820 L428 820 Z M396 660 Q527 660 604 572 Q681 484 681 359 Q681 258 635.5 174.5 Q590 91 510 40.5 Q430 -10 329 -10 Q198 -10 122 78 Q46 166 46 291 Q46 392 92 476 Q138 560 217.5 610 Q297 660 396 660 Z M337 42 Q423 42 487 85.5 Q551 129 586.5 200.5 Q622 272 622 355 Q622 463 562 535.5 Q502 608 390 608 Q264 608 184.5 515.5 Q105 423 105 296 Q105 192 162.5 117 Q220 42 337 42 Z " />
<glyph glyph-name="uni0150" unicode="&#x150;" horiz-adv-x="716" d="M491 837 L328 708 L308 730 L457 875 L491 837 Z M629 753 L436 707 L429 738 L617 807 L629 753 Z M396 660 Q527 660 604 572 Q681 484 681 359 Q681 258 635.5 174.5 Q590 91 510 40.5 Q430 -10 329 -10 Q198 -10 122 78 Q46 166 46 291 Q46 392 92 476 Q138 560 217.5 610 Q297 660 396 660 Z M337 42 Q423 42 487 85.5 Q551 129 586.5 200.5 Q622 272 622 355 Q622 463 562 535.5 Q502 608 390 608 Q264 608 184.5 515.5 Q105 423 105 296 Q105 192 162.5 117 Q220 42 337 42 Z " />
<glyph glyph-name="uni014C" unicode="&#x14c;" horiz-adv-x="716" d="M283 782 L548 782 L543 736 L278 736 L283 782 Z M396 660 Q527 660 604 572 Q681 484 681 359 Q681 258 635.5 174.5 Q590 91 510 40.5 Q430 -10 329 -10 Q198 -10 122 78 Q46 166 46 291 Q46 392 92 476 Q138 560 217.5 610 Q297 660 396 660 Z M337 42 Q423 42 487 85.5 Q551 129 586.5 200.5 Q622 272 622 355 Q622 463 562 535.5 Q502 608 390 608 Q264 608 184.5 515.5 Q105 423 105 296 Q105 192 162.5 117 Q220 42 337 42 Z " />
<glyph glyph-name="uni00D8" unicode="&#xd8;" horiz-adv-x="713" d="M395 660 Q500 660 575 598 L621 650 L680 650 L607 568 Q680 484 680 359 Q680 258 634.5 174.5 Q589 91 509.5 40.5 Q430 -10 328 -10 Q220 -10 146 53 L99 0 L45 0 L117 82 Q45 165 45 291 Q45 392 91.5 476 Q138 560 217 610 Q296 660 395 660 Z M104 296 Q104 192 155 125 L539 557 Q478 608 389 608 Q263 608 183.5 515.5 Q104 423 104 296 Z M336 42 Q422 42 486 85.5 Q550 129 585.5 200.5 Q621 272 621 355 Q621 458 569 525 L183 94 Q243 42 336 42 Z " />
<glyph glyph-name="uni01FE" unicode="&#x1fe;" horiz-adv-x="713" d="M552 753 L355 707 L347 739 L538 808 L552 753 Z M395 660 Q500 660 575 598 L621 650 L680 650 L607 568 Q680 484 680 359 Q680 258 634.5 174.5 Q589 91 509.5 40.5 Q430 -10 328 -10 Q220 -10 146 53 L99 0 L45 0 L117 82 Q45 165 45 291 Q45 392 91.5 476 Q138 560 217 610 Q296 660 395 660 Z M104 296 Q104 192 155 125 L539 557 Q478 608 389 608 Q263 608 183.5 515.5 Q104 423 104 296 Z M336 42 Q422 42 486 85.5 Q550 129 585.5 200.5 Q621 272 621 355 Q621 458 569 525 L183 94 Q243 42 336 42 Z " />
<glyph glyph-name="uni0154" unicode="&#x154;" horiz-adv-x="594" d="M485 753 L288 707 L280 739 L471 808 L485 753 Z M19 51 L101 51 L158 599 L76 599 L82 650 L343 650 Q450 650 498.5 603 Q547 556 547 489 Q547 414 507.5 361 Q468 308 385 290 L481 51 L563 51 L557 0 L440 0 L331 279 L180 279 L156 51 L246 51 L241 0 L14 0 L19 51 Z M315 327 Q407 327 448 372.5 Q489 418 489 484 Q489 599 332 599 L213 599 L185 327 L315 327 Z " />
<glyph glyph-name="uni0158" unicode="&#x158;" horiz-adv-x="594" d="M321 705 L209 789 L228 818 L334 755 L453 820 L468 792 L336 705 L321 705 Z M19 51 L101 51 L158 599 L76 599 L82 650 L343 650 Q450 650 498.5 603 Q547 556 547 489 Q547 414 507.5 361 Q468 308 385 290 L481 51 L563 51 L557 0 L440 0 L331 279 L180 279 L156 51 L246 51 L241 0 L14 0 L19 51 Z M315 327 Q407 327 448 372.5 Q489 418 489 484 Q489 599 332 599 L213 599 L185 327 L315 327 Z " />
<glyph glyph-name="uni0156" unicode="&#x156;" horiz-adv-x="594" d="M19 51 L101 51 L158 599 L76 599 L82 650 L343 650 Q450 650 498.5 603 Q547 556 547 489 Q547 414 507.5 361 Q468 308 385 290 L481 51 L563 51 L557 0 L440 0 L331 279 L180 279 L156 51 L246 51 L241 0 L14 0 L19 51 Z M315 327 Q407 327 448 372.5 Q489 418 489 484 Q489 599 332 599 L213 599 L185 327 L315 327 Z M326 -66 L294 -219 L249 -219 L274 -66 L326 -66 Z " />
<glyph glyph-name="uni015A" unicode="&#x15a;" horiz-adv-x="519" d="M441 753 L244 707 L236 739 L427 808 L441 753 Z M460 191 Q460 96 399 43 Q338 -10 225 -10 Q165 -10 109.5 4 Q54 18 26 39 L49 158 L94 153 L83 71 Q111 55 150.5 48 Q190 41 225 41 Q302 41 351 75 Q400 109 400 183 Q400 260 352 280.5 Q304 301 247 315 Q187 330 133 361.5 Q79 393 79 478 Q79 572 146 616 Q213 660 292 660 Q341 660 393 646 Q445 632 471 611 L464 485 L417 480 L417 583 Q387 599 354.5 604 Q322 609 298 609 Q223 609 180 575 Q137 541 137 481 Q137 421 176.5 400.5 Q216 380 273 366 Q350 346 405 316 Q460 286 460 191 Z " />
<glyph glyph-name="uni015E" unicode="&#x15e;" horiz-adv-x="519" d="M460 191 Q460 101 405 48.5 Q350 -4 248 -9 L244 -48 L252 -48 Q331 -48 331 -120 Q331 -165 298 -187 Q265 -209 221 -209 Q166 -209 136 -179 L155 -146 Q182 -169 224 -169 Q249 -169 266 -157.5 Q283 -146 283 -119 Q283 -93 266.5 -86 Q250 -79 226 -79 L199 -79 L206 -9 Q150 -7 101 6.5 Q52 20 26 39 L49 158 L94 153 L83 71 Q111 55 150.5 48 Q190 41 225 41 Q302 41 351 75 Q400 109 400 183 Q400 260 352 280.5 Q304 301 247 315 Q187 330 133 361.5 Q79 393 79 478 Q79 572 146 616 Q213 660 292 660 Q341 660 393 646 Q445 632 471 611 L464 485 L417 480 L417 583 Q387 599 354.5 604 Q322 609 298 609 Q223 609 180 575 Q137 541 137 481 Q137 421 176.5 400.5 Q216 380 273 366 Q350 346 405 316 Q460 286 460 191 Z " />
<glyph glyph-name="uni0160" unicode="&#x160;" horiz-adv-x="519" d="M288 705 L176 789 L195 818 L301 755 L420 820 L435 792 L303 705 L288 705 Z M460 191 Q460 96 399 43 Q338 -10 225 -10 Q165 -10 109.5 4 Q54 18 26 39 L49 158 L94 153 L83 71 Q111 55 150.5 48 Q190 41 225 41 Q302 41 351 75 Q400 109 400 183 Q400 260 352 280.5 Q304 301 247 315 Q187 330 133 361.5 Q79 393 79 478 Q79 572 146 616 Q213 660 292 660 Q341 660 393 646 Q445 632 471 611 L464 485 L417 480 L417 583 Q387 599 354.5 604 Q322 609 298 609 Q223 609 180 575 Q137 541 137 481 Q137 421 176.5 400.5 Q216 380 273 366 Q350 346 405 316 Q460 286 460 191 Z " />
<glyph glyph-name="uni015C" unicode="&#x15c;" horiz-adv-x="519" d="M320 820 L431 736 L413 706 L306 769 L188 705 L172 732 L305 820 L320 820 Z M460 191 Q460 96 399 43 Q338 -10 225 -10 Q165 -10 109.5 4 Q54 18 26 39 L49 158 L94 153 L83 71 Q111 55 150.5 48 Q190 41 225 41 Q302 41 351 75 Q400 109 400 183 Q400 260 352 280.5 Q304 301 247 315 Q187 330 133 361.5 Q79 393 79 478 Q79 572 146 616 Q213 660 292 660 Q341 660 393 646 Q445 632 471 611 L464 485 L417 480 L417 583 Q387 599 354.5 604 Q322 609 298 609 Q223 609 180 575 Q137 541 137 481 Q137 421 176.5 400.5 Q216 380 273 366 Q350 346 405 316 Q460 286 460 191 Z " />
<glyph glyph-name="uni0218" unicode="&#x218;" horiz-adv-x="519" d="M460 191 Q460 96 399 43 Q338 -10 225 -10 Q165 -10 109.5 4 Q54 18 26 39 L49 158 L94 153 L83 71 Q111 55 150.5 48 Q190 41 225 41 Q302 41 351 75 Q400 109 400 183 Q400 260 352 280.5 Q304 301 247 315 Q187 330 133 361.5 Q79 393 79 478 Q79 572 146 616 Q213 660 292 660 Q341 660 393 646 Q445 632 471 611 L464 485 L417 480 L417 583 Q387 599 354.5 604 Q322 609 298 609 Q223 609 180 575 Q137 541 137 481 Q137 421 176.5 400.5 Q216 380 273 366 Q350 346 405 316 Q460 286 460 191 Z M255 -66 L223 -219 L178 -219 L203 -66 L255 -66 Z " />
<glyph glyph-name="uni1E62" unicode="&#x1e62;" horiz-adv-x="519" d="M460 191 Q460 96 399 43 Q338 -10 225 -10 Q165 -10 109.5 4 Q54 18 26 39 L49 158 L94 153 L83 71 Q111 55 150.5 48 Q190 41 225 41 Q302 41 351 75 Q400 109 400 183 Q400 260 352 280.5 Q304 301 247 315 Q187 330 133 361.5 Q79 393 79 478 Q79 572 146 616 Q213 660 292 660 Q341 660 393 646 Q445 632 471 611 L464 485 L417 480 L417 583 Q387 599 354.5 604 Q322 609 298 609 Q223 609 180 575 Q137 541 137 481 Q137 421 176.5 400.5 Q216 380 273 366 Q350 346 405 316 Q460 286 460 191 Z M193 -168 L201 -89 L262 -89 L254 -168 L193 -168 Z " />
<glyph glyph-name="uni0166" unicode="&#x166;" horiz-adv-x="605" d="M593 458 L542 454 L538 599 L363 599 L333 320 L489 320 L485 280 L329 280 L305 51 L420 51 L415 0 L132 0 L137 51 L250 51 L274 280 L120 280 L124 320 L278 320 L308 599 L130 599 L96 454 L46 458 L84 650 L594 650 L593 458 Z " />
<glyph glyph-name="uni0164" unicode="&#x164;" horiz-adv-x="601" d="M332 705 L220 789 L239 818 L345 755 L464 820 L479 792 L347 705 L332 705 Z M592 458 L541 454 L537 599 L362 599 L304 51 L419 51 L414 0 L131 0 L136 51 L249 51 L307 599 L129 599 L95 454 L45 458 L83 650 L593 650 L592 458 Z " />
<glyph glyph-name="uni0162" unicode="&#x162;" horiz-adv-x="601" d="M592 458 L541 454 L537 599 L362 599 L304 51 L419 51 L414 0 L131 0 L136 51 L249 51 L307 599 L129 599 L95 454 L45 458 L83 650 L593 650 L592 458 Z M291 -66 L259 -219 L214 -219 L239 -66 L291 -66 Z " />
<glyph glyph-name="uni021A" unicode="&#x21a;" horiz-adv-x="601" d="M592 458 L541 454 L537 599 L362 599 L304 51 L419 51 L414 0 L131 0 L136 51 L249 51 L307 599 L129 599 L95 454 L45 458 L83 650 L593 650 L592 458 Z M291 -66 L259 -219 L214 -219 L239 -66 L291 -66 Z " />
<glyph glyph-name="uni00DA" unicode="&#xda;" horiz-adv-x="698" d="M545 753 L348 707 L340 739 L531 808 L545 753 Z M489 650 L698 650 L693 599 L629 599 L595 266 Q588 197 561.5 133.5 Q535 70 478.5 30 Q422 -10 325 -10 Q185 -10 138 70 Q91 150 102 255 L138 599 L70 599 L75 650 L291 650 L285 599 L194 599 L158 257 Q136 42 331 42 Q518 42 543 266 L577 599 L484 599 L489 650 Z " />
<glyph glyph-name="uni00DB" unicode="&#xdb;" horiz-adv-x="698" d="M415 820 L526 736 L508 706 L401 769 L283 705 L267 732 L400 820 L415 820 Z M489 650 L698 650 L693 599 L629 599 L595 266 Q588 197 561.5 133.5 Q535 70 478.5 30 Q422 -10 325 -10 Q185 -10 138 70 Q91 150 102 255 L138 599 L70 599 L75 650 L291 650 L285 599 L194 599 L158 257 Q136 42 331 42 Q518 42 543 266 L577 599 L484 599 L489 650 Z " />
<glyph glyph-name="uni00D9" unicode="&#xd9;" horiz-adv-x="698" d="M452 707 L255 753 L269 808 L460 739 L452 707 Z M489 650 L698 650 L693 599 L629 599 L595 266 Q588 197 561.5 133.5 Q535 70 478.5 30 Q422 -10 325 -10 Q185 -10 138 70 Q91 150 102 255 L138 599 L70 599 L75 650 L291 650 L285 599 L194 599 L158 257 Q136 42 331 42 Q518 42 543 266 L577 599 L484 599 L489 650 Z " />
<glyph glyph-name="uni00DC" unicode="&#xdc;" horiz-adv-x="698" d="M449 722 L456 793 L523 793 L516 722 L449 722 Z M285 722 L292 793 L358 793 L351 722 L285 722 Z M489 650 L698 650 L693 599 L629 599 L595 266 Q588 197 561.5 133.5 Q535 70 478.5 30 Q422 -10 325 -10 Q185 -10 138 70 Q91 150 102 255 L138 599 L70 599 L75 650 L291 650 L285 599 L194 599 L158 257 Q136 42 331 42 Q518 42 543 266 L577 599 L484 599 L489 650 Z " />
<glyph glyph-name="uni016C" unicode="&#x16c;" horiz-adv-x="698" d="M473 812 L519 812 Q513 752 480.5 726 Q448 700 392 700 Q278 700 289 812 L335 812 Q330 769 346.5 754.5 Q363 740 396 740 Q432 740 450 756 Q468 772 473 812 Z M489 650 L698 650 L693 599 L629 599 L595 266 Q588 197 561.5 133.5 Q535 70 478.5 30 Q422 -10 325 -10 Q185 -10 138 70 Q91 150 102 255 L138 599 L70 599 L75 650 L291 650 L285 599 L194 599 L158 257 Q136 42 331 42 Q518 42 543 266 L577 599 L484 599 L489 650 Z " />
<glyph glyph-name="uni0170" unicode="&#x170;" horiz-adv-x="698" d="M472 837 L309 708 L289 730 L438 875 L472 837 Z M610 753 L417 707 L410 738 L598 807 L610 753 Z M489 650 L698 650 L693 599 L629 599 L595 266 Q588 197 561.5 133.5 Q535 70 478.5 30 Q422 -10 325 -10 Q185 -10 138 70 Q91 150 102 255 L138 599 L70 599 L75 650 L291 650 L285 599 L194 599 L158 257 Q136 42 331 42 Q518 42 543 266 L577 599 L484 599 L489 650 Z " />
<glyph glyph-name="uni016A" unicode="&#x16a;" horiz-adv-x="698" d="M270 782 L535 782 L530 736 L265 736 L270 782 Z M489 650 L698 650 L693 599 L629 599 L595 266 Q588 197 561.5 133.5 Q535 70 478.5 30 Q422 -10 325 -10 Q185 -10 138 70 Q91 150 102 255 L138 599 L70 599 L75 650 L291 650 L285 599 L194 599 L158 257 Q136 42 331 42 Q518 42 543 266 L577 599 L484 599 L489 650 Z " />
<glyph glyph-name="uni0172" unicode="&#x172;" horiz-adv-x="699" d="M76 650 L292 650 L286 599 L195 599 L159 257 Q137 42 332 42 Q519 42 544 266 L578 599 L485 599 L490 650 L699 650 L694 599 L630 599 L596 266 Q586 174 542 95 Q498 16 390 -4 Q349 -30 333 -58.5 Q317 -87 317 -113 Q317 -165 373 -165 Q401 -165 430 -149 L434 -189 Q396 -209 357 -209 Q267 -209 267 -126 Q267 -91 286.5 -60.5 Q306 -30 335 -9 Q333 -9 330.5 -9.5 Q328 -10 326 -10 Q186 -10 139 70 Q92 150 103 255 L139 599 L71 599 L76 650 Z " />
<glyph glyph-name="uni016E" unicode="&#x16e;" horiz-adv-x="698" d="M393 690 Q307 690 307 772 Q307 817 336 845.5 Q365 874 414 874 Q500 874 500 793 Q500 750 472 720 Q444 690 393 690 Z M397 725 Q428 725 443.5 744 Q459 763 459 790 Q459 840 410 840 Q380 840 363.5 821 Q347 802 347 774 Q347 725 397 725 Z M489 650 L698 650 L693 599 L629 599 L595 266 Q588 197 561.5 133.5 Q535 70 478.5 30 Q422 -10 325 -10 Q185 -10 138 70 Q91 150 102 255 L138 599 L70 599 L75 650 L291 650 L285 599 L194 599 L158 257 Q136 42 331 42 Q518 42 543 266 L577 599 L484 599 L489 650 Z " />
<glyph glyph-name="uni0168" unicode="&#x168;" horiz-adv-x="698" d="M293 707 L266 719 Q274 744 296.5 768.5 Q319 793 353 793 Q386 793 408 775 Q430 757 468 757 Q481 757 494 764.5 Q507 772 518 800 L548 792 Q522 712 465 712 Q428 712 402.5 730 Q377 748 349 748 Q336 748 320 740 Q304 732 293 707 Z M489 650 L698 650 L693 599 L629 599 L595 266 Q588 197 561.5 133.5 Q535 70 478.5 30 Q422 -10 325 -10 Q185 -10 138 70 Q91 150 102 255 L138 599 L70 599 L75 650 L291 650 L285 599 L194 599 L158 257 Q136 42 331 42 Q518 42 543 266 L577 599 L484 599 L489 650 Z " />
<glyph glyph-name="uni01D3" unicode="&#x1d3;" horiz-adv-x="698" d="M386 705 L274 789 L293 818 L399 755 L518 820 L533 792 L401 705 L386 705 Z M489 650 L698 650 L693 599 L629 599 L595 266 Q588 197 561.5 133.5 Q535 70 478.5 30 Q422 -10 325 -10 Q185 -10 138 70 Q91 150 102 255 L138 599 L70 599 L75 650 L291 650 L285 599 L194 599 L158 257 Q136 42 331 42 Q518 42 543 266 L577 599 L484 599 L489 650 Z " />
<glyph glyph-name="uni1E82" unicode="&#x1e82;" horiz-adv-x="898" d="M644 753 L447 707 L439 739 L630 808 L644 753 Z M928 599 L872 599 L642 0 L593 0 L482 547 L478 547 L253 0 L203 0 L88 599 L34 599 L39 650 L249 650 L243 599 L146 599 L236 93 L241 93 L449 599 L381 599 L387 650 L597 650 L591 599 L523 599 L625 91 L630 91 L816 599 L719 599 L724 650 L933 650 L928 599 Z " />
<glyph glyph-name="uni0174" unicode="&#x174;" horiz-adv-x="898" d="M519 820 L630 736 L612 706 L505 769 L387 705 L371 732 L504 820 L519 820 Z M928 599 L872 599 L642 0 L593 0 L482 547 L478 547 L253 0 L203 0 L88 599 L34 599 L39 650 L249 650 L243 599 L146 599 L236 93 L241 93 L449 599 L381 599 L387 650 L597 650 L591 599 L523 599 L625 91 L630 91 L816 599 L719 599 L724 650 L933 650 L928 599 Z " />
<glyph glyph-name="uni1E84" unicode="&#x1e84;" horiz-adv-x="898" d="M543 722 L550 793 L617 793 L610 722 L543 722 Z M379 722 L386 793 L452 793 L445 722 L379 722 Z M928 599 L872 599 L642 0 L593 0 L482 547 L478 547 L253 0 L203 0 L88 599 L34 599 L39 650 L249 650 L243 599 L146 599 L236 93 L241 93 L449 599 L381 599 L387 650 L597 650 L591 599 L523 599 L625 91 L630 91 L816 599 L719 599 L724 650 L933 650 L928 599 Z " />
<glyph glyph-name="uni1E80" unicode="&#x1e80;" horiz-adv-x="898" d="M564 707 L367 753 L381 808 L572 739 L564 707 Z M928 599 L872 599 L642 0 L593 0 L482 547 L478 547 L253 0 L203 0 L88 599 L34 599 L39 650 L249 650 L243 599 L146 599 L236 93 L241 93 L449 599 L381 599 L387 650 L597 650 L591 599 L523 599 L625 91 L630 91 L816 599 L719 599 L724 650 L933 650 L928 599 Z " />
<glyph glyph-name="uni0178" unicode="&#x178;" horiz-adv-x="590" d="M388 722 L395 793 L462 793 L455 722 L388 722 Z M224 722 L231 793 L297 793 L290 722 L224 722 Z M624 599 L559 599 L321 248 L301 51 L415 51 L409 0 L129 0 L134 51 L246 51 L266 248 L95 599 L30 599 L35 650 L257 650 L251 599 L156 599 L300 301 L304 301 L502 599 L409 599 L414 650 L628 650 L624 599 Z " />
<glyph glyph-name="uni0176" unicode="&#x176;" horiz-adv-x="590" d="M368 820 L479 736 L461 706 L354 769 L236 705 L220 732 L353 820 L368 820 Z M624 599 L559 599 L321 248 L301 51 L415 51 L409 0 L129 0 L134 51 L246 51 L266 248 L95 599 L30 599 L35 650 L257 650 L251 599 L156 599 L300 301 L304 301 L502 599 L409 599 L414 650 L628 650 L624 599 Z " />
<glyph glyph-name="uni1EF2" unicode="&#x1ef2;" horiz-adv-x="590" d="M387 707 L190 753 L204 808 L395 739 L387 707 Z M624 599 L559 599 L321 248 L301 51 L415 51 L409 0 L129 0 L134 51 L246 51 L266 248 L95 599 L30 599 L35 650 L257 650 L251 599 L156 599 L300 301 L304 301 L502 599 L409 599 L414 650 L628 650 L624 599 Z " />
<glyph glyph-name="uni00DD" unicode="&#xdd;" horiz-adv-x="590" d="M471 753 L274 707 L266 739 L457 808 L471 753 Z M624 599 L559 599 L321 248 L301 51 L415 51 L409 0 L129 0 L134 51 L246 51 L266 248 L95 599 L30 599 L35 650 L257 650 L251 599 L156 599 L300 301 L304 301 L502 599 L409 599 L414 650 L628 650 L624 599 Z " />
<glyph glyph-name="uni0232" unicode="&#x232;" horiz-adv-x="590" d="M205 782 L470 782 L465 736 L200 736 L205 782 Z M624 599 L559 599 L321 248 L301 51 L415 51 L409 0 L129 0 L134 51 L246 51 L266 248 L95 599 L30 599 L35 650 L257 650 L251 599 L156 599 L300 301 L304 301 L502 599 L409 599 L414 650 L628 650 L624 599 Z " />
<glyph glyph-name="uni0179" unicode="&#x179;" horiz-adv-x="562" d="M472 753 L275 707 L267 739 L458 808 L472 753 Z M473 0 L6 0 L8 37 L457 596 L457 599 L151 599 L107 458 L61 466 L107 650 L533 650 L538 615 L88 54 L87 51 L427 51 L471 194 L519 185 L473 0 Z " />
<glyph glyph-name="uni017D" unicode="&#x17d;" horiz-adv-x="562" d="M311 705 L199 789 L218 818 L324 755 L443 820 L458 792 L326 705 L311 705 Z M473 0 L6 0 L8 37 L457 596 L457 599 L151 599 L107 458 L61 466 L107 650 L533 650 L538 615 L88 54 L87 51 L427 51 L471 194 L519 185 L473 0 Z " />
<glyph glyph-name="uni017B" unicode="&#x17b;" horiz-adv-x="562" d="M296 722 L303 793 L369 793 L362 722 L296 722 Z M473 0 L6 0 L8 37 L457 596 L457 599 L151 599 L107 458 L61 466 L107 650 L533 650 L538 615 L88 54 L87 51 L427 51 L471 194 L519 185 L473 0 Z " />
<glyph glyph-name="uni018F" unicode="&#x18f;" horiz-adv-x="671" d="M128 435 L82 440 L102 566 Q148 607 219 633.5 Q290 660 363 660 Q496 660 564.5 575.5 Q633 491 633 361 Q633 265 595.5 180.5 Q558 96 484 43 Q410 -10 302 -10 Q174 -10 102.5 68 Q31 146 46 285 L52 340 L574 340 Q581 456 527.5 532 Q474 608 354 608 Q242 608 152 548 L128 435 Z M569 292 L107 292 L106 285 Q92 185 141.5 113.5 Q191 42 309 42 Q429 42 490.5 115.5 Q552 189 569 292 Z " />
<glyph glyph-name="uni00DE" unicode="&#xde;" horiz-adv-x="552" d="M18 51 L101 51 L158 599 L75 599 L81 650 L301 650 L296 599 L213 599 L205 528 L334 528 Q442 528 486.5 479 Q531 430 531 357 Q531 256 466.5 199.5 Q402 143 299 143 L165 143 L155 51 L239 51 L233 0 L13 0 L18 51 Z M298 185 Q379 185 425.5 230.5 Q472 276 472 354 Q472 485 327 485 L201 485 L169 185 L298 185 Z " />
<glyph glyph-name="uni00D0" unicode="&#xd0;" horiz-adv-x="690" d="M51 362 L135 362 L160 600 L77 600 L82 650 L363 650 Q505 650 579.5 568.5 Q654 487 654 360 Q654 207 557 103.5 Q460 0 297 0 L14 0 L20 50 L102 50 L130 316 L46 316 L51 362 Z M300 50 Q436 50 516 137 Q596 224 596 356 Q596 464 535 532 Q474 600 357 600 L214 600 L189 362 L322 362 L317 316 L184 316 L156 50 L300 50 Z " />
<glyph glyph-name="uni0132" unicode="&#x132;" horiz-adv-x="739" d="M482 650 L740 650 L735 599 L662 599 L616 161 Q608 76 562 33 Q516 -10 443 -10 Q384 -10 351.5 15 Q319 40 303 82 L347 114 Q379 44 444 44 Q499 44 527 76 Q555 108 561 161 L607 599 L477 599 L482 650 Z M18 51 L101 51 L158 599 L75 599 L81 650 L301 650 L296 599 L212 599 L155 51 L239 51 L233 0 L13 0 L18 51 Z " />
<glyph glyph-name="uni0152" unicode="&#x152;" horiz-adv-x="980" d="M882 0 L501 0 L505 40 Q468 17 424 3.5 Q380 -10 331 -10 Q200 -10 123 80.5 Q46 171 46 298 Q46 398 91.5 480.5 Q137 563 216.5 611.5 Q296 660 399 660 Q449 660 489.5 646 Q530 632 564 608 L569 650 L946 650 L946 468 L896 462 L891 599 L620 599 L593 356 L903 356 L898 305 L588 305 L561 51 L837 51 L871 188 L919 183 L882 0 Z M339 42 Q440 42 512 103 L558 547 Q495 608 395 608 Q262 608 183.5 517 Q105 426 105 301 Q105 195 165 118.5 Q225 42 339 42 Z " />
<glyph glyph-name="uni01C4" unicode="&#x1c4;" horiz-adv-x="1251" d="M1000 705 L888 789 L907 818 L1013 755 L1132 820 L1147 792 L1015 705 L1000 705 Z M13 0 L19 50 L101 50 L158 600 L76 600 L81 650 L362 650 Q504 650 578.5 568.5 Q653 487 653 360 Q653 207 556 103.5 Q459 0 296 0 L13 0 Z M1162 0 L695 0 L697 37 L1146 596 L1146 599 L840 599 L796 458 L750 466 L796 650 L1222 650 L1227 615 L777 54 L776 51 L1116 51 L1160 194 L1208 185 L1162 0 Z M299 50 Q436 50 515.5 137 Q595 224 595 356 Q595 464 534 532 Q473 600 356 600 L212 600 L155 50 L299 50 Z " />
<glyph glyph-name="uni01C5" unicode="&#x1c5;" horiz-adv-x="1137" d="M934 522 L832 637 L859 663 L948 577 L1056 666 L1077 639 L949 522 L934 522 Z M13 0 L19 50 L101 50 L158 600 L76 600 L81 650 L362 650 Q504 650 578.5 568.5 Q653 487 653 360 Q653 207 556 103.5 Q459 0 296 0 L13 0 Z M299 50 Q436 50 515.5 137 Q595 224 595 356 Q595 464 534 532 Q473 600 356 600 L212 600 L155 50 L299 50 Z M1057 0 L707 0 L699 36 L1028 397 L807 397 L786 303 L740 309 L766 444 L1085 444 L1098 408 L773 46 L1016 46 L1050 141 L1093 133 L1057 0 Z " />
<glyph glyph-name="uni01C7" unicode="&#x1c7;" horiz-adv-x="961" d="M464 0 L13 0 L18 51 L101 51 L159 599 L76 599 L81 650 L330 650 L325 599 L214 599 L156 51 L418 51 L454 206 L504 202 L464 0 Z M704 650 L962 650 L957 599 L884 599 L838 161 Q830 76 784 33 Q738 -10 665 -10 Q606 -10 573.5 15 Q541 40 525 82 L569 114 Q601 44 666 44 Q721 44 749 76 Q777 108 783 161 L829 599 L699 599 L704 650 Z " />
<glyph glyph-name="uni01CA" unicode="&#x1ca;" horiz-adv-x="1140" d="M25 51 L101 51 L158 599 L74 599 L79 650 L204 650 L521 117 L524 117 L574 599 L479 599 L484 650 L716 650 L711 599 L628 599 L566 0 L528 0 L208 539 L205 539 L153 51 L259 51 L254 0 L20 0 L25 51 Z M883 650 L1141 650 L1136 599 L1063 599 L1017 161 Q1009 76 963.5 33 Q918 -10 844 -10 Q786 -10 753 15 Q720 40 704 82 L748 114 Q780 44 845 44 Q900 44 928 76 Q956 108 962 161 L1008 599 L878 599 L883 650 Z " />
<glyph glyph-name="uni01F1" unicode="&#x1f1;" horiz-adv-x="1246" d="M362 650 Q504 650 578.5 568.5 Q653 487 653 360 Q653 207 556 103.5 Q459 0 296 0 L13 0 L19 50 L101 50 L158 600 L76 600 L81 650 L362 650 Z M1157 0 L690 0 L692 37 L1141 596 L1141 599 L835 599 L791 458 L745 466 L791 650 L1217 650 L1222 615 L772 54 L771 51 L1111 51 L1155 194 L1203 185 L1157 0 Z M299 50 Q436 50 515.5 137 Q595 224 595 356 Q595 464 534 532 Q473 600 356 600 L212 600 L155 50 L299 50 Z " />
<glyph glyph-name="uni01F2" unicode="&#x1f2;" horiz-adv-x="1136" d="M362 650 Q504 650 578.5 568.5 Q653 487 653 360 Q653 207 556 103.5 Q459 0 296 0 L13 0 L19 50 L101 50 L158 600 L76 600 L81 650 L362 650 Z M299 50 Q436 50 515.5 137 Q595 224 595 356 Q595 464 534 532 Q473 600 356 600 L212 600 L155 50 L299 50 Z M1057 0 L707 0 L699 36 L1028 397 L807 397 L786 303 L740 309 L766 444 L1085 444 L1098 408 L773 46 L1016 46 L1050 141 L1093 133 L1057 0 Z " />
<glyph glyph-name="uni01C8" unicode="&#x1c8;" horiz-adv-x="768" d="M464 0 L13 0 L18 51 L101 51 L159 599 L76 599 L81 650 L330 650 L325 599 L214 599 L156 51 L418 51 L454 206 L504 202 L464 0 Z M659 568 L667 647 L728 647 L720 568 L659 568 Z M549 426 L568 444 L710 444 L652 -27 Q629 -215 521 -223 Q485 -224 447 -208 L450 -166 Q502 -188 544 -161.5 Q586 -135 599 -27 L651 397 L545 397 L549 426 Z " />
<glyph glyph-name="uni01CB" unicode="&#x1cb;" horiz-adv-x="953" d="M25 51 L101 51 L158 599 L74 599 L79 650 L204 650 L521 117 L524 117 L574 599 L479 599 L484 650 L716 650 L711 599 L628 599 L566 0 L528 0 L208 539 L205 539 L153 51 L259 51 L254 0 L20 0 L25 51 Z M844 568 L852 647 L913 647 L905 568 L844 568 Z M734 426 L753 444 L895 444 L837 -27 Q814 -215 706 -223 Q670 -224 632 -208 L635 -166 Q687 -188 728.5 -161.5 Q770 -135 784 -27 L836 397 L730 397 L734 426 Z " />
<glyph glyph-name="uni00E1" unicode="&#xe1;" horiz-adv-x="500" d="M432 631 L256 523 L240 549 L403 678 L432 631 Z M447 444 Q438 410 430 377 Q422 344 418 311 L385 46 L454 46 L451 15 L432 0 L335 0 L338 90 Q316 50 280 20 Q244 -10 186 -10 Q113 -10 74.5 39.5 Q36 89 36 177 Q36 233 55 297.5 Q74 362 119 407.5 Q164 453 242 453 Q347 453 376 368 Q384 409 395 444 L447 444 Z M246 406 Q185 406 152 369.5 Q119 333 106 281.5 Q93 230 93 186 Q93 36 199 36 Q258 36 296 82 Q334 128 346 174 L361 285 Q361 336 329.5 371 Q298 406 246 406 Z " />
<glyph glyph-name="uni00E0" unicode="&#xe0;" horiz-adv-x="500" d="M306 523 L130 631 L159 678 L322 549 L306 523 Z M447 444 Q438 410 430 377 Q422 344 418 311 L385 46 L454 46 L451 15 L432 0 L335 0 L338 90 Q316 50 280 20 Q244 -10 186 -10 Q113 -10 74.5 39.5 Q36 89 36 177 Q36 233 55 297.5 Q74 362 119 407.5 Q164 453 242 453 Q347 453 376 368 Q384 409 395 444 L447 444 Z M246 406 Q185 406 152 369.5 Q119 333 106 281.5 Q93 230 93 186 Q93 36 199 36 Q258 36 296 82 Q334 128 346 174 L361 285 Q361 336 329.5 371 Q298 406 246 406 Z " />
<glyph glyph-name="uni00E2" unicode="&#xe2;" horiz-adv-x="500" d="M303 667 L405 549 L379 522 L288 612 L181 522 L160 549 L287 667 L303 667 Z M447 444 Q438 410 430 377 Q422 344 418 311 L385 46 L454 46 L451 15 L432 0 L335 0 L338 90 Q316 50 280 20 Q244 -10 186 -10 Q113 -10 74.5 39.5 Q36 89 36 177 Q36 233 55 297.5 Q74 362 119 407.5 Q164 453 242 453 Q347 453 376 368 Q384 409 395 444 L447 444 Z M246 406 Q185 406 152 369.5 Q119 333 106 281.5 Q93 230 93 186 Q93 36 199 36 Q258 36 296 82 Q334 128 346 174 L361 285 Q361 336 329.5 371 Q298 406 246 406 Z " />
<glyph glyph-name="uni00E4" unicode="&#xe4;" horiz-adv-x="500" d="M339 562 L346 633 L413 633 L406 562 L339 562 Z M175 562 L182 633 L248 633 L241 562 L175 562 Z M447 444 Q438 410 430 377 Q422 344 418 311 L385 46 L454 46 L451 15 L432 0 L335 0 L338 90 Q316 50 280 20 Q244 -10 186 -10 Q113 -10 74.5 39.5 Q36 89 36 177 Q36 233 55 297.5 Q74 362 119 407.5 Q164 453 242 453 Q347 453 376 368 Q384 409 395 444 L447 444 Z M246 406 Q185 406 152 369.5 Q119 333 106 281.5 Q93 230 93 186 Q93 36 199 36 Q258 36 296 82 Q334 128 346 174 L361 285 Q361 336 329.5 371 Q298 406 246 406 Z " />
<glyph glyph-name="uni00E3" unicode="&#xe3;" horiz-adv-x="500" d="M180 558 L152 569 Q160 594 183 621 Q206 648 240 648 Q272 648 294 629.5 Q316 611 354 611 Q368 611 380.5 618.5 Q393 626 403 654 L434 646 Q406 563 351 563 Q313 563 287.5 582 Q262 601 236 601 Q222 601 206 592 Q190 583 180 558 Z M447 444 Q438 410 430 377 Q422 344 418 311 L385 46 L454 46 L451 15 L432 0 L335 0 L338 90 Q316 50 280 20 Q244 -10 186 -10 Q113 -10 74.5 39.5 Q36 89 36 177 Q36 233 55 297.5 Q74 362 119 407.5 Q164 453 242 453 Q347 453 376 368 Q384 409 395 444 L447 444 Z M246 406 Q185 406 152 369.5 Q119 333 106 281.5 Q93 230 93 186 Q93 36 199 36 Q258 36 296 82 Q334 128 346 174 L361 285 Q361 336 329.5 371 Q298 406 246 406 Z " />
<glyph glyph-name="uni00E5" unicode="&#xe5;" horiz-adv-x="500" d="M284 514 Q242 514 220.5 537 Q199 560 199 595 Q199 641 228 669.5 Q257 698 306 698 Q346 698 369 675.5 Q392 653 392 617 Q392 576 364 545 Q336 514 284 514 Z M289 549 Q319 549 335.5 567.5 Q352 586 352 614 Q352 634 340.5 648.5 Q329 663 302 663 Q240 663 240 598 Q240 549 289 549 Z M447 444 Q438 410 430 377 Q422 344 418 311 L385 46 L454 46 L451 15 L432 0 L335 0 L338 90 Q316 50 280 20 Q244 -10 186 -10 Q113 -10 74.5 39.5 Q36 89 36 177 Q36 233 55 297.5 Q74 362 119 407.5 Q164 453 242 453 Q347 453 376 368 Q384 409 395 444 L447 444 Z M246 406 Q185 406 152 369.5 Q119 333 106 281.5 Q93 230 93 186 Q93 36 199 36 Q258 36 296 82 Q334 128 346 174 L361 285 Q361 336 329.5 371 Q298 406 246 406 Z " />
<glyph glyph-name="uni0103" unicode="&#x103;" horiz-adv-x="500" d="M360 655 L407 655 Q394 537 279 537 Q164 537 176 655 L223 655 Q218 612 234 594.5 Q250 577 284 577 Q353 577 360 655 Z M447 444 Q438 410 430 377 Q422 344 418 311 L385 46 L454 46 L451 15 L432 0 L335 0 L338 90 Q316 50 280 20 Q244 -10 186 -10 Q113 -10 74.5 39.5 Q36 89 36 177 Q36 233 55 297.5 Q74 362 119 407.5 Q164 453 242 453 Q347 453 376 368 Q384 409 395 444 L447 444 Z M246 406 Q185 406 152 369.5 Q119 333 106 281.5 Q93 230 93 186 Q93 36 199 36 Q258 36 296 82 Q334 128 346 174 L361 285 Q361 336 329.5 371 Q298 406 246 406 Z " />
<glyph glyph-name="uni0101" unicode="&#x101;" horiz-adv-x="500" d="M175 618 L408 618 L404 572 L170 572 L175 618 Z M447 444 Q438 410 430 377 Q422 344 418 311 L385 46 L454 46 L451 15 L432 0 L335 0 L338 90 Q316 50 280 20 Q244 -10 186 -10 Q113 -10 74.5 39.5 Q36 89 36 177 Q36 233 55 297.5 Q74 362 119 407.5 Q164 453 242 453 Q347 453 376 368 Q384 409 395 444 L447 444 Z M246 406 Q185 406 152 369.5 Q119 333 106 281.5 Q93 230 93 186 Q93 36 199 36 Q258 36 296 82 Q334 128 346 174 L361 285 Q361 336 329.5 371 Q298 406 246 406 Z " />
<glyph glyph-name="uni0105" unicode="&#x105;" horiz-adv-x="500" d="M444 -189 Q406 -209 367 -209 Q277 -209 277 -126 Q277 -86 301.5 -53 Q326 -20 361 0 L335 0 L338 90 Q316 50 280 20 Q244 -10 186 -10 Q113 -10 74.5 39.5 Q36 89 36 177 Q36 233 55 297.5 Q74 362 119 407.5 Q164 453 242 453 Q347 453 376 368 Q384 409 395 444 L447 444 Q438 410 430 377 Q422 344 418 311 L384 46 L454 46 L451 15 L432 0 L408 0 Q362 -26 344.5 -56 Q327 -86 327 -113 Q327 -165 383 -165 Q411 -165 440 -149 L444 -189 Z M246 406 Q185 406 152 369.5 Q119 333 106 281.5 Q93 230 93 186 Q93 36 199 36 Q258 36 296 82 Q334 128 346 174 L361 285 Q361 336 329.5 371 Q298 406 246 406 Z " />
<glyph glyph-name="uni00E6" unicode="&#xe6;" horiz-adv-x="703" d="M226 407 Q203 407 181.5 400.5 Q160 394 138 384 L113 304 L69 310 L94 409 Q124 432 163.5 442.5 Q203 453 243 453 Q341 453 365 375 Q425 453 523 453 Q579 453 620 424.5 Q661 396 661 342 Q661 296 625 261.5 Q589 227 504 209 Q471 202 434.5 196 Q398 190 360 185 Q360 116 386.5 76 Q413 36 476 36 Q571 36 607 130 L650 119 Q635 65 588.5 27.5 Q542 -10 468 -10 Q351 -10 317 91 Q294 53 252 21.5 Q210 -10 152 -10 Q108 -10 67 15 Q26 40 26 106 Q26 191 93 219 Q160 247 235 247 Q252 247 272 246 Q292 245 309 244 L314 294 Q319 346 300.5 376.5 Q282 407 226 407 Z M521 406 Q442 406 405.5 349 Q369 292 362 225 Q404 230 437 236 Q470 242 483 245 Q565 262 585 289.5 Q605 317 605 339 Q605 376 580.5 391 Q556 406 521 406 Z M163 35 Q217 35 254.5 70.5 Q292 106 305 151 Q304 158 304 166 Q304 174 304 181 Q304 188 304 195 Q304 202 305 209 Q286 211 265 212 Q244 213 228 213 Q170 213 127 193 Q84 173 84 113 Q84 67 108.5 51 Q133 35 163 35 Z " />
<glyph glyph-name="uni01FD" unicode="&#x1fd;" horiz-adv-x="703" d="M567 631 L391 523 L375 549 L538 678 L567 631 Z M226 407 Q203 407 181.5 400.5 Q160 394 138 384 L113 304 L69 310 L94 409 Q124 432 163.5 442.5 Q203 453 243 453 Q341 453 365 375 Q425 453 523 453 Q579 453 620 424.5 Q661 396 661 342 Q661 296 625 261.5 Q589 227 504 209 Q471 202 434.5 196 Q398 190 360 185 Q360 116 386.5 76 Q413 36 476 36 Q571 36 607 130 L650 119 Q635 65 588.5 27.5 Q542 -10 468 -10 Q351 -10 317 91 Q294 53 252 21.5 Q210 -10 152 -10 Q108 -10 67 15 Q26 40 26 106 Q26 191 93 219 Q160 247 235 247 Q252 247 272 246 Q292 245 309 244 L314 294 Q319 346 300.5 376.5 Q282 407 226 407 Z M521 406 Q442 406 405.5 349 Q369 292 362 225 Q404 230 437 236 Q470 242 483 245 Q565 262 585 289.5 Q605 317 605 339 Q605 376 580.5 391 Q556 406 521 406 Z M163 35 Q217 35 254.5 70.5 Q292 106 305 151 Q304 158 304 166 Q304 174 304 181 Q304 188 304 195 Q304 202 305 209 Q286 211 265 212 Q244 213 228 213 Q170 213 127 193 Q84 173 84 113 Q84 67 108.5 51 Q133 35 163 35 Z " />
<glyph glyph-name="uni01E3" unicode="&#x1e3;" horiz-adv-x="703" d="M281 618 L514 618 L510 572 L276 572 L281 618 Z M226 407 Q203 407 181.5 400.5 Q160 394 138 384 L113 304 L69 310 L94 409 Q124 432 163.5 442.5 Q203 453 243 453 Q341 453 365 375 Q425 453 523 453 Q579 453 620 424.5 Q661 396 661 342 Q661 296 625 261.5 Q589 227 504 209 Q471 202 434.5 196 Q398 190 360 185 Q360 116 386.5 76 Q413 36 476 36 Q571 36 607 130 L650 119 Q635 65 588.5 27.5 Q542 -10 468 -10 Q351 -10 317 91 Q294 53 252 21.5 Q210 -10 152 -10 Q108 -10 67 15 Q26 40 26 106 Q26 191 93 219 Q160 247 235 247 Q252 247 272 246 Q292 245 309 244 L314 294 Q319 346 300.5 376.5 Q282 407 226 407 Z M521 406 Q442 406 405.5 349 Q369 292 362 225 Q404 230 437 236 Q470 242 483 245 Q565 262 585 289.5 Q605 317 605 339 Q605 376 580.5 391 Q556 406 521 406 Z M163 35 Q217 35 254.5 70.5 Q292 106 305 151 Q304 158 304 166 Q304 174 304 181 Q304 188 304 195 Q304 202 305 209 Q286 211 265 212 Q244 213 228 213 Q170 213 127 193 Q84 173 84 113 Q84 67 108.5 51 Q133 35 163 35 Z " />
<glyph glyph-name="uni00E7" unicode="&#xe7;" horiz-adv-x="440" d="M252 406 Q192 406 157 372.5 Q122 339 107 288.5 Q92 238 92 187 Q92 117 118.5 76.5 Q145 36 205 36 Q304 36 342 156 L385 145 Q370 88 328 40.5 Q286 -7 208 -10 L204 -48 L212 -48 Q291 -48 291 -120 Q291 -165 258 -187 Q225 -209 181 -209 Q126 -209 96 -179 L115 -146 Q142 -169 184 -169 Q209 -169 226 -157.5 Q243 -146 243 -119 Q243 -93 226.5 -86 Q210 -79 186 -79 L159 -79 L166 -7 Q103 4 69 54 Q35 104 35 183 Q35 241 56 303.5 Q77 366 123.5 409.5 Q170 453 249 453 Q331 453 388 405 L394 306 L347 300 L338 375 Q303 406 252 406 Z " />
<glyph glyph-name="uni0107" unicode="&#x107;" horiz-adv-x="440" d="M409 631 L233 523 L217 549 L380 678 L409 631 Z M252 406 Q192 406 157 372.5 Q122 339 107 288.5 Q92 238 92 187 Q92 117 118.5 76.5 Q145 36 205 36 Q304 36 342 156 L385 145 Q370 87 326.5 38.5 Q283 -10 201 -10 Q122 -10 78.5 41.5 Q35 93 35 183 Q35 241 56 303.5 Q77 366 123.5 409.5 Q170 453 249 453 Q331 453 388 405 L394 306 L347 300 L338 375 Q303 406 252 406 Z " />
<glyph glyph-name="uni010D" unicode="&#x10d;" horiz-adv-x="440" d="M248 522 L146 637 L173 663 L262 577 L370 666 L391 639 L263 522 L248 522 Z M252 406 Q192 406 157 372.5 Q122 339 107 288.5 Q92 238 92 187 Q92 117 118.5 76.5 Q145 36 205 36 Q304 36 342 156 L385 145 Q370 87 326.5 38.5 Q283 -10 201 -10 Q122 -10 78.5 41.5 Q35 93 35 183 Q35 241 56 303.5 Q77 366 123.5 409.5 Q170 453 249 453 Q331 453 388 405 L394 306 L347 300 L338 375 Q303 406 252 406 Z " />
<glyph glyph-name="uni0109" unicode="&#x109;" horiz-adv-x="440" d="M288 667 L390 549 L364 522 L273 612 L166 522 L145 549 L272 667 L288 667 Z M252 406 Q192 406 157 372.5 Q122 339 107 288.5 Q92 238 92 187 Q92 117 118.5 76.5 Q145 36 205 36 Q304 36 342 156 L385 145 Q370 87 326.5 38.5 Q283 -10 201 -10 Q122 -10 78.5 41.5 Q35 93 35 183 Q35 241 56 303.5 Q77 366 123.5 409.5 Q170 453 249 453 Q331 453 388 405 L394 306 L347 300 L338 375 Q303 406 252 406 Z " />
<glyph glyph-name="uni010B" unicode="&#x10b;" horiz-adv-x="440" d="M234 559 L242 638 L302 638 L294 559 L234 559 Z M252 406 Q192 406 157 372.5 Q122 339 107 288.5 Q92 238 92 187 Q92 117 118.5 76.5 Q145 36 205 36 Q304 36 342 156 L385 145 Q370 87 326.5 38.5 Q283 -10 201 -10 Q122 -10 78.5 41.5 Q35 93 35 183 Q35 241 56 303.5 Q77 366 123.5 409.5 Q170 453 249 453 Q331 453 388 405 L394 306 L347 300 L338 375 Q303 406 252 406 Z " />
<glyph glyph-name="uni010F" unicode="&#x10f;" horiz-adv-x="517" d="M307 672 L326 688 L472 688 L392 46 L473 46 L470 15 L451 0 L342 0 L346 90 Q322 50 283.5 20 Q245 -10 186 -10 Q113 -10 74 40 Q35 90 35 175 Q35 232 55.5 297 Q76 362 122.5 407.5 Q169 453 247 453 Q347 453 379 376 L412 642 L304 642 L307 672 Z M606 681 L564 457 L519 457 L555 681 L606 681 Z M251 406 Q190 406 155.5 369.5 Q121 333 106.5 281.5 Q92 230 92 183 Q92 36 200 36 Q261 36 302.5 85 Q344 134 355 181 L369 290 Q367 340 334 373 Q301 406 251 406 Z " />
<glyph glyph-name="uni0111" unicode="&#x111;" horiz-adv-x="507" d="M307 672 L326 688 L472 688 L457 568 L518 568 L515 546 L495 529 L452 529 L392 46 L473 46 L470 15 L451 0 L342 0 L346 90 Q322 50 283.5 20 Q245 -10 186 -10 Q113 -10 74 40 Q35 90 35 175 Q35 232 55.5 297 Q76 362 122.5 407.5 Q169 453 247 453 Q347 453 379 376 L398 529 L226 529 L229 550 L249 568 L403 568 L412 642 L304 642 L307 672 Z M251 406 Q190 406 155.5 369.5 Q121 333 106.5 281.5 Q92 230 92 183 Q92 36 200 36 Q261 36 302.5 85 Q344 134 355 181 L369 290 Q367 340 334 373 Q301 406 251 406 Z " />
<glyph glyph-name="uni00E9" unicode="&#xe9;" horiz-adv-x="435" d="M401 631 L225 523 L209 549 L372 678 L401 631 Z M209 36 Q303 36 339 130 L382 119 Q367 65 320.5 27.5 Q274 -10 200 -10 Q119 -10 77 40 Q35 90 35 181 Q35 296 96 374.5 Q157 453 255 453 Q311 453 352 424 Q393 395 393 345 Q393 296 356 261.5 Q319 227 235 209 Q202 202 165.5 195 Q129 188 92 183 Q92 115 118.5 75.5 Q145 36 209 36 Z M215 245 Q295 264 315 289 Q335 314 335 340 Q335 406 251 406 Q173 406 137.5 349 Q102 292 94 225 Q134 230 163.5 235 Q193 240 215 245 Z " />
<glyph glyph-name="uni00E8" unicode="&#xe8;" horiz-adv-x="435" d="M298 523 L122 631 L151 678 L314 549 L298 523 Z M209 36 Q303 36 339 130 L382 119 Q367 65 320.5 27.5 Q274 -10 200 -10 Q119 -10 77 40 Q35 90 35 181 Q35 296 96 374.5 Q157 453 255 453 Q311 453 352 424 Q393 395 393 345 Q393 296 356 261.5 Q319 227 235 209 Q202 202 165.5 195 Q129 188 92 183 Q92 115 118.5 75.5 Q145 36 209 36 Z M215 245 Q295 264 315 289 Q335 314 335 340 Q335 406 251 406 Q173 406 137.5 349 Q102 292 94 225 Q134 230 163.5 235 Q193 240 215 245 Z " />
<glyph glyph-name="uni00EA" unicode="&#xea;" horiz-adv-x="435" d="M289 667 L391 549 L365 522 L274 612 L167 522 L146 549 L273 667 L289 667 Z M209 36 Q303 36 339 130 L382 119 Q367 65 320.5 27.5 Q274 -10 200 -10 Q119 -10 77 40 Q35 90 35 181 Q35 296 96 374.5 Q157 453 255 453 Q311 453 352 424 Q393 395 393 345 Q393 296 356 261.5 Q319 227 235 209 Q202 202 165.5 195 Q129 188 92 183 Q92 115 118.5 75.5 Q145 36 209 36 Z M215 245 Q295 264 315 289 Q335 314 335 340 Q335 406 251 406 Q173 406 137.5 349 Q102 292 94 225 Q134 230 163.5 235 Q193 240 215 245 Z " />
<glyph glyph-name="uni00EB" unicode="&#xeb;" horiz-adv-x="435" d="M312 562 L319 633 L386 633 L379 562 L312 562 Z M148 562 L155 633 L221 633 L214 562 L148 562 Z M209 36 Q303 36 339 130 L382 119 Q367 65 320.5 27.5 Q274 -10 200 -10 Q119 -10 77 40 Q35 90 35 181 Q35 296 96 374.5 Q157 453 255 453 Q311 453 352 424 Q393 395 393 345 Q393 296 356 261.5 Q319 227 235 209 Q202 202 165.5 195 Q129 188 92 183 Q92 115 118.5 75.5 Q145 36 209 36 Z M215 245 Q295 264 315 289 Q335 314 335 340 Q335 406 251 406 Q173 406 137.5 349 Q102 292 94 225 Q134 230 163.5 235 Q193 240 215 245 Z " />
<glyph glyph-name="uni0115" unicode="&#x115;" horiz-adv-x="435" d="M343 655 L390 655 Q377 537 262 537 Q147 537 159 655 L206 655 Q201 612 217 594.5 Q233 577 267 577 Q336 577 343 655 Z M209 36 Q303 36 339 130 L382 119 Q367 65 320.5 27.5 Q274 -10 200 -10 Q119 -10 77 40 Q35 90 35 181 Q35 296 96 374.5 Q157 453 255 453 Q311 453 352 424 Q393 395 393 345 Q393 296 356 261.5 Q319 227 235 209 Q202 202 165.5 195 Q129 188 92 183 Q92 115 118.5 75.5 Q145 36 209 36 Z M215 245 Q295 264 315 289 Q335 314 335 340 Q335 406 251 406 Q173 406 137.5 349 Q102 292 94 225 Q134 230 163.5 235 Q193 240 215 245 Z " />
<glyph glyph-name="uni011B" unicode="&#x11b;" horiz-adv-x="435" d="M250 522 L148 637 L175 663 L264 577 L372 666 L393 639 L265 522 L250 522 Z M209 36 Q303 36 339 130 L382 119 Q367 65 320.5 27.5 Q274 -10 200 -10 Q119 -10 77 40 Q35 90 35 181 Q35 296 96 374.5 Q157 453 255 453 Q311 453 352 424 Q393 395 393 345 Q393 296 356 261.5 Q319 227 235 209 Q202 202 165.5 195 Q129 188 92 183 Q92 115 118.5 75.5 Q145 36 209 36 Z M215 245 Q295 264 315 289 Q335 314 335 340 Q335 406 251 406 Q173 406 137.5 349 Q102 292 94 225 Q134 230 163.5 235 Q193 240 215 245 Z " />
<glyph glyph-name="uni0117" unicode="&#x117;" horiz-adv-x="435" d="M229 559 L237 638 L297 638 L289 559 L229 559 Z M209 36 Q303 36 339 130 L382 119 Q367 65 320.5 27.5 Q274 -10 200 -10 Q119 -10 77 40 Q35 90 35 181 Q35 296 96 374.5 Q157 453 255 453 Q311 453 352 424 Q393 395 393 345 Q393 296 356 261.5 Q319 227 235 209 Q202 202 165.5 195 Q129 188 92 183 Q92 115 118.5 75.5 Q145 36 209 36 Z M215 245 Q295 264 315 289 Q335 314 335 340 Q335 406 251 406 Q173 406 137.5 349 Q102 292 94 225 Q134 230 163.5 235 Q193 240 215 245 Z " />
<glyph glyph-name="uni0113" unicode="&#x113;" horiz-adv-x="435" d="M152 618 L385 618 L381 572 L147 572 L152 618 Z M209 36 Q303 36 339 130 L382 119 Q367 65 320.5 27.5 Q274 -10 200 -10 Q119 -10 77 40 Q35 90 35 181 Q35 296 96 374.5 Q157 453 255 453 Q311 453 352 424 Q393 395 393 345 Q393 296 356 261.5 Q319 227 235 209 Q202 202 165.5 195 Q129 188 92 183 Q92 115 118.5 75.5 Q145 36 209 36 Z M215 245 Q295 264 315 289 Q335 314 335 340 Q335 406 251 406 Q173 406 137.5 349 Q102 292 94 225 Q134 230 163.5 235 Q193 240 215 245 Z " />
<glyph glyph-name="uni1EBD" unicode="&#x1ebd;" horiz-adv-x="435" d="M147 558 L119 569 Q126 594 149.5 621 Q173 648 207 648 Q239 648 261 629.5 Q283 611 321 611 Q334 611 347 618.5 Q360 626 370 654 L401 646 Q373 563 318 563 Q280 563 254.5 582 Q229 601 203 601 Q190 601 174 592 Q158 583 147 558 Z M209 36 Q303 36 339 130 L382 119 Q367 65 320.5 27.5 Q274 -10 200 -10 Q119 -10 77 40 Q35 90 35 181 Q35 296 96 374.5 Q157 453 255 453 Q311 453 352 424 Q393 395 393 345 Q393 296 356 261.5 Q319 227 235 209 Q202 202 165.5 195 Q129 188 92 183 Q92 115 118.5 75.5 Q145 36 209 36 Z M215 245 Q295 264 315 289 Q335 314 335 340 Q335 406 251 406 Q173 406 137.5 349 Q102 292 94 225 Q134 230 163.5 235 Q193 240 215 245 Z " />
<glyph glyph-name="uni0119" unicode="&#x119;" horiz-adv-x="435" d="M298 -189 Q260 -209 221 -209 Q131 -209 131 -126 Q131 -91 150.5 -60.5 Q170 -30 199 -10 Q119 -10 77 40 Q35 90 35 181 Q35 296 96 374.5 Q157 453 255 453 Q311 453 352 424 Q393 395 393 345 Q393 296 356 261.5 Q319 227 235 209 Q202 202 165.5 195 Q129 188 92 183 Q92 115 118.5 75.5 Q145 36 209 36 Q303 36 339 130 L382 119 Q370 76 338 43 Q306 10 256 -3 Q213 -28 197 -57.5 Q181 -87 181 -113 Q181 -165 237 -165 Q265 -165 294 -149 L298 -189 Z M215 245 Q295 264 315 289 Q335 314 335 340 Q335 406 251 406 Q173 406 137.5 349 Q102 292 94 225 Q134 230 163.5 235 Q193 240 215 245 Z " />
<glyph glyph-name="uni011F" unicode="&#x11f;" horiz-adv-x="510" d="M369 655 L416 655 Q403 537 288 537 Q173 537 185 655 L232 655 Q227 612 243 594.5 Q259 577 293 577 Q362 577 369 655 Z M396 444 L514 444 L511 413 L492 397 L435 397 L387 2 Q374 -99 324 -161 Q274 -223 179 -223 Q111 -223 63.5 -189 Q16 -155 9 -92 L51 -73 Q59 -128 98.5 -151 Q138 -174 183 -174 Q313 -174 334 5 L344 87 Q320 48 282 19 Q244 -10 186 -10 Q113 -10 74 39.5 Q35 89 35 174 Q35 232 55.5 297 Q76 362 122.5 407.5 Q169 453 247 453 Q350 453 381 372 L396 444 Z M249 406 Q190 406 155.5 370 Q121 334 106.5 282 Q92 230 92 182 Q92 36 197 36 Q261 36 302.5 85.5 Q344 135 355 182 L368 284 Q368 334 336.5 370 Q305 406 249 406 Z " />
<glyph glyph-name="uni011D" unicode="&#x11d;" horiz-adv-x="510" d="M305 667 L407 549 L381 522 L290 612 L183 522 L162 549 L289 667 L305 667 Z M396 444 L514 444 L511 413 L492 397 L435 397 L387 2 Q374 -99 324 -161 Q274 -223 179 -223 Q111 -223 63.5 -189 Q16 -155 9 -92 L51 -73 Q59 -128 98.5 -151 Q138 -174 183 -174 Q313 -174 334 5 L344 87 Q320 48 282 19 Q244 -10 186 -10 Q113 -10 74 39.5 Q35 89 35 174 Q35 232 55.5 297 Q76 362 122.5 407.5 Q169 453 247 453 Q350 453 381 372 L396 444 Z M249 406 Q190 406 155.5 370 Q121 334 106.5 282 Q92 230 92 182 Q92 36 197 36 Q261 36 302.5 85.5 Q344 135 355 182 L368 284 Q368 334 336.5 370 Q305 406 249 406 Z " />
<glyph glyph-name="uni0123" unicode="&#x123;" horiz-adv-x="510" d="M258 546 L290 699 L335 699 L310 546 L258 546 Z M396 444 L514 444 L511 413 L492 397 L435 397 L387 2 Q374 -99 324 -161 Q274 -223 179 -223 Q111 -223 63.5 -189 Q16 -155 9 -92 L51 -73 Q59 -128 98.5 -151 Q138 -174 183 -174 Q313 -174 334 5 L344 87 Q320 48 282 19 Q244 -10 186 -10 Q113 -10 74 39.5 Q35 89 35 174 Q35 232 55.5 297 Q76 362 122.5 407.5 Q169 453 247 453 Q350 453 381 372 L396 444 Z M249 406 Q190 406 155.5 370 Q121 334 106.5 282 Q92 230 92 182 Q92 36 197 36 Q261 36 302.5 85.5 Q344 135 355 182 L368 284 Q368 334 336.5 370 Q305 406 249 406 Z " />
<glyph glyph-name="uni0121" unicode="&#x121;" horiz-adv-x="510" d="M251 559 L259 638 L319 638 L311 559 L251 559 Z M396 444 L514 444 L511 413 L492 397 L435 397 L387 2 Q374 -99 324 -161 Q274 -223 179 -223 Q111 -223 63.5 -189 Q16 -155 9 -92 L51 -73 Q59 -128 98.5 -151 Q138 -174 183 -174 Q313 -174 334 5 L344 87 Q320 48 282 19 Q244 -10 186 -10 Q113 -10 74 39.5 Q35 89 35 174 Q35 232 55.5 297 Q76 362 122.5 407.5 Q169 453 247 453 Q350 453 381 372 L396 444 Z M249 406 Q190 406 155.5 370 Q121 334 106.5 282 Q92 230 92 182 Q92 36 197 36 Q261 36 302.5 85.5 Q344 135 355 182 L368 284 Q368 334 336.5 370 Q305 406 249 406 Z " />
<glyph glyph-name="uni0127" unicode="&#x127;" horiz-adv-x="501" d="M47 671 L66 688 L182 688 L167 568 L301 568 L298 546 L278 529 L162 529 L142 361 Q166 403 203 428 Q240 453 292 453 Q356 453 392.5 412 Q429 371 418 280 L389 46 L469 46 L465 15 L446 0 L331 0 L364 267 Q373 343 346.5 374.5 Q320 406 272 406 Q216 406 179.5 368 Q143 330 132 283 L98 0 L45 0 L109 529 L9 529 L12 550 L32 568 L114 568 L123 642 L43 642 L47 671 Z " />
<glyph glyph-name="uni0125" unicode="&#x125;" horiz-adv-x="501" d="M162 863 L264 745 L238 718 L147 808 L40 718 L19 745 L146 863 L162 863 Z M45 0 L123 642 L43 642 L47 671 L66 688 L182 688 L142 361 Q166 403 203 428 Q240 453 292 453 Q356 453 392.5 412 Q429 371 418 280 L389 46 L469 46 L465 15 L446 0 L331 0 L364 267 Q373 343 346.5 374.5 Q320 406 272 406 Q214 406 177.5 365.5 Q141 325 131 276 L98 0 L45 0 Z " />
<glyph glyph-name="uni00ED" unicode="&#xed;" horiz-adv-x="250" d="M289 631 L113 523 L97 549 L260 678 L289 631 Z M37 426 L56 444 L173 444 L124 46 L204 46 L200 15 L181 0 L66 0 L114 397 L33 397 L37 426 Z " />
<glyph glyph-name="uni00EC" unicode="&#xec;" horiz-adv-x="251" d="M195 523 L19 631 L48 678 L211 549 L195 523 Z M37 426 L56 444 L173 444 L124 46 L204 46 L200 15 L181 0 L66 0 L114 397 L33 397 L37 426 Z " />
<glyph glyph-name="uni00EE" unicode="&#xee;" horiz-adv-x="251" d="M171 667 L273 549 L247 522 L156 612 L49 522 L28 549 L155 667 L171 667 Z M37 426 L56 444 L173 444 L124 46 L204 46 L200 15 L181 0 L66 0 L114 397 L33 397 L37 426 Z " />
<glyph glyph-name="uni00EF" unicode="&#xef;" horiz-adv-x="250" d="M206 562 L213 633 L280 633 L273 562 L206 562 Z M42 562 L49 633 L115 633 L108 562 L42 562 Z M37 426 L56 444 L173 444 L124 46 L204 46 L200 15 L181 0 L66 0 L114 397 L33 397 L37 426 Z " />
<glyph glyph-name="uni012D" unicode="&#x12d;" horiz-adv-x="251" d="M237 655 L284 655 Q271 537 156 537 Q41 537 53 655 L100 655 Q95 612 111 594.5 Q127 577 161 577 Q230 577 237 655 Z M37 426 L56 444 L173 444 L124 46 L204 46 L200 15 L181 0 L66 0 L114 397 L33 397 L37 426 Z " />
<glyph glyph-name="uni0131" unicode="&#x131;" horiz-adv-x="250" d="M37 426 L56 444 L173 444 L124 46 L204 46 L200 15 L181 0 L66 0 L114 397 L33 397 L37 426 Z " />
<glyph glyph-name="uni012B" unicode="&#x12b;" horiz-adv-x="251" d="M33 618 L266 618 L262 572 L28 572 L33 618 Z M37 426 L56 444 L173 444 L124 46 L204 46 L200 15 L181 0 L66 0 L114 397 L33 397 L37 426 Z " />
<glyph glyph-name="uni012F" unicode="&#x12f;" horiz-adv-x="251" d="M129 568 L137 647 L198 647 L190 568 L129 568 Z M192 -189 Q154 -209 115 -209 Q25 -209 25 -126 Q25 -86 49.5 -53 Q74 -20 109 0 L66 0 L114 397 L33 397 L37 426 L56 444 L173 444 L124 46 L204 46 L200 15 L181 0 L156 0 Q110 -26 92.5 -56 Q75 -86 75 -113 Q75 -165 131 -165 Q159 -165 188 -149 L192 -189 Z " />
<glyph glyph-name="uni0129" unicode="&#x129;" horiz-adv-x="250" d="M35 558 L7 569 Q14 594 37.5 621 Q61 648 95 648 Q127 648 149 629.5 Q171 611 209 611 Q222 611 235 618.5 Q248 626 258 654 L289 646 Q261 563 206 563 Q168 563 142.5 582 Q117 601 91 601 Q78 601 62 592 Q46 583 35 558 Z M37 426 L56 444 L173 444 L124 46 L204 46 L200 15 L181 0 L66 0 L114 397 L33 397 L37 426 Z " />
<glyph glyph-name="uni0135" unicode="&#x135;" horiz-adv-x="243" d="M161 667 L263 549 L237 522 L146 612 L39 522 L18 549 L145 667 L161 667 Z M25 426 L43 444 L185 444 L128 -27 Q116 -124 80.5 -172.5 Q45 -221 -7 -223 Q-41 -224 -77 -208 L-74 -166 Q-23 -188 19.5 -161.5 Q62 -135 75 -27 L127 397 L21 397 L25 426 Z " />
<glyph glyph-name="uni0237" unicode="&#x237;" horiz-adv-x="243" d="M25 426 L43 444 L185 444 L128 -27 Q116 -124 80.5 -172.5 Q45 -221 -7 -223 Q-41 -224 -77 -208 L-74 -166 Q-23 -188 19.5 -161.5 Q62 -135 75 -27 L127 397 L21 397 L25 426 Z " />
<glyph glyph-name="uni0137" unicode="&#x137;" horiz-adv-x="440" d="M47 671 L66 688 L182 688 L129 254 L216 254 Q265 293 295 340.5 Q325 388 329 444 L387 444 Q381 381 344 328 Q307 275 249 235 L352 46 L413 46 L409 15 L390 0 L319 0 L207 210 L123 210 L98 0 L45 0 L123 642 L43 642 L47 671 Z M224 -66 L192 -219 L147 -219 L172 -66 L224 -66 Z " />
<glyph glyph-name="uni013A" unicode="&#x13a;" horiz-adv-x="234" d="M276 760 L79 714 L71 746 L262 815 L276 760 Z M53 671 L71 688 L189 688 L110 46 L189 46 L185 15 L167 0 L52 0 L130 642 L49 642 L53 671 Z " />
<glyph glyph-name="uni013E" unicode="&#x13e;" horiz-adv-x="246" d="M53 671 L71 688 L189 688 L110 46 L189 46 L185 15 L167 0 L52 0 L130 642 L49 642 L53 671 Z M327 681 L285 457 L240 457 L276 681 L327 681 Z " />
<glyph glyph-name="uni013C" unicode="&#x13c;" horiz-adv-x="234" d="M53 671 L71 688 L189 688 L110 46 L189 46 L185 15 L167 0 L52 0 L130 642 L49 642 L53 671 Z M132 -66 L100 -219 L55 -219 L80 -66 L132 -66 Z " />
<glyph glyph-name="uni0140" unicode="&#x140;" horiz-adv-x="262" d="M53 671 L71 688 L189 688 L110 46 L189 46 L185 15 L167 0 L52 0 L130 642 L49 642 L53 671 Z M216 299 L224 378 L284 378 L276 299 L216 299 Z " />
<glyph glyph-name="uni0142" unicode="&#x142;" horiz-adv-x="255" d="M26 310 L111 349 L147 642 L66 642 L70 671 L88 688 L206 688 L167 374 L253 413 L248 365 L161 326 L127 46 L206 46 L202 15 L184 0 L69 0 L105 300 L21 262 L26 310 Z " />
<glyph glyph-name="uni00F1" unicode="&#xf1;" horiz-adv-x="518" d="M175 558 L147 569 Q154 594 177.5 621 Q201 648 235 648 Q267 648 289 629.5 Q311 611 349 611 Q362 611 375 618.5 Q388 626 398 654 L429 646 Q401 563 346 563 Q308 563 282.5 582 Q257 601 231 601 Q218 601 202 592 Q186 583 175 558 Z M53 444 L161 444 L157 357 Q182 400 219.5 426.5 Q257 453 310 453 Q374 453 410.5 412 Q447 371 436 280 L407 46 L487 46 L483 15 L464 0 L350 0 L382 267 Q391 343 366 374.5 Q341 406 290 406 Q231 406 194 363 Q157 320 149 270 L148 262 L116 0 L64 0 L112 397 L30 397 L34 426 L53 444 Z " />
<glyph glyph-name="uni0144" unicode="&#x144;" horiz-adv-x="518" d="M436 631 L260 523 L244 549 L407 678 L436 631 Z M53 444 L161 444 L157 357 Q182 400 219.5 426.5 Q257 453 310 453 Q374 453 410.5 412 Q447 371 436 280 L407 46 L487 46 L483 15 L464 0 L350 0 L382 267 Q391 343 366 374.5 Q341 406 290 406 Q231 406 194 363 Q157 320 149 270 L148 262 L116 0 L64 0 L112 397 L30 397 L34 426 L53 444 Z " />
<glyph glyph-name="uni0149" unicode="&#x149;" horiz-adv-x="518" d="M45 509 L110 703 L159 703 L93 509 L45 509 Z M53 444 L161 444 L157 357 Q182 400 219.5 426.5 Q257 453 310 453 Q374 453 410.5 412 Q447 371 436 280 L407 46 L487 46 L483 15 L464 0 L350 0 L382 267 Q391 343 366 374.5 Q341 406 290 406 Q231 406 194 363 Q157 320 149 270 L148 262 L116 0 L64 0 L112 397 L30 397 L34 426 L53 444 Z " />
<glyph glyph-name="uni0148" unicode="&#x148;" horiz-adv-x="518" d="M280 522 L178 637 L205 663 L294 577 L402 666 L423 639 L295 522 L280 522 Z M53 444 L161 444 L157 357 Q182 400 219.5 426.5 Q257 453 310 453 Q374 453 410.5 412 Q447 371 436 280 L407 46 L487 46 L483 15 L464 0 L350 0 L382 267 Q391 343 366 374.5 Q341 406 290 406 Q231 406 194 363 Q157 320 149 270 L148 262 L116 0 L64 0 L112 397 L30 397 L34 426 L53 444 Z " />
<glyph glyph-name="uni0146" unicode="&#x146;" horiz-adv-x="518" d="M53 444 L161 444 L157 357 Q182 400 219.5 426.5 Q257 453 310 453 Q374 453 410.5 412 Q447 371 436 280 L407 46 L487 46 L483 15 L464 0 L350 0 L382 267 Q391 343 366 374.5 Q341 406 290 406 Q231 406 194 363 Q157 320 149 270 L148 262 L116 0 L64 0 L112 397 L30 397 L34 426 L53 444 Z M259 -66 L227 -219 L182 -219 L207 -66 L259 -66 Z " />
<glyph glyph-name="uni1E47" unicode="&#x1e47;" horiz-adv-x="518" d="M53 444 L161 444 L157 357 Q182 400 219.5 426.5 Q257 453 310 453 Q374 453 410.5 412 Q447 371 436 280 L407 46 L487 46 L483 15 L464 0 L350 0 L382 267 Q391 343 366 374.5 Q341 406 290 406 Q231 406 194 363 Q157 320 149 270 L148 262 L116 0 L64 0 L112 397 L30 397 L34 426 L53 444 Z M189 -168 L197 -89 L258 -89 L250 -168 L189 -168 Z " />
<glyph glyph-name="uni014B" unicode="&#x14b;" horiz-adv-x="506" d="M399 -32 Q386 -131 350 -176.5 Q314 -222 261 -223 Q229 -223 194 -208 L197 -166 Q248 -188 290 -164 Q332 -140 345 -32 L382 267 Q391 343 366 374.5 Q341 406 290 406 Q230 406 193 362 Q156 318 149 268 L148 262 L116 0 L64 0 L112 397 L30 397 L34 426 L53 444 L161 444 L157 357 Q182 400 219.5 426.5 Q257 453 310 453 Q374 453 410.5 412 Q447 371 436 280 L399 -32 Z " />
<glyph glyph-name="uni00F3" unicode="&#xf3;" horiz-adv-x="480" d="M415 631 L239 523 L223 549 L386 678 L415 631 Z M36 188 Q36 294 93 373.5 Q150 453 260 453 Q354 453 393 393.5 Q432 334 432 252 Q432 143 373.5 66.5 Q315 -10 208 -10 Q117 -10 76.5 46 Q36 102 36 188 Z M93 190 Q93 122 119 79 Q145 36 213 36 Q297 36 335.5 100 Q374 164 374 251 Q374 318 348.5 362 Q323 406 254 406 Q174 406 133.5 344 Q93 282 93 190 Z " />
<glyph glyph-name="uni00F2" unicode="&#xf2;" horiz-adv-x="480" d="M311 523 L135 631 L164 678 L327 549 L311 523 Z M36 188 Q36 294 93 373.5 Q150 453 260 453 Q354 453 393 393.5 Q432 334 432 252 Q432 143 373.5 66.5 Q315 -10 208 -10 Q117 -10 76.5 46 Q36 102 36 188 Z M93 190 Q93 122 119 79 Q145 36 213 36 Q297 36 335.5 100 Q374 164 374 251 Q374 318 348.5 362 Q323 406 254 406 Q174 406 133.5 344 Q93 282 93 190 Z " />
<glyph glyph-name="uni00F4" unicode="&#xf4;" horiz-adv-x="480" d="M297 667 L399 549 L373 522 L282 612 L175 522 L154 549 L281 667 L297 667 Z M36 188 Q36 294 93 373.5 Q150 453 260 453 Q354 453 393 393.5 Q432 334 432 252 Q432 143 373.5 66.5 Q315 -10 208 -10 Q117 -10 76.5 46 Q36 102 36 188 Z M93 190 Q93 122 119 79 Q145 36 213 36 Q297 36 335.5 100 Q374 164 374 251 Q374 318 348.5 362 Q323 406 254 406 Q174 406 133.5 344 Q93 282 93 190 Z " />
<glyph glyph-name="uni00F6" unicode="&#xf6;" horiz-adv-x="480" d="M166 562 L173 633 L239 633 L232 562 L166 562 Z M330 562 L337 633 L404 633 L397 562 L330 562 Z M36 188 Q36 294 93 373.5 Q150 453 260 453 Q354 453 393 393.5 Q432 334 432 252 Q432 143 373.5 66.5 Q315 -10 208 -10 Q117 -10 76.5 46 Q36 102 36 188 Z M93 190 Q93 122 119 79 Q145 36 213 36 Q297 36 335.5 100 Q374 164 374 251 Q374 318 348.5 362 Q323 406 254 406 Q174 406 133.5 344 Q93 282 93 190 Z " />
<glyph glyph-name="uni00F5" unicode="&#xf5;" horiz-adv-x="480" d="M170 558 L142 569 Q150 594 173 621 Q196 648 230 648 Q262 648 284 629.5 Q306 611 344 611 Q358 611 370.5 618.5 Q383 626 393 654 L424 646 Q396 563 341 563 Q303 563 277.5 582 Q252 601 226 601 Q212 601 196 592 Q180 583 170 558 Z M36 188 Q36 294 93 373.5 Q150 453 260 453 Q354 453 393 393.5 Q432 334 432 252 Q432 143 373.5 66.5 Q315 -10 208 -10 Q117 -10 76.5 46 Q36 102 36 188 Z M93 190 Q93 122 119 79 Q145 36 213 36 Q297 36 335.5 100 Q374 164 374 251 Q374 318 348.5 362 Q323 406 254 406 Q174 406 133.5 344 Q93 282 93 190 Z " />
<glyph glyph-name="uni014F" unicode="&#x14f;" horiz-adv-x="480" d="M355 655 L402 655 Q389 537 274 537 Q159 537 171 655 L218 655 Q213 612 229 594.5 Q245 577 279 577 Q348 577 355 655 Z M36 188 Q36 294 93 373.5 Q150 453 260 453 Q354 453 393 393.5 Q432 334 432 252 Q432 143 373.5 66.5 Q315 -10 208 -10 Q117 -10 76.5 46 Q36 102 36 188 Z M93 190 Q93 122 119 79 Q145 36 213 36 Q297 36 335.5 100 Q374 164 374 251 Q374 318 348.5 362 Q323 406 254 406 Q174 406 133.5 344 Q93 282 93 190 Z " />
<glyph glyph-name="uni0151" unicode="&#x151;" horiz-adv-x="479" d="M342 682 L208 522 L184 541 L299 714 L342 682 Z M487 631 L312 523 L297 550 L460 678 L487 631 Z M36 188 Q36 294 93 373.5 Q150 453 260 453 Q354 453 393 393.5 Q432 334 432 252 Q432 143 373.5 66.5 Q315 -10 208 -10 Q117 -10 76.5 46 Q36 102 36 188 Z M93 190 Q93 122 119 79 Q145 36 213 36 Q297 36 335.5 100 Q374 164 374 251 Q374 318 348.5 362 Q323 406 254 406 Q174 406 133.5 344 Q93 282 93 190 Z " />
<glyph glyph-name="uni014D" unicode="&#x14d;" horiz-adv-x="480" d="M171 618 L404 618 L400 572 L166 572 L171 618 Z M36 188 Q36 294 93 373.5 Q150 453 260 453 Q354 453 393 393.5 Q432 334 432 252 Q432 143 373.5 66.5 Q315 -10 208 -10 Q117 -10 76.5 46 Q36 102 36 188 Z M93 190 Q93 122 119 79 Q145 36 213 36 Q297 36 335.5 100 Q374 164 374 251 Q374 318 348.5 362 Q323 406 254 406 Q174 406 133.5 344 Q93 282 93 190 Z " />
<glyph glyph-name="uni00F8" unicode="&#xf8;" horiz-adv-x="477" d="M35 188 Q35 294 92 373.5 Q149 453 259 453 Q321 453 362 423 L379 444 L431 444 L392 394 Q431 341 431 252 Q431 143 372.5 66.5 Q314 -10 207 -10 Q143 -10 101 21 L85 0 L33 0 L72 50 Q35 102 35 188 Z M92 190 Q92 134 108 96 L330 381 Q302 406 253 406 Q174 406 133 344 Q92 282 92 190 Z M212 36 Q296 36 334.5 100 Q373 164 373 251 Q373 311 355 347 L133 62 Q161 36 212 36 Z " />
<glyph glyph-name="uni01FF" unicode="&#x1ff;" horiz-adv-x="477" d="M433 631 L257 523 L241 549 L404 678 L433 631 Z M35 188 Q35 294 92 373.5 Q149 453 259 453 Q321 453 362 423 L379 444 L431 444 L392 394 Q431 341 431 252 Q431 143 372.5 66.5 Q314 -10 207 -10 Q143 -10 101 21 L85 0 L33 0 L72 50 Q35 102 35 188 Z M92 190 Q92 134 108 96 L330 381 Q302 406 253 406 Q174 406 133 344 Q92 282 92 190 Z M212 36 Q296 36 334.5 100 Q373 164 373 251 Q373 311 355 347 L133 62 Q161 36 212 36 Z " />
<glyph glyph-name="uni0155" unicode="&#x155;" horiz-adv-x="339" d="M390 631 L214 523 L198 549 L361 678 L390 631 Z M222 16 L203 0 L1 0 L5 29 L23 46 L78 46 L121 397 L41 397 L45 426 L63 444 L169 444 L166 350 Q185 393 214.5 423.5 Q244 454 285 454 Q314 454 341 437 L330 382 Q303 397 276 397 Q233 397 202.5 355.5 Q172 314 160 264 L160 263 L132 46 L226 46 L222 16 Z " />
<glyph glyph-name="uni0159" unicode="&#x159;" horiz-adv-x="339" d="M224 522 L122 637 L149 663 L238 577 L346 666 L367 639 L239 522 L224 522 Z M132 46 L226 46 L222 16 L203 0 L1 0 L5 29 L23 46 L78 46 L121 397 L41 397 L45 426 L63 444 L169 444 L166 350 Q185 393 214.5 423.5 Q244 454 285 454 Q314 454 341 437 L330 382 Q303 397 276 397 Q233 397 202.5 355.5 Q172 314 160 264 L160 263 L132 46 Z " />
<glyph glyph-name="uni0157" unicode="&#x157;" horiz-adv-x="339" d="M222 16 L203 0 L1 0 L5 29 L23 46 L78 46 L121 397 L41 397 L45 426 L63 444 L169 444 L166 350 Q185 393 214.5 423.5 Q244 454 285 454 Q314 454 341 437 L330 382 Q303 397 276 397 Q233 397 202.5 354.5 Q172 312 160 263 L132 46 L226 46 L222 16 Z M117 -66 L85 -219 L40 -219 L65 -66 L117 -66 Z " />
<glyph glyph-name="uni015B" unicode="&#x15b;" horiz-adv-x="412" d="M384 631 L208 523 L192 549 L355 678 L384 631 Z M177 36 Q294 36 294 122 Q294 166 263 182 Q232 198 176 212 Q132 223 95.5 244.5 Q59 266 59 323 Q59 384 103.5 418.5 Q148 453 209 453 Q256 453 295 440 Q334 427 357 412 L356 310 L312 304 L308 379 Q288 390 267 398 Q246 406 216 406 Q115 406 115 329 Q115 297 137.5 281.5 Q160 266 210 253 Q256 241 303 218.5 Q350 196 350 128 Q350 66 305.5 28 Q261 -10 187 -10 Q140 -10 94 3.5 Q48 17 25 34 L47 128 L91 124 L80 59 Q120 36 177 36 Z " />
<glyph glyph-name="uni015F" unicode="&#x15f;" horiz-adv-x="412" d="M177 36 Q294 36 294 122 Q294 166 263 182 Q232 198 176 212 Q132 223 95.5 244.5 Q59 266 59 323 Q59 384 103.5 418.5 Q148 453 209 453 Q256 453 295 440 Q334 427 357 412 L356 310 L312 304 L308 379 Q288 390 267 398 Q246 406 216 406 Q115 406 115 329 Q115 297 137.5 281.5 Q160 266 210 253 Q256 241 303 218.5 Q350 196 350 128 Q350 67 308 29.5 Q266 -8 195 -10 L191 -48 L199 -48 Q278 -48 278 -120 Q278 -165 245 -187 Q212 -209 168 -209 Q113 -209 83 -179 L102 -146 Q129 -169 171 -169 Q196 -169 213 -157.5 Q230 -146 230 -119 Q230 -93 213.5 -86 Q197 -79 173 -79 L146 -79 L153 -8 Q65 2 25 34 L47 128 L91 124 L80 59 Q120 36 177 36 Z " />
<glyph glyph-name="uni0161" unicode="&#x161;" horiz-adv-x="412" d="M217 522 L115 637 L142 663 L231 577 L339 666 L360 639 L232 522 L217 522 Z M177 36 Q294 36 294 122 Q294 166 263 182 Q232 198 176 212 Q132 223 95.5 244.5 Q59 266 59 323 Q59 384 103.5 418.5 Q148 453 209 453 Q256 453 295 440 Q334 427 357 412 L356 310 L312 304 L308 379 Q288 390 267 398 Q246 406 216 406 Q115 406 115 329 Q115 297 137.5 281.5 Q160 266 210 253 Q256 241 303 218.5 Q350 196 350 128 Q350 66 305.5 28 Q261 -10 187 -10 Q140 -10 94 3.5 Q48 17 25 34 L47 128 L91 124 L80 59 Q120 36 177 36 Z " />
<glyph glyph-name="uni015D" unicode="&#x15d;" horiz-adv-x="412" d="M250 667 L352 549 L326 522 L235 612 L128 522 L107 549 L234 667 L250 667 Z M177 36 Q294 36 294 122 Q294 166 263 182 Q232 198 176 212 Q132 223 95.5 244.5 Q59 266 59 323 Q59 384 103.5 418.5 Q148 453 209 453 Q256 453 295 440 Q334 427 357 412 L356 310 L312 304 L308 379 Q288 390 267 398 Q246 406 216 406 Q115 406 115 329 Q115 297 137.5 281.5 Q160 266 210 253 Q256 241 303 218.5 Q350 196 350 128 Q350 66 305.5 28 Q261 -10 187 -10 Q140 -10 94 3.5 Q48 17 25 34 L47 128 L91 124 L80 59 Q120 36 177 36 Z " />
<glyph glyph-name="uni1E63" unicode="&#x1e63;" horiz-adv-x="412" d="M177 36 Q294 36 294 122 Q294 166 263 182 Q232 198 176 212 Q132 223 95.5 244.5 Q59 266 59 323 Q59 384 103.5 418.5 Q148 453 209 453 Q256 453 295 440 Q334 427 357 412 L356 310 L312 304 L308 379 Q288 390 267 398 Q246 406 216 406 Q115 406 115 329 Q115 297 137.5 281.5 Q160 266 210 253 Q256 241 303 218.5 Q350 196 350 128 Q350 66 305.5 28 Q261 -10 187 -10 Q140 -10 94 3.5 Q48 17 25 34 L47 128 L91 124 L80 59 Q120 36 177 36 Z M129 -168 L137 -89 L198 -89 L190 -168 L129 -168 Z " />
<glyph glyph-name="uni0219" unicode="&#x219;" horiz-adv-x="412" d="M177 36 Q294 36 294 122 Q294 166 263 182 Q232 198 176 212 Q132 223 95.5 244.5 Q59 266 59 323 Q59 384 103.5 418.5 Q148 453 209 453 Q256 453 295 440 Q334 427 357 412 L356 310 L312 304 L308 379 Q288 390 267 398 Q246 406 216 406 Q115 406 115 329 Q115 297 137.5 281.5 Q160 266 210 253 Q256 241 303 218.5 Q350 196 350 128 Q350 66 305.5 28 Q261 -10 187 -10 Q140 -10 94 3.5 Q48 17 25 34 L47 128 L91 124 L80 59 Q120 36 177 36 Z M202 -66 L170 -219 L125 -219 L150 -66 L202 -66 Z " />
<glyph glyph-name="uni00DF" unicode="&#xdf;" horiz-adv-x="585" d="M27 397 L30 426 L50 444 L119 444 L129 520 Q140 606 204 652 Q268 698 354 698 Q426 698 481 664.5 Q536 631 536 564 Q536 510 501.5 481.5 Q467 453 422.5 435 Q378 417 343.5 394 Q309 371 309 327 Q309 292 333.5 278 Q358 264 397 254 Q444 243 494 221 Q544 199 544 128 Q544 66 499.5 28 Q455 -10 381 -10 Q334 -10 288 3.5 Q242 17 219 34 L241 128 L285 124 L274 59 Q314 36 376 36 Q488 36 488 124 Q488 167 459.5 181.5 Q431 196 381 209 Q334 221 293.5 241.5 Q253 262 253 320 Q253 374 287.5 403.5 Q322 433 367.5 453 Q413 473 447.5 496 Q482 519 482 561 Q482 605 442.5 628.5 Q403 652 348 652 Q278 652 233 614.5 Q188 577 181 517 L109 -67 Q99 -143 67.5 -183 Q36 -223 -26 -223 Q-72 -223 -105 -196.5 Q-138 -170 -136 -105 L-92 -92 Q-95 -145 -73 -161 Q-51 -177 -27 -177 Q42 -177 56 -66 L113 397 L27 397 Z " />
<glyph glyph-name="uni0167" unicode="&#x167;" horiz-adv-x="340" d="M31 426 L51 444 L112 444 L128 569 L147 588 L183 588 L165 444 L321 444 L317 415 L297 397 L160 397 L145 275 L300 275 L296 253 L277 237 L140 237 L128 134 Q116 36 189 36 Q213 36 232.5 51 Q252 66 269 122 L309 108 Q292 47 263 18.5 Q234 -10 183 -10 Q123 -10 95 28 Q67 66 75 130 L88 237 L15 237 L18 258 L39 275 L92 275 L107 397 L27 397 L31 426 Z " />
<glyph glyph-name="uni0165" unicode="&#x165;" horiz-adv-x="337" d="M362 761 L320 537 L275 537 L311 761 L362 761 Z M29 426 L49 444 L110 444 L126 569 L145 588 L181 588 L163 444 L319 444 L315 415 L295 397 L158 397 L126 134 Q114 36 187 36 Q211 36 230.5 51 Q250 66 267 122 L307 108 Q290 47 261 18.5 Q232 -10 181 -10 Q121 -10 93 28 Q65 66 73 130 L105 397 L25 397 L29 426 Z " />
<glyph glyph-name="uni021B" unicode="&#x21b;" horiz-adv-x="337" d="M29 426 L49 444 L110 444 L126 569 L145 588 L181 588 L163 444 L319 444 L315 415 L295 397 L158 397 L126 134 Q114 36 187 36 Q211 36 230.5 51 Q250 66 267 122 L307 108 Q290 47 261 18.5 Q232 -10 181 -10 Q121 -10 93 28 Q65 66 73 130 L105 397 L25 397 L29 426 Z M195 -66 L163 -219 L118 -219 L143 -66 L195 -66 Z " />
<glyph glyph-name="uni0163" unicode="&#x163;" horiz-adv-x="337" d="M29 426 L49 444 L110 444 L126 569 L145 588 L181 588 L163 444 L319 444 L315 415 L295 397 L158 397 L126 134 Q114 36 187 36 Q211 36 230.5 51 Q250 66 267 122 L307 108 Q290 47 261 18.5 Q232 -10 181 -10 Q121 -10 93 28 Q65 66 73 130 L105 397 L25 397 L29 426 Z M195 -66 L163 -219 L118 -219 L143 -66 L195 -66 Z " />
<glyph glyph-name="uni00FA" unicode="&#xfa;" horiz-adv-x="517" d="M431 631 L255 523 L239 549 L402 678 L431 631 Z M475 46 L471 17 L452 0 L344 0 L347 85 Q323 42 286.5 16.5 Q250 -9 198 -9 Q134 -9 98 31.5 Q62 72 72 163 L100 397 L21 397 L25 428 L44 444 L159 444 L127 176 Q117 101 140.5 69 Q164 37 219 37 Q274 37 308.5 75.5 Q343 114 354 160 L389 444 L442 444 L393 46 L475 46 Z " />
<glyph glyph-name="uni00F9" unicode="&#xf9;" horiz-adv-x="517" d="M311 523 L135 631 L164 678 L327 549 L311 523 Z M475 46 L471 17 L452 0 L344 0 L347 85 Q323 42 286.5 16.5 Q250 -9 198 -9 Q134 -9 98 31.5 Q62 72 72 163 L100 397 L21 397 L25 428 L44 444 L159 444 L127 176 Q117 101 140.5 69 Q164 37 219 37 Q274 37 308.5 75.5 Q343 114 354 160 L389 444 L442 444 L393 46 L475 46 Z " />
<glyph glyph-name="uni00FB" unicode="&#xfb;" horiz-adv-x="517" d="M304 667 L406 549 L380 522 L289 612 L182 522 L161 549 L288 667 L304 667 Z M475 46 L471 17 L452 0 L344 0 L347 85 Q323 42 286.5 16.5 Q250 -9 198 -9 Q134 -9 98 31.5 Q62 72 72 163 L100 397 L21 397 L25 428 L44 444 L159 444 L127 176 Q117 101 140.5 69 Q164 37 219 37 Q274 37 308.5 75.5 Q343 114 354 160 L389 444 L442 444 L393 46 L475 46 Z " />
<glyph glyph-name="uni00FC" unicode="&#xfc;" horiz-adv-x="517" d="M326 562 L333 633 L400 633 L393 562 L326 562 Z M162 562 L169 633 L235 633 L228 562 L162 562 Z M475 46 L471 17 L452 0 L344 0 L347 85 Q323 42 286.5 16.5 Q250 -9 198 -9 Q134 -9 98 31.5 Q62 72 72 163 L100 397 L21 397 L25 428 L44 444 L159 444 L127 176 Q117 101 140.5 69 Q164 37 219 37 Q274 37 308.5 75.5 Q343 114 354 160 L389 444 L442 444 L393 46 L475 46 Z " />
<glyph glyph-name="uni016D" unicode="&#x16d;" horiz-adv-x="517" d="M355 655 L402 655 Q389 537 274 537 Q159 537 171 655 L218 655 Q213 612 229 594.5 Q245 577 279 577 Q348 577 355 655 Z M475 46 L471 17 L452 0 L344 0 L347 85 Q323 42 286.5 16.5 Q250 -9 198 -9 Q134 -9 98 31.5 Q62 72 72 163 L100 397 L21 397 L25 428 L44 444 L159 444 L127 176 Q117 101 140.5 69 Q164 37 219 37 Q274 37 308.5 75.5 Q343 114 354 160 L389 444 L442 444 L393 46 L475 46 Z " />
<glyph glyph-name="uni0171" unicode="&#x171;" horiz-adv-x="517" d="M333 682 L199 522 L175 541 L290 714 L333 682 Z M478 631 L303 523 L288 550 L451 678 L478 631 Z M475 46 L471 17 L452 0 L344 0 L347 85 Q323 42 286.5 16.5 Q250 -9 198 -9 Q134 -9 98 31.5 Q62 72 72 163 L100 397 L21 397 L25 428 L44 444 L159 444 L127 176 Q117 101 140.5 69 Q164 37 219 37 Q274 37 308.5 75.5 Q343 114 354 160 L389 444 L442 444 L393 46 L475 46 Z " />
<glyph glyph-name="uni016B" unicode="&#x16b;" horiz-adv-x="517" d="M173 618 L406 618 L402 572 L168 572 L173 618 Z M475 46 L471 17 L452 0 L344 0 L347 85 Q323 42 286.5 16.5 Q250 -9 198 -9 Q134 -9 98 31.5 Q62 72 72 163 L100 397 L21 397 L25 428 L44 444 L159 444 L127 176 Q117 101 140.5 69 Q164 37 219 37 Q274 37 308.5 75.5 Q343 114 354 160 L389 444 L442 444 L393 46 L475 46 Z " />
<glyph glyph-name="uni0173" unicode="&#x173;" horiz-adv-x="519" d="M345 0 L348 85 Q324 42 288 16.5 Q252 -9 199 -9 Q135 -9 98.5 31.5 Q62 72 73 163 L101 397 L22 397 L26 428 L45 444 L160 444 L128 176 Q118 101 141.5 69 Q165 37 220 37 Q276 37 310 75.5 Q344 114 355 160 L390 444 L443 444 L394 46 L476 46 L472 17 L453 0 L422 0 Q376 -26 358.5 -56 Q341 -86 341 -113 Q341 -165 397 -165 Q425 -165 454 -149 L458 -189 Q420 -209 381 -209 Q291 -209 291 -126 Q291 -86 315.5 -53 Q340 -20 375 0 L345 0 Z " />
<glyph glyph-name="uni016F" unicode="&#x16f;" horiz-adv-x="517" d="M274 514 Q232 514 210.5 537 Q189 560 189 595 Q189 641 218 669.5 Q247 698 296 698 Q336 698 359 675.5 Q382 653 382 617 Q382 576 354 545 Q326 514 274 514 Z M279 549 Q309 549 325.5 567.5 Q342 586 342 614 Q342 634 330.5 648.5 Q319 663 292 663 Q230 663 230 598 Q230 549 279 549 Z M475 46 L471 17 L452 0 L344 0 L347 85 Q323 42 286.5 16.5 Q250 -9 198 -9 Q134 -9 98 31.5 Q62 72 72 163 L100 397 L21 397 L25 428 L44 444 L159 444 L127 176 Q117 101 140.5 69 Q164 37 219 37 Q274 37 308.5 75.5 Q343 114 354 160 L389 444 L442 444 L393 46 L475 46 Z " />
<glyph glyph-name="uni0169" unicode="&#x169;" horiz-adv-x="517" d="M175 558 L147 569 Q154 594 177.5 621 Q201 648 235 648 Q267 648 289 629.5 Q311 611 349 611 Q362 611 375 618.5 Q388 626 398 654 L429 646 Q401 563 346 563 Q308 563 282.5 582 Q257 601 231 601 Q218 601 202 592 Q186 583 175 558 Z M475 46 L471 17 L452 0 L344 0 L347 85 Q323 42 286.5 16.5 Q250 -9 198 -9 Q134 -9 98 31.5 Q62 72 72 163 L100 397 L21 397 L25 428 L44 444 L159 444 L127 176 Q117 101 140.5 69 Q164 37 219 37 Q274 37 308.5 75.5 Q343 114 354 160 L389 444 L442 444 L393 46 L475 46 Z " />
<glyph glyph-name="uni01D4" unicode="&#x1d4;" horiz-adv-x="517" d="M268 522 L166 637 L193 663 L282 577 L390 666 L411 639 L283 522 L268 522 Z M475 46 L471 17 L452 0 L344 0 L347 85 Q323 42 286.5 16.5 Q250 -9 198 -9 Q134 -9 98 31.5 Q62 72 72 163 L100 397 L21 397 L25 428 L44 444 L159 444 L127 176 Q117 101 140.5 69 Q164 37 219 37 Q274 37 308.5 75.5 Q343 114 354 160 L389 444 L442 444 L393 46 L475 46 Z " />
<glyph glyph-name="uni1E83" unicode="&#x1e83;" horiz-adv-x="708" d="M558 631 L382 523 L366 549 L529 678 L558 631 Z M482 65 L486 65 Q609 210 609 354 Q609 404 594 444 L656 444 Q686 302 610 168 Q561 78 478 0 L447 0 L369 355 L365 355 L205 0 L171 0 L68 397 L16 397 L20 426 L39 444 L225 444 L221 413 L202 397 L125 397 L198 90 L202 90 L360 444 L399 444 L482 65 Z " />
<glyph glyph-name="uni0175" unicode="&#x175;" horiz-adv-x="708" d="M409 667 L511 549 L485 522 L394 612 L287 522 L266 549 L393 667 L409 667 Z M482 65 L486 65 Q609 210 609 354 Q609 404 594 444 L656 444 Q686 302 610 168 Q561 78 478 0 L447 0 L369 355 L365 355 L205 0 L171 0 L68 397 L16 397 L20 426 L39 444 L225 444 L221 413 L202 397 L125 397 L198 90 L202 90 L360 444 L399 444 L482 65 Z " />
<glyph glyph-name="uni1E85" unicode="&#x1e85;" horiz-adv-x="708" d="M438 562 L445 633 L512 633 L505 562 L438 562 Z M274 562 L281 633 L347 633 L340 562 L274 562 Z M482 65 L486 65 Q609 210 609 354 Q609 404 594 444 L656 444 Q686 302 610 168 Q561 78 478 0 L447 0 L369 355 L365 355 L205 0 L171 0 L68 397 L16 397 L20 426 L39 444 L225 444 L221 413 L202 397 L125 397 L198 90 L202 90 L360 444 L399 444 L482 65 Z " />
<glyph glyph-name="uni1E81" unicode="&#x1e81;" horiz-adv-x="708" d="M396 523 L220 631 L249 678 L412 549 L396 523 Z M482 65 L486 65 Q609 210 609 354 Q609 404 594 444 L656 444 Q686 302 610 168 Q561 78 478 0 L447 0 L369 355 L365 355 L205 0 L171 0 L68 397 L16 397 L20 426 L39 444 L225 444 L221 413 L202 397 L125 397 L198 90 L202 90 L360 444 L399 444 L482 65 Z " />
<glyph glyph-name="uni00FF" unicode="&#xff;" horiz-adv-x="465" d="M305 562 L312 633 L379 633 L372 562 L305 562 Z M141 562 L148 633 L214 633 L207 562 L141 562 Z M225 64 L231 64 Q369 213 369 351 Q369 374 365.5 397 Q362 420 352 444 L416 444 Q449 312 374 184 Q325 100 237 13 L214 -167 L295 -167 L292 -197 L273 -213 L79 -213 L83 -184 L101 -167 L161 -167 L186 14 L74 397 L15 397 L18 426 L37 444 L224 444 L220 413 L201 397 L130 397 L225 64 Z " />
<glyph glyph-name="uni0177" unicode="&#x177;" horiz-adv-x="465" d="M285 667 L387 549 L361 522 L270 612 L163 522 L142 549 L269 667 L285 667 Z M225 64 L231 64 Q369 213 369 351 Q369 374 365.5 397 Q362 420 352 444 L416 444 Q449 312 374 184 Q325 100 237 13 L214 -167 L295 -167 L292 -197 L273 -213 L79 -213 L83 -184 L101 -167 L161 -167 L186 14 L74 397 L15 397 L18 426 L37 444 L224 444 L220 413 L201 397 L130 397 L225 64 Z " />
<glyph glyph-name="uni0233" unicode="&#x233;" horiz-adv-x="465" d="M146 618 L379 618 L375 572 L141 572 L146 618 Z M225 64 L231 64 Q369 213 369 351 Q369 374 365.5 397 Q362 420 352 444 L416 444 Q449 312 374 184 Q325 100 237 13 L214 -167 L295 -167 L292 -197 L273 -213 L79 -213 L83 -184 L101 -167 L161 -167 L186 14 L74 397 L15 397 L18 426 L37 444 L224 444 L220 413 L201 397 L130 397 L225 64 Z " />
<glyph glyph-name="uni1EF3" unicode="&#x1ef3;" horiz-adv-x="465" d="M296 523 L120 631 L149 678 L312 549 L296 523 Z M225 64 L231 64 Q369 213 369 351 Q369 374 365.5 397 Q362 420 352 444 L416 444 Q449 312 374 184 Q325 100 237 13 L214 -167 L295 -167 L292 -197 L273 -213 L79 -213 L83 -184 L101 -167 L161 -167 L186 14 L74 397 L15 397 L18 426 L37 444 L224 444 L220 413 L201 397 L130 397 L225 64 Z " />
<glyph glyph-name="uni00FD" unicode="&#xfd;" horiz-adv-x="465" d="M413 631 L237 523 L221 549 L384 678 L413 631 Z M225 64 L231 64 Q369 213 369 351 Q369 374 365.5 397 Q362 420 352 444 L416 444 Q449 312 374 184 Q325 100 237 13 L214 -167 L295 -167 L292 -197 L273 -213 L79 -213 L83 -184 L101 -167 L161 -167 L186 14 L74 397 L15 397 L18 426 L37 444 L224 444 L220 413 L201 397 L130 397 L225 64 Z " />
<glyph glyph-name="uni017A" unicode="&#x17a;" horiz-adv-x="448" d="M399 631 L223 523 L207 549 L370 678 L399 631 Z M368 0 L18 0 L10 36 L339 397 L118 397 L97 303 L51 309 L77 444 L396 444 L409 408 L84 46 L327 46 L361 141 L404 133 L368 0 Z " />
<glyph glyph-name="uni017E" unicode="&#x17e;" horiz-adv-x="448" d="M245 522 L143 637 L170 663 L259 577 L367 666 L388 639 L260 522 L245 522 Z M368 0 L18 0 L10 36 L339 397 L118 397 L97 303 L51 309 L77 444 L396 444 L409 408 L84 46 L327 46 L361 141 L404 133 L368 0 Z " />
<glyph glyph-name="uni017C" unicode="&#x17c;" horiz-adv-x="448" d="M227 559 L235 638 L295 638 L287 559 L227 559 Z M368 0 L18 0 L10 36 L339 397 L118 397 L97 303 L51 309 L77 444 L396 444 L409 408 L84 46 L327 46 L361 141 L404 133 L368 0 Z " />
<glyph glyph-name="uni00FE" unicode="&#xfe;" horiz-adv-x="500" d="M176 -197 L157 -213 L-46 -213 L-42 -184 L-24 -167 L24 -167 L125 642 L44 642 L48 671 L66 688 L181 688 L168 555 L143 359 Q166 397 201.5 425 Q237 453 295 453 Q369 453 410.5 402.5 Q452 352 452 263 Q452 208 433 144.5 Q414 81 369 35.5 Q324 -10 245 -10 Q143 -10 107 66 L78 -167 L180 -167 L176 -197 Z M243 36 Q302 36 335 73.5 Q368 111 381.5 162.5 Q395 214 395 256 Q395 329 364.5 367.5 Q334 406 283 406 Q222 406 183 360.5 Q144 315 131 268 L118 154 Q120 105 154 70.5 Q188 36 243 36 Z " />
<glyph glyph-name="uni0259" unicode="&#x259;" horiz-adv-x="435" d="M214 406 Q120 406 84 312 L41 323 Q56 377 102.5 414.5 Q149 452 223 452 Q304 452 346 402 Q388 352 388 261 Q388 146 327 67.5 Q266 -11 168 -11 Q112 -11 71 18 Q30 47 30 97 Q30 146 67 180.5 Q104 215 188 233 Q258 247 331 259 Q330 327 303.5 366.5 Q277 406 214 406 Z M208 197 Q128 178 108 153 Q88 128 88 102 Q88 36 172 36 Q249 36 285 92 Q321 148 328 216 Q288 212 258.5 206.5 Q229 201 208 197 Z " />
<glyph glyph-name="uni00F0" unicode="&#xf0;" horiz-adv-x="490" d="M168 530 L236 602 Q218 617 198 630.5 Q178 644 156 658 L183 698 Q232 668 270 637 L326 697 L355 673 L298 612 Q361 553 397.5 476 Q434 399 434 301 Q434 230 413.5 158 Q393 86 344.5 38 Q296 -10 212 -10 Q123 -10 79.5 47 Q36 104 36 193 Q36 300 94 376.5 Q152 453 249 453 Q295 453 323.5 435.5 Q352 418 369 393 Q348 498 265 577 L197 506 L168 530 Z M249 406 Q171 406 132.5 344 Q94 282 94 197 Q94 130 121 83 Q148 36 216 36 Q280 36 314 75.5 Q348 115 361 170.5 Q374 226 377 274 Q376 314 347.5 360 Q319 406 249 406 Z " />
<glyph glyph-name="uni0133" unicode="&#x133;" horiz-adv-x="492" d="M129 568 L137 647 L198 647 L190 568 L129 568 Z M384 568 L392 647 L453 647 L445 568 L384 568 Z M274 426 L293 444 L435 444 L377 -27 Q354 -215 246 -223 Q210 -224 172 -208 L175 -166 Q227 -188 268.5 -161.5 Q310 -135 324 -27 L376 397 L270 397 L274 426 Z M37 426 L56 444 L173 444 L124 46 L204 46 L200 15 L181 0 L66 0 L114 397 L33 397 L37 426 Z " />
<glyph glyph-name="uni0153" unicode="&#x153;" horiz-adv-x="772" d="M36 188 Q36 294 93 373.5 Q150 453 260 453 Q324 453 361.5 424.5 Q399 396 416 351 Q444 398 489.5 425.5 Q535 453 592 453 Q648 453 689 424 Q730 395 730 345 Q730 296 693 261.5 Q656 227 572 209 Q539 202 502.5 195 Q466 188 429 183 Q429 115 455.5 75.5 Q482 36 546 36 Q640 36 676 130 L719 119 Q704 65 657.5 27.5 Q611 -10 537 -10 Q424 -10 387 85 Q358 42 313 16 Q268 -10 208 -10 Q117 -10 76.5 46 Q36 102 36 188 Z M93 190 Q93 122 119 79 Q145 36 213 36 Q297 36 335.5 100 Q374 164 374 251 Q374 318 348.5 362 Q323 406 254 406 Q174 406 133.5 344 Q93 282 93 190 Z M552 245 Q632 264 652 289 Q672 314 672 340 Q672 406 588 406 Q510 406 474 349 Q438 292 431 225 Q471 230 500.5 235 Q530 240 552 245 Z " />
<glyph glyph-name="uni01C6" unicode="&#x1c6;" horiz-adv-x="955" d="M307 672 L326 688 L472 688 L392 46 L473 46 L470 15 L451 0 L342 0 L346 90 Q322 50 283.5 20 Q245 -10 186 -10 Q113 -10 74 40 Q35 90 35 175 Q35 232 55.5 297 Q76 362 122.5 407.5 Q169 453 247 453 Q347 453 379 376 L412 642 L304 642 L307 672 Z M752 522 L650 637 L677 663 L766 577 L874 666 L895 639 L767 522 L752 522 Z M875 0 L525 0 L517 36 L846 397 L625 397 L604 303 L558 309 L584 444 L903 444 L916 408 L591 46 L834 46 L868 141 L911 133 L875 0 Z M251 406 Q190 406 155.5 369.5 Q121 333 106.5 281.5 Q92 230 92 183 Q92 36 200 36 Q261 36 302.5 85 Q344 134 355 181 L369 290 Q367 340 334 373 Q301 406 251 406 Z " />
<glyph glyph-name="uni01C9" unicode="&#x1c9;" horiz-adv-x="477" d="M53 671 L71 688 L189 688 L110 46 L189 46 L185 15 L167 0 L52 0 L130 642 L49 642 L53 671 Z M368 568 L376 647 L437 647 L429 568 L368 568 Z M258 426 L277 444 L419 444 L361 -27 Q338 -215 230 -223 Q194 -224 156 -208 L159 -166 Q211 -188 252.5 -161.5 Q294 -135 308 -27 L360 397 L254 397 L258 426 Z " />
<glyph glyph-name="uni01CC" unicode="&#x1cc;" horiz-adv-x="760" d="M651 568 L659 647 L720 647 L712 568 L651 568 Z M53 444 L161 444 L157 357 Q182 400 219.5 426.5 Q257 453 310 453 Q374 453 410.5 412 Q447 371 436 280 L407 46 L487 46 L483 15 L464 0 L350 0 L382 267 Q391 343 366 374.5 Q341 406 290 406 Q231 406 194 363 Q157 320 149 270 L148 262 L116 0 L64 0 L112 397 L30 397 L34 426 L53 444 Z M541 426 L560 444 L702 444 L644 -27 Q621 -215 513 -223 Q477 -224 439 -208 L442 -166 Q494 -188 536 -161.5 Q578 -135 591 -27 L643 397 L537 397 L541 426 Z " />
<glyph glyph-name="uni01F3" unicode="&#x1f3;" horiz-adv-x="954" d="M307 672 L326 688 L472 688 L392 46 L473 46 L470 15 L451 0 L342 0 L346 90 Q322 50 283.5 20 Q245 -10 186 -10 Q113 -10 74 40 Q35 90 35 175 Q35 232 55.5 297 Q76 362 122.5 407.5 Q169 453 247 453 Q347 453 379 376 L412 642 L304 642 L307 672 Z M875 0 L525 0 L517 36 L846 397 L625 397 L604 303 L558 309 L584 444 L903 444 L916 408 L591 46 L834 46 L868 141 L911 133 L875 0 Z M251 406 Q190 406 155.5 369.5 Q121 333 106.5 281.5 Q92 230 92 183 Q92 36 200 36 Q261 36 302.5 85 Q344 134 355 181 L369 290 Q367 340 334 373 Q301 406 251 406 Z " />
<glyph glyph-name="uni002C" unicode="&#x2c;" horiz-adv-x="195" d="M-10 -107 L62 105 L115 105 L43 -107 L-10 -107 Z " />
<glyph glyph-name="uni002E" unicode="&#x2e;" horiz-adv-x="204" d="M35 0 L43 84 L121 84 L113 0 L35 0 Z " />
<glyph glyph-name="uni2026" unicode="&#x2026;" horiz-adv-x="554" d="M35 0 L43 84 L121 84 L113 0 L35 0 Z M210 0 L218 84 L296 84 L288 0 L210 0 Z M385 0 L393 84 L471 84 L463 0 L385 0 Z " />
<glyph glyph-name="uni003A" unicode="&#x3a;" horiz-adv-x="214" d="M84 443 L162 443 L154 359 L76 359 L84 443 Z M47 84 L125 84 L117 0 L39 0 L47 84 Z " />
<glyph glyph-name="uni003B" unicode="&#x3b;" horiz-adv-x="229" d="M94 359 L102 443 L180 443 L172 359 L94 359 Z M1 -107 L73 105 L126 105 L54 -107 L1 -107 Z " />
<glyph glyph-name="uni003F" unicode="&#x3f;" horiz-adv-x="430" d="M109 461 L64 464 L81 576 Q106 608 152.5 634 Q199 660 260 660 Q322 660 372.5 628 Q423 596 423 535 Q423 483 388 446.5 Q353 410 307 380.5 Q261 351 226 322 Q191 293 191 257 Q191 217 242 217 L238 175 Q178 173 156 197 Q134 221 134 251 Q134 298 168.5 331 Q203 364 248.5 392 Q294 420 328.5 451.5 Q363 483 363 526 Q363 562 333.5 585.5 Q304 609 250 609 Q213 609 185.5 597.5 Q158 586 133 564 L109 461 Z M137 0 L146 84 L217 84 L208 0 L137 0 Z " />
<glyph glyph-name="uni00BF" unicode="&#xbf;" horiz-adv-x="422" d="M278 446 L269 362 L198 362 L207 446 L278 446 Z M306 -15 L351 -18 L334 -130 Q309 -162 262.5 -188 Q216 -214 155 -214 Q93 -214 42.5 -182 Q-8 -150 -8 -89 Q-8 -37 27 -0.5 Q62 36 108 65.5 Q154 95 189 124 Q224 153 224 189 Q224 229 173 229 L177 271 Q237 273 259 249 Q281 225 281 195 Q281 148 246.5 115 Q212 82 166.5 54 Q121 26 86.5 -5.5 Q52 -37 52 -80 Q52 -116 81.5 -139.5 Q111 -163 165 -163 Q202 -163 229 -151.5 Q256 -140 282 -118 L306 -15 Z " />
<glyph glyph-name="uni0021" unicode="&#x21;" horiz-adv-x="232" d="M187 650 L127 181 L85 181 L124 650 L187 650 Z M53 0 L62 84 L133 84 L124 0 L53 0 Z " />
<glyph glyph-name="uni00A1" unicode="&#xa1;" horiz-adv-x="213" d="M158 446 L149 362 L78 362 L87 446 L158 446 Z M24 -204 L84 265 L126 265 L87 -204 L24 -204 Z " />
<glyph glyph-name="uni203D" unicode="&#x203d;" horiz-adv-x="610" d="M131 652 L215 193 L176 178 L69 629 L131 652 Z M417 600 Q368 600 326 570 L288 466 L244 475 L276 585 Q298 609 338.5 628 Q379 647 430 647 Q498 647 548.5 608.5 Q599 570 599 505 Q599 454 569 422.5 Q539 391 493.5 368.5 Q448 346 401 324 Q354 302 319 269.5 Q284 237 276 184 L237 194 Q246 268 293 306 Q340 344 397 368 Q454 392 496.5 420 Q539 448 539 501 Q539 554 498.5 577 Q458 600 417 600 Z M174 0 L183 84 L254 84 L245 0 L174 0 Z " />
<glyph glyph-name="uni002D" unicode="&#x2d;" horiz-adv-x="349" d="M59 254 L285 254 L280 205 L54 205 L59 254 Z " />
<glyph glyph-name="uni2013" unicode="&#x2013;" horiz-adv-x="619" d="M60 251 L552 251 L548 209 L56 209 L60 251 Z " />
<glyph glyph-name="uni2014" unicode="&#x2014;" horiz-adv-x="1067" d="M77 251 L998 251 L993 209 L72 209 L77 251 Z " />
<glyph glyph-name="uni005F" unicode="&#x5f;" horiz-adv-x="536" d="M20 -75 L444 -75 L440 -118 L16 -118 L20 -75 Z " />
<glyph glyph-name="uni0040" unicode="&#x40;" horiz-adv-x="894" d="M610 311 L588 132 Q588 129 587 123 Q586 117 586 110 Q586 81 600 56 Q614 31 652 31 Q705 31 737.5 74.5 Q770 118 784.5 181 Q799 244 799 302 Q799 421 752 488 Q705 555 634 582.5 Q563 610 492 610 Q376 610 282.5 554 Q189 498 135 402 Q81 306 81 186 Q81 23 177.5 -67.5 Q274 -158 413 -158 Q539 -158 636 -94 L653 -130 Q600 -163 536 -182.5 Q472 -202 404 -202 Q297 -202 213.5 -152.5 Q130 -103 82.5 -16.5 Q35 70 35 183 Q35 311 95 418 Q155 525 258 589.5 Q361 654 490 654 Q572 654 654.5 620 Q737 586 792.5 511.5 Q848 437 848 314 Q848 246 827 171 Q806 96 760 43 Q714 -10 639 -10 Q586 -10 561 21 Q536 52 532 92 Q510 51 474 20.5 Q438 -10 379 -10 Q306 -10 267.5 39.5 Q229 89 229 177 Q229 233 248 297.5 Q267 362 312 407.5 Q357 453 435 453 Q539 453 569 367 Q577 408 588 444 L640 444 Q631 412 622.5 376 Q614 340 610 311 Z M437 406 Q378 406 345 369.5 Q312 333 299 281.5 Q286 230 286 185 Q286 36 391 36 Q450 36 488.5 81.5 Q527 127 539 173 L554 291 Q552 341 521 373.5 Q490 406 437 406 Z " />
<glyph glyph-name="uni0026" unicode="&#x26;" horiz-adv-x="723" d="M426 356 L706 356 L701 307 L588 307 Q565 259 523.5 199.5 Q482 140 427 91 Q460 69 495 56.5 Q530 44 567 44 Q616 44 653 67 L663 19 Q612 -10 556 -10 Q467 -10 381 54 Q341 25 297.5 7.5 Q254 -10 207 -10 Q136 -10 87.5 31 Q39 72 39 143 Q39 206 80.5 250 Q122 294 185 327 Q162 394 162 454 Q162 548 217 604 Q272 660 352 660 Q414 660 454 626.5 Q494 593 494 538 Q494 480 453.5 441 Q413 402 355.5 373 Q298 344 249 320 Q272 263 310 209 Q348 155 395 116 Q439 156 473.5 207 Q508 258 529 307 L420 307 L426 356 Z M436 534 Q436 566 414 589.5 Q392 613 348 613 Q293 613 255.5 574 Q218 535 218 462 Q218 407 237 353 Q308 388 372 431 Q436 474 436 534 Z M198 293 Q154 268 124.5 236 Q95 204 95 152 Q95 93 131.5 66.5 Q168 40 219 40 Q286 40 348 80 Q251 167 198 293 Z " />
<glyph glyph-name="uni002F" unicode="&#x2f;" horiz-adv-x="372" d="M370 688 L80 0 L28 0 L317 688 L370 688 Z " />
<glyph glyph-name="uni005C" unicode="&#x5c;" horiz-adv-x="521" d="M86 688 L139 688 L428 0 L376 0 L86 688 Z " />
<glyph glyph-name="uni007C" unicode="&#x7c;" horiz-adv-x="228" d="M186 730 L101 -80 L52 -80 L137 730 L186 730 Z " />
<glyph glyph-name="uni0028" unicode="&#x28;" horiz-adv-x="269" d="M249 718 L303 718 Q197 597 143 472 Q89 347 89 212 Q89 112 118.5 8.5 Q148 -95 208 -183 L152 -183 Q94 -91 67.5 10 Q41 111 41 208 Q41 341 91 467.5 Q141 594 249 718 Z " />
<glyph glyph-name="uni0029" unicode="&#x29;" horiz-adv-x="268" d="M17 -183 L-37 -183 Q69 -62 123 63 Q177 188 177 323 Q177 423 147.5 526.5 Q118 630 58 718 L114 718 Q172 626 198.5 525 Q225 424 225 327 Q225 194 175 68 Q125 -58 17 -183 Z " />
<glyph glyph-name="uni005B" unicode="&#x5b;" horiz-adv-x="275" d="M39 -204 L139 741 L299 741 L294 698 L182 698 L92 -161 L204 -161 L199 -204 L39 -204 Z " />
<glyph glyph-name="uni005D" unicode="&#x5d;" horiz-adv-x="275" d="M234 741 L134 -204 L-26 -204 L-21 -161 L91 -161 L181 698 L69 698 L74 741 L234 741 Z " />
<glyph glyph-name="uni007B" unicode="&#x7b;" horiz-adv-x="273" d="M106 267 Q150 259 169 238.5 Q188 218 188 192 Q188 157 159 104.5 Q130 52 101.5 -4 Q73 -60 73 -106 Q73 -160 129 -160 L192 -160 L187 -203 L124 -203 Q26 -203 26 -109 Q26 -57 54.5 0.5 Q83 58 111.5 109 Q140 160 140 191 Q140 228 106 238.5 Q72 249 50 249 L32 249 L36 284 L54 284 Q78 284 117.5 297 Q157 310 157 354 Q157 398 130 473.5 Q103 549 103 616 Q103 677 135.5 709 Q168 741 223 741 L286 741 L282 698 L219 698 Q149 698 149 620 Q149 579 163 529.5 Q177 480 191 434 Q205 388 205 356 Q205 326 183 301 Q161 276 106 267 Z " />
<glyph glyph-name="uni007D" unicode="&#x7d;" horiz-adv-x="273" d="M165 271 Q121 279 102 299.5 Q83 320 83 346 Q83 381 111.5 433.5 Q140 486 169 542 Q198 598 198 644 Q198 698 142 698 L79 698 L84 741 L147 741 Q245 741 245 647 Q245 595 216.5 537.5 Q188 480 159.5 429 Q131 378 131 347 Q131 310 164.5 299.5 Q198 289 221 289 L239 289 L235 254 L217 254 Q193 254 153.5 241 Q114 228 114 184 Q114 140 141 64.5 Q168 -11 168 -78 Q168 -139 135.5 -171 Q103 -203 48 -203 L-15 -203 L-11 -160 L52 -160 Q122 -160 122 -82 Q122 -41 108 8.5 Q94 58 80 104 Q66 150 66 182 Q66 212 88 237 Q110 262 165 271 Z " />
<glyph glyph-name="uni301A" unicode="&#x301a;" horiz-adv-x="438" d="M39 -204 L139 741 L452 741 L447 698 L335 698 L245 -161 L357 -161 L353 -204 L39 -204 Z M182 698 L92 -161 L197 -161 L287 698 L182 698 Z " />
<glyph glyph-name="uni301B" unicode="&#x301b;" horiz-adv-x="438" d="M397 741 L297 -204 L-16 -204 L-11 -161 L101 -161 L191 698 L79 698 L83 741 L397 741 Z M344 698 L238 698 L148 -161 L254 -161 L344 698 Z " />
<glyph glyph-name="uni005E" unicode="&#x5e;" horiz-adv-x="440" d="M243 657 L279 657 L409 374 L358 374 L255 603 L106 374 L55 374 L243 657 Z " />
<glyph glyph-name="uni007E" unicode="&#x7e;" horiz-adv-x="614" d="M412 206 Q366 206 332 224 Q298 242 266 260.5 Q234 279 190 279 Q165 279 138.5 266.5 Q112 254 83 214 L51 236 Q84 287 123 308.5 Q162 330 199 330 Q243 330 276.5 312 Q310 294 343 275.5 Q376 257 419 257 Q450 257 475 273.5 Q500 290 532 336 L567 312 Q527 254 490.5 230 Q454 206 412 206 Z " />
<glyph glyph-name="uni00B0" unicode="&#xb0;" horiz-adv-x="399" d="M206 342 Q140 342 102.5 382.5 Q65 423 65 484 Q65 558 115.5 609 Q166 660 240 660 Q307 660 343.5 618.5 Q380 577 380 517 Q380 444 331 393 Q282 342 206 342 Z M212 385 Q263 385 298 420 Q333 455 333 513 Q333 561 306 589 Q279 617 234 617 Q183 617 147 581.5 Q111 546 111 488 Q111 440 138.5 412.5 Q166 385 212 385 Z " />
<glyph glyph-name="uni00A7" unicode="&#xa7;" horiz-adv-x="567" d="M469 144 Q469 71 412 30.5 Q355 -10 261 -10 Q201 -10 144.5 6 Q88 22 52 51 L74 154 L119 149 L107 70 Q142 50 183 42 Q224 34 261 34 Q320 34 367 56.5 Q414 79 414 135 Q414 184 373 199 Q332 214 255 227 Q207 234 158.5 245.5 Q110 257 78 279.5 Q46 302 46 343 Q46 411 135 444 Q105 472 105 517 Q105 585 164 622.5 Q223 660 315 660 Q357 660 405 651 Q453 642 493 620 L486 494 L438 489 L439 588 Q406 604 371.5 610 Q337 616 307 616 Q245 616 203 593 Q161 570 161 524 Q161 479 199.5 462.5 Q238 446 296 435 Q350 425 404 413.5 Q458 402 494.5 378.5 Q531 355 531 310 Q531 245 449 207 Q469 184 469 144 Z M477 299 Q477 331 444.5 348.5 Q412 366 365 375 Q318 384 272 393 Q244 398 216.5 404.5 Q189 411 168 421 Q100 398 100 351 Q100 316 145 301 Q190 286 279 270 Q322 262 354.5 255 Q387 248 413 235 Q477 260 477 299 Z " />
<glyph glyph-name="uni2022" unicode="&#x2022;" horiz-adv-x="352" d="M69 235 Q69 282 103 316.5 Q137 351 182 351 Q223 351 249.5 322.5 Q276 294 276 254 Q276 206 241 172.5 Q206 139 161 139 Q120 139 94.5 166.5 Q69 194 69 235 Z " />
<glyph glyph-name="uni00B6" unicode="&#xb6;" horiz-adv-x="596" d="M291 650 L595 650 L590 600 L512 600 L449 0 L397 0 L460 600 L391 600 L328 0 L276 0 L309 310 L249 310 Q164 310 107.5 345 Q51 380 51 464 Q51 540 110 595 Q169 650 291 650 Z " />
<glyph glyph-name="uni0023" unicode="&#x23;" horiz-adv-x="583" d="M505 521 L469 398 L555 398 L550 352 L455 352 L404 177 L502 177 L497 131 L390 131 L352 0 L302 0 L340 131 L156 131 L118 0 L68 0 L106 131 L25 131 L30 177 L120 177 L171 352 L77 352 L82 398 L185 398 L221 521 L271 521 L235 398 L419 398 L455 521 L505 521 Z M170 177 L354 177 L405 352 L221 352 L170 177 Z " />
<glyph glyph-name="uni0025" unicode="&#x25;" horiz-adv-x="662" d="M168 244 Q115 244 82.5 274 Q50 304 50 366 Q50 446 95.5 488 Q141 530 208 530 Q259 530 292 500.5 Q325 471 325 407 Q325 334 283 289 Q241 244 168 244 Z M582 521 L360 269 L132 0 L73 0 L328 287 L524 521 L582 521 Z M173 286 Q228 286 253 320 Q278 354 278 403 Q278 487 201 487 Q97 487 97 371 Q97 286 173 286 Z M455 -10 Q402 -10 369 18 Q336 46 336 114 Q336 193 382 234.5 Q428 276 495 276 Q546 276 579 245.5 Q612 215 612 153 Q612 80 570 35 Q528 -10 455 -10 Z M460 32 Q516 32 540.5 66 Q565 100 565 149 Q565 234 488 234 Q384 234 384 117 Q384 32 460 32 Z " />
<glyph glyph-name="uni2030" unicode="&#x2030;" horiz-adv-x="955" d="M167 245 Q114 245 81.5 273 Q49 301 49 366 Q49 446 95 488 Q141 530 208 530 Q259 530 292 501.5 Q325 473 325 407 Q325 334 282.5 289.5 Q240 245 167 245 Z M582 521 L360 269 L132 0 L73 0 L327 287 L524 521 L582 521 Z M173 286 Q228 286 252.5 320 Q277 354 277 403 Q277 487 201 487 Q96 487 96 371 Q96 286 173 286 Z M454 -10 Q402 -10 369 18 Q336 46 336 114 Q336 193 382 234.5 Q428 276 495 276 Q546 276 579 248 Q612 220 612 153 Q612 80 570 35 Q528 -10 454 -10 Z M751 -10 Q699 -10 666 18 Q633 46 633 113 Q633 192 679 234 Q725 276 791 276 Q842 276 875.5 248 Q909 220 909 153 Q909 80 866.5 35 Q824 -10 751 -10 Z M460 32 Q516 32 540.5 66 Q565 100 565 149 Q565 234 488 234 Q384 234 384 117 Q384 32 460 32 Z M757 32 Q812 32 836.5 66 Q861 100 861 149 Q861 234 785 234 Q681 234 681 117 Q681 32 757 32 Z " />
<glyph glyph-name="uni00AA" unicode="&#xaa;" horiz-adv-x="387" d="M355 694 Q348 672 342 649 Q336 626 334 604 L313 442 L358 442 L356 417 L342 405 L272 405 L274 464 Q260 437 235.5 417.5 Q211 398 172 398 Q123 398 97.5 431 Q72 464 72 520 Q72 558 85 599.5 Q98 641 128 670.5 Q158 700 210 700 Q280 700 299 645 Q302 657 305 669.5 Q308 682 312 694 L355 694 Z M215 664 Q158 664 138 617 Q118 570 118 527 Q118 435 185 435 Q222 435 246 461.5 Q270 488 278 517 L288 597 Q286 627 266 645.5 Q246 664 215 664 Z " />
<glyph glyph-name="uni00BA" unicode="&#xba;" horiz-adv-x="357" d="M71 527 Q71 596 109 648 Q147 700 222 700 Q286 700 313.5 661.5 Q341 623 341 569 Q341 497 300.5 447.5 Q260 398 188 398 Q127 398 99 434 Q71 470 71 527 Z M117 530 Q117 488 133 461.5 Q149 435 192 435 Q246 435 270 474.5 Q294 514 294 567 Q294 610 278 637 Q262 664 218 664 Q167 664 142 626 Q117 588 117 530 Z " />
<glyph glyph-name="uni2020" unicode="&#x2020;" horiz-adv-x="460" d="M45 425 L220 425 L244 650 L293 650 L269 425 L446 425 L441 375 L264 375 L210 -141 L161 -141 L215 375 L40 375 L45 425 Z " />
<glyph glyph-name="uni2021" unicode="&#x2021;" horiz-adv-x="509" d="M38 108 L214 108 L242 375 L66 375 L72 425 L247 425 L271 650 L321 650 L297 425 L473 425 L467 375 L292 375 L264 108 L439 108 L434 58 L259 58 L238 -141 L188 -141 L209 58 L33 58 L38 108 Z " />
<glyph glyph-name="uni0027" unicode="&#x27;" horiz-adv-x="186" d="M128 377 L79 377 L105 650 L160 650 L128 377 Z " />
<glyph glyph-name="uni0022" unicode="&#x22;" horiz-adv-x="362" d="M128 377 L79 377 L105 650 L160 650 L128 377 Z M304 377 L255 377 L281 650 L336 650 L304 377 Z " />
<glyph glyph-name="uni201C" unicode="&#x201c;" horiz-adv-x="353" d="M195 668 L123 456 L70 456 L142 668 L195 668 Z M353 668 L281 456 L228 456 L300 668 L353 668 Z " />
<glyph glyph-name="uni201D" unicode="&#x201d;" horiz-adv-x="351" d="M66 458 L138 670 L191 670 L119 458 L66 458 Z M224 458 L296 670 L349 670 L277 458 L224 458 Z " />
<glyph glyph-name="uni2018" unicode="&#x2018;" horiz-adv-x="197" d="M194 661 L122 449 L69 449 L141 661 L194 661 Z " />
<glyph glyph-name="uni2019" unicode="&#x2019;" horiz-adv-x="194" d="M70 474 L142 686 L195 686 L123 474 L70 474 Z " />
<glyph glyph-name="uni201A" unicode="&#x201a;" horiz-adv-x="195" d="M-10 -107 L62 105 L115 105 L43 -107 L-10 -107 Z " />
<glyph glyph-name="uni201E" unicode="&#x201e;" horiz-adv-x="354" d="M-10 -107 L62 105 L115 105 L43 -107 L-10 -107 Z M150 -107 L222 105 L275 105 L203 -107 L150 -107 Z " />
<glyph glyph-name="uni2039" unicode="&#x2039;" horiz-adv-x="277" d="M200 25 L153 25 L44 271 L204 511 L251 511 L96 271 L200 25 Z " />
<glyph glyph-name="uni203A" unicode="&#x203a;" horiz-adv-x="278" d="M72 25 L25 25 L180 271 L76 511 L123 511 L233 271 L72 25 Z " />
<glyph glyph-name="uni00AB" unicode="&#xab;" horiz-adv-x="436" d="M200 25 L153 25 L44 271 L204 511 L251 511 L96 271 L200 25 Z M359 25 L312 25 L203 271 L363 511 L410 511 L256 271 L359 25 Z " />
<glyph glyph-name="uni00BB" unicode="&#xbb;" horiz-adv-x="437" d="M231 25 L185 25 L340 271 L236 511 L282 511 L393 271 L231 25 Z M72 25 L25 25 L180 271 L76 511 L123 511 L233 271 L72 25 Z " />
<glyph glyph-name="uni002A" unicode="&#x2a;" horiz-adv-x="407" d="M386 562 L260 492 L371 423 L343 386 L241 458 L231 339 L187 339 L203 458 L84 386 L65 423 L191 492 L80 562 L107 599 L210 526 L220 650 L264 650 L248 526 L365 599 L386 562 Z " />
<glyph glyph-name="uni00B7" unicode="&#xb7;" horiz-adv-x="213" d="M64 258 L72 342 L150 342 L142 258 L64 258 Z " />
<glyph glyph-name="uniFB01" unicode="&#xfb01;" horiz-adv-x="501" d="M424 444 L375 46 L455 46 L451 15 L432 0 L317 0 L365 397 L166 397 L109 -67 Q89 -223 -26 -223 Q-72 -223 -105 -196.5 Q-138 -170 -136 -105 L-92 -92 Q-95 -148 -71.5 -162.5 Q-48 -177 -28 -177 Q42 -177 56 -66 L113 397 L27 397 L30 426 L50 444 L119 444 L130 530 Q150 698 304 698 Q328 698 366.5 692 Q405 686 429 669 L436 560 L389 554 L378 642 Q362 649 343.5 651 Q325 653 309 653 Q256 653 224 629.5 Q192 606 183 532 L172 444 L424 444 Z " />
<glyph glyph-name="uniFB02" unicode="&#xfb02;" horiz-adv-x="499" d="M454 688 L375 46 L455 46 L451 15 L432 0 L316 0 L385 563 Q384 603 357.5 628 Q331 653 289 653 Q198 653 184 541 L172 444 L309 444 L305 415 L285 397 L166 397 L109 -67 Q89 -223 -25 -223 Q-72 -223 -105 -196.5 Q-138 -170 -136 -105 L-92 -92 Q-95 -148 -71.5 -162.5 Q-48 -177 -26 -177 Q42 -177 56 -66 L113 397 L27 397 L30 426 L50 444 L119 444 L131 543 Q141 623 183 660.5 Q225 698 283 698 Q317 698 347.5 682.5 Q378 667 394 637 L400 688 L454 688 Z " />
<glyph glyph-name="uniFB00" unicode="&#xfb00;" horiz-adv-x="554" d="M538 698 Q569 698 592.5 692 Q616 686 640 669 L646 570 L599 564 L589 642 Q575 649 559 651 Q543 653 530 653 Q448 653 434 532 L423 444 L560 444 L556 415 L536 397 L417 397 L360 -67 Q340 -223 224 -223 Q179 -223 146.5 -196.5 Q114 -170 115 -105 L159 -92 Q156 -148 179 -162.5 Q202 -177 221 -177 Q293 -177 307 -66 L364 397 L166 397 L109 -67 Q89 -223 -25 -223 Q-72 -223 -105 -196.5 Q-138 -170 -136 -105 L-92 -92 Q-95 -148 -71.5 -162.5 Q-48 -177 -26 -177 Q42 -177 56 -66 L113 397 L27 397 L30 426 L50 444 L119 444 L130 535 Q140 616 182 653.5 Q224 691 281 691 Q317 691 352.5 672.5 Q388 654 405 619 Q445 698 538 698 Z M183 534 L172 444 L370 444 L381 530 L384 551 Q384 593 357.5 619 Q331 645 288 645 Q195 645 183 534 Z " />
<glyph glyph-name="uniFB03" unicode="&#xfb03;" horiz-adv-x="753" d="M676 444 L627 46 L707 46 L703 15 L684 0 L570 0 L618 397 L418 397 L361 -67 Q341 -223 226 -223 Q180 -223 147 -196.5 Q114 -170 116 -105 L160 -92 Q157 -148 180.5 -162.5 Q204 -177 224 -177 Q294 -177 308 -66 L365 397 L166 397 L109 -67 Q89 -223 -25 -223 Q-72 -223 -105 -196.5 Q-138 -170 -136 -105 L-92 -92 Q-95 -148 -71.5 -162.5 Q-48 -177 -26 -177 Q42 -177 56 -66 L113 397 L27 397 L30 426 L50 444 L119 444 L130 535 Q140 616 182 653.5 Q224 691 281 691 Q320 691 355 669.5 Q390 648 402 607 Q444 698 556 698 Q580 698 618.5 692 Q657 686 681 669 L688 560 L641 554 L630 642 Q614 649 595.5 651 Q577 653 561 653 Q508 653 476 629.5 Q444 606 435 532 L424 444 L676 444 Z M288 645 Q195 645 183 534 L172 444 L371 444 L382 530 L385 550 Q385 593 358 619 Q331 645 288 645 Z " />
<glyph glyph-name="uniFB04" unicode="&#xfb04;" horiz-adv-x="751" d="M706 688 L627 46 L707 46 L703 15 L684 0 L569 0 L637 557 Q638 599 612 626 Q586 653 542 653 Q450 653 436 541 L424 444 L562 444 L558 415 L538 397 L418 397 L361 -67 Q343 -223 227 -223 Q180 -223 147.5 -196.5 Q115 -170 117 -105 L161 -92 Q158 -148 181 -162.5 Q204 -177 226 -177 Q295 -177 308 -66 L366 397 L166 397 L109 -67 Q89 -223 -25 -223 Q-72 -223 -105 -196.5 Q-138 -170 -136 -105 L-92 -92 Q-95 -148 -71.5 -162.5 Q-48 -177 -26 -177 Q42 -177 56 -66 L113 397 L27 397 L30 426 L50 444 L119 444 L130 535 Q140 616 182 653.5 Q224 691 281 691 Q319 691 353.5 670 Q388 649 401 610 Q441 698 535 698 Q569 698 599.5 682.5 Q630 667 647 637 L653 688 L706 688 Z M288 645 Q195 645 183 534 L172 444 L372 444 L384 543 Q384 548 385 551 Q385 593 358 619 Q331 645 288 645 Z " />
<glyph glyph-name="uni00A6" unicode="&#xa6;" horiz-adv-x="205" d="M175 730 L143 426 L94 426 L126 730 L175 730 Z M122 224 L90 -80 L41 -80 L73 224 L122 224 Z " />
<glyph glyph-name="uni2212" unicode="&#x2212;" horiz-adv-x="467" d="M61 259 L66 303 L406 303 L401 259 L61 259 Z " />
<glyph glyph-name="uni002B" unicode="&#x2b;" horiz-adv-x="419" d="M38 259 L42 303 L193 303 L210 455 L253 455 L236 303 L382 303 L378 259 L232 259 L216 108 L173 108 L189 259 L38 259 Z " />
<glyph glyph-name="uni00D7" unicode="&#xd7;" horiz-adv-x="385" d="M71 134 L45 165 L163 274 L69 382 L102 413 L196 305 L311 411 L337 380 L223 274 L316 168 L283 136 L189 243 L71 134 Z " />
<glyph glyph-name="uni003C" unicode="&#x3c;" horiz-adv-x="400" d="M315 14 L30 272 L31 286 L371 549 L364 494 L92 280 L321 69 L315 14 Z " />
<glyph glyph-name="uni003D" unicode="&#x3d;" horiz-adv-x="574" d="M73 369 L78 413 L526 413 L521 369 L73 369 Z M50 149 L55 192 L503 192 L498 149 L50 149 Z " />
<glyph glyph-name="uni003E" unicode="&#x3e;" horiz-adv-x="401" d="M370 272 L31 14 L37 69 L311 280 L81 494 L87 549 L372 286 L370 272 Z " />
<glyph glyph-name="uni221E" unicode="&#x221e;" horiz-adv-x="717" d="M497 79 Q438 79 405.5 121 Q373 163 350 217 Q315 163 274.5 121 Q234 79 176 79 Q116 79 80 125 Q44 171 44 236 Q44 318 96.5 375 Q149 432 216 432 Q275 432 306 387.5 Q337 343 360 287 Q397 343 439 387.5 Q481 432 541 432 Q599 432 633.5 387 Q668 342 668 276 Q668 194 617 136.5 Q566 79 497 79 Z M182 122 Q232 122 267 161.5 Q302 201 335 253 Q314 306 288.5 347 Q263 388 213 388 Q164 388 127 346 Q90 304 90 237 Q90 187 115 154.5 Q140 122 182 122 Z M496 122 Q544 122 582.5 162.5 Q621 203 621 275 Q621 323 598.5 355.5 Q576 388 533 388 Q482 388 445.5 346.5 Q409 305 375 252 Q396 201 422 161.5 Q448 122 496 122 Z " />
<glyph glyph-name="uni00B1" unicode="&#xb1;" horiz-adv-x="453" d="M57 262 L62 306 L213 306 L229 458 L273 458 L256 306 L402 306 L397 262 L252 262 L236 111 L193 111 L208 262 L57 262 Z M30 0 L34 44 L374 44 L370 0 L30 0 Z " />
<glyph glyph-name="uni2264" unicode="&#x2264;" horiz-adv-x="428" d="M345 101 L53 299 L56 319 L388 522 L382 469 L121 310 L350 152 L345 101 Z M22 0 L26 44 L338 44 L334 0 L22 0 Z " />
<glyph glyph-name="uni2260" unicode="&#x2260;" horiz-adv-x="574" d="M71 369 L76 413 L374 413 L439 489 L492 489 L427 413 L524 413 L519 369 L390 369 L239 192 L501 192 L496 149 L202 149 L136 71 L80 71 L147 149 L48 149 L53 192 L184 192 L336 369 L71 369 Z " />
<glyph glyph-name="uni2265" unicode="&#x2265;" horiz-adv-x="426" d="M92 522 L383 324 L381 304 L49 101 L55 154 L316 313 L87 471 L92 522 Z M356 44 L352 0 L39 0 L44 44 L356 44 Z " />
<glyph glyph-name="uni00F7" unicode="&#xf7;" horiz-adv-x="448" d="M195 379 L203 463 L281 463 L273 379 L195 379 Z M52 259 L57 303 L397 303 L392 259 L52 259 Z M166 105 L174 189 L252 189 L244 105 L166 105 Z " />
<glyph glyph-name="uni00AC" unicode="&#xac;" horiz-adv-x="600" d="M476 105 L492 261 L64 261 L68 304 L539 304 L518 105 L476 105 Z " />
<glyph glyph-name="uni2248" unicode="&#x2248;" horiz-adv-x="629" d="M431 309 Q384 309 351 327.5 Q318 346 285 364 Q252 382 209 382 Q184 382 157.5 370 Q131 358 102 318 L70 340 Q103 391 142 412.5 Q181 434 219 434 Q262 434 295.5 415.5 Q329 397 362.5 378.5 Q396 360 438 360 Q470 360 495 377 Q520 394 551 440 L586 416 Q547 358 510 333.5 Q473 309 431 309 Z M410 106 Q364 106 330 124.5 Q296 143 264 161.5 Q232 180 188 180 Q162 180 136 167 Q110 154 81 114 L49 136 Q82 188 121 209.5 Q160 231 197 231 Q241 231 274.5 212.5 Q308 194 341 176 Q374 158 417 158 Q448 158 473 174 Q498 190 530 237 L565 213 Q525 154 488.5 130 Q452 106 410 106 Z " />
<glyph glyph-name="uni221A" unicode="&#x221a;" horiz-adv-x="566" d="M242 0 L138 396 L33 396 L38 441 L177 441 L272 73 L559 697 L604 697 L282 0 L242 0 Z " />
<glyph glyph-name="uni2202" unicode="&#x2202;" horiz-adv-x="483" d="M99 307 Q99 365 138 412 L53 509 L81 535 L165 438 Q210 472 262 472 Q315 472 352 437 L459 535 L481 509 L374 411 Q396 376 396 334 Q396 276 356 229 L441 132 L413 106 L328 203 Q284 170 232 170 Q179 170 142 204 L35 106 L13 132 L120 230 Q99 263 99 307 Z M146 312 Q146 267 172 241.5 Q198 216 237 216 Q282 216 315 248 Q348 280 348 332 Q348 376 322.5 401.5 Q297 427 258 427 Q215 427 181 395.5 Q147 364 146 312 Z " />
<glyph glyph-name="uni2211" unicode="&#x2211;" horiz-adv-x="556" d="M-11 -140 L-5 -91 L281 253 L67 600 L72 650 L556 650 L551 600 L128 600 L337 263 L336 245 L55 -91 L479 -91 L473 -140 L-11 -140 Z " />
<glyph glyph-name="uni220F" unicode="&#x220f;" horiz-adv-x="668" d="M18 51 L102 51 L159 599 L76 599 L81 650 L665 650 L660 599 L576 599 L519 51 L602 51 L597 0 L374 0 L380 51 L462 51 L519 599 L215 599 L158 51 L241 51 L236 0 L13 0 L18 51 Z " />
<glyph glyph-name="uni25CA" unicode="&#x25ca;" horiz-adv-x="586" d="M265 -11 L37 320 L336 660 L561 320 L265 -11 Z M272 55 L508 320 L329 590 L89 320 L272 55 Z " />
<glyph glyph-name="uni222B" unicode="&#x222b;" horiz-adv-x="372" d="M-37 -140 L-32 -92 L9 -92 Q71 -92 98 -58 Q125 -24 134 59 L180 495 Q190 591 232 640 Q274 689 363 689 L409 689 L404 640 L350 640 Q292 640 264 607 Q236 574 227 492 L181 54 Q171 -42 128 -91 Q85 -140 -1 -140 L-37 -140 Z " />
<glyph glyph-name="uni00B5" unicode="&#xb5;" horiz-adv-x="553" d="M509 0 L373 0 L382 85 Q356 42 313 16 Q270 -10 218 -10 Q160 -10 124 20 L100 -213 L46 -213 L110 397 L30 397 L35 444 L170 444 L141 172 Q134 98 162 67 Q190 36 238 36 Q296 36 338 77 Q380 118 390 164 L414 397 L319 397 L324 444 L473 444 L432 46 L514 46 L509 0 Z " />
<glyph glyph-name="uni03C0" unicode="&#x3c0;" horiz-adv-x="568" d="M6 46 L87 46 L123 397 L42 397 L47 444 L557 444 L552 397 L469 397 L433 46 L513 46 L508 0 L293 0 L298 46 L379 46 L415 397 L178 397 L142 46 L222 46 L217 0 L2 0 L6 46 Z " />
<glyph glyph-name="uni2206" unicode="&#x2206;" horiz-adv-x="535" d="M-1 0 L314 661 L480 0 L-1 0 Z M68 46 L422 46 L301 536 L68 46 Z " />
<glyph glyph-name="uni0394" unicode="&#x394;" horiz-adv-x="483" d="M-29 0 L286 661 L452 0 L-29 0 Z M40 46 L394 46 L273 536 L40 46 Z " />
<glyph glyph-name="uni03A3" unicode="&#x3a3;" horiz-adv-x="528" d="M4 0 L9 49 L244 326 L66 600 L72 650 L534 650 L529 600 L127 600 L300 336 L298 319 L69 49 L471 49 L466 0 L4 0 Z " />
<glyph glyph-name="uni2126" unicode="&#x2126;" horiz-adv-x="709" d="M382 608 Q272 608 194.5 541 Q117 474 117 346 Q117 263 156 208.5 Q195 154 278 153 L262 0 L22 0 L27 49 L218 49 L225 115 Q148 120 103.5 183 Q59 246 59 344 Q59 452 107.5 522 Q156 592 231 626 Q306 660 386 660 Q458 660 523 631.5 Q588 603 629 544 Q670 485 670 393 Q670 328 646.5 265.5 Q623 203 576 161.5 Q529 120 459 115 L452 49 L635 49 L630 0 L400 0 L416 153 Q491 153 533.5 191.5 Q576 230 593.5 285 Q611 340 611 390 Q611 500 545.5 554 Q480 608 382 608 Z " />
<glyph glyph-name="uni00B4" unicode="&#xb4;" horiz-adv-x="431" d="M414 631 L238 523 L222 549 L385 678 L414 631 Z " />
<glyph glyph-name="uni0060" unicode="&#x60;" horiz-adv-x="431" d="M390 523 L214 631 L243 678 L406 549 L390 523 Z " />
<glyph glyph-name="uni02C6" unicode="&#x2c6;" horiz-adv-x="331" d="M260 667 L362 549 L336 522 L245 612 L138 522 L117 549 L244 667 L260 667 Z " />
<glyph glyph-name="uni00A8" unicode="&#xa8;" horiz-adv-x="383" d="M121 562 L128 633 L194 633 L187 562 L121 562 Z M285 562 L292 633 L359 633 L352 562 L285 562 Z " />
<glyph glyph-name="uni02DC" unicode="&#x2dc;" horiz-adv-x="367" d="M121 558 L93 569 Q100 594 123.5 621 Q147 648 181 648 Q213 648 235 629.5 Q257 611 295 611 Q308 611 321 618.5 Q334 626 344 654 L375 646 Q347 563 292 563 Q254 563 228.5 582 Q203 601 177 601 Q164 601 148 592 Q132 583 121 558 Z " />
<glyph glyph-name="uni00AF" unicode="&#xaf;" horiz-adv-x="328" d="M106 618 L339 618 L335 572 L101 572 L106 618 Z " />
<glyph glyph-name="uni02D8" unicode="&#x2d8;" horiz-adv-x="391" d="M331 655 L378 655 Q365 537 250 537 Q135 537 147 655 L194 655 Q189 612 205 594.5 Q221 577 255 577 Q324 577 331 655 Z " />
<glyph glyph-name="uni02D9" unicode="&#x2d9;" horiz-adv-x="199" d="M129 559 L137 638 L197 638 L189 559 L129 559 Z " />
<glyph glyph-name="uni02DA" unicode="&#x2da;" horiz-adv-x="255" d="M180 514 Q138 514 116.5 537 Q95 560 95 595 Q95 641 124 669.5 Q153 698 202 698 Q242 698 265 675.5 Q288 653 288 617 Q288 576 260 545 Q232 514 180 514 Z M185 549 Q215 549 231.5 567.5 Q248 586 248 614 Q248 634 236.5 648.5 Q225 663 198 663 Q136 663 136 598 Q136 549 185 549 Z " />
<glyph glyph-name="uni00B8" unicode="&#xb8;" horiz-adv-x="251" d="M149 6 L143 -48 L151 -48 Q230 -48 230 -120 Q230 -165 197 -187 Q164 -209 120 -209 Q65 -209 35 -179 L54 -146 Q81 -169 123 -169 Q148 -169 165 -157.5 Q182 -146 182 -119 Q182 -93 165.5 -86 Q149 -79 125 -79 L98 -79 L107 6 L149 6 Z " />
<glyph glyph-name="uni02DD" unicode="&#x2dd;" horiz-adv-x="421" d="M290 682 L156 522 L132 541 L247 714 L290 682 Z M435 631 L260 523 L245 550 L408 678 L435 631 Z " />
<glyph glyph-name="uni02DB" unicode="&#x2db;" horiz-adv-x="274" d="M200 -189 Q162 -209 123 -209 Q33 -209 33 -126 Q33 -80 65.5 -43 Q98 -6 141 12 L179 8 Q124 -19 103.5 -51.5 Q83 -84 83 -113 Q83 -165 139 -165 Q167 -165 196 -149 L200 -189 Z " />
<glyph glyph-name="uni02C7" unicode="&#x2c7;" horiz-adv-x="331" d="M229 522 L127 637 L154 663 L243 577 L351 666 L372 639 L244 522 L229 522 Z " />
<glyph glyph-name="uni0323" unicode="&#x323;" horiz-adv-x="816" d="M83 -168 L91 -89 L152 -89 L144 -168 L83 -168 Z " />
<glyph glyph-name="uni2122" unicode="&#x2122;" horiz-adv-x="1059" d="M1001 610 L944 610 L944 267 L998 267 L998 227 L844 227 L844 267 L895 267 L895 545 L892 545 L746 248 L719 248 L570 547 L567 547 L567 267 L620 267 L620 227 L466 227 L466 267 L521 267 L521 610 L463 610 L463 650 L563 650 L733 313 L736 313 L900 650 L1001 650 L1001 610 Z M449 518 L407 518 L397 610 L276 610 L276 267 L352 267 L352 227 L152 227 L152 267 L228 267 L228 610 L106 610 L96 518 L53 518 L63 650 L439 650 L449 518 Z " />
<glyph glyph-name="uni2120" unicode="&#x2120;" horiz-adv-x="997" d="M218 222 Q174 222 129 235 Q84 248 63 263 L71 345 L110 342 L107 285 Q130 273 157 268 Q184 263 212 263 Q254 263 280.5 282.5 Q307 302 307 343 Q307 386 273.5 404.5 Q240 423 197 432 Q151 441 109 460.5 Q67 480 67 542 Q67 600 106.5 629 Q146 658 201 658 Q237 658 274.5 648.5 Q312 639 333 624 L338 537 L299 533 L291 598 Q252 617 210 617 Q169 617 143.5 599 Q118 581 118 546 Q118 506 148.5 492 Q179 478 216 470 Q244 463 277.5 452.5 Q311 442 334.5 418 Q358 394 358 346 Q358 286 318.5 254 Q279 222 218 222 Z M404 267 L459 267 L459 610 L402 610 L402 650 L502 650 L671 313 L674 313 L839 650 L939 650 L939 610 L882 610 L882 267 L937 267 L937 227 L782 227 L782 267 L834 267 L834 545 L831 545 L684 248 L657 248 L508 547 L505 547 L505 267 L558 267 L558 227 L404 227 L404 267 Z " />
<glyph glyph-name="uni00AE" unicode="&#xae;" horiz-adv-x="599" d="M300 159 Q196 159 123 231.5 Q50 304 50 409 Q50 513 123 586.5 Q196 660 301 660 Q406 660 478.5 586.5 Q551 513 551 409 Q551 305 477.5 232 Q404 159 300 159 Z M301 193 Q392 193 453.5 256.5 Q515 320 515 409 Q515 499 454 562.5 Q393 626 301 626 Q208 626 146.5 562.5 Q85 499 85 409 Q85 319 147 256 Q209 193 301 193 Z M180 301 L218 301 L218 537 L180 537 L180 564 L311 564 Q366 564 390 540.5 Q414 517 414 483 Q414 418 348 401 L402 301 L441 301 L441 274 L380 274 L316 396 L251 396 L251 301 L292 301 L292 274 L180 274 L180 301 Z M305 422 Q378 422 378 482 Q378 537 305 537 L251 537 L251 422 L305 422 Z " />
<glyph glyph-name="uni00A9" unicode="&#xa9;" horiz-adv-x="619" d="M601 285 Q601 204 560 138 Q519 72 453 32.5 Q387 -7 311 -7 Q208 -7 140.5 63 Q73 133 73 236 Q73 316 113.5 382.5 Q154 449 221 489 Q288 529 365 529 Q470 529 535.5 458 Q601 387 601 285 Z M566 283 Q566 372 510 433 Q454 494 361 494 Q257 494 182.5 418.5 Q108 343 108 239 Q108 149 165 88 Q222 27 313 27 Q415 27 490.5 102 Q566 177 566 283 Z M437 113 Q416 97 387.5 90.5 Q359 84 333 84 Q256 84 216 129 Q176 174 176 242 Q176 324 229 382.5 Q282 441 363 441 Q392 441 421 431.5 Q450 422 471 401 L474 338 L442 335 L438 387 Q426 396 408.5 403.5 Q391 411 362 411 Q292 411 252.5 363 Q213 315 213 243 Q213 185 242.5 149.5 Q272 114 344 114 Q358 114 374 116.5 Q390 119 408 127 L423 179 L454 176 L437 113 Z " />
<glyph glyph-name="uni2117" unicode="&#x2117;" horiz-adv-x="619" d="M311 -7 Q208 -7 140.5 63 Q73 133 73 236 Q73 316 113.5 382.5 Q154 449 221 489 Q288 529 365 529 Q470 529 535.5 458 Q601 387 601 285 Q601 204 560 138 Q519 72 453 32.5 Q387 -7 311 -7 Z M313 27 Q415 27 490.5 101.5 Q566 176 566 283 Q566 372 510 433 Q454 494 361 494 Q257 494 182.5 418.5 Q108 343 108 239 Q108 150 165 88.5 Q222 27 313 27 Z M207 128 L252 128 L281 399 L235 399 L239 431 L390 431 Q451 431 477 402 Q503 373 503 331 Q503 275 465.5 241.5 Q428 208 370 208 L298 208 L289 128 L352 128 L348 96 L203 96 L207 128 Z M368 240 Q414 240 438.5 264 Q463 288 463 328 Q463 399 384 399 L318 399 L301 240 L368 240 Z " />
<glyph glyph-name="uni267E" unicode="&#x267e;" horiz-adv-x="619" d="M311 -7 Q208 -7 140.5 63 Q73 133 73 236 Q73 316 113.5 382.5 Q154 449 221 489 Q288 529 365 529 Q470 529 535.5 458 Q601 387 601 285 Q601 204 560 138 Q519 72 453 32.5 Q387 -7 311 -7 Z M313 27 Q415 27 490.5 102.5 Q566 178 566 284 Q566 372 510.5 433 Q455 494 361 494 Q257 494 182.5 418.5 Q108 343 108 239 Q108 150 165 88.5 Q222 27 313 27 Z M428 155 Q390 155 370.5 179.5 Q351 204 338 234 Q318 204 293 179.5 Q268 155 231 155 Q196 155 173 179.5 Q150 204 150 251 Q150 308 182.5 340 Q215 372 254 372 Q290 372 309.5 346 Q329 320 343 286 Q363 318 389.5 345 Q416 372 454 372 Q531 372 531 277 Q531 219 499.5 187 Q468 155 428 155 Z M451 341 Q417 341 395 314.5 Q373 288 354 260 Q365 232 382 208.5 Q399 185 430 185 Q457 185 479 207 Q501 229 501 275 Q501 341 451 341 Z M234 185 Q263 185 283.5 206.5 Q304 228 326 260 Q312 292 297 316.5 Q282 341 250 341 Q224 341 201.5 320 Q179 299 179 255 Q179 185 234 185 Z " />
<glyph glyph-name="uni24CA" unicode="&#x24ca;" horiz-adv-x="619" d="M311 -7 Q208 -7 140.5 63 Q73 133 73 236 Q73 316 113.5 382.5 Q154 449 221 489 Q288 529 365 529 Q470 529 535.5 458 Q601 387 601 285 Q601 204 560 138 Q519 72 453 32.5 Q387 -7 311 -7 Z M313 27 Q415 27 490.5 101.5 Q566 176 566 283 Q566 372 510 433 Q454 494 361 494 Q257 494 182.5 418.5 Q108 343 108 239 Q108 150 165 88.5 Q222 27 313 27 Z M397 404 L515 404 L511 373 L477 373 L463 238 Q457 182 428 136.5 Q399 91 320 91 Q245 91 225.5 133.5 Q206 176 212 231 L227 373 L189 373 L193 404 L314 404 L310 373 L261 373 L247 233 Q242 182 258 152 Q274 122 325 122 Q417 122 429 238 L443 373 L393 373 L397 404 Z " />
<glyph glyph-name="uni20AC" unicode="&#x20ac;" horiz-adv-x="592" d="M38 302 L42 340 L106 340 Q132 422 197 475.5 Q262 529 356 529 Q399 529 448.5 517.5 Q498 506 525 483 L530 366 L482 360 L473 459 Q450 471 415 477.5 Q380 484 351 484 Q279 484 231.5 444 Q184 404 163 340 L370 340 L366 302 L153 302 Q147 269 147 234 L147 214 L332 214 L328 177 L152 177 Q163 112 202 75 Q241 38 309 38 Q334 38 370 43.5 Q406 49 435 60 L465 161 L511 155 L478 31 Q450 18 398 5 Q346 -8 298 -8 Q206 -8 155 43.5 Q104 95 92 177 L25 177 L29 214 L89 214 L89 228 Q89 268 96 302 L38 302 Z " />
<glyph glyph-name="uni0024" unicode="&#x24;" horiz-adv-x="458" d="M397 156 Q397 82 348.5 39.5 Q300 -3 218 -7 L212 -65 L177 -65 L183 -7 Q133 -4 91 11 Q49 26 27 41 L48 150 L94 146 L84 69 Q132 43 188 39 L210 252 Q151 266 109.5 292 Q68 318 68 377 Q68 447 116 486 Q164 525 239 528 L246 593 L281 593 L274 528 Q354 523 408 482 L402 370 L356 367 L355 455 Q318 481 269 484 L250 296 Q301 283 349 255 Q397 227 397 156 Z M126 387 Q126 346 151 330 Q176 314 216 304 L234 484 Q126 476 126 387 Z M339 147 Q339 191 313.5 211 Q288 231 244 243 L223 38 Q271 42 305 68 Q339 94 339 147 Z " />
<glyph glyph-name="uni00A2" unicode="&#xa2;" horiz-adv-x="448" d="M170 -84 L178 -8 Q111 0 74.5 50 Q38 100 38 183 Q38 238 56 297 Q74 356 115.5 399.5 Q157 443 226 451 L234 529 L274 529 L266 453 Q338 449 391 405 L397 306 L350 300 L341 375 Q307 404 261 406 L223 36 Q311 45 345 156 L388 145 Q374 90 333 43 Q292 -4 218 -9 L210 -84 L170 -84 Z M95 187 Q95 125 115.5 85.5 Q136 46 183 38 L221 402 Q150 387 122.5 321 Q95 255 95 187 Z " />
<glyph glyph-name="uni00A3" unicode="&#xa3;" horiz-adv-x="503" d="M52 279 L120 279 L126 334 Q137 444 191.5 486.5 Q246 529 301 529 Q348 529 379 519 Q410 509 435 493 L440 376 L392 370 L384 465 Q353 484 311 484 Q256 484 221.5 451 Q187 418 179 335 L173 279 L359 279 L355 241 L170 241 L165 190 Q161 156 143.5 113 Q126 70 83 45 L288 45 Q332 45 358.5 65 Q385 85 402 109 L430 83 Q418 64 383 32 Q348 0 294 0 L14 0 L19 43 Q68 65 87 105.5 Q106 146 111 190 L116 241 L48 241 L52 279 Z " />
<glyph glyph-name="uni0192" unicode="&#x192;" horiz-adv-x="383" d="M55 267 L137 267 L156 381 Q180 529 324 529 Q336 529 355 528 Q374 527 389 525 L384 482 Q367 484 351 486 Q335 488 321 488 Q277 488 248 466 Q219 444 209 379 L191 267 L311 267 L307 229 L185 229 L151 18 Q144 -32 120 -72 Q96 -112 23 -112 Q9 -112 -20 -108 L-16 -67 Q-5 -70 8.5 -70.5 Q22 -71 30 -71 Q64 -71 77.5 -49.5 Q91 -28 99 25 L131 229 L51 229 L55 267 Z " />
<glyph glyph-name="uni00A5" unicode="&#xa5;" horiz-adv-x="576" d="M145 45 L238 45 L245 107 L109 107 L113 142 L248 142 L254 200 L253 203 L119 203 L123 239 L234 239 L109 476 L55 476 L60 521 L251 521 L246 476 L169 476 L287 246 L292 246 L450 476 L374 476 L379 521 L564 521 L559 476 L507 476 L338 239 L447 239 L443 203 L313 203 L309 197 L303 142 L437 142 L433 107 L299 107 L292 45 L388 45 L383 0 L140 0 L145 45 Z " />
<glyph glyph-name="uni20B9" unicode="&#x20b9;" horiz-adv-x="519" d="M62 264 L212 264 Q279 264 311.5 289.5 Q344 315 352 357 L72 357 L75 393 L355 393 Q351 476 233 476 L84 476 L89 521 L492 521 L487 477 L380 477 Q411 446 413 393 L464 393 L461 357 L409 357 Q400 311 367 274.5 Q334 238 279 228 L359 45 L427 45 L421 0 L318 0 L224 221 L57 221 L62 264 Z " />
<glyph glyph-name="uni00A4" unicode="&#xa4;" horiz-adv-x="513" d="M108 257 Q108 315 147 362 L62 459 L90 485 L174 388 Q219 422 271 422 Q324 422 361 387 L468 485 L490 459 L383 361 Q405 326 405 284 Q405 226 365 179 L450 82 L422 56 L337 153 Q293 120 241 120 Q188 120 151 154 L44 56 L22 82 L129 180 Q108 213 108 257 Z M155 262 Q155 217 181 191.5 Q207 166 246 166 Q291 166 324 198 Q357 230 357 282 Q357 326 331.5 351.5 Q306 377 267 377 Q224 377 190 345.5 Q156 314 155 262 Z " />
<glyph glyph-name="uni20A5" unicode="&#x20a5;" horiz-adv-x="826" d="M74 444 L182 444 L178 357 Q201 400 236.5 426.5 Q272 453 326 453 Q432 453 447 349 Q462 380 480 401 L568 565 L613 565 L549 446 Q575 453 598 453 Q662 453 698 410.5 Q734 368 723 280 L693 46 L773 46 L769 15 L750 0 L636 0 L668 267 Q677 343 652.5 374.5 Q628 406 579 406 Q546 406 520 392 L443 247 L413 0 L361 0 L375 121 L241 -130 L196 -130 L388 229 L393 267 Q402 344 377.5 375 Q353 406 306 406 Q242 406 209 361 Q176 316 169 262 L137 0 L85 0 L133 397 L51 397 L55 426 L74 444 Z " />
<glyph glyph-name="uni20A4" unicode="&#x20a4;" horiz-adv-x="569" d="M54 277 L135 277 L145 366 L63 366 L67 407 L150 407 L151 417 Q165 548 225 604 Q285 660 376 660 Q414 660 456 650 Q498 640 523 615 L528 498 L481 492 L472 580 Q435 608 372 608 Q305 608 261 567.5 Q217 527 206 418 L205 407 L431 407 L427 366 L200 366 L191 277 L418 277 L414 236 L187 236 L187 234 Q182 190 161.5 136 Q141 82 89 51 L342 51 Q394 51 425 77 Q456 103 476 132 L508 104 Q493 79 451.5 39.5 Q410 0 348 0 L12 0 L18 48 Q79 75 102 126.5 Q125 178 131 234 L131 236 L50 236 L54 277 Z " />
<glyph glyph-name="uni20A1" unicode="&#x20a1;" horiz-adv-x="679" d="M646 689 L690 689 L397 45 Q447 51 487 72 L516 168 L564 162 L535 45 Q501 21 458.5 8.5 Q416 -4 372 -8 L344 -71 L300 -71 L328 -10 Q281 -8 242 2 L209 -71 L166 -71 L205 15 Q128 50 88.5 122 Q49 194 49 288 Q49 390 93 474.5 Q137 559 211.5 609.5 Q286 660 380 660 Q441 660 489 639 L512 689 L556 689 L524 620 Q566 591 581 546 L646 689 Z M384 608 Q262 608 185 516 Q108 424 108 294 Q108 128 229 67 L468 592 Q431 608 384 608 Z M350 42 L351 42 L555 489 Q547 539 503 572 L266 53 Q305 42 350 42 Z " />
<glyph glyph-name="uni20A2" unicode="&#x20a2;" horiz-adv-x="654" d="M537 45 Q496 16 442 3 Q388 -10 337 -10 Q198 -10 124 73 Q50 156 50 290 Q50 449 146 554.5 Q242 660 393 660 Q460 660 512.5 639 Q565 618 599 584 L604 467 L555 461 L546 559 Q516 581 479.5 594.5 Q443 608 393 608 Q267 608 187 522 Q107 436 107 293 Q107 75 294 46 L326 329 L246 329 L250 358 L268 376 L374 376 L371 282 Q390 325 419.5 355.5 Q449 386 490 386 Q519 386 546 369 L535 314 Q508 329 481 329 Q438 329 408 288 Q378 247 365 198 L346 42 L349 42 Q429 42 489 72 L518 168 L566 162 L537 45 Z " />
<glyph glyph-name="uni20AB" unicode="&#x20ab;" horiz-adv-x="540" d="M242 633 L409 633 L415 688 L466 688 L460 633 L523 633 L519 593 L456 593 L412 176 L485 176 L480 135 L357 135 L366 219 Q343 182 304.5 154 Q266 126 205 126 Q135 126 94.5 170 Q54 214 54 301 Q54 356 73 409.5 Q92 463 136.5 498 Q181 533 256 533 Q358 533 391 458 L405 593 L238 593 L242 633 Z M260 491 Q171 491 139.5 430.5 Q108 370 108 308 Q108 235 139 202 Q170 169 219 169 Q282 169 323.5 211.5 Q365 254 374 300 L382 376 Q385 425 354 458 Q323 491 260 491 Z M51 43 L423 43 L418 0 L47 0 L51 43 Z " />
<glyph glyph-name="uni20A3" unicode="&#x20a3;" horiz-adv-x="746" d="M19 51 L102 51 L159 599 L76 599 L81 650 L532 650 L533 466 L480 460 L476 599 L214 599 L190 362 L521 362 L511 268 Q530 310 559 340 Q588 370 629 370 Q658 370 685 353 L674 298 Q647 313 620 313 Q577 313 546.5 271.5 Q516 230 504 181 L490 46 L586 46 L582 16 L563 0 L361 0 L365 29 L383 46 L437 46 L465 312 L184 312 L157 51 L270 51 L264 0 L14 0 L19 51 Z " />
<glyph glyph-name="uni20A6" unicode="&#x20a6;" horiz-adv-x="748" d="M273 0 L39 0 L44 51 L120 51 L139 233 L51 233 L55 274 L144 274 L154 376 L67 376 L71 417 L159 417 L177 599 L93 599 L98 650 L223 650 L361 417 L574 417 L593 599 L498 599 L503 650 L735 650 L730 599 L647 599 L629 417 L711 417 L706 376 L624 376 L614 274 L695 274 L691 233 L609 233 L585 0 L547 0 L409 233 L191 233 L172 51 L278 51 L273 0 Z M224 539 L211 417 L299 417 L227 539 L224 539 Z M196 274 L384 274 L324 376 L207 376 L196 274 Z M446 274 L559 274 L570 376 L386 376 L446 274 Z M540 117 L543 117 L555 233 L471 233 L540 117 Z " />
<glyph glyph-name="uni20A7" unicode="&#x20a7;" horiz-adv-x="1219" d="M19 51 L101 51 L158 599 L76 599 L82 650 L337 650 Q444 650 492 597 Q540 544 540 474 Q540 368 476.5 308.5 Q413 249 308 249 L177 249 L156 51 L269 51 L263 0 L14 0 L19 51 Z M307 299 Q388 299 435 344 Q482 389 482 471 Q482 530 443 564.5 Q404 599 329 599 L213 599 L182 299 L307 299 Z M543 426 L563 444 L624 444 L640 569 L659 588 L695 588 L677 444 L833 444 L829 415 L809 397 L672 397 L640 134 Q628 36 701 36 Q725 36 744.5 51 Q764 66 781 122 L821 108 Q804 47 775 18.5 Q746 -10 695 -10 Q635 -10 607 28 Q579 66 587 130 L619 397 L539 397 L543 426 Z M983 36 Q1100 36 1100 122 Q1100 166 1069 182 Q1038 198 982 212 Q938 223 901.5 244.5 Q865 266 865 323 Q865 384 909.5 418.5 Q954 453 1015 453 Q1062 453 1101 440 Q1140 427 1163 412 L1162 310 L1118 304 L1114 379 Q1094 390 1073 398 Q1052 406 1022 406 Q921 406 921 329 Q921 297 943.5 281.5 Q966 266 1016 253 Q1062 241 1109 218.5 Q1156 196 1156 128 Q1156 66 1111.5 28 Q1067 -10 993 -10 Q946 -10 900 3.5 Q854 17 831 34 L853 128 L897 124 L886 59 Q926 36 983 36 Z " />
<glyph glyph-name="uni20A8" unicode="&#x20a8;" horiz-adv-x="906" d="M700 406 Q598 406 598 330 Q598 285 636.5 270 Q675 255 725 247 Q775 239 813.5 216.5 Q852 194 852 134 Q852 73 803.5 31.5 Q755 -10 662 -10 Q554 -10 484 44.5 Q414 99 383 169 L332 279 L180 279 L156 51 L247 51 L242 0 L13 0 L19 51 L101 51 L158 599 L75 599 L81 650 L352 650 Q460 650 504.5 603.5 Q549 557 549 488 Q549 422 511 365.5 Q473 309 388 289 L432 195 Q460 132 522.5 84 Q585 36 668 36 Q723 36 759 59 Q795 82 795 126 Q795 164 769 180.5 Q743 197 705.5 205 Q668 213 630 222.5 Q592 232 566 254.5 Q540 277 540 325 Q540 390 588 421.5 Q636 453 698 453 Q744 453 783.5 440 Q823 427 846 412 L845 310 L801 304 L797 379 Q778 390 754 398 Q730 406 700 406 Z M316 327 Q408 327 449 370 Q490 413 490 480 Q490 541 455.5 570 Q421 599 341 599 L213 599 L185 327 L316 327 Z " />
<glyph glyph-name="uni20AA" unicode="&#x20aa;" horiz-adv-x="761" d="M65 0 L133 650 L333 650 Q429 650 471.5 624 Q514 598 521 537.5 Q528 477 517 374 L503 244 L447 244 L462 379 Q472 472 468.5 519.5 Q465 567 433.5 583.5 Q402 600 328 600 L184 600 L121 0 L65 0 Z M304 50 L461 50 Q533 50 565.5 70.5 Q598 91 609 140.5 Q620 190 629 276 L668 650 L725 650 L686 281 Q675 178 658 116.5 Q641 55 596 27.5 Q551 0 455 0 L244 0 L287 406 L342 406 L304 50 Z " />
<glyph glyph-name="uni20A9" unicode="&#x20a9;" horiz-adv-x="967" d="M63 287 L180 287 L160 389 L74 389 L78 432 L152 432 L120 599 L66 599 L71 650 L281 650 L275 599 L178 599 L207 432 L412 432 L481 599 L413 599 L419 650 L629 650 L623 599 L555 599 L588 432 L787 432 L848 599 L751 599 L756 650 L965 650 L960 599 L904 599 L840 432 L925 432 L920 389 L823 389 L784 287 L909 287 L905 244 L768 244 L674 0 L625 0 L575 244 L385 244 L285 0 L235 0 L188 244 L59 244 L63 287 Z M510 547 L462 432 L537 432 L514 547 L510 547 Z M233 287 L352 287 L394 389 L215 389 L233 287 Z M617 287 L734 287 L771 389 L597 389 L617 287 Z M403 287 L566 287 L546 389 L445 389 L403 287 Z M268 93 L273 93 L335 244 L241 244 L268 93 Z M657 91 L662 91 L718 244 L626 244 L657 91 Z " />
<glyph glyph-name="uni20AD" unicode="&#x20ad;" horiz-adv-x="660" d="M384 51 L461 51 L308 306 L195 306 L168 51 L247 51 L241 0 L25 0 L31 51 L113 51 L140 306 L57 306 L63 356 L145 356 L170 599 L88 599 L93 650 L310 650 L305 599 L225 599 L200 356 L309 356 L509 600 L432 600 L438 651 L650 651 L644 600 L573 600 L369 356 L558 356 L552 306 L372 306 L526 51 L599 51 L594 0 L378 0 L384 51 Z " />
<glyph glyph-name="uni20AE" unicode="&#x20ae;" horiz-adv-x="608" d="M596 458 L545 454 L541 599 L366 599 L343 381 L497 440 L493 394 L338 335 L329 253 L484 312 L480 267 L324 208 L308 51 L423 51 L418 0 L135 0 L140 51 L253 51 L267 186 L121 130 L125 176 L272 232 L281 313 L134 258 L139 303 L286 359 L311 599 L133 599 L99 454 L49 458 L87 650 L597 650 L596 458 Z " />
<glyph glyph-name="uni20B1" unicode="&#x20b1;" horiz-adv-x="640" d="M32 51 L114 51 L148 374 L70 374 L74 413 L152 413 L159 486 L82 486 L86 525 L163 525 L171 599 L89 599 L95 650 L350 650 Q437 650 484.5 614 Q532 578 546 525 L632 525 L627 486 L552 486 Q552 483 552.5 480 Q553 477 553 474 Q553 442 547 413 L619 413 L615 374 L534 374 Q482 249 321 249 L190 249 L169 51 L282 51 L276 0 L27 0 L32 51 Z M342 599 L226 599 L218 525 L484 525 Q452 599 342 599 Z M495 471 Q495 475 494.5 478.5 Q494 482 494 486 L214 486 L207 413 L487 413 Q495 440 495 471 Z M320 299 Q428 299 471 374 L203 374 L195 299 L320 299 Z " />
<glyph glyph-name="uni20B4" unicode="&#x20b4;" horiz-adv-x="572" d="M54 375 L57 410 L394 410 Q421 427 436 449.5 Q451 472 451 507 Q451 560 415 584.5 Q379 609 317 609 Q292 609 253 604 Q214 599 181 583 L159 480 L113 485 L133 611 Q165 633 220 646.5 Q275 660 327 660 Q399 660 455 627 Q511 594 511 510 Q511 478 500 453.5 Q489 429 471 410 L543 410 L539 375 L426 375 Q394 356 356.5 342 Q319 328 284 315 Q256 305 237 297 L531 297 L527 262 L174 262 Q121 221 121 157 Q121 90 165 65.5 Q209 41 272 41 Q304 41 340 47.5 Q376 54 404 72 L434 168 L482 162 L452 45 Q372 -10 262 -10 Q174 -10 117.5 29 Q61 68 61 154 Q61 216 100 262 L41 262 L45 297 L141 297 Q171 316 206 331 Q241 346 277 359 Q288 363 299 367 Q310 371 320 375 L54 375 Z " />
<glyph glyph-name="uni20BA" unicode="&#x20ba;" horiz-adv-x="586" d="M54 225 L144 263 L153 347 L63 309 L67 352 L158 390 L179 599 L96 599 L102 650 L341 650 L336 599 L235 599 L216 414 L441 509 L437 466 L212 371 L203 287 L427 382 L423 339 L198 244 L178 51 L252 51 Q380 51 435 129 Q490 207 504 334 L560 334 Q546 190 472.5 95 Q399 0 249 0 L34 0 L39 51 L122 51 L140 220 L50 182 L54 225 Z " />
<glyph glyph-name="uni20BD" unicode="&#x20bd;" horiz-adv-x="574" d="M35 51 L118 51 L128 144 L45 144 L49 183 L132 183 L140 257 L56 257 L62 307 L145 307 L175 599 L92 599 L98 650 L363 650 Q470 650 515 599.5 Q560 549 560 479 Q560 372 495 314.5 Q430 257 326 257 L196 257 L188 183 L439 183 L435 144 L184 144 L174 51 L286 51 L281 0 L30 0 L35 51 Z M326 307 Q406 307 453.5 348.5 Q501 390 501 473 Q501 532 465.5 565.5 Q430 599 354 599 L231 599 L201 307 L326 307 Z " />
<glyph glyph-name="uni00BD" unicode="&#xbd;" horiz-adv-x="721" d="M580 650 L362 325 L148 0 L105 0 L332 337 L538 650 L580 650 Z M46 323 L120 323 L150 613 L76 613 L79 650 L200 650 L166 323 L238 323 L234 286 L41 286 L46 323 Z M466 255 L431 260 L448 330 Q491 370 557 370 Q612 370 639.5 343.5 Q667 317 667 280 Q667 230 626.5 182.5 Q586 135 536 96.5 Q486 58 459 37 L626 37 L640 91 L678 87 L659 0 L400 0 L399 33 Q446 70 496 110.5 Q546 151 580.5 193.5 Q615 236 615 278 Q615 301 600.5 317 Q586 333 547 333 Q513 333 487 315 L466 255 Z " />
<glyph glyph-name="uni00BC" unicode="&#xbc;" horiz-adv-x="682" d="M586 650 L368 325 L154 0 L111 0 L338 337 L544 650 L586 650 Z M48 323 L122 323 L152 613 L78 613 L81 650 L202 650 L168 323 L240 323 L236 286 L43 286 L48 323 Z M515 0 L525 95 L344 95 L343 131 L502 364 L598 364 L573 130 L636 130 L628 95 L570 95 L560 0 L515 0 Z M520 327 L386 130 L529 130 L550 327 L520 327 Z " />
<glyph glyph-name="uni00BE" unicode="&#xbe;" horiz-adv-x="707" d="M118 553 L83 558 L98 620 Q120 641 150 650.5 Q180 660 208 660 Q252 660 282 639 Q312 618 312 578 Q312 550 293 523.5 Q274 497 227 485 L227 483 Q274 476 292 452.5 Q310 429 310 398 Q310 343 268 313.5 Q226 284 171 284 Q119 284 86.5 309.5 Q54 335 52 381 L87 389 Q88 364 109 342.5 Q130 321 172 321 Q215 321 237.5 344.5 Q260 368 260 400 Q260 428 238 445 Q216 462 158 464 L161 496 Q217 499 240 521.5 Q263 544 263 571 Q263 623 199 623 Q168 623 136 605 L118 553 Z M613 650 L395 325 L181 0 L138 0 L365 337 L571 650 L613 650 Z M539 0 L549 95 L368 95 L367 131 L526 364 L622 364 L597 130 L660 130 L652 95 L594 95 L584 0 L539 0 Z M544 327 L410 130 L553 130 L574 327 L544 327 Z " />
<glyph glyph-name="uni2153" unicode="&#x2153;" horiz-adv-x="717" d="M569 650 L351 325 L137 0 L94 0 L321 337 L527 650 L569 650 Z M46 323 L120 323 L150 613 L76 613 L79 650 L200 650 L166 323 L238 323 L234 286 L41 286 L46 323 Z M474 262 L439 267 L454 329 Q476 350 506 359.5 Q536 369 564 369 Q608 369 638 348 Q668 327 668 287 Q668 259 649 232.5 Q630 206 583 194 L583 192 Q630 185 648 161.5 Q666 138 666 107 Q666 52 624 22.5 Q582 -7 527 -7 Q475 -7 442.5 18.5 Q410 44 408 90 L443 98 Q444 73 465 51.5 Q486 30 528 30 Q571 30 593.5 53.5 Q616 77 616 109 Q616 138 594 155 Q572 172 514 173 L517 205 Q573 208 596 230.5 Q619 253 619 280 Q619 332 555 332 Q524 332 492 314 L474 262 Z " />
<glyph glyph-name="uni2154" unicode="&#x2154;" horiz-adv-x="767" d="M111 545 L76 550 L93 620 Q136 660 202 660 Q257 660 284.5 633.5 Q312 607 312 570 Q312 520 271 472.5 Q230 425 180.5 386.5 Q131 348 104 327 L271 327 L285 381 L323 377 L304 290 L45 290 L44 323 Q91 360 141 400.5 Q191 441 225.5 483.5 Q260 526 260 568 Q260 591 245.5 607 Q231 623 192 623 Q158 623 132 605 L111 545 Z M632 650 L414 325 L200 0 L157 0 L384 337 L590 650 L632 650 Z M524 262 L489 267 L504 329 Q526 350 556 359.5 Q586 369 614 369 Q658 369 688 348 Q718 327 718 287 Q718 259 699 232.5 Q680 206 633 194 L633 192 Q680 185 698 161.5 Q716 138 716 107 Q716 52 674 22.5 Q632 -7 577 -7 Q525 -7 492.5 18.5 Q460 44 458 90 L493 98 Q494 73 515 51.5 Q536 30 578 30 Q621 30 643.5 53.5 Q666 77 666 109 Q666 138 644 155 Q622 172 564 173 L567 205 Q623 208 646 230.5 Q669 253 669 280 Q669 332 605 332 Q574 332 542 314 L524 262 Z " />
<glyph glyph-name="uni215B" unicode="&#x215b;" horiz-adv-x="715" d="M581 650 L363 325 L149 0 L106 0 L333 337 L539 650 L581 650 Z M46 323 L120 323 L150 613 L76 613 L79 650 L200 650 L166 323 L238 323 L234 286 L41 286 L46 323 Z M515 -6 Q462 -6 428 15.5 Q394 37 394 83 Q394 127 426 150.5 Q458 174 495 188 Q466 203 445 221.5 Q424 240 424 271 Q424 313 461.5 341.5 Q499 370 557 370 Q606 370 638 347.5 Q670 325 670 286 Q670 248 642 227 Q614 206 577 193 Q610 177 636.5 156.5 Q663 136 663 98 Q663 51 620.5 22.5 Q578 -6 515 -6 Z M474 277 Q474 252 495 237 Q516 222 544 209 Q575 222 599 238.5 Q623 255 623 283 Q623 308 603 321 Q583 334 553 334 Q520 334 497 318.5 Q474 303 474 277 Z M520 30 Q558 30 585.5 47 Q613 64 613 94 Q613 123 586.5 139.5 Q560 156 526 172 Q492 158 467 140 Q442 122 442 90 Q442 61 464 45.5 Q486 30 520 30 Z " />
<glyph glyph-name="uni2044" unicode="&#x2044;" horiz-adv-x="130" d="M307 650 L89 325 L-125 0 L-168 0 L59 337 L265 650 L307 650 Z " />
<glyph glyph-name="uni2113" unicode="&#x2113;" horiz-adv-x="372" d="M47 192 L27 225 L100 279 L100 502 Q100 660 221 660 Q280 660 305.5 625 Q331 590 331 541 Q331 464 281.5 398 Q232 332 156 272 L156 144 Q156 80 174 59 Q192 38 220 38 Q265 38 307 70 L322 30 Q276 -10 211 -10 Q100 -10 100 138 L100 229 L47 192 Z M156 490 L156 325 Q214 375 245.5 425.5 Q277 476 277 537 Q277 611 218 611 Q174 611 165 577.5 Q156 544 156 490 Z " />
<glyph glyph-name="uni212E" unicode="&#x212e;" horiz-adv-x="614" d="M579 235 L151 235 Q147 235 147 232 L147 95 Q147 86 153 78 Q177 49 218 26 Q259 3 310 3 Q366 3 414.5 26 Q463 49 495 87 L519 87 Q482 44 430 16 Q378 -12 310 -12 Q194 -12 118.5 62 Q43 136 43 242 Q43 348 118.5 422 Q194 496 310 496 Q426 496 502.5 422 Q579 348 579 242 L579 235 Z M474 255 L474 392 Q474 405 469 410 Q449 436 404.5 458.5 Q360 481 310 481 Q260 481 215.5 456.5 Q171 432 154 407 Q147 396 147 388 L147 255 Q147 251 151 251 L473 251 Q474 251 474 255 Z " />
<glyph glyph-name="uni2116" unicode="&#x2116;" horiz-adv-x="940" d="M616 356 Q616 425 654 477 Q692 529 767 529 Q832 529 859 490.5 Q886 452 886 398 Q886 326 845.5 276.5 Q805 227 733 227 Q672 227 644 263 Q616 299 616 356 Z M32 45 L95 45 L140 476 L69 476 L74 521 L184 521 L449 105 L452 105 L492 476 L411 476 L416 521 L617 521 L612 476 L543 476 L493 0 L458 0 L190 421 L186 421 L146 45 L233 45 L228 0 L27 0 L32 45 Z M662 359 Q662 317 678 290.5 Q694 264 737 264 Q791 264 815 303.5 Q839 343 839 396 Q839 439 822.5 466 Q806 493 763 493 Q712 493 687 455 Q662 417 662 359 Z M594 148 L598 189 L887 189 L883 148 L594 148 Z " />
<glyph glyph-name="uni2071" unicode="&#x2071;" horiz-adv-x="184" d="M125 787 L131 841 L181 841 L175 787 L125 787 Z M65 691 L78 704 L162 704 L129 452 L180 452 L177 427 L163 415 L82 415 L113 668 L62 668 L65 691 Z " />
<glyph glyph-name="uni207F" unicode="&#x207f;" horiz-adv-x="372" d="M78 704 L155 704 L153 653 Q190 710 254 710 Q297 710 321.5 684 Q346 658 339 600 L320 452 L372 452 L368 427 L355 415 L273 415 L295 587 Q306 674 238 674 Q201 674 178 653 Q155 632 148 600 L125 415 L82 415 L113 668 L62 668 L65 691 L78 704 Z " />
<glyph glyph-name="uni207C" unicode="&#x207c;" horiz-adv-x="396" d="M89 650 L93 684 L387 684 L383 650 L89 650 Z M75 511 L78 545 L372 545 L369 511 L75 511 Z " />
<glyph glyph-name="uni207B" unicode="&#x207b;" horiz-adv-x="329" d="M83 581 L86 614 L313 614 L310 581 L83 581 Z " />
<glyph glyph-name="uni207A" unicode="&#x207a;" horiz-adv-x="294" d="M66 581 L69 614 L167 614 L178 711 L212 711 L201 614 L296 614 L293 581 L198 581 L188 485 L154 485 L164 581 L66 581 Z " />
<glyph glyph-name="uni2070" unicode="&#x2070;" horiz-adv-x="370" d="M73 566 Q73 606 85.5 657 Q98 708 133.5 746.5 Q169 785 238 785 Q313 785 338 737 Q363 689 363 627 Q363 548 328.5 478.5 Q294 409 200 409 Q129 409 101 453.5 Q73 498 73 566 Z M122 570 Q122 514 139 481 Q156 448 203 448 Q262 448 288 498 Q314 548 314 628 Q314 679 299 712.5 Q284 746 235 746 Q175 746 148.5 697 Q122 648 122 570 Z " />
<glyph glyph-name="uni00B9" unicode="&#xb9;" horiz-adv-x="249" d="M55 452 L129 452 L159 742 L85 742 L88 779 L209 779 L175 452 L247 452 L243 415 L50 415 L55 452 Z " />
<glyph glyph-name="uni00B2" unicode="&#xb2;" horiz-adv-x="335" d="M121 670 L86 675 L103 745 Q146 785 212 785 Q267 785 294.5 758.5 Q322 732 322 695 Q322 645 281 597.5 Q240 550 190.5 512 Q141 474 114 452 L281 452 L295 506 L333 502 L314 415 L55 415 L54 448 Q101 486 151 526 Q201 566 235.5 608 Q270 650 270 693 Q270 716 255.5 732 Q241 748 202 748 Q168 748 142 730 L121 670 Z " />
<glyph glyph-name="uni00B3" unicode="&#xb3;" horiz-adv-x="334" d="M129 677 L94 682 L109 744 Q132 765 161.5 774.5 Q191 784 219 784 Q262 784 292.5 763 Q323 742 323 702 Q323 674 303.5 647.5 Q284 621 238 609 L238 607 Q284 600 302.5 576.5 Q321 553 321 522 Q321 467 279 437.5 Q237 408 182 408 Q130 408 97 433.5 Q64 459 63 505 L98 513 Q100 488 120.5 466.5 Q141 445 183 445 Q226 445 248.5 468.5 Q271 492 271 524 Q271 552 249.5 569 Q228 586 169 588 L172 620 Q228 623 251 645.5 Q274 668 274 695 Q274 747 210 747 Q178 747 147 729 L129 677 Z " />
<glyph glyph-name="uni2074" unicode="&#x2074;" horiz-adv-x="346" d="M224 415 L234 510 L53 510 L52 546 L211 779 L307 779 L282 545 L345 545 L337 510 L279 510 L269 415 L224 415 Z M229 742 L95 545 L238 545 L259 742 L229 742 Z " />
<glyph glyph-name="uni2075" unicode="&#x2075;" horiz-adv-x="328" d="M317 527 Q317 466 276.5 437 Q236 408 181 408 Q125 408 92.5 435 Q60 462 59 505 L94 513 Q96 488 119 466.5 Q142 445 184 445 Q268 445 268 526 Q268 573 236 587.5 Q204 602 158 602 Q145 602 133 601.5 Q121 601 109 600 L94 613 L110 779 L326 779 L320 694 L284 690 L285 742 L150 742 L139 637 L167 637 Q228 637 272.5 614 Q317 591 317 527 Z " />
<glyph glyph-name="uni2076" unicode="&#x2076;" horiz-adv-x="342" d="M241 748 Q174 748 147.5 697 Q121 646 118 581 Q131 604 157 622.5 Q183 641 225 641 Q270 641 299 615 Q328 589 328 540 Q328 493 296.5 451 Q265 409 193 409 Q132 409 102 448.5 Q72 488 72 556 Q72 647 114 716 Q156 785 238 785 Q260 785 288 775.5 Q316 766 340 735 L312 707 Q292 735 274 741.5 Q256 748 241 748 Z M216 604 Q167 604 145.5 579 Q124 554 119 530 Q122 492 139.5 470 Q157 448 198 448 Q244 448 262 474 Q280 500 280 537 Q280 604 216 604 Z " />
<glyph glyph-name="uni2077" unicode="&#x2077;" horiz-adv-x="300" d="M83 779 L326 779 L330 755 L150 415 L104 415 L280 742 L120 742 L113 680 L73 680 L83 779 Z " />
<glyph glyph-name="uni2078" unicode="&#x2078;" horiz-adv-x="347" d="M185 409 Q132 409 98 430.5 Q64 452 64 498 Q64 542 96 565.5 Q128 589 165 603 Q136 618 115 636.5 Q94 655 94 686 Q94 728 131.5 756.5 Q169 785 227 785 Q276 785 308 762.5 Q340 740 340 701 Q340 663 312 642.5 Q284 622 247 608 Q280 592 306.5 571.5 Q333 551 333 513 Q333 466 290.5 437.5 Q248 409 185 409 Z M144 692 Q144 667 165 652.5 Q186 638 214 624 Q245 637 269 653.5 Q293 670 293 698 Q293 723 273 736 Q253 749 223 749 Q190 749 167 733.5 Q144 718 144 692 Z M190 445 Q228 445 255.5 462 Q283 479 283 509 Q283 538 256.5 554.5 Q230 571 196 587 Q162 574 137 555.5 Q112 537 112 505 Q112 476 134 460.5 Q156 445 190 445 Z " />
<glyph glyph-name="uni2079" unicode="&#x2079;" horiz-adv-x="343" d="M170 446 Q237 446 263 497 Q289 548 292 613 Q280 590 253.5 571.5 Q227 553 186 553 Q141 553 112 579 Q83 605 83 654 Q83 701 114.5 743 Q146 785 218 785 Q279 785 309 745.5 Q339 706 339 638 Q339 547 298 478 Q257 409 178 409 Q156 409 125.5 418.5 Q95 428 71 459 L99 487 Q116 462 135.5 454 Q155 446 170 446 Z M195 590 Q243 590 265.5 615 Q288 640 292 663 Q288 702 271 724 Q254 746 213 746 Q166 746 148.5 720 Q131 694 131 657 Q131 590 195 590 Z " />
<glyph glyph-name="uni207D" unicode="&#x207d;" horiz-adv-x="213" d="M207 865 L249 865 Q182 790 146.5 712 Q111 634 111 550 Q111 486 130.5 421 Q150 356 190 301 L147 301 Q108 359 90 422.5 Q72 486 72 546 Q72 715 207 865 Z " />
<glyph glyph-name="uni207E" unicode="&#x207e;" horiz-adv-x="212" d="M69 300 L27 300 Q164 451 164 615 Q164 679 145 743.5 Q126 808 87 864 L130 864 Q168 806 186 742 Q204 678 204 617 Q204 453 69 300 Z " />
<glyph glyph-name="uni2090" unicode="&#x2090;" horiz-adv-x="358" d="M302 289 Q295 266 289 244 Q283 222 281 199 L260 37 L305 37 L303 12 L289 0 L219 0 L221 59 Q207 32 182.5 12.5 Q158 -7 119 -7 Q70 -7 44.5 26.5 Q19 60 19 115 Q19 152 32 194 Q45 236 75 265.5 Q105 295 157 295 Q227 295 246 240 Q249 252 252 264.5 Q255 277 259 289 L302 289 Z M162 259 Q105 259 85 212.5 Q65 166 65 122 Q65 30 132 30 Q169 30 193.5 57 Q218 84 225 112 L235 192 Q234 222 213.5 240.5 Q193 259 162 259 Z " />
<glyph glyph-name="uni2091" unicode="&#x2091;" horiz-adv-x="308" d="M140 30 Q199 30 222 89 L257 80 Q247 45 215.5 19 Q184 -7 132 -7 Q19 -7 19 120 Q19 194 60 244.5 Q101 295 169 295 Q208 295 236.5 275.5 Q265 256 265 221 Q265 156 158 135 Q137 130 114 126.5 Q91 123 66 119 Q66 30 140 30 Z M139 162 Q186 172 202.5 185 Q219 198 219 218 Q219 241 203 251 Q187 261 164 261 Q117 261 94.5 226 Q72 191 67 150 Q91 152 108.5 155.5 Q126 159 139 162 Z " />
<glyph glyph-name="uni2095" unicode="&#x2095;" horiz-adv-x="364" d="M32 434 L46 447 L128 447 L101 237 Q118 263 142 279 Q166 295 201 295 Q243 295 268.5 269.5 Q294 244 286 185 L267 37 L318 37 L315 12 L301 0 L220 0 L241 172 Q251 259 183 259 Q143 259 120.5 233.5 Q98 208 94 175 L93 176 L71 0 L28 0 L79 410 L29 410 L32 434 Z " />
<glyph glyph-name="uni2096" unicode="&#x2096;" horiz-adv-x="319" d="M32 434 L46 447 L128 447 L92 168 L149 168 Q180 194 199 223.5 Q218 253 221 289 L266 289 Q260 208 174 153 L238 37 L282 37 L279 12 L265 0 L213 0 L139 134 L88 134 L71 0 L28 0 L79 410 L29 410 L32 434 Z " />
<glyph glyph-name="uni2097" unicode="&#x2097;" horiz-adv-x="175" d="M31 434 L45 447 L128 447 L75 37 L127 37 L124 12 L110 0 L28 0 L79 410 L28 410 L31 434 Z " />
<glyph glyph-name="uni2098" unicode="&#x2098;" horiz-adv-x="550" d="M34 289 L111 289 L109 237 Q125 263 148.5 279 Q172 295 207 295 Q276 295 288 232 Q323 295 389 295 Q487 295 473 185 L454 37 L505 37 L502 12 L488 0 L407 0 L428 172 Q438 259 371 259 Q334 259 314.5 237.5 Q295 216 289 187 L289 185 L266 0 L223 0 L245 172 Q251 222 234.5 240.5 Q218 259 189 259 Q123 259 106 193 L106 192 L81 0 L38 0 L69 253 L18 253 L21 276 L34 289 Z " />
<glyph glyph-name="uni2099" unicode="&#x2099;" horiz-adv-x="373" d="M34 289 L111 289 L109 238 Q146 295 210 295 Q253 295 277.5 269.5 Q302 244 295 185 L276 37 L328 37 L324 12 L311 0 L229 0 L251 172 Q262 259 194 259 Q157 259 134 237.5 Q111 216 104 185 L81 0 L38 0 L69 253 L18 253 L21 276 L34 289 Z " />
<glyph glyph-name="uni2092" unicode="&#x2092;" horiz-adv-x="336" d="M19 122 Q19 191 57 243 Q95 295 170 295 Q234 295 261.5 256.5 Q289 218 289 164 Q289 92 248.5 42.5 Q208 -7 136 -7 Q75 -7 47 29 Q19 65 19 122 Z M65 125 Q65 83 81 56.5 Q97 30 140 30 Q194 30 218 69.5 Q242 109 242 162 Q242 205 226 232 Q210 259 166 259 Q115 259 90 221 Q65 183 65 125 Z " />
<glyph glyph-name="uni209A" unicode="&#x209a;" horiz-adv-x="364" d="M132 -126 L119 -138 L-22 -138 L-19 -115 L-5 -102 L25 -102 L71 253 L18 253 L22 276 L35 289 L111 289 L109 227 Q123 254 147.5 274.5 Q172 295 213 295 Q262 295 289.5 262 Q317 229 317 171 Q317 134 304 93 Q291 52 261 22.5 Q231 -7 179 -7 Q109 -7 87 44 L68 -102 L135 -102 L132 -126 Z M173 30 Q230 30 250.5 78 Q271 126 271 165 Q271 259 200 259 Q157 259 132 226.5 Q107 194 103 162 L102 163 L96 113 L95 109 Q93 74 115 52 Q137 30 173 30 Z " />
<glyph glyph-name="uni209B" unicode="&#x209b;" horiz-adv-x="296" d="M119 30 Q192 30 192 81 Q192 109 170 117.5 Q148 126 114 135 Q85 142 60 157 Q35 172 35 209 Q35 251 66.5 273 Q98 295 138 295 Q164 295 189 290.5 Q214 286 241 269 L244 206 L206 201 L202 246 Q183 254 170.5 256.5 Q158 259 144 259 Q81 259 81 212 Q81 192 98 183 Q115 174 144 166 Q175 158 206.5 143.5 Q238 129 238 84 Q238 42 207 17.5 Q176 -7 127 -7 Q91 -7 62.5 3.5 Q34 14 17 27 L27 99 L63 95 L60 46 Q72 38 85 34 Q98 30 119 30 Z " />
<glyph glyph-name="uni209C" unicode="&#x209c;" horiz-adv-x="257" d="M21 277 L36 289 L73 289 L83 367 L99 382 L129 382 L117 289 L218 289 L215 266 L201 253 L113 253 L92 88 Q86 30 130 30 Q144 30 157 39.5 Q170 49 180 86 L212 75 Q192 -7 125 -7 Q83 -7 63 18 Q43 43 48 85 L69 253 L18 253 L21 277 Z " />
<glyph glyph-name="uni2093" unicode="&#x2093;" horiz-adv-x="340" d="M301 12 L286 0 L164 0 L167 24 L181 37 L211 37 L148 129 Q49 67 68 0 L20 0 Q7 46 46 82 Q85 118 133 148 L60 253 L16 253 L20 276 L33 289 L156 289 L154 264 L139 253 L109 253 L165 169 Q258 233 240 289 L287 289 Q302 250 263.5 214 Q225 178 181 149 L260 37 L304 37 L301 12 Z " />
<glyph glyph-name="uni208C" unicode="&#x208c;" horiz-adv-x="396" d="M46 235 L50 269 L344 269 L340 235 L46 235 Z M32 96 L35 130 L329 130 L326 96 L32 96 Z " />
<glyph glyph-name="uni208B" unicode="&#x208b;" horiz-adv-x="328" d="M39 166 L42 199 L269 199 L266 166 L39 166 Z " />
<glyph glyph-name="uni208A" unicode="&#x208a;" horiz-adv-x="291" d="M21 166 L24 199 L122 199 L133 296 L167 296 L156 199 L251 199 L248 166 L153 166 L143 70 L109 70 L119 166 L21 166 Z " />
<glyph glyph-name="uni2080" unicode="&#x2080;" horiz-adv-x="370" d="M30 151 Q30 190 42.5 241.5 Q55 293 90.5 331.5 Q126 370 195 370 Q270 370 295 322 Q320 274 320 212 Q320 133 286 63.5 Q252 -6 157 -6 Q86 -6 58 38.5 Q30 83 30 151 Z M79 155 Q79 100 96 66.5 Q113 33 160 33 Q219 33 245 83 Q271 133 271 213 Q271 264 256.5 297.5 Q242 331 192 331 Q132 331 105.5 282 Q79 233 79 155 Z " />
<glyph glyph-name="uni2081" unicode="&#x2081;" horiz-adv-x="250" d="M12 37 L86 37 L116 327 L42 327 L45 364 L166 364 L132 37 L204 37 L200 0 L7 0 L12 37 Z " />
<glyph glyph-name="uni2082" unicode="&#x2082;" horiz-adv-x="335" d="M78 255 L43 260 L60 330 Q103 370 169 370 Q224 370 251.5 343.5 Q279 317 279 280 Q279 230 238.5 182.5 Q198 135 148 96.5 Q98 58 71 37 L238 37 L252 91 L290 87 L271 0 L12 0 L11 33 Q58 70 108 110.5 Q158 151 192.5 193.5 Q227 236 227 278 Q227 301 212.5 317 Q198 333 159 333 Q125 333 99 315 L78 255 Z " />
<glyph glyph-name="uni2083" unicode="&#x2083;" horiz-adv-x="334" d="M85 262 L50 267 L65 329 Q88 350 117.5 359.5 Q147 369 175 369 Q218 369 248.5 348 Q279 327 279 287 Q279 259 259.5 232.5 Q240 206 194 194 L194 192 Q240 185 258.5 161.5 Q277 138 277 107 Q277 52 235 22.5 Q193 -7 138 -7 Q86 -7 53 18.5 Q20 44 19 90 L54 98 Q56 73 76.5 51.5 Q97 30 139 30 Q182 30 204.5 53.5 Q227 77 227 109 Q227 138 205.5 155 Q184 172 125 173 L128 205 Q184 208 207 230.5 Q230 253 230 280 Q230 332 166 332 Q134 332 103 314 L85 262 Z " />
<glyph glyph-name="uni2084" unicode="&#x2084;" horiz-adv-x="346" d="M181 0 L191 95 L10 95 L9 131 L168 364 L264 364 L239 130 L302 130 L294 95 L236 95 L226 0 L181 0 Z M186 327 L52 130 L195 130 L216 327 L186 327 Z " />
<glyph glyph-name="uni2085" unicode="&#x2085;" horiz-adv-x="328" d="M274 112 Q274 51 233.5 22 Q193 -7 138 -7 Q82 -7 50 20 Q18 47 16 90 L51 98 Q52 73 75.5 51.5 Q99 30 141 30 Q225 30 225 111 Q225 158 193.5 172.5 Q162 187 115 187 Q102 187 90 186.5 Q78 186 66 185 L51 198 L67 364 L283 364 L277 279 L241 275 L242 327 L107 327 L96 222 L124 222 Q185 222 229.5 199 Q274 176 274 112 Z " />
<glyph glyph-name="uni2086" unicode="&#x2086;" horiz-adv-x="343" d="M197 333 Q130 333 103.5 281.5 Q77 230 74 166 Q87 189 113 207.5 Q139 226 181 226 Q226 226 255 200 Q284 174 284 125 Q284 78 252.5 36 Q221 -6 149 -6 Q88 -6 58 34 Q28 74 28 141 Q28 232 70 301 Q112 370 194 370 Q216 370 244 361 Q272 352 296 320 L268 292 Q248 320 230 326.5 Q212 333 197 333 Z M172 189 Q123 189 101.5 164 Q80 139 75 115 Q78 77 95.5 55 Q113 33 154 33 Q200 33 218 58.5 Q236 84 236 122 Q236 189 172 189 Z " />
<glyph glyph-name="uni2087" unicode="&#x2087;" horiz-adv-x="300" d="M40 364 L283 364 L287 340 L107 0 L61 0 L237 327 L77 327 L70 265 L30 265 L40 364 Z " />
<glyph glyph-name="uni2088" unicode="&#x2088;" horiz-adv-x="347" d="M141 -6 Q88 -6 54 15.5 Q20 37 20 83 Q20 127 52 150.5 Q84 174 121 188 Q92 203 71 221.5 Q50 240 50 271 Q50 313 87.5 341.5 Q125 370 183 370 Q232 370 264 347.5 Q296 325 296 286 Q296 248 268 227 Q240 206 203 193 Q236 177 262.5 156.5 Q289 136 289 98 Q289 51 246.5 22.5 Q204 -6 141 -6 Z M100 277 Q100 252 121 237 Q142 222 170 209 Q201 222 225 238.5 Q249 255 249 283 Q249 308 229 321 Q209 334 179 334 Q146 334 123 318.5 Q100 303 100 277 Z M146 30 Q184 30 211.5 47 Q239 64 239 94 Q239 123 212.5 139.5 Q186 156 152 172 Q118 158 93 140 Q68 122 68 90 Q68 61 90 45.5 Q112 30 146 30 Z " />
<glyph glyph-name="uni2089" unicode="&#x2089;" horiz-adv-x="343" d="M127 31 Q194 31 220 82.5 Q246 134 249 198 Q237 175 210.5 156.5 Q184 138 143 138 Q98 138 69 164 Q40 190 40 239 Q40 286 71.5 328 Q103 370 175 370 Q236 370 266 330 Q296 290 296 223 Q296 132 255 63 Q214 -6 135 -6 Q113 -6 82.5 3 Q52 12 28 44 L56 72 Q73 47 92.5 39 Q112 31 127 31 Z M152 175 Q200 175 222 200 Q244 225 249 248 Q245 287 228 309 Q211 331 170 331 Q124 331 106 305.5 Q88 280 88 242 Q88 175 152 175 Z " />
<glyph glyph-name="uni208D" unicode="&#x208d;" horiz-adv-x="213" d="M163 450 L205 450 Q138 375 102.5 297 Q67 219 67 135 Q67 71 86.5 6 Q106 -59 146 -114 L103 -114 Q64 -56 46 7.5 Q28 71 28 131 Q28 300 163 450 Z " />
<glyph glyph-name="uni208E" unicode="&#x208e;" horiz-adv-x="212" d="M26 -115 L-16 -115 Q121 36 121 200 Q121 264 102 329 Q83 394 44 449 L87 449 Q125 390 143 327 Q161 264 161 202 Q161 38 26 -115 Z " />
<glyph glyph-name="uni2610" unicode="&#x2610;" horiz-adv-x="879" d="M101 0 L101 651 L778 651 L778 0 L101 0 Z M149 603 L149 47 L731 47 L731 603 L149 603 Z " />
<glyph glyph-name="uni2611" unicode="&#x2611;" horiz-adv-x="879" d="M101 0 L101 651 L778 651 L778 0 L101 0 Z M149 603 L149 47 L731 47 L731 603 L149 603 Z M295 317 L388 162 L597 563 L678 515 L386 104 L222 252 L295 317 Z " />
<glyph glyph-name="uni2713" unicode="&#x2713;" horiz-adv-x="623" d="M175 335 L273 172 L492 593 L577 542 L271 111 L99 266 L175 335 Z " />
<glyph glyph-name="uni2193" unicode="&#x2193;" horiz-adv-x="534" d="M489 254 L278 -21 L255 -21 L46 254 L99 254 L242 83 L242 698 L291 698 L291 84 L436 254 L489 254 Z " />
<glyph glyph-name="uni2190" unicode="&#x2190;" horiz-adv-x="765" d="M322 31 L46 239 L46 262 L321 474 L321 421 L151 275 L765 275 L765 227 L149 227 L322 84 L322 31 Z " />
<glyph glyph-name="uni2192" unicode="&#x2192;" horiz-adv-x="766" d="M720 239 L444 31 L444 84 L616 227 L0 227 L0 275 L615 275 L445 421 L445 474 L720 262 L720 239 Z " />
<glyph glyph-name="uni2191" unicode="&#x2191;" horiz-adv-x="534" d="M280 698 L489 422 L436 422 L293 594 L293 -21 L244 -21 L244 591 L99 423 L46 423 L258 698 L280 698 Z " />
<glyph glyph-name="uni2012" unicode="&#x2012;" horiz-adv-x="347" d="M347 275 L347 227 L0 227 L0 275 L347 275 Z " />
<glyph glyph-name="uni2196" unicode="&#x2196;" horiz-adv-x="626" d="M62 584 L404 536 L367 499 L145 518 L580 84 L545 50 L111 483 L128 261 L90 224 L46 569 L62 584 Z " />
<glyph glyph-name="uni2197" unicode="&#x2197;" horiz-adv-x="626" d="M221 536 L564 584 L580 569 L535 224 L497 261 L515 483 L81 50 L46 84 L480 518 L259 499 L221 536 Z " />
<glyph glyph-name="uni2198" unicode="&#x2198;" horiz-adv-x="626" d="M564 50 L221 98 L259 136 L480 115 L46 550 L81 584 L515 150 L497 373 L535 411 L580 65 L564 50 Z " />
<glyph glyph-name="uni2199" unicode="&#x2199;" horiz-adv-x="626" d="M404 98 L62 50 L46 65 L90 411 L128 373 L111 150 L545 584 L580 550 L145 115 L367 136 L404 98 Z " />
<glyph glyph-name="uni25B6" unicode="&#x25b6;" horiz-adv-x="591" d="M94 -35 L94 540 L553 252 L94 -35 Z " />
<glyph glyph-name="uni25B8" unicode="&#x25b8;" horiz-adv-x="418" d="M381 234 L94 -53 L94 522 L381 234 Z " />
<glyph glyph-name="uni25BA" unicode="&#x25ba;" horiz-adv-x="905" d="M864 234 L90 -53 L90 522 L864 234 Z " />
<glyph glyph-name="uni25C0" unicode="&#x25c0;" horiz-adv-x="591" d="M497 -35 L38 252 L497 540 L497 -35 Z " />
<glyph glyph-name="uni25C2" unicode="&#x25c2;" horiz-adv-x="418" d="M324 -53 L38 235 L324 522 L324 -53 Z " />
<glyph glyph-name="uni25C4" unicode="&#x25c4;" horiz-adv-x="906" d="M814 -53 L40 233 L814 522 L814 -53 Z " />
<glyph glyph-name="uni25B2" unicode="&#x25b2;" horiz-adv-x="650" d="M612 23 L38 23 L325 481 L612 23 Z " />
<glyph glyph-name="uni25BC" unicode="&#x25bc;" horiz-adv-x="650" d="M38 480 L612 480 L325 22 L38 480 Z " />
<glyph glyph-name="uni261C" unicode="&#x261c;" horiz-adv-x="927" d="M844 394 L844 42 L690 42 Q688 54 687.5 66.5 Q687 79 686 92 Q583 52 536.5 44 Q490 36 461 36 Q427 36 387 41 Q347 46 347 46 Q338 44 322 44 Q306 44 291 44 Q262 44 242 52.5 Q222 61 222 90 Q222 106 237 121 Q215 138 215 161 Q215 178 226 189 Q205 207 205 229 Q205 240 211 250 L109 251 Q75 251 62.5 267.5 Q50 284 50 302 Q50 323 64 338.5 Q78 354 109 354 L257 354 Q254 363 254 373 Q254 387 261 403 Q268 419 268 419 Q306 434 342.5 440.5 Q379 447 414 447 Q494 447 563 416.5 Q632 386 686 351 Q687 362 687.5 373 Q688 384 690 394 L844 394 Z M684 131 Q681 182 681 235 Q681 254 681.5 272.5 Q682 291 683 310 Q621 346 548.5 380.5 Q476 415 403 415 Q374 415 345 408.5 Q316 402 288 386 Q288 386 287.5 381.5 Q287 377 287 373 Q287 364 306 364 Q339 373 362 376 Q385 379 400 379 Q423 379 433 374.5 Q443 370 448 367 Q464 331 474.5 309.5 Q485 288 511 262 Q511 244 496 231 Q478 248 457 271 Q436 294 424 318 L106 318 Q83 318 83 302 Q83 287 106 287 L404 285 Q431 258 431 230 Q431 218 428 210 Q425 202 421 196 Q421 196 426 183.5 Q431 171 431 160 Q431 139 414 119 Q414 119 416 110.5 Q418 102 418 96 Q418 83 414 74 Q414 74 420 73 Q426 72 461 72 Q486 72 533.5 81 Q581 90 684 131 Z M391 248 L243 248 Q243 248 240 241 Q237 234 237 229 Q237 228 238.5 219.5 Q240 211 243 211 L395 207 Q395 212 394.5 228 Q394 244 391 248 Z M393 180 L253 180 Q253 180 249.5 173 Q246 166 246 161 Q246 147 253 143 L395 139 L395 156 Q395 161 394.5 170 Q394 179 393 180 Z M379 112 L261 112 Q261 112 258 103 Q255 94 255 92 Q255 77 291 77 Q298 77 306 77 Q314 77 322 78 Q331 78 339.5 78.5 Q348 79 355 79 L378 79 Q380 83 380 95 Q380 96 380 103 Q380 110 379 112 Z " />
<glyph glyph-name="uni261D" unicode="&#x261d;" horiz-adv-x="535" d="M72 -98 L72 56 L122 60 Q82 163 74 209.5 Q66 256 66 285 Q66 319 71 359 Q76 399 76 399 Q74 408 74 424 Q74 440 74 455 Q74 484 82.5 504 Q91 524 120 524 Q136 524 151 509 Q168 531 191 531 Q208 531 219 520 Q237 541 259 541 Q270 541 280 535 L281 637 Q281 671 297.5 683.5 Q314 696 332 696 Q353 696 368.5 682 Q384 668 384 637 L384 489 Q393 492 403 492 Q417 492 433 485 Q449 478 449 478 Q464 440 470.5 403.5 Q477 367 477 332 Q477 252 446.5 182.5 Q416 113 381 60 L424 56 L424 -98 L72 -98 Z M102 285 Q102 259 111 212 Q120 165 161 62 Q183 63 205.5 63.5 Q228 64 250 64 Q272 64 295 63.5 Q318 63 340 62 Q376 124 410.5 197 Q445 270 445 343 Q445 372 438.5 401 Q432 430 416 458 Q416 458 411.5 458.5 Q407 459 403 459 Q394 459 394 440 Q403 407 406 384 Q409 361 409 346 Q409 323 404.5 313 Q400 303 397 298 Q361 282 339.5 271.5 Q318 261 292 235 Q274 235 261 250 Q278 268 301 289 Q324 310 348 322 L348 640 Q348 663 332 663 Q317 663 317 640 L315 342 Q288 315 260 315 Q248 315 240 318 Q232 321 226 325 Q226 325 213.5 320 Q201 315 190 315 Q169 315 149 332 Q149 332 140.5 330 Q132 328 126 328 Q113 328 104 332 Q104 332 103 326 Q102 320 102 285 Z M278 355 L278 503 Q278 503 271 506 Q264 509 259 509 Q258 509 249.5 507.5 Q241 506 241 503 L237 351 Q242 351 258 351.5 Q274 352 278 355 Z M210 353 L210 493 Q210 493 203 496.5 Q196 500 191 500 Q177 500 173 493 L169 351 L186 351 Q191 351 200 351.5 Q209 352 210 353 Z M142 367 L142 485 Q142 485 133 488 Q124 491 122 491 Q107 491 107 455 Q107 448 107 440 Q107 432 108 424 Q108 415 108.5 406.5 Q109 398 109 391 L109 368 Q113 366 125 366 Q126 366 133 366 Q140 366 142 367 Z " />
<glyph glyph-name="uni261E" unicode="&#x261e;" horiz-adv-x="927" d="M83 42 L83 394 L237 394 L241 351 Q295 386 364 416.5 Q433 447 513 447 Q548 447 585 440.5 Q622 434 659 419 Q659 419 666 403 Q673 387 673 373 Q673 363 670 354 L818 354 Q850 354 863.5 338.5 Q877 323 877 302 Q877 284 864.5 267.5 Q852 251 818 251 L716 250 Q722 240 722 229 Q722 207 701 189 Q712 178 712 161 Q712 138 690 121 Q705 106 705 90 Q705 61 684.5 52.5 Q664 44 636 44 Q621 44 605 44 Q589 44 580 46 Q580 46 540 41 Q500 36 466 36 Q437 36 390.5 44 Q344 52 241 92 L237 42 L83 42 Z M524 415 Q450 415 377.5 380.5 Q305 346 243 310 Q244 288 244.5 265 Q245 242 245 220 Q245 198 244.5 175.5 Q244 153 243 131 Q345 90 392.5 81 Q440 72 466 72 Q500 72 506.5 73 Q513 74 513 74 Q509 83 509 96 Q509 102 511 110.5 Q513 119 513 119 Q496 139 496 160 Q496 171 501 183.5 Q506 196 506 196 Q502 202 499 210 Q496 218 496 230 Q496 258 523 285 L821 287 Q844 287 844 302 Q844 318 821 318 L503 318 Q491 294 470 271 Q449 248 431 231 Q416 244 416 262 Q442 288 452.5 309.5 Q463 331 479 367 Q484 370 494 374.5 Q504 379 527 379 Q542 379 565 376 Q588 373 621 364 Q640 364 640 373 Q640 377 639.5 381.5 Q639 386 639 386 Q611 402 582 408.5 Q553 415 524 415 Z M684 248 L536 248 Q533 244 532.5 228 Q532 212 532 207 L684 211 Q687 211 688.5 219.5 Q690 228 690 229 Q690 234 687 241 Q684 248 684 248 Z M674 180 L534 180 Q533 179 532.5 170 Q532 161 532 156 L532 139 L674 143 Q681 147 681 161 Q681 166 677.5 173 Q674 180 674 180 Z M666 112 L548 112 Q547 110 547 103 Q547 96 547 95 Q547 83 549 79 L572 79 Q579 79 587.5 78.5 Q596 78 605 78 Q612 77 620 77 Q628 77 636 77 Q672 77 672 92 Q672 94 669 103 Q666 112 666 112 Z " />
<glyph glyph-name="uni261F" unicode="&#x261f;" horiz-adv-x="536" d="M72 696 L424 696 L424 542 Q414 540 403 539.5 Q392 539 381 538 Q416 484 446.5 415 Q477 346 477 266 Q477 231 470.5 194.5 Q464 158 449 120 Q449 120 433 113 Q417 106 403 106 Q393 106 384 109 L384 -39 Q384 -70 368.5 -84 Q353 -98 332 -98 Q314 -98 297.5 -85.5 Q281 -73 281 -39 L280 63 Q270 57 259 57 Q237 57 219 78 Q208 67 191 67 Q168 67 151 89 Q136 74 120 74 Q91 74 82.5 94 Q74 114 74 143 Q74 158 74 174 Q74 190 76 199 Q76 199 71 239 Q66 279 66 313 Q66 342 74 388.5 Q82 435 122 538 Q109 539 96.5 539.5 Q84 540 72 542 L72 696 Z M340 535 Q321 534 302.5 533.5 Q284 533 265 533 Q212 533 161 536 Q120 433 111 385.5 Q102 338 102 313 Q102 278 103 272 Q104 266 104 266 Q113 270 126 270 Q132 270 140.5 268 Q149 266 149 266 Q169 283 190 283 Q201 283 213.5 278 Q226 273 226 273 Q232 277 240 280 Q248 283 260 283 Q288 283 315 256 L317 -42 Q317 -65 332 -65 Q348 -65 348 -42 L348 276 Q324 288 301 309 Q278 330 261 348 Q274 363 292 363 Q318 337 339.5 326.5 Q361 316 397 300 Q400 295 404.5 285 Q409 275 409 252 Q409 237 406 214 Q403 191 394 158 Q394 139 403 139 Q407 139 411.5 139.5 Q416 140 416 140 Q432 168 438.5 197 Q445 226 445 255 Q445 328 410.5 400.5 Q376 473 340 535 Z M278 95 L278 243 Q274 246 258 246.5 Q242 247 237 247 L241 95 Q241 92 249.5 90.5 Q258 89 259 89 Q264 89 271 92 Q278 95 278 95 Z M210 105 L210 245 Q209 246 200 246.5 Q191 247 186 247 L169 247 L173 105 Q177 98 191 98 Q196 98 203 101.5 Q210 105 210 105 Z M142 113 L142 231 Q140 232 133 232 Q126 232 125 232 Q113 232 109 230 L109 207 Q109 200 108.5 191.5 Q108 183 108 174 Q107 166 107 158 Q107 150 107 143 Q107 107 122 107 Q124 107 133 110 Q142 113 142 113 Z " />
<glyph glyph-name="uni261A" unicode="&#x261a;" horiz-adv-x="957" d="M875 394 L875 42 L721 42 Q720 54 719 66.5 Q718 79 717 92 Q614 52 567 44 Q520 36 492 36 Q458 36 418 41 Q378 46 378 46 Q369 44 353 44 Q337 44 322 44 Q294 44 273.5 52.5 Q253 61 253 90 Q253 106 268 121 Q246 138 246 161 Q246 178 257 189 Q236 207 236 229 Q236 240 242 250 L110 251 Q76 251 63.5 267.5 Q51 284 51 302 Q51 323 64.5 338.5 Q78 354 110 354 L278 354 Q276 358 276.5 373 Q277 388 289 405 Q337 410 367 424.5 Q397 439 429 439 Q509 439 577.5 413 Q646 387 716 347 Q717 358 718.5 370 Q720 382 721 394 L875 394 Z " />
<glyph glyph-name="uni261B" unicode="&#x261b;" horiz-adv-x="957" d="M82 42 L82 394 L236 394 L240 347 Q310 387 378.5 413 Q447 439 528 439 Q560 439 590 424.5 Q620 410 668 405 Q680 388 680 373 Q680 358 679 354 L847 354 Q878 354 892 338.5 Q906 323 906 302 Q906 284 893.5 267.5 Q881 251 847 251 L715 250 Q721 240 721 229 Q721 207 700 189 Q711 178 711 161 Q711 138 689 121 Q704 106 704 90 Q704 61 684 52.5 Q664 44 635 44 Q620 44 604 44 Q588 44 579 46 Q579 46 539 41 Q499 36 465 36 Q436 36 389.5 44 Q343 52 240 92 L236 42 L82 42 Z " />
</font>
</defs>
</svg>
